<svg width="30" height="30" viewBox="0 0 30 30" fill="none" xmlns="http://www.w3.org/2000/svg">
<path d="M1.55993 20.961H4.91865C4.82145 21.3229 4.76951 21.7012 4.76951 22.0849C4.76951 24.4745 6.72 26.4168 9.11899 26.4168C11.0679 26.4168 12.7195 25.1332 13.2724 23.374L27.4183 29.0587L27.4183 29.0587L27.4203 29.0595C27.5713 29.1176 27.726 29.15 27.8801 29.15C28.5553 29.15 29.15 28.585 29.15 27.8381L29.15 2.16185L29.15 2.16107C29.1461 1.41526 28.5557 0.85 27.8766 0.85C27.725 0.85 27.5693 0.877983 27.4143 0.941508C27.4141 0.941577 27.4139 0.941646 27.4138 0.941715L7.2702 9.03548H1.55993C1.16437 9.03548 0.85 9.36644 0.85 9.7664L0.85 20.2301C0.85 20.6301 1.16437 20.961 1.55993 20.961ZM7.78565 18.1413H3.66969V11.8552H7.78565H7.81475L7.84173 11.8443L8.29302 11.6624L8.29318 11.6623L26.3268 4.41702V25.5795L8.29318 18.3342L8.29302 18.3341L7.84173 18.1522L7.81475 18.1413H7.78565ZM9.11899 23.6077C8.27383 23.6077 7.5892 22.9253 7.5892 22.0849C7.5892 21.7645 7.68925 21.4575 7.87314 21.2023L10.633 22.3108C10.5201 23.0426 9.88452 23.6077 9.11899 23.6077Z" fill="black" stroke="black" stroke-width="0.3"/>
</svg>
