<svg width="32" height="32" viewBox="0 0 32 32" fill="none" xmlns="http://www.w3.org/2000/svg">
<path d="M0.75 30.0194V30.0194V4.92339C0.75 3.82009 1.16881 2.75984 1.91762 1.9764C2.66681 1.19257 3.68539 0.75 4.75 0.75H27.25C28.3146 0.75 29.3332 1.19257 30.0824 1.9764C30.8312 2.75984 31.25 3.82009 31.25 4.92339V20.617C31.25 21.7203 30.8312 22.7805 30.0824 23.5639C29.3332 24.3478 28.3146 24.7903 27.25 24.7903H9.27631C9.27629 24.7903 9.27627 24.7903 9.27625 24.7903C8.84907 24.7905 8.437 24.968 8.13138 25.2878L8.13135 25.2879L2.78219 30.8843L0.75 30.0194ZM0.75 30.0194C0.750049 30.2605 0.818412 30.497 0.947611 30.6991M0.75 30.0194L0.947611 30.6991M0.947611 30.6991C1.07688 30.9013 1.26174 31.0606 1.48014 31.1551M0.947611 30.6991L1.48014 31.1551M1.48014 31.1551C1.69868 31.2496 1.93982 31.2743 2.17251 31.2257M1.48014 31.1551L2.17251 31.2257M2.17251 31.2257C2.405 31.177 2.61686 31.0577 2.78198 30.8846L2.17251 31.2257ZM9.27625 22.3286H9.27619C8.21169 22.3289 7.19328 22.7716 6.44427 23.5555C6.44427 23.5555 6.44426 23.5555 6.44425 23.5555L3.125 27.0282V4.92339C3.125 4.46587 3.29882 4.02923 3.6049 3.709C3.91061 3.38916 4.32276 3.2117 4.75 3.2117H27.25C27.6772 3.2117 28.0894 3.38916 28.3951 3.709C28.7012 4.02923 28.875 4.46587 28.875 4.92339V20.617C28.875 21.0745 28.7012 21.5111 28.3951 21.8313C28.0894 22.1512 27.6772 22.3286 27.25 22.3286H9.27625Z" fill="black" stroke="black" stroke-width="0.5"/>
<path d="M6.71886 6.99956C6.49749 7.23116 6.375 7.54297 6.375 7.86586C6.375 8.18874 6.49749 8.50055 6.71886 8.73216C6.9406 8.96415 7.24382 9.0967 7.5625 9.0967H24.4375C24.7562 9.0967 25.0594 8.96415 25.2811 8.73216C25.5025 8.50055 25.625 8.18874 25.625 7.86586C25.625 7.54297 25.5025 7.23116 25.2811 6.99956C25.0594 6.76756 24.7562 6.63501 24.4375 6.63501H7.5625C7.24382 6.63501 6.9406 6.76757 6.71886 6.99956ZM6.71886 11.9038C6.49749 12.1354 6.375 12.4472 6.375 12.7701C6.375 13.093 6.49749 13.4048 6.71886 13.6364C6.9406 13.8684 7.24382 14.0009 7.5625 14.0009H24.4375C24.7562 14.0009 25.0594 13.8684 25.2811 13.6364C25.5025 13.4048 25.625 13.093 25.625 12.7701C25.625 12.4472 25.5025 12.1354 25.2811 11.9038C25.0594 11.6718 24.7562 11.5392 24.4375 11.5392H7.5625C7.24382 11.5392 6.9406 11.6718 6.71886 11.9038ZM6.71886 16.808C6.49749 17.0396 6.375 17.3514 6.375 17.6743C6.375 17.9972 6.49749 18.309 6.71886 18.5406C6.9406 18.7726 7.24382 18.9052 7.5625 18.9052H16.9375C17.2562 18.9052 17.5594 18.7726 17.7811 18.5406C18.0025 18.309 18.125 17.9972 18.125 17.6743C18.125 17.3514 18.0025 17.0396 17.7811 16.808C17.5594 16.576 17.2562 16.4435 16.9375 16.4435H7.5625C7.24382 16.4435 6.9406 16.576 6.71886 16.808Z" fill="black" stroke="black" stroke-width="0.5"/>
</svg>
