<svg width="32" height="32" viewBox="0 0 32 32" fill="none" xmlns="http://www.w3.org/2000/svg">
<path d="M24.0001 13.4081V27.2001H4.8001V8.0001H18.5921C18.4753 7.4849 18.4001 6.9521 18.4001 6.4001C18.4001 5.8481 18.4753 5.3153 18.5921 4.8001H4.8001C3.0369 4.8001 1.6001 6.2401 1.6001 8.0001V27.2001C1.6001 28.9601 3.0401 30.4001 4.8001 30.4001H24.0001C25.7601 30.4001 27.2001 28.9601 27.2001 27.2001V13.4081C26.6849 13.5249 26.1521 13.6001 25.6001 13.6001C25.0481 13.6001 24.5153 13.5249 24.0001 13.4081ZM25.6001 1.6001C24.9698 1.6001 24.3456 1.72425 23.7632 1.96548C23.1809 2.2067 22.6517 2.56026 22.206 3.00599C21.7603 3.45171 21.4067 3.98085 21.1655 4.56322C20.9243 5.14558 20.8001 5.76975 20.8001 6.4001C20.8001 7.03044 20.9243 7.65461 21.1655 8.23698C21.4067 8.81934 21.7603 9.34849 22.206 9.79421C22.6517 10.2399 23.1809 10.5935 23.7632 10.8347C24.3456 11.0759 24.9698 11.2001 25.6001 11.2001C26.8731 11.2001 28.094 10.6944 28.9942 9.79421C29.8944 8.89403 30.4001 7.67314 30.4001 6.4001C30.4001 5.12706 29.8944 3.90616 28.9942 3.00599C28.094 2.10581 26.8731 1.6001 25.6001 1.6001Z" fill="black"/>
</svg>
