<svg width="36" height="35" viewBox="0 0 36 35" fill="none" xmlns="http://www.w3.org/2000/svg">
<path d="M30 2.91675H6C4.35 2.91675 3.015 4.22925 3.015 5.83341L3 32.0834L9 26.2501H30C31.65 26.2501 33 24.9376 33 23.3334V5.83341C33 4.22925 31.65 2.91675 30 2.91675ZM30 23.3334H7.755L6.87 24.1938L6 25.0397V5.83341H30V23.3334ZM15.75 20.4167H27V17.5001H18.75L15.75 20.4167ZM21.54 11.8563C21.84 11.5647 21.84 11.1126 21.54 10.8209L18.885 8.23966C18.585 7.948 18.12 7.948 17.82 8.23966L9 16.8147V20.4167H12.705L21.54 11.8563Z" fill="black"/>
</svg>
