<svg width="30" height="30" viewBox="0 0 30 30" fill="none" xmlns="http://www.w3.org/2000/svg">
<path d="M18 11.1538L22.5 7.69231V16.9231L18 13.4615V16.9231H7.5V7.69231H18V11.1538ZM5.6445 21.5385H27V3.07692H3V23.6692L5.6445 21.5385ZM6.6825 24.6154L0 30V1.53846C0 1.13044 0.158035 0.739122 0.43934 0.450605C0.720644 0.162087 1.10218 0 1.5 0H28.5C28.8978 0 29.2794 0.162087 29.5607 0.450605C29.842 0.739122 30 1.13044 30 1.53846V23.0769C30 23.4849 29.842 23.8763 29.5607 24.1648C29.2794 24.4533 28.8978 24.6154 28.5 24.6154H6.6825Z" fill="black"/>
</svg>
