<svg xmlns="http://www.w3.org/2000/svg" xmlns:xlink="http://www.w3.org/1999/xlink" width="190" height="380" viewBox="0 0 190 380">
  <defs>
    <clipPath id="clip-path">
      <rect x="190" width="190" height="380" fill="none"/>
    </clipPath>
  </defs>
  <g id="Scroll_Group_19" data-name="Scroll Group 19" transform="translate(-190)" clip-path="url(#clip-path)" style="isolation: isolate">
    <path id="Subtraction_4" data-name="Subtraction 4" d="M190,380a191.4,191.4,0,0,1-38.292-3.86,188.96,188.96,0,0,1-67.939-28.589,190.556,190.556,0,0,1-68.838-83.595A189.041,189.041,0,0,1,3.86,228.292a191.85,191.85,0,0,1,0-76.583A188.959,188.959,0,0,1,32.449,83.769a190.555,190.555,0,0,1,83.595-68.838A189.044,189.044,0,0,1,151.709,3.86a191.85,191.85,0,0,1,76.583,0,188.959,188.959,0,0,1,67.939,28.589,190.555,190.555,0,0,1,68.838,83.595,189.048,189.048,0,0,1,11.071,35.665,191.851,191.851,0,0,1,0,76.583,188.961,188.961,0,0,1-28.589,67.939,190.555,190.555,0,0,1-83.595,68.838,189.046,189.046,0,0,1-35.665,11.071A191.4,191.4,0,0,1,190,380Zm0-276.186a85.916,85.916,0,1,0,33.547,6.773A85.647,85.647,0,0,0,190,103.815Z" transform="translate(0 0)" fill="#4081f5" opacity="0.15"/>
  </g>
</svg>
