<svg xmlns="http://www.w3.org/2000/svg" xmlns:xlink="http://www.w3.org/1999/xlink" width="97" height="97" viewBox="0 0 97 97">
  <defs>
    <clipPath id="clip-path">
      <rect y="97" width="97" height="97" fill="none"/>
    </clipPath>
  </defs>
  <g id="Scroll_Group_20" data-name="Scroll Group 20" transform="translate(0 -97)" clip-path="url(#clip-path)" style="isolation: isolate">
    <path id="Subtraction_3" data-name="Subtraction 3" d="M97,194a97.715,97.715,0,0,1-19.549-1.971,96.469,96.469,0,0,1-34.685-14.6A97.284,97.284,0,0,1,7.623,134.757a96.511,96.511,0,0,1-5.652-18.208,97.945,97.945,0,0,1,0-39.1,96.469,96.469,0,0,1,14.6-34.685A97.284,97.284,0,0,1,59.243,7.623,96.512,96.512,0,0,1,77.451,1.971a97.945,97.945,0,0,1,39.1,0,96.469,96.469,0,0,1,34.685,14.6,97.284,97.284,0,0,1,35.144,42.677,96.513,96.513,0,0,1,5.652,18.208,97.945,97.945,0,0,1,0,39.1,96.469,96.469,0,0,1-14.6,34.685,97.284,97.284,0,0,1-42.677,35.144,96.512,96.512,0,0,1-18.208,5.652A97.715,97.715,0,0,1,97,194ZM97,53a43.863,43.863,0,1,0,17.127,3.458A43.725,43.725,0,0,0,97,53Z" transform="translate(0 0)" fill="#598ff4" opacity="0.2"/>
  </g>
</svg>
