<svg xmlns="http://www.w3.org/2000/svg" xmlns:xlink="http://www.w3.org/1999/xlink" width="243" height="227" viewBox="0 0 243 227">
  <defs>
    <clipPath id="clip-path">
      <rect x="-22" y="-8" width="243" height="227" fill="none"/>
    </clipPath>
  </defs>
  <g id="Scroll_Group_15" data-name="Scroll Group 15" transform="translate(22 8)" clip-path="url(#clip-path)" style="isolation: isolate">
    <path id="Subtraction_5" data-name="Subtraction 5" d="M195.5,391a196.943,196.943,0,0,1-39.4-3.972,194.43,194.43,0,0,1-69.906-29.417A196.072,196.072,0,0,1,15.363,271.6,194.514,194.514,0,0,1,3.972,234.9a197.4,197.4,0,0,1,0-78.8A194.429,194.429,0,0,1,33.388,86.194,196.072,196.072,0,0,1,119.4,15.363,194.516,194.516,0,0,1,156.1,3.972a197.4,197.4,0,0,1,78.8,0,194.429,194.429,0,0,1,69.906,29.417A196.071,196.071,0,0,1,375.637,119.4a194.519,194.519,0,0,1,11.392,36.7,197.4,197.4,0,0,1,0,78.8,194.43,194.43,0,0,1-29.417,69.906A196.071,196.071,0,0,1,271.6,375.637a194.517,194.517,0,0,1-36.7,11.392A196.943,196.943,0,0,1,195.5,391Zm0-284.181a88.4,88.4,0,1,0,34.518,6.969A88.126,88.126,0,0,0,195.5,106.82Z" fill="#679af7" opacity="0.2"/>
  </g>
</svg>
