<svg xmlns="http://www.w3.org/2000/svg" xmlns:xlink="http://www.w3.org/1999/xlink" width="121" height="242" viewBox="0 0 121 242">
  <defs>
    <clipPath id="clip-path">
      <rect width="121" height="242" fill="none"/>
    </clipPath>
  </defs>
  <g id="Scroll_Group_21" data-name="Scroll Group 21" clip-path="url(#clip-path)" style="isolation: isolate">
    <path id="Subtraction_6" data-name="Subtraction 6" d="M121,242a121.9,121.9,0,0,1-24.386-2.458,120.338,120.338,0,0,1-43.267-18.207A121.354,121.354,0,0,1,9.509,168.1a120.39,120.39,0,0,1-7.05-22.713,122.179,122.179,0,0,1,0-48.771A120.337,120.337,0,0,1,20.665,53.348,121.354,121.354,0,0,1,73.9,9.509a120.391,120.391,0,0,1,22.713-7.05,122.179,122.179,0,0,1,48.771,0,120.337,120.337,0,0,1,43.267,18.207A121.353,121.353,0,0,1,232.492,73.9a120.4,120.4,0,0,1,7.051,22.713,122.179,122.179,0,0,1,0,48.771,120.338,120.338,0,0,1-18.207,43.267A121.353,121.353,0,0,1,168.1,232.492a120.394,120.394,0,0,1-22.713,7.051A121.9,121.9,0,0,1,121,242Zm0-175.887a54.715,54.715,0,1,0,21.364,4.313A54.544,54.544,0,0,0,121,66.114Z" fill="#4081f5" opacity="0.1"/>
  </g>
</svg>
