<svg xmlns="http://www.w3.org/2000/svg" xmlns:xlink="http://www.w3.org/1999/xlink" width="116" height="232" viewBox="0 0 116 232">
  <defs>
    <clipPath id="clip-path">
      <rect width="116" height="232" fill="none"/>
    </clipPath>
  </defs>
  <g id="Scroll_Group_23" data-name="Scroll Group 23" clip-path="url(#clip-path)" style="isolation: isolate">
    <path id="Subtraction_8" data-name="Subtraction 8" d="M116,232a116.859,116.859,0,0,1-23.378-2.357,115.365,115.365,0,0,1-41.479-17.454A116.34,116.34,0,0,1,9.116,161.153a115.415,115.415,0,0,1-6.759-21.774,117.13,117.13,0,0,1,0-46.756A115.364,115.364,0,0,1,19.811,51.143,116.339,116.339,0,0,1,70.848,9.116,115.416,115.416,0,0,1,92.622,2.357a117.13,117.13,0,0,1,46.756,0,115.364,115.364,0,0,1,41.479,17.454,116.339,116.339,0,0,1,42.028,51.037,115.421,115.421,0,0,1,6.759,21.774,117.131,117.131,0,0,1,0,46.756,115.365,115.365,0,0,1-17.454,41.479,116.339,116.339,0,0,1-51.037,42.028,115.421,115.421,0,0,1-21.774,6.759A116.859,116.859,0,0,1,116,232Zm0-168.619a52.454,52.454,0,1,0,20.481,4.135A52.29,52.29,0,0,0,116,63.382Z" fill="#fff" opacity="0.64"/>
  </g>
</svg>
