<svg xmlns="http://www.w3.org/2000/svg" xmlns:xlink="http://www.w3.org/1999/xlink" width="90" height="180" viewBox="0 0 90 180">
  <defs>
    <clipPath id="clip-path">
      <rect x="90" width="90" height="180" fill="none"/>
    </clipPath>
  </defs>
  <g id="Scroll_Group_24" data-name="Scroll Group 24" transform="translate(-90)" clip-path="url(#clip-path)" style="isolation: isolate">
    <path id="Subtraction_10" data-name="Subtraction 10" d="M90,180a90.667,90.667,0,0,1-18.138-1.828A89.507,89.507,0,0,1,39.68,164.63a90.264,90.264,0,0,1-32.608-39.6,89.546,89.546,0,0,1-5.244-16.894,90.877,90.877,0,0,1,0-36.276A89.507,89.507,0,0,1,15.371,39.68a90.263,90.263,0,0,1,39.6-32.608A89.547,89.547,0,0,1,71.862,1.828a90.877,90.877,0,0,1,36.276,0A89.507,89.507,0,0,1,140.32,15.371a90.263,90.263,0,0,1,32.608,39.6,89.552,89.552,0,0,1,5.244,16.894,90.878,90.878,0,0,1,0,36.276A89.507,89.507,0,0,1,164.63,140.32a90.263,90.263,0,0,1-39.6,32.608,89.551,89.551,0,0,1-16.894,5.244A90.667,90.667,0,0,1,90,180ZM90,49.175a40.7,40.7,0,1,0,15.891,3.208A40.57,40.57,0,0,0,90,49.175Z" transform="translate(0)" fill="#fff" opacity="0.64"/>
  </g>
</svg>
