<svg xmlns="http://www.w3.org/2000/svg" xmlns:xlink="http://www.w3.org/1999/xlink" width="110" height="249" viewBox="0 0 110 249">
  <defs>
    <clipPath id="clip-path">
      <rect width="110" height="249" fill="none"/>
    </clipPath>
  </defs>
  <g id="Scroll_Group_25" data-name="Scroll Group 25" clip-path="url(#clip-path)" style="isolation: isolate">
    <path id="Subtraction_7" data-name="Subtraction 7" d="M124.5,249a125.42,125.42,0,0,1-25.091-2.529,123.819,123.819,0,0,1-44.518-18.733A124.865,124.865,0,0,1,9.784,172.961a123.872,123.872,0,0,1-7.254-23.37,125.713,125.713,0,0,1,0-50.182A123.818,123.818,0,0,1,21.263,54.891,124.864,124.864,0,0,1,76.039,9.784a123.874,123.874,0,0,1,23.37-7.254,125.713,125.713,0,0,1,50.182,0,123.818,123.818,0,0,1,44.518,18.733,124.863,124.863,0,0,1,45.107,54.776,123.876,123.876,0,0,1,7.254,23.37,125.713,125.713,0,0,1,0,50.182,123.819,123.819,0,0,1-18.733,44.518,124.864,124.864,0,0,1-54.777,45.107,123.874,123.874,0,0,1-23.37,7.254A125.42,125.42,0,0,1,124.5,249Zm0-180.975a56.3,56.3,0,1,0,21.982,4.438A56.122,56.122,0,0,0,124.5,68.026Z" fill="#4081f5" opacity="0.1"/>
  </g>
</svg>
