<svg xmlns="http://www.w3.org/2000/svg" xmlns:xlink="http://www.w3.org/1999/xlink" width="107" height="54" viewBox="0 0 107 54">
  <defs>
    <clipPath id="clip-path">
      <rect width="107" height="54" fill="none"/>
    </clipPath>
  </defs>
  <g id="Scroll_Group_26" data-name="Scroll Group 26" clip-path="url(#clip-path)" style="isolation: isolate">
    <path id="Subtraction_11" data-name="Subtraction 11" d="M53.5,107a53.9,53.9,0,0,1-10.782-1.087,53.208,53.208,0,0,1-19.13-8.05A53.657,53.657,0,0,1,4.2,74.325,53.23,53.23,0,0,1,1.087,64.282a54.021,54.021,0,0,1,0-21.564,53.207,53.207,0,0,1,8.05-19.13A53.657,53.657,0,0,1,32.676,4.2,53.231,53.231,0,0,1,42.718,1.087a54.021,54.021,0,0,1,21.564,0,53.207,53.207,0,0,1,19.13,8.05A53.656,53.656,0,0,1,102.8,32.676a53.232,53.232,0,0,1,3.117,10.043,54.021,54.021,0,0,1,0,21.564,53.208,53.208,0,0,1-8.05,19.13A53.656,53.656,0,0,1,74.325,102.8a53.231,53.231,0,0,1-10.043,3.117A53.9,53.9,0,0,1,53.5,107Zm0-77.768a24.192,24.192,0,1,0,9.446,1.907A24.117,24.117,0,0,0,53.5,29.232Z" fill="#fff" opacity="0.1"/>
  </g>
</svg>
