<svg width="264" height="177" viewBox="0 0 264 177" fill="none" xmlns="http://www.w3.org/2000/svg">
<path d="M263 176C227.158 174.695 210.434 125.486 131.999 117.655C53.5659 109.825 44.1508 9.06076 1 1" stroke="black" stroke-opacity="0.19" stroke-width="2"/>
<path d="M263 89C234.776 85.4937 223.598 27.9926 172.5 25.3414C121.402 22.6903 105.57 1.24739 82 1" stroke="black" stroke-opacity="0.19" stroke-width="2"/>
<path d="M263 102.926C231.333 104.622 203.855 159.1 152.334 153.612C100.811 148.123 126.583 32.6476 97 1" stroke="black" stroke-opacity="0.19" stroke-width="2"/>
<path d="M263 176C229.341 174.999 197.535 130.128 137.667 119.559C77.7983 108.991 101.628 17.4611 75 1" stroke="black" stroke-opacity="0.19" stroke-width="2"/>
<path d="M263 84.5002C231.909 86.2922 199.003 144.431 153.249 142.36C107.493 140.289 125.574 30.8161 98.3726 5.56006" stroke="black" stroke-opacity="0.19" stroke-width="2"/>
</svg>
