<svg width="57" height="55" viewBox="0 0 57 55" fill="none" xmlns="http://www.w3.org/2000/svg">
<g clip-path="url(#clip0)">
<path d="M24.8388 42.8521L28.1875 46.0833L40.0625 34.625L28.1875 23.1667L24.8388 26.3979L30.9662 32.3333H8V36.9167H30.9662L24.8388 42.8521ZM46 14H12.75C11.4902 14 10.282 14.4829 9.39124 15.3424C8.50044 16.202 8 17.3678 8 18.5833V27.75H12.75V18.5833H46V50.6667H12.75V41.5H8V50.6667C8 51.8822 8.50044 53.048 9.39124 53.9076C10.282 54.7671 11.4902 55.25 12.75 55.25H46C48.6125 55.25 50.75 53.1875 50.75 50.6667V18.5833C50.75 16.0625 48.6125 14 46 14Z" fill="black"/>
</g>
<defs>
<clipPath id="clip0">
<rect width="57" height="55" fill="white"/>
</clipPath>
</defs>
</svg>
