<svg width="55" height="51" viewBox="0 0 55 51" fill="none" xmlns="http://www.w3.org/2000/svg">
<path d="M41.25 19.125C45.047 19.125 48.125 16.2708 48.125 12.75C48.125 9.22918 45.047 6.375 41.25 6.375C37.453 6.375 34.375 9.22918 34.375 12.75C34.375 16.2708 37.453 19.125 41.25 19.125Z" fill="black"/>
<path d="M41.25 40.375H11.4583V12.75H29.7917C29.7917 11.237 30.1423 9.80263 30.7588 8.5H11.4583C8.93062 8.5 6.875 10.4061 6.875 12.75V40.375C6.875 42.7189 8.93062 44.625 11.4583 44.625H41.25C43.7777 44.625 45.8333 42.7189 45.8333 40.375V22.4783C44.3892 23.0689 42.8283 23.3743 41.25 23.375V40.375Z" fill="black"/>
</svg>
