<svg width="56" height="51" viewBox="0 0 56 51" fill="none" xmlns="http://www.w3.org/2000/svg">
<path d="M56 22.0518L50.5867 17.1135L44.52 22.6477C44.24 22.9032 43.7733 22.9032 43.5867 22.6477L31.1733 11.3239C30.8933 11.0684 30.8933 10.6427 31.1733 10.4725L37.24 4.93823L31.8267 0L0 29.0334L5.41333 33.9716L11.2933 28.6077C11.5733 28.3523 12.04 28.3523 12.2267 28.6077L24.5467 39.8464C24.8267 40.1018 24.8267 40.5275 24.5467 40.6978L18.6667 46.0618L24.08 51L56 22.0518ZM48.8133 22.0518C48.5333 21.7963 48.5333 21.4558 48.8133 21.2855L50.68 19.5826C50.96 19.3272 51.3333 19.3272 51.52 19.5826L53.3867 21.2855C53.6667 21.5409 53.6667 21.8815 53.3867 22.0518L51.52 23.7546C51.24 24.01 50.8667 24.01 50.68 23.7546L48.8133 22.0518ZM29.96 4.85309C29.68 4.59766 29.68 4.2571 29.96 4.08681L31.8267 2.38397C32.1067 2.12855 32.48 2.12855 32.6667 2.38397L34.5333 4.08681C34.8133 4.34224 34.8133 4.6828 34.5333 4.85309L32.6667 6.55593C32.3867 6.81135 32.0133 6.81135 31.8267 6.55593L29.96 4.85309ZM7.09333 29.0334C7.37333 29.2888 7.37333 29.6294 7.09333 29.7997L5.22667 31.5025C4.94667 31.7579 4.57333 31.7579 4.38667 31.5025L2.52 29.7997C2.24 29.5442 2.24 29.2037 2.52 29.0334L4.38667 27.3305C4.66667 27.0751 5.04 27.0751 5.22667 27.3305L7.09333 29.0334ZM36.96 36.1853C37.24 36.4407 37.24 36.7813 36.96 36.9516L35.0933 38.6544C34.8133 38.9099 34.44 38.9099 34.2533 38.6544L32.3867 36.9516C32.1067 36.6962 32.1067 36.3556 32.3867 36.1853L34.2533 34.4825C34.5333 34.227 34.9067 34.227 35.0933 34.4825L36.96 36.1853ZM42.3733 31.1619C42.6533 31.4174 42.6533 31.7579 42.3733 31.9282L40.5067 33.6311C40.2267 33.8865 39.8533 33.8865 39.6667 33.6311L37.8 31.9282C37.52 31.6728 37.52 31.3322 37.8 31.1619L39.6667 29.4591C39.9467 29.2037 40.32 29.2037 40.5067 29.4591L42.3733 31.1619ZM24.4533 9.79132C24.1733 9.53589 24.1733 9.19533 24.4533 9.02504L26.32 7.3222C26.6 7.06678 26.9733 7.06678 27.16 7.3222L29.0267 9.02504C29.3067 9.28047 29.3067 9.62103 29.0267 9.79132L27.16 11.4942C26.88 11.7496 26.5067 11.7496 26.32 11.4942L24.4533 9.79132ZM43.3067 26.99C43.0267 26.7346 43.0267 26.394 43.3067 26.2237L45.1733 24.5209C45.4533 24.2654 45.8267 24.2654 46.0133 24.5209L47.88 26.2237C48.16 26.4791 48.16 26.8197 47.88 26.99L46.0133 28.6928C45.7333 28.9482 45.36 28.9482 45.1733 28.6928L43.3067 26.99ZM19.04 14.8147C18.76 14.5593 18.76 14.2187 19.04 14.0484L20.9067 12.3456C21.1867 12.0901 21.56 12.0901 21.7467 12.3456L23.6133 14.0484C23.8933 14.3038 23.8933 14.6444 23.6133 14.8147L21.7467 16.5175C21.4667 16.773 21.0933 16.773 20.9067 16.5175L19.04 14.8147ZM13.5333 19.8381C13.2533 19.5826 13.2533 19.2421 13.5333 19.0718L15.4 17.3689C15.68 17.1135 16.0533 17.1135 16.24 17.3689L18.1067 19.0718C18.3867 19.3272 18.3867 19.6678 18.1067 19.8381L16.24 21.5409C15.96 21.7963 15.5867 21.7963 15.4 21.5409L13.5333 19.8381ZM15.2133 25.9683C14.9333 25.7129 14.9333 25.2871 15.2133 25.1169L27.5333 13.8781C27.8133 13.6227 28.28 13.6227 28.4667 13.8781L40.7867 25.1169C41.0667 25.3723 41.0667 25.798 40.7867 25.9683L28.4667 37.207C28.1867 37.4624 27.72 37.4624 27.5333 37.207L15.2133 25.9683ZM8.02667 24.7763C7.74667 24.5209 7.74667 24.1803 8.02667 24.01L9.89333 22.3072C10.1733 22.0518 10.5467 22.0518 10.7333 22.3072L12.6 24.01C12.88 24.2654 12.88 24.606 12.6 24.7763L10.7333 26.4791C10.4533 26.7346 10.08 26.7346 9.89333 26.4791L8.02667 24.7763ZM26.88 41.975C26.6 41.7195 26.6 41.379 26.88 41.2087L28.7467 39.5058C29.0267 39.2504 29.4 39.2504 29.5867 39.5058L31.4533 41.2087C31.7333 41.4641 31.7333 41.8047 31.4533 41.975L29.5867 43.6778C29.3067 43.9332 28.9333 43.9332 28.7467 43.6778L26.88 41.975ZM21.3733 46.9983C21.0933 46.7429 21.0933 46.4023 21.3733 46.2321L23.24 44.5292C23.52 44.2738 23.8933 44.2738 24.08 44.5292L25.9467 46.2321C26.2267 46.4875 26.2267 46.828 25.9467 46.9983L24.08 48.7012C23.8 48.9566 23.4267 48.9566 23.24 48.7012L21.3733 46.9983Z" fill="black"/>
</svg>
