<svg width="64" height="42" viewBox="0 0 64 42" fill="none" xmlns="http://www.w3.org/2000/svg">
<path d="M14.4004 8.3999C12.2787 8.3999 10.2438 8.95303 8.74354 9.93759C7.24325 10.9222 6.40039 12.2575 6.40039 13.6499V19.6076C7.39239 19.2968 8.47079 19.0805 9.60039 18.9734V13.6499C9.60039 12.8145 10.1061 12.0133 11.0063 11.4225C11.9065 10.8318 13.1274 10.4999 14.4004 10.4999H36.8004C38.0734 10.4999 39.2943 10.8318 40.1945 11.4225C41.0947 12.0133 41.6004 12.8145 41.6004 13.6499V28.3499C41.6004 29.1853 41.0947 29.9866 40.1945 30.5773C39.2943 31.168 38.0734 31.4999 36.8004 31.4999H35.2004V33.5999H36.8004C38.9221 33.5999 40.957 33.0468 42.4572 32.0622C43.9575 31.0776 44.8004 29.7423 44.8004 28.3499V26.2499L52.4804 30.0299C52.9558 30.2639 53.5211 30.4064 54.113 30.4414C54.7049 30.4764 55.2999 30.4026 55.8315 30.2282C56.363 30.0538 56.81 29.7857 57.1225 29.4539C57.4349 29.1222 57.6004 28.7399 57.6004 28.3499V13.6499C57.6004 13.2599 57.4349 12.8776 57.1225 12.5459C56.81 12.2141 56.363 11.946 55.8315 11.7716C55.2999 11.5972 54.7049 11.5234 54.113 11.5584C53.5211 11.5934 52.9558 11.7359 52.4804 11.9699L44.8004 15.7499V13.6499C44.8004 12.2575 43.9575 10.9222 42.4572 9.93759C40.957 8.95303 38.9221 8.3999 36.8004 8.3999H14.4004ZM44.8004 18.3749L54.4004 13.6499V28.3499L44.8004 23.6249V18.3749Z" fill="black" stroke="black"/>
<path d="M3.2002 26.25C3.2002 24.8576 4.04305 23.5223 5.54334 22.5377C7.04363 21.5531 9.07846 21 11.2002 21H24.0002C26.1219 21 28.1568 21.5531 29.657 22.5377C31.1573 23.5223 32.0002 24.8576 32.0002 26.25V34.65C32.0002 36.0424 31.1573 37.3777 29.657 38.3623C28.1568 39.3469 26.1219 39.9 24.0002 39.9H11.2002C9.07846 39.9 7.04363 39.3469 5.54334 38.3623C4.04305 37.3777 3.2002 36.0424 3.2002 34.65V26.25ZM16.0642 26.3214C15.8567 26.2279 15.6156 26.1715 15.3647 26.1579C15.1138 26.1443 14.8619 26.1738 14.6338 26.2437C14.4465 26.2972 14.2769 26.3743 14.1346 26.4705C13.8365 26.671 13.6699 26.9401 13.6706 27.2202V33.6777C13.6685 33.8169 13.7084 33.955 13.788 34.0841C13.8676 34.2131 13.9854 34.3305 14.1346 34.4295C14.2817 34.525 14.4527 34.6031 14.6402 34.6605C14.9649 34.7581 15.3332 34.7731 15.6738 34.7025C15.8213 34.6707 15.9614 34.6254 16.0898 34.5681L23.437 31.2774C23.6604 31.1807 23.8405 31.0466 23.9586 30.8889C24.0802 30.73 24.1427 30.5546 24.141 30.3768C24.1393 30.199 24.0735 30.0241 23.949 29.8662C23.823 29.7105 23.6378 29.5789 23.4114 29.484L16.0642 26.3214Z" fill="black"/>
</svg>
