<svg width="54" height="50" viewBox="0 0 54 50" fill="none" xmlns="http://www.w3.org/2000/svg">
<path d="M9 22.9167H22.5C23.0967 22.9167 23.669 22.6972 24.091 22.3065C24.5129 21.9158 24.75 21.3859 24.75 20.8334V8.33339C24.75 7.78086 24.5129 7.25096 24.091 6.86026C23.669 6.46955 23.0967 6.25006 22.5 6.25006H9C8.40326 6.25006 7.83097 6.46955 7.40901 6.86026C6.98705 7.25096 6.75 7.78086 6.75 8.33339V20.8334C6.75 21.3859 6.98705 21.9158 7.40901 22.3065C7.83097 22.6972 8.40326 22.9167 9 22.9167ZM9 43.7501H22.5C23.0967 43.7501 23.669 43.5306 24.091 43.1399C24.5129 42.7492 24.75 42.2193 24.75 41.6667V29.1667C24.75 28.6142 24.5129 28.0843 24.091 27.6936C23.669 27.3029 23.0967 27.0834 22.5 27.0834H9C8.40326 27.0834 7.83097 27.3029 7.40901 27.6936C6.98705 28.0843 6.75 28.6142 6.75 29.1667V41.6667C6.75 42.2193 6.98705 42.7492 7.40901 43.1399C7.83097 43.5306 8.40326 43.7501 9 43.7501ZM31.5 43.7501H45C45.5967 43.7501 46.169 43.5306 46.591 43.1399C47.0129 42.7492 47.25 42.2193 47.25 41.6667V29.1667C47.25 28.6142 47.0129 28.0843 46.591 27.6936C46.169 27.3029 45.5967 27.0834 45 27.0834H31.5C30.9033 27.0834 30.331 27.3029 29.909 27.6936C29.4871 28.0843 29.25 28.6142 29.25 29.1667V41.6667C29.25 42.2193 29.4871 42.7492 29.909 43.1399C30.331 43.5306 30.9033 43.7501 31.5 43.7501ZM47.9092 13.1105L39.8407 5.63964C39.632 5.44601 39.384 5.29239 39.1111 5.18757C38.8381 5.08276 38.5455 5.02881 38.25 5.02881C37.9545 5.02881 37.6619 5.08276 37.3889 5.18757C37.116 5.29239 36.868 5.44601 36.6592 5.63964L28.5907 13.1105C28.3816 13.3038 28.2157 13.5334 28.1025 13.7861C27.9893 14.0389 27.931 14.3098 27.931 14.5834C27.931 14.857 27.9893 15.1279 28.1025 15.3807C28.2157 15.6334 28.3816 15.863 28.5907 16.0563L36.6592 23.5271C36.868 23.7208 37.116 23.8744 37.3889 23.9792C37.6619 24.084 37.9545 24.138 38.25 24.138C38.5455 24.138 38.8381 24.084 39.1111 23.9792C39.384 23.8744 39.632 23.7208 39.8407 23.5271L47.9092 16.0563C48.1184 15.863 48.2843 15.6334 48.3975 15.3807C48.5107 15.1279 48.5689 14.857 48.5689 14.5834C48.5689 14.3098 48.5107 14.0389 48.3975 13.7861C48.2843 13.5334 48.1184 13.3038 47.9092 13.1105Z" fill="black"/>
</svg>
