<svg width="52" height="52" viewBox="0 0 52 52" fill="none" xmlns="http://www.w3.org/2000/svg">
<path d="M9.45 45.3222C3.98807 40.6392 0.5 33.6875 0.5 25.975C0.5 11.9109 11.9243 0.5 26 0.5C40.0757 0.5 51.5 11.9109 51.5 25.975C51.5 33.6862 48.0134 40.6309 42.6567 45.3643C42.6549 45.3671 42.653 45.3699 42.651 45.3727C42.5911 45.4583 42.5202 45.5062 42.4961 45.5223C42.4899 45.5264 42.4846 45.53 42.4801 45.5329L42.457 45.5509C42.2258 45.7307 41.9831 45.9095 41.7462 46.0837L41.7163 46.1057C41.4879 46.2735 41.2657 46.4369 41.0553 46.5991L41.034 46.6155L41.0112 46.6295C40.9135 46.6893 40.8226 46.7594 40.7061 46.8496L40.703 46.852C40.5967 46.9343 40.4673 47.0346 40.3198 47.1243C36.1078 49.9768 31.1373 51.5011 26.0501 51.5L9.45 45.3222ZM9.45 45.3222V45.3508L9.64303 45.5009L9.64715 45.5041C10.0947 45.8522 10.553 46.2087 11.0633 46.5659L11.0777 46.576L11.0928 46.585C11.2312 46.668 11.3344 46.7559 11.4731 46.8739C11.5475 46.9371 11.632 47.0091 11.7377 47.0936L11.7531 47.1059L11.7694 47.117C15.9836 49.9742 20.9584 51.5011 26.0499 51.5L9.45 45.3222ZM15.4327 39.813L15.4322 39.8138C14.8898 40.7468 14.4701 41.7459 14.1837 42.7863C14.1099 43.0814 14.0414 43.3557 13.9921 43.6236C17.4128 45.9587 21.5202 47.353 25.9992 47.3531C30.3033 47.3463 34.5034 46.046 38.056 43.6247C37.9088 42.7766 37.6854 41.9668 37.3864 41.1968C36.7615 39.7118 35.8993 38.4199 34.8 37.3196C32.4357 35.0516 29.2798 33.7955 26.0035 33.8187L25.999 33.8188C24.8957 33.8166 23.7969 33.961 22.7316 34.248L15.4327 39.813ZM15.4327 39.813C15.9614 38.8998 16.582 38.0897 17.342 37.3773L17.3479 37.3718M15.4327 39.813L17.3479 37.3718M17.3479 37.3718L17.3536 37.3661M17.3479 37.3718L17.3536 37.3661M17.3536 37.3661C18.0723 36.6473 18.9387 35.9757 19.8056 35.4454M17.3536 37.3661L19.8056 35.4454M41.7867 40.3398C45.3838 36.4312 47.3939 31.3069 47.4 25.9744C47.3997 14.2138 37.7741 4.59687 26 4.59687C14.2257 4.59687 4.6 14.2141 4.6 25.975C4.6 31.522 6.74798 36.5453 10.2618 40.3837C10.7519 38.9787 11.4345 37.6475 12.2908 36.4283L12.2962 36.4206L12.2963 36.4206C13.2728 35.0843 14.4555 33.853 15.7946 32.8228C15.7948 32.8227 15.795 32.8226 15.7951 32.8224L16.1 33.2188L41.7867 40.3398ZM41.7867 40.3398C41.2901 38.9373 40.6092 37.6061 39.7613 36.3814C38.7965 34.979 37.6109 33.7423 36.2505 32.7192C35.442 32.1109 34.5805 31.5774 33.6768 31.1249C33.9672 30.8917 34.2436 30.6412 34.5045 30.3745C35.277 29.6114 35.9555 28.7586 36.5256 27.8344L36.5271 27.8318C37.6824 25.9338 38.2794 23.7488 38.25 21.5271C38.2653 19.8846 37.9459 18.2562 37.3112 16.7412L37.3095 16.7371C36.6826 15.277 35.7804 13.9513 34.6521 12.8325L34.6505 12.8309C33.5243 11.7243 32.199 10.8407 30.7444 10.2268L30.7426 10.2261C29.225 9.59245 27.5943 9.27416 25.9498 9.2906C24.3052 9.2752 22.6747 9.59454 21.1574 10.2292C19.687 10.8431 18.3556 11.7472 17.2428 12.8876C16.1365 14.0124 15.2532 15.3365 14.6394 16.7899L14.6388 16.7912C14.0037 18.3073 13.6842 19.9369 13.7 21.5806C13.7002 22.7245 13.8562 23.8213 14.1702 24.8658C14.4799 25.9485 14.8949 26.9373 15.4682 27.8741C16.001 28.83 16.7365 29.6655 17.4964 30.4254C17.769 30.698 18.0584 30.9517 18.3644 31.1878L41.7867 40.3398ZM19.8056 35.4454C20.7115 34.9216 21.6685 34.538 22.7301 34.2484L19.8056 35.4454ZM28.9948 14.3435C29.9454 14.7712 30.7936 15.3382 31.4965 16.038C32.1992 16.7407 32.7663 17.5889 33.1943 18.537C33.6107 19.4627 33.8 20.4908 33.8 21.5281C33.8 22.6174 33.6112 23.5958 33.1943 24.5193L33.1925 24.5233C32.7832 25.4518 32.2086 26.2982 31.4966 27.0212C30.7748 27.7307 29.9304 28.3035 29.0043 28.7117C27.0632 29.5077 24.8868 29.5077 22.9457 28.7117C22.019 28.3032 21.1742 27.73 20.4521 27.02C19.7438 26.3124 19.1865 25.4684 18.8141 24.539L18.7583 24.5498L18.8082 24.528C18.396 23.5841 18.1886 22.5635 18.2 21.5336H18.2V21.5281C18.2 20.4906 18.3893 19.4623 18.806 18.5364C19.2336 17.5861 19.8005 16.741 20.5036 16.0379C21.2057 15.3358 22.0535 14.7717 23.0052 14.3435C23.9309 13.9269 24.9592 13.7375 26 13.7375C27.0891 13.7375 28.0678 13.9263 28.9948 14.3435Z" fill="black" stroke="black"/>
</svg>
