<svg width="29" height="29" viewBox="0 0 29 29" fill="none" xmlns="http://www.w3.org/2000/svg">
<g clip-path="url(#clip0_145_355)">
<path d="M17.1468 8.30811C17.4397 8.01519 17.9146 8.01518 18.2075 8.3081L23.5112 13.6118C23.8041 13.9047 23.8041 14.3796 23.5112 14.6725L18.2074 19.9763C17.9145 20.2692 17.4396 20.2692 17.1467 19.9763C16.8538 19.6834 16.8538 19.2085 17.1467 18.9156L21.17 14.8922L5.30333 14.8922C4.88908 14.8922 4.55328 14.5564 4.55328 14.1422C4.55329 13.7279 4.8891 13.3921 5.30335 13.3921L21.17 13.3921L17.1468 9.36885C16.8538 9.07594 16.8538 8.60102 17.1468 8.30811Z" fill="#212121"/>
</g>
<defs>
<clipPath id="clip0_145_355">
<rect width="20" height="20" fill="white" transform="translate(14.1421) rotate(45)"/>
</clipPath>
</defs>
</svg>
