<svg width="949" height="350" viewBox="0 0 949 350" fill="none" xmlns="http://www.w3.org/2000/svg">
<path d="M1088.95 348.58C940.036 346.275 870.554 259.369 544.676 245.54C218.808 231.711 179.691 53.7548 0.410156 39.519" stroke="black" stroke-opacity="0.19" stroke-width="2"/>
<path d="M1127.15 192.579C993.962 184.953 941.216 59.8855 700.087 54.1192C458.958 48.3528 384.25 1.71368 273.023 1.1756" stroke="black" stroke-opacity="0.19" stroke-width="2"/>
<path d="M953.705 234.88C837.712 238.112 737.066 341.941 548.353 331.48C359.631 321.019 454.032 100.941 345.672 40.6248" stroke="black" stroke-opacity="0.19" stroke-width="2"/>
<path d="M1074.85 314.515C924.509 312.859 782.438 238.621 515.021 221.136C247.604 203.65 354.045 52.2168 235.104 24.9824" stroke="black" stroke-opacity="0.19" stroke-width="2"/>
<path d="M1181.21 182.407C1024.97 186.296 859.603 312.482 629.675 307.987C399.737 303.491 490.601 65.8891 353.905 11.0729" stroke="black" stroke-opacity="0.19" stroke-width="2"/>
</svg>
