<svg xmlns="http://www.w3.org/2000/svg" width="64.981" height="60" viewBox="0 0 64.981 60">
  <g id="live-chat" transform="translate(0 -19.623)">
    <g id="Group_10718" data-name="Group 10718" transform="translate(1.269 36.469)">
      <path id="Path_15562" data-name="Path 15562" d="M61.351,180.145V158.57H32.542a3.872,3.872,0,0,1-3.86-3.86v-2.356H12.813A2.822,2.822,0,0,0,10,155.166v28.285a2.822,2.822,0,0,0,2.813,2.813h5.076v8.048l14.743-8.048H58.538a2.827,2.827,0,0,0,2.813-2.813v-3.306Zm-11.7-7.476a3.36,3.36,0,1,1,3.357-3.36A3.359,3.359,0,0,1,49.656,172.669Zm-27.96-6.72a3.36,3.36,0,1,1-3.357,3.36A3.359,3.359,0,0,1,21.7,165.948Zm17.34,3.36a3.36,3.36,0,1,1-3.36-3.36A3.359,3.359,0,0,1,39.036,169.309Z" transform="translate(-10 -152.353)" fill="#66e0f7" fill-rule="evenodd"/>
    </g>
    <g id="Group_10719" data-name="Group 10719" transform="translate(9.608 50.064)">
      <path id="Path_15563" data-name="Path 15563" d="M82.423,262.835a3.358,3.358,0,1,0-3.36,3.36A3.359,3.359,0,0,0,82.423,262.835Z" transform="translate(-75.706 -259.475)" fill="#faf7f5" fill-rule="evenodd"/>
    </g>
    <g id="Group_10720" data-name="Group 10720" transform="translate(23.585 50.064)">
      <path id="Path_15564" data-name="Path 15564" d="M192.55,262.835a3.36,3.36,0,1,0-3.36,3.36A3.359,3.359,0,0,0,192.55,262.835Z" transform="translate(-185.83 -259.475)" fill="#faf7f5" fill-rule="evenodd"/>
    </g>
    <g id="Group_10721" data-name="Group 10721" transform="translate(37.565 50.064)">
      <path id="Path_15565" data-name="Path 15565" d="M302.7,262.835a3.358,3.358,0,1,0-3.357,3.36A3.359,3.359,0,0,0,302.7,262.835Z" transform="translate(-295.982 -259.475)" fill="#faf7f5" fill-rule="evenodd"/>
    </g>
    <g id="Group_10722" data-name="Group 10722" transform="translate(52.621 42.685)">
      <path id="Path_15566" data-name="Path 15566" d="M420.729,220.1V201.336H414.61v21.575h3.306A2.827,2.827,0,0,0,420.729,220.1Z" transform="translate(-414.61 -201.336)" fill="#ffcd69" fill-rule="evenodd"/>
    </g>
    <g id="Group_10723" data-name="Group 10723" transform="translate(7.389 30.349)">
      <path id="Path_15567" data-name="Path 15567" d="M70.779,110.255v-6.12H61.029a2.822,2.822,0,0,0-2.813,2.813v3.306Z" transform="translate(-58.216 -104.135)" fill="#ffcd69" fill-rule="evenodd"/>
    </g>
    <g id="Group_10724" data-name="Group 10724" transform="translate(19.951 20.966)">
      <path id="Path_15568" data-name="Path 15568" d="M197.1,30.207H161.06a3.872,3.872,0,0,0-3.86,3.86v14a3.872,3.872,0,0,0,3.86,3.86H197.1a3.873,3.873,0,0,0,3.864-3.86v-14A3.873,3.873,0,0,0,197.1,30.207Z" transform="translate(-157.2 -30.207)" fill="#ff7d97" fill-rule="evenodd"/>
    </g>
    <g id="Group_10725" data-name="Group 10725" transform="translate(0 19.623)">
      <path id="Path_15569" data-name="Path 15569" d="M180.459,248.892a4.629,4.629,0,1,0,4.629,4.629A4.635,4.635,0,0,0,180.459,248.892Zm0,6.72a2.091,2.091,0,1,1,2.091-2.091A2.093,2.093,0,0,1,180.459,255.612Z" transform="translate(-153.514 -219.794)"/>
      <path id="Path_15570" data-name="Path 15570" d="M290.61,248.892a4.629,4.629,0,1,0,4.626,4.629A4.635,4.635,0,0,0,290.61,248.892Zm0,6.72a2.091,2.091,0,1,1,2.087-2.091A2.093,2.093,0,0,1,290.61,255.612Z" transform="translate(-249.685 -219.794)"/>
      <path id="Path_15571" data-name="Path 15571" d="M59.848,19.623H47.53a1.269,1.269,0,1,0,0,2.538H59.848a2.6,2.6,0,0,1,2.595,2.591v14a2.6,2.6,0,0,1-2.595,2.591H23.811a2.594,2.594,0,0,1-2.591-2.591v-14a2.594,2.594,0,0,1,2.591-2.591H36.133a1.269,1.269,0,1,0,0-2.538H23.811a5.135,5.135,0,0,0-5.129,5.129v4.253H10.2A4.087,4.087,0,0,0,6.12,33.088v2.037H4.082A4.087,4.087,0,0,0,0,39.208V67.493a4.087,4.087,0,0,0,4.082,4.083H7.889v6.779a1.269,1.269,0,0,0,1.877,1.114l14.459-7.893H49.807a4.087,4.087,0,0,0,4.082-4.083V65.455h2.037a4.087,4.087,0,0,0,4.083-4.083v-17.5a5.136,5.136,0,0,0,4.972-5.125v-14a5.137,5.137,0,0,0-5.133-5.129ZM8.658,33.088A1.546,1.546,0,0,1,10.2,31.544h8.48v3.581H8.658Zm42.694,34.4a1.565,1.565,0,0,1-1.544,1.544H23.9a1.268,1.268,0,0,0-.608.155L10.428,76.215V70.306a1.269,1.269,0,0,0-1.269-1.269H4.082a1.546,1.546,0,0,1-1.544-1.544V39.208a1.546,1.546,0,0,1,1.544-1.544h14.6v1.087a5.135,5.135,0,0,0,5.129,5.129h27.54Zm4.575-4.575H53.89V43.88h3.581V61.373a1.565,1.565,0,0,1-1.544,1.544Z" transform="translate(0 -19.623)"/>
      <path id="Path_15572" data-name="Path 15572" d="M201.391,64.524a1.269,1.269,0,0,0-1.269,1.269V76.1a1.269,1.269,0,0,0,1.028,1.246,8.206,8.206,0,0,0,1.323.034c.554,0,1.359,0,2.538-.01A1.269,1.269,0,0,0,205,74.835H205c-.715,0-1.62.008-2.335.009V65.793A1.269,1.269,0,0,0,201.391,64.524Z" transform="translate(-174.723 -58.825)"/>
      <path id="Path_15573" data-name="Path 15573" d="M266.02,64.524a1.269,1.269,0,0,0-1.269,1.269V76.115a1.269,1.269,0,0,0,2.538,0V65.793A1.269,1.269,0,0,0,266.02,64.524Z" transform="translate(-231.15 -58.825)"/>
      <path id="Path_15574" data-name="Path 15574" d="M410.7,67.8a1.269,1.269,0,1,0,0-2.538h-4.31a1.269,1.269,0,0,0-1.269,1.269V76.759a1.269,1.269,0,0,0,1.269,1.269h4.31a1.269,1.269,0,1,0,0-2.538h-3.041V72.912h2.724a1.269,1.269,0,0,0,0-2.538h-2.724V67.8Z" transform="translate(-353.704 -59.47)"/>
      <path id="Path_15575" data-name="Path 15575" d="M312.142,76.377a1.5,1.5,0,0,0,1.416,1h0a1.5,1.5,0,0,0,1.416-1.013l0-.013,3.371-10.145a1.269,1.269,0,1,0-2.409-.8l-2.408,7.247-2.528-7.281a1.269,1.269,0,1,0-2.4.832Z" transform="translate(-269.382 -58.821)"/>
      <path id="Path_15576" data-name="Path 15576" d="M70.332,248.892a4.629,4.629,0,1,0,4.629,4.629A4.633,4.633,0,0,0,70.332,248.892Zm0,6.72a2.091,2.091,0,1,1,2.091-2.091A2.092,2.092,0,0,1,70.332,255.612Z" transform="translate(-57.367 -219.794)"/>
      <path id="Path_15577" data-name="Path 15577" d="M320.871,22.161h.007a1.273,1.273,0,1,0-.007,0Z" transform="translate(-279.039 -19.623)"/>
    </g>
  </g>
</svg>
