<svg width="39" height="51" viewBox="0 0 39 51" fill="none" xmlns="http://www.w3.org/2000/svg">
<circle cx="24.3334" cy="4" r="4" fill="#4285F4"/>
<rect x="1" y="3.33325" width="24.6667" height="46.6667" rx="4" stroke="black"/>
<path d="M18.75 17H7.91671C7.45647 17 7.08337 17.3731 7.08337 17.8333V26.1667C7.08337 26.6269 7.45647 27 7.91671 27H18.75C19.2103 27 19.5834 26.6269 19.5834 26.1667V17.8333C19.5834 17.3731 19.2103 17 18.75 17Z" stroke="black"/>
<path d="M10.4167 21.1667C10.8769 21.1667 11.25 20.7936 11.25 20.3333C11.25 19.8731 10.8769 19.5 10.4167 19.5C9.95647 19.5 9.58337 19.8731 9.58337 20.3333C9.58337 20.7936 9.95647 21.1667 10.4167 21.1667Z" fill="black"/>
<path d="M16.25 21.1667C16.7102 21.1667 17.0833 20.7936 17.0833 20.3333C17.0833 19.8731 16.7102 19.5 16.25 19.5C15.7897 19.5 15.4166 19.8731 15.4166 20.3333C15.4166 20.7936 15.7897 21.1667 16.25 21.1667Z" fill="black"/>
<path d="M11.6667 22.8333C11.4457 22.8333 11.2337 22.921 11.0775 23.0773C10.9212 23.2336 10.8334 23.4456 10.8334 23.6666C10.8334 23.8876 10.9212 24.0996 11.0775 24.2558C11.2337 24.4121 11.4457 24.4999 11.6667 24.4999V22.8333ZM15 24.4999C15.2211 24.4999 15.433 24.4121 15.5893 24.2558C15.7456 24.0996 15.8334 23.8876 15.8334 23.6666C15.8334 23.4456 15.7456 23.2336 15.5893 23.0773C15.433 22.921 15.2211 22.8333 15 22.8333V24.4999ZM11.6667 24.4999H15V22.8333H11.6667V24.4999Z" fill="black"/>
<path d="M13.3334 13.6667V17.0001" stroke="black" stroke-linecap="round" stroke-linejoin="round"/>
<path d="M5 20.3333V23.6666" stroke="black" stroke-linecap="round" stroke-linejoin="round"/>
<path d="M21.6666 20.3333V23.6666" stroke="black" stroke-linecap="round" stroke-linejoin="round"/>
<path d="M13.3333 13.6667C13.7936 13.6667 14.1667 13.2936 14.1667 12.8333C14.1667 12.3731 13.7936 12 13.3333 12C12.8731 12 12.5 12.3731 12.5 12.8333C12.5 13.2936 12.8731 13.6667 13.3333 13.6667Z" stroke="black"/>
<line x1="8.16663" y1="5.5" x2="18.5" y2="5.5" stroke="black" stroke-linecap="round"/>
<path d="M15.6666 32.5H37.8333V38.1667H14.1666V34C14.1666 33.1716 14.8382 32.5 15.6666 32.5Z" fill="white" stroke="black"/>
</svg>
