<svg width="39" height="51" viewBox="0 0 39 51" fill="none" xmlns="http://www.w3.org/2000/svg">
<circle cx="24.333" cy="4" r="4" fill="black"/>
<rect x="1" y="3.33334" width="24.6667" height="46.6667" rx="4" stroke="white"/>
<path d="M18.7497 17H7.91634C7.4561 17 7.08301 17.3731 7.08301 17.8333V26.1667C7.08301 26.6269 7.4561 27 7.91634 27H18.7497C19.2099 27 19.583 26.6269 19.583 26.1667V17.8333C19.583 17.3731 19.2099 17 18.7497 17Z" stroke="white"/>
<path d="M10.4163 21.1667C10.8766 21.1667 11.2497 20.7936 11.2497 20.3333C11.2497 19.8731 10.8766 19.5 10.4163 19.5C9.9561 19.5 9.58301 19.8731 9.58301 20.3333C9.58301 20.7936 9.9561 21.1667 10.4163 21.1667Z" fill="white"/>
<path d="M16.2503 21.1667C16.7106 21.1667 17.0837 20.7936 17.0837 20.3333C17.0837 19.8731 16.7106 19.5 16.2503 19.5C15.7901 19.5 15.417 19.8731 15.417 20.3333C15.417 20.7936 15.7901 21.1667 16.2503 21.1667Z" fill="white"/>
<path d="M11.6663 22.8333C11.4453 22.8333 11.2334 22.9211 11.0771 23.0774C10.9208 23.2337 10.833 23.4456 10.833 23.6667C10.833 23.8877 10.9208 24.0996 11.0771 24.2559C11.2334 24.4122 11.4453 24.5 11.6663 24.5V22.8333ZM14.9997 24.5C15.2207 24.5 15.4326 24.4122 15.5889 24.2559C15.7452 24.0996 15.833 23.8877 15.833 23.6667C15.833 23.4456 15.7452 23.2337 15.5889 23.0774C15.4326 22.9211 15.2207 22.8333 14.9997 22.8333V24.5ZM11.6663 24.5H14.9997V22.8333H11.6663V24.5Z" fill="white"/>
<path d="M13.333 13.6667V17" stroke="white" stroke-linecap="round" stroke-linejoin="round"/>
<path d="M5 20.3333V23.6667" stroke="white" stroke-linecap="round" stroke-linejoin="round"/>
<path d="M21.667 20.3333V23.6667" stroke="white" stroke-linecap="round" stroke-linejoin="round"/>
<path d="M13.3333 13.6667C13.7936 13.6667 14.1667 13.2936 14.1667 12.8333C14.1667 12.3731 13.7936 12 13.3333 12C12.8731 12 12.5 12.3731 12.5 12.8333C12.5 13.2936 12.8731 13.6667 13.3333 13.6667Z" stroke="white"/>
<line x1="8.16699" y1="5.5" x2="18.5003" y2="5.5" stroke="white" stroke-linecap="round"/>
<path d="M14.167 34C14.167 33.1716 14.8386 32.5 15.667 32.5H37.8337V38.1667H14.167V34Z" fill="#4285F4" stroke="white"/>
</svg>
