<svg width="32" height="51" viewBox="0 0 32 51" fill="none" xmlns="http://www.w3.org/2000/svg">
<circle cx="24.333" cy="4" r="4" fill="black"/>
<rect x="1" y="3.33337" width="24.6667" height="46.6667" rx="4" stroke="white"/>
<line x1="8.16699" y1="5.5" x2="18.5003" y2="5.5" stroke="white" stroke-linecap="round"/>
<path d="M11.5865 33.0554C11.4667 33.4312 11.4051 33.8296 11.4051 34.2346C11.4051 33.8296 11.4699 33.4312 11.5898 33.0554H11.5865ZM14.0582 24.6265H10.1094V30.7231H14.0582L14.4761 30.8915L31.3598 37.6748V17.6748L14.4761 24.4581L14.0582 24.6265Z" fill="#4285F4"/>
<path d="M29.1976 18C29.1026 18 29.0051 18.0175 28.9076 18.0575L14.4994 23.8468H10.4C10.18 23.8468 10 24.0317 10 24.2617V31.7358C10 31.9658 10.18 32.1507 10.4 32.1507H12.9421C12.8496 32.4407 12.7997 32.7482 12.7997 33.0606C12.7997 34.7079 14.1445 36.0477 15.7993 36.0477C17.1841 36.0477 18.3515 35.1079 18.6964 33.838L28.9101 37.9425C29.0076 37.98 29.1051 38 29.2001 38C29.6225 38 30 37.645 30 37.1701V18.8299C29.9975 18.355 29.6225 18 29.1976 18ZM15.7993 34.2555C15.1369 34.2555 14.5994 33.7205 14.5994 33.0606C14.5994 32.7807 14.6969 32.5132 14.8744 32.3007L16.9966 33.1531C16.9466 33.768 16.4292 34.2555 15.7993 34.2555ZM28.1977 35.7153L15.1694 30.4809L14.8469 30.351H11.7998V25.6465H14.8469L15.1694 25.5166L28.1977 20.2822V35.7153Z" fill="white"/>
</svg>
