<svg width="100" height="100" viewBox="0 0 100 100" fill="none" xmlns="http://www.w3.org/2000/svg">
<path d="M99.9701 56.3906C99.9701 58.1063 99.0795 59.4906 97.9842 59.4906H75.9998C74.8982 59.4906 74.0107 58.1047 74.0107 56.3906C74.0107 54.6813 74.8982 53.2891 75.9998 53.2891H97.9842C99.0779 53.2875 99.9686 54.6813 99.9686 56.3906" fill="black"/>
<path d="M76.5357 57.5422C76.5357 55.8266 77.4248 54.4391 78.5232 54.4391H99.5123C99.1498 53.7453 98.6014 53.2953 97.9842 53.2953H75.9998C74.8982 53.2953 74.0107 54.6891 74.0107 56.3969C74.0107 58.1125 74.8982 59.4969 75.9998 59.4969H76.9904C76.6828 58.8916 76.5257 58.2211 76.5326 57.5422" fill="black"/>
<path d="M96.5029 34C97.4451 35.4344 97.4654 37.0812 96.5435 37.6734L78.1013 49.5203C77.1795 50.1125 75.6716 49.4266 74.731 47.9922C73.7873 46.5547 73.7701 44.9078 74.692 44.3156L93.131 32.4687C94.0513 31.8766 95.5591 32.5656 96.5029 34Z" fill="black"/>
<path d="M77.4783 47.5906C76.5361 46.1562 76.5158 44.5062 77.4377 43.9172L95.0486 32.6C94.3595 32.2187 93.6517 32.1359 93.1314 32.4687L74.6924 44.3156C73.7705 44.9078 73.7892 46.5547 74.7314 47.9922C75.6736 49.4265 77.1799 50.1125 78.1017 49.5203L78.933 48.9828C78.3453 48.6396 77.847 48.1626 77.4783 47.5906Z" fill="black"/>
<path d="M96.5029 78.7969C97.4451 77.3625 97.4654 75.7156 96.5435 75.1266L78.1013 63.2797C77.1795 62.6828 75.6716 63.3688 74.731 64.8078C73.7873 66.2422 73.7701 67.8891 74.692 68.4813L93.131 80.3281C94.0513 80.9203 95.5591 80.2344 96.5029 78.7969Z" fill="black"/>
<path d="M77.4783 65.2016C76.5361 66.6438 76.5158 68.286 77.4377 68.8797L95.0486 80.1922C94.3595 80.5735 93.6517 80.661 93.1314 80.3235L74.6924 68.4766C73.7705 67.8844 73.7892 66.2375 74.7314 64.8031C75.6736 63.3641 77.1799 62.6797 78.1017 63.275L78.933 63.8078C78.408 64.1047 77.8877 64.5766 77.4783 65.2016Z" fill="black"/>
<path d="M63.6766 47.7438C64.6328 46.8781 64.5641 46.5172 64.9313 45.8453C65.4734 44.8625 65.4797 44.0375 65.1672 43.3094C61.5766 41.4031 58.4578 38.6234 57.1625 34.7297C56.6906 33.3156 56.5875 31.5891 56.6984 30.1078C56.7813 28.9719 56.1859 27.6344 55.4328 26.3453C55.1547 26.0094 54.8188 25.7047 54.4922 25.3953C55.0156 24.7859 55.6156 24.075 56.0234 22.8734C56.6406 21.1266 56.6266 16.5422 56.4672 14.6125C56.1516 10.8359 52.3156 9.34531 48.4484 8.10469C48.1563 8.01406 47.8828 8.35313 47.6578 8.92813C45.0938 8.81094 41.8781 9.75313 40.1766 9.87813C38.2891 10.0094 36.4313 10.0688 34.5797 10.1281C26.6375 13.0703 19.0969 12.5813 12.3469 19.4453C8.76719 23.0875 5.625 27.1031 2.17344 30.8422C3.51094 30.7938 4.84219 30.7656 6.23438 30.9109C7.01094 30.9938 6.67813 33.7734 6.4625 34.2172C4.98125 37.2578 2.50938 39.2891 0 41.3812C7.1875 45.5469 10.2016 53.2859 12.4188 61.2016C13.7744 61.9712 15.0759 62.8326 16.3141 63.7797C17.025 70.8734 17.7422 80.1984 17.375 85.1937C17.3063 85.8453 17.2266 86.4563 17.1188 86.9625C17.0906 87.1141 17.0156 87.3719 16.9313 87.6656C16.55 88.4797 15.6484 90.0109 15.0188 91.3797H53.7C53.0391 90.2672 52.2141 89.0891 51.8891 88.4172C51.8703 88.3141 51.8547 88.2031 51.8406 88.1297C51.2438 85.6594 50.7828 80.3016 50.6313 77.8203C50.6078 77.8063 50.5547 77.7859 50.5281 77.775L50.525 77.7578C54.5297 79.2 55.6109 79.7266 59.5141 80.0859C62.5141 80.3641 62.8156 77.3141 62.8875 76.9297C63.4484 74.0125 62.75 71.7531 63.0125 69.2094C63.1656 67.6813 64.7109 65.7063 64.1594 64.3859C63.7891 63.5 63.2063 62.6641 62.3469 61.8906C61.8891 61.4813 58.8188 61.8078 58.2625 61.4125C56.2281 59.9844 57.3172 60.0953 58.6469 58.5719C61.0875 56.6125 62.3063 56.1594 63.0125 54.4203C63.3797 53.5062 61.925 52.825 61.4156 51.7422C61.0797 51.025 61.6625 49.8813 61.6422 49.2703C61.9828 48.9594 63.3297 48.0656 63.6766 47.7469" fill="black"/>
</svg>
