<svg width="100" height="100" viewBox="0 0 100 100" fill="none" xmlns="http://www.w3.org/2000/svg">
<path d="M61.0748 26.085C61.0748 23.1312 59.9014 20.2983 57.8127 18.2096C55.724 16.1209 52.8912 14.9475 49.9373 14.9475C46.9835 14.9475 44.1506 16.1209 42.0619 18.2096C39.9732 20.2983 38.7998 23.1312 38.7998 26.085C38.7998 29.0389 39.9732 31.8717 42.0619 33.9604C44.1506 36.0491 46.9835 37.2225 49.9373 37.2225C52.8912 37.2225 55.724 36.0491 57.8127 33.9604C59.9014 31.8717 61.0748 29.0389 61.0748 26.085Z" fill="black"/>
<path d="M12.5801 60H27.5251V45.07L27.5651 44.17C27.6951 42.685 28.1551 41.295 28.8651 40.07H15.0801L14.4951 40.105C13.2788 40.2483 12.1574 40.833 11.3437 41.7481C10.5299 42.6633 10.0802 43.8453 10.0801 45.07V57.5C10.0801 58.163 10.3435 58.7989 10.8123 59.2678C11.2812 59.7366 11.917 60 12.5801 60Z" fill="black"/>
<path d="M89.9503 57.5C89.9503 58.163 89.6869 58.7989 89.218 59.2678C88.7492 59.7366 88.1133 60 87.4503 60H72.3703V45.07L72.3403 44.325C72.2311 42.8258 71.7832 41.371 71.0303 40.07H84.9503C86.1757 40.0703 87.3584 40.5206 88.2736 41.3355C89.1889 42.1503 89.7731 43.2728 89.9153 44.49L89.9503 45.07V57.5Z" fill="black"/>
<path d="M67.3354 44.49C67.1931 43.272 66.6082 42.1487 65.6919 41.3338C64.7756 40.5189 63.5917 40.0691 62.3654 40.07H37.5254L36.9404 40.105C35.7241 40.2483 34.6028 40.833 33.789 41.7481C32.9752 42.6633 32.5256 43.8453 32.5254 45.07V60H67.3654V45.07L67.3354 44.49Z" fill="black"/>
<path d="M74.8751 18.085C77.4126 18.085 79.8461 19.093 81.6404 20.8873C83.4346 22.6815 84.4426 25.1151 84.4426 27.6525C84.4426 30.19 83.4346 32.6235 81.6404 34.4178C79.8461 36.212 77.4126 37.22 74.8751 37.22C72.3377 37.22 69.9041 36.212 68.1099 34.4178C66.3156 32.6235 65.3076 30.19 65.3076 27.6525C65.3076 25.1151 66.3156 22.6815 68.1099 20.8873C69.9041 19.093 72.3377 18.085 74.8751 18.085Z" fill="black"/>
<path d="M34.6496 27.65C34.6496 25.1126 33.6416 22.679 31.8474 20.8848C30.0531 19.0905 27.6196 18.0825 25.0821 18.0825C22.5447 18.0825 20.1112 19.0905 18.3169 20.8848C16.5227 22.679 15.5146 25.1126 15.5146 27.65C15.5146 30.1868 16.5224 32.6197 18.3162 34.4135C20.11 36.2073 22.5429 37.215 25.0796 37.215C27.6164 37.215 30.0493 36.2073 31.8431 34.4135C33.6369 32.6197 34.6446 30.1868 34.6446 27.65H34.6496Z" fill="black"/>
<path d="M12.5 65C11.837 65 11.2011 65.2634 10.7322 65.7322C10.2634 66.2011 10 66.837 10 67.5V72.5C10 75.8152 11.317 78.9946 13.6612 81.3388C16.0054 83.683 19.1848 85 22.5 85H77.5C80.8152 85 83.9946 83.683 86.3388 81.3388C88.683 78.9946 90 75.8152 90 72.5V67.5C90 66.837 89.7366 66.2011 89.2678 65.7322C88.7989 65.2634 88.163 65 87.5 65H12.5Z" fill="black"/>
</svg>
