<svg width="36" height="51" viewBox="0 0 36 51" fill="none" xmlns="http://www.w3.org/2000/svg">
<circle cx="26.334" cy="4" r="4" fill="black"/>
<rect x="3" y="3.33337" width="24.6667" height="46.6667" rx="4" stroke="white"/>
<line x1="10.166" y1="5.5" x2="20.4993" y2="5.5" stroke="white" stroke-linecap="round"/>
<path d="M14.92 19.86V16.5C14.92 15.675 14.137 15 13.18 15H2.74C1.783 15 1 15.675 1 16.5V25.5C1 26.325 1.783 27 2.74 27H13.18C14.137 27 14.92 26.325 14.92 25.5V22.14L18.4 25.125V16.875L14.92 19.86ZM7.96 18C8.917 18 9.7 18.675 9.7 19.5C9.7 20.325 8.917 21 7.96 21C7.003 21 6.22 20.325 6.22 19.5C6.22 18.675 7.003 18 7.96 18ZM11.44 24H4.48V23.5725C4.48 22.965 4.8976 22.425 5.5414 22.185C6.30426 21.898 7.12765 21.7498 7.96 21.7498C8.79235 21.7498 9.61574 21.898 10.3786 22.185C10.6938 22.3011 10.9624 22.4946 11.1511 22.7413C11.3399 22.9879 11.4403 23.277 11.44 23.5725V24Z" fill="#4285F4" stroke="white"/>
<rect x="17.0607" y="38" width="12.6421" height="12.6421" rx="1.25" transform="rotate(-45 17.0607 38)" fill="#4285F4" stroke="white" stroke-width="1.5"/>
<path d="M30.2576 36.3292L27.5446 35.9349L26.3318 33.4762C26.2986 33.4088 26.2441 33.3543 26.1768 33.3212C26.008 33.2379 25.8028 33.3073 25.7184 33.4762L24.5056 35.9349L21.7926 36.3292C21.7178 36.3399 21.6494 36.3751 21.597 36.4286C21.5337 36.4936 21.4988 36.5812 21.5 36.6719C21.5012 36.7627 21.5384 36.8493 21.6034 36.9126L23.5663 38.8264L23.1026 41.5288C23.0917 41.5916 23.0987 41.6563 23.1227 41.7154C23.1467 41.7745 23.1868 41.8257 23.2384 41.8632C23.29 41.9007 23.3511 41.923 23.4147 41.9275C23.4784 41.932 23.542 41.9187 23.5984 41.8889L26.0251 40.613L28.4518 41.8889C28.518 41.9241 28.595 41.9359 28.6687 41.9231C28.8546 41.891 28.9796 41.7147 28.9476 41.5288L28.4838 38.8264L30.4468 36.9126C30.5002 36.8603 30.5354 36.7919 30.5461 36.7171C30.575 36.5301 30.4446 36.357 30.2576 36.3292ZM27.6578 38.5571L28.0436 40.8043L26.0251 39.7443L24.0066 40.8054L24.3923 38.5582L22.7596 36.966L25.0164 36.638L26.0251 34.5939L27.0338 36.638L29.2906 36.966L27.6578 38.5571Z" fill="white"/>
</svg>
