<svg width="36" height="51" viewBox="0 0 36 51" fill="none" xmlns="http://www.w3.org/2000/svg">
<circle cx="26.3334" cy="4" r="4" fill="#4285F4"/>
<rect x="3" y="3.3335" width="24.6667" height="46.6667" rx="4" stroke="black"/>
<line x1="10.1667" y1="5.5" x2="20.5001" y2="5.5" stroke="black" stroke-linecap="round"/>
<path d="M14.92 19.86V16.5C14.92 15.675 14.137 15 13.18 15H2.74C1.783 15 1 15.675 1 16.5V25.5C1 26.325 1.783 27 2.74 27H13.18C14.137 27 14.92 26.325 14.92 25.5V22.14L18.4 25.125V16.875L14.92 19.86ZM7.96 18C8.917 18 9.7 18.675 9.7 19.5C9.7 20.325 8.917 21 7.96 21C7.003 21 6.22 20.325 6.22 19.5C6.22 18.675 7.003 18 7.96 18ZM11.44 24H4.48V23.5725C4.48 22.965 4.8976 22.425 5.5414 22.185C6.30426 21.898 7.12765 21.7498 7.96 21.7498C8.79235 21.7498 9.61574 21.898 10.3786 22.185C10.6938 22.3011 10.9624 22.4946 11.1511 22.7413C11.3399 22.9879 11.4403 23.277 11.44 23.5725V24Z" fill="white" stroke="black"/>
<rect x="17.0607" y="38" width="12.6421" height="12.6421" rx="1.25" transform="rotate(-45 17.0607 38)" fill="white" stroke="black" stroke-width="1.5"/>
<path d="M30.2574 36.3291L27.5443 35.9348L26.3315 33.4761C26.2984 33.4088 26.2439 33.3543 26.1766 33.3212C26.0077 33.2378 25.8026 33.3073 25.7182 33.4761L24.5054 35.9348L21.7923 36.3291C21.7175 36.3398 21.6491 36.3751 21.5968 36.4285C21.5335 36.4936 21.4986 36.5811 21.4998 36.6719C21.501 36.7626 21.5382 36.8492 21.6032 36.9126L23.5661 38.8263L23.1024 41.5287C23.0915 41.5916 23.0984 41.6562 23.1224 41.7153C23.1464 41.7744 23.1865 41.8256 23.2381 41.8631C23.2898 41.9006 23.3508 41.9229 23.4145 41.9274C23.4781 41.932 23.5417 41.9186 23.5982 41.8888L26.0248 40.613L28.4515 41.8888C28.5178 41.9241 28.5947 41.9358 28.6684 41.923C28.8544 41.8909 28.9794 41.7146 28.9473 41.5287L28.4836 38.8263L30.4465 36.9126C30.4999 36.8602 30.5352 36.7918 30.5459 36.717C30.5747 36.53 30.4444 36.3569 30.2574 36.3291ZM27.6576 38.5571L28.0433 40.8042L26.0248 39.7442L24.0063 40.8053L24.3921 38.5581L22.7593 36.966L25.0161 36.6379L26.0248 34.5938L27.0336 36.6379L29.2903 36.966L27.6576 38.5571Z" fill="black"/>
</svg>
