<svg width="37" height="51" viewBox="0 0 37 51" fill="none" xmlns="http://www.w3.org/2000/svg">
<circle cx="29.3334" cy="4" r="4" fill="#4285F4"/>
<rect x="6" y="3.33337" width="24.6667" height="46.6667" rx="4" stroke="black"/>
<line x1="13.1667" y1="5.5" x2="23.5001" y2="5.5" stroke="black" stroke-linecap="round"/>
<path d="M2.86765 12C2.1071 12 1.3777 12.3021 0.839914 12.8399C0.302126 13.3777 0 14.1071 0 14.8676V24.1324C0 24.8929 0.302126 25.6223 0.839914 26.1601C1.3777 26.6979 2.1071 27 2.86765 27H12.1341C12.8947 27 13.6241 26.6979 14.1618 26.1601C14.6996 25.6223 15.0018 24.8929 15.0018 24.1324V22.7382L19.0085 25.4841C19.1741 25.5977 19.3676 25.6639 19.568 25.6756C19.7685 25.6873 19.9684 25.6441 20.146 25.5506C20.3237 25.457 20.4725 25.3168 20.5764 25.1449C20.6802 24.973 20.7352 24.7761 20.7353 24.5753V14.4238C20.735 14.2232 20.6801 14.0264 20.5763 13.8546C20.4725 13.6829 20.3238 13.5428 20.1462 13.4493C19.9687 13.3558 19.769 13.3125 19.5687 13.3241C19.3684 13.3357 19.175 13.4017 19.0094 13.515L15.0018 16.2591V14.8676C15.0018 14.1071 14.6996 13.3777 14.1618 12.8399C13.6241 12.3021 12.8947 12 12.1341 12H2.86765ZM15.0018 21.1341V17.8632L19.4118 14.8438V24.1562L15.0018 21.1341ZM13.6782 14.8676V24.1324C13.6782 24.5419 13.5156 24.9346 13.226 25.2242C12.9364 25.5138 12.5436 25.6765 12.1341 25.6765H2.86765C2.45812 25.6765 2.06537 25.5138 1.77579 25.2242C1.48621 24.9346 1.32353 24.5419 1.32353 24.1324V14.8676C1.32353 14.0153 2.01529 13.3235 2.86765 13.3235H12.1341C12.9874 13.3235 13.6782 14.0153 13.6782 14.8676Z" fill="black"/>
<rect x="1" y="13" width="13" height="13" rx="2" fill="white"/>
<rect x="25" y="26" width="11" height="19" rx="1" fill="white" stroke="black"/>
</svg>
