<svg width="56" height="53" viewBox="0 0 56 53" fill="none" xmlns="http://www.w3.org/2000/svg">
<path d="M27.9997 31.4688C25.9783 31.4704 23.9879 30.998 22.2066 30.0936C20.4253 29.1892 18.9086 27.8812 17.792 26.2863L20.7075 24.4529C21.5056 25.5919 22.5892 26.5263 23.8616 27.1727C25.134 27.8191 26.5556 28.1573 27.9997 28.1573C29.4438 28.1573 30.8655 27.8191 32.1379 27.1727C33.4103 26.5263 34.4939 25.5919 35.292 24.4529L38.2075 26.2863C37.0909 27.8812 35.5742 29.1892 33.7929 30.0936C32.0115 30.998 30.0212 31.4704 27.9997 31.4688Z" fill="black"/>
<path d="M35 13.2502C34.3078 13.2502 33.6311 13.4444 33.0555 13.8084C32.4799 14.1724 32.0313 14.6898 31.7664 15.295C31.5015 15.9003 31.4322 16.5663 31.5673 17.2089C31.7023 17.8515 32.0356 18.4417 32.5251 18.905C33.0146 19.3682 33.6383 19.6837 34.3172 19.8115C34.9961 19.9393 35.6999 19.8737 36.3394 19.623C36.9789 19.3723 37.5256 18.9477 37.9101 18.403C38.2947 17.8583 38.5 17.2178 38.5 16.5627C38.5047 16.1264 38.4174 15.6937 38.2431 15.2898C38.0689 14.8859 37.8113 14.519 37.4853 14.2105C37.1594 13.902 36.7717 13.6582 36.3449 13.4933C35.9182 13.3284 35.4609 13.2457 35 13.2502Z" fill="black"/>
<path d="M21 13.2502C20.3078 13.2502 19.6311 13.4444 19.0555 13.8084C18.4799 14.1724 18.0313 14.6898 17.7664 15.295C17.5015 15.9003 17.4322 16.5663 17.5673 17.2089C17.7023 17.8515 18.0356 18.4417 18.5251 18.905C19.0146 19.3682 19.6383 19.6837 20.3172 19.8115C20.9961 19.9393 21.6999 19.8737 22.3394 19.623C22.9789 19.3723 23.5256 18.9477 23.9101 18.403C24.2947 17.8583 24.5 17.2178 24.5 16.5627C24.5047 16.1264 24.4173 15.6937 24.2431 15.2898C24.0689 14.8859 23.8112 14.519 23.4853 14.2105C23.1594 13.902 22.7717 13.6582 22.3449 13.4933C21.9182 13.3284 21.4609 13.2457 21 13.2502Z" fill="black"/>
<path d="M31.038 49.6875L28 48.0312L35 36.4375H45.5C45.9598 36.4382 46.4153 36.3529 46.8402 36.1867C47.2652 36.0204 47.6513 35.7765 47.9764 35.4688C48.3016 35.161 48.5593 34.7956 48.735 34.3934C48.9106 33.9912 49.0007 33.5602 49 33.125V9.9375C49.0007 9.50231 48.9106 9.07127 48.735 8.66909C48.5593 8.2669 48.3016 7.90147 47.9764 7.59375C47.6513 7.28603 47.2652 7.04205 46.8402 6.87582C46.4153 6.70958 45.9598 6.62435 45.5 6.625H10.5C10.0402 6.62435 9.58474 6.70958 9.15979 6.87582C8.73484 7.04205 8.34873 7.28603 8.02359 7.59375C7.69844 7.90147 7.44066 8.2669 7.26501 8.66909C7.08937 9.07127 6.99931 9.50231 7 9.9375V33.125C6.99931 33.5602 7.08937 33.9912 7.26501 34.3934C7.44066 34.7956 7.69844 35.161 8.02359 35.4688C8.34873 35.7765 8.73484 36.0204 9.15979 36.1867C9.58474 36.3529 10.0402 36.4382 10.5 36.4375H26.25V39.75H10.5C8.64348 39.75 6.86301 39.052 5.55025 37.8096C4.2375 36.5672 3.5 34.8821 3.5 33.125V9.9375C3.49977 9.06743 3.68067 8.20585 4.03238 7.40197C4.38408 6.59809 4.89968 5.86766 5.54974 5.25243C6.1998 4.6372 6.97156 4.14922 7.82094 3.81636C8.67033 3.48349 9.58068 3.31228 10.5 3.3125H45.5C46.4193 3.31228 47.3297 3.48349 48.1791 3.81636C49.0284 4.14922 49.8002 4.6372 50.4503 5.25243C51.1003 5.86766 51.6159 6.59809 51.9676 7.40197C52.3193 8.20585 52.5002 9.06743 52.5 9.9375V33.125C52.5 34.8821 51.7625 36.5672 50.4497 37.8096C49.137 39.052 47.3565 39.75 45.5 39.75H37.0387L31.038 49.6875Z" fill="black"/>
</svg>
