<svg width="45" height="45" viewBox="0 0 45 45" fill="none" xmlns="http://www.w3.org/2000/svg">
<path d="M24.5829 18.1543L39.5036 3.21429H28.9286V9.45207e-07H45V16.0714H41.7857V5.49643L26.8457 20.4204L24.5829 18.1575V18.1543ZM35.2061 26.3925C36.5324 26.3925 37.8053 26.9158 38.7482 27.8486C39.1018 28.2021 39.4939 28.5686 39.9279 28.9543L41.31 30.1854C41.7921 30.6193 42.2454 31.0725 42.6632 31.5386C43.0811 32.0079 43.4764 32.4868 43.8461 32.9721C44.2125 33.4543 44.4889 33.975 44.6721 34.5279C44.8586 35.0807 44.9679 35.6336 45 36.1864C44.9988 37.5116 44.4757 38.783 43.5439 39.7254C42.6889 40.5804 41.9207 41.3325 41.2329 41.9882C40.5814 42.6133 39.8661 43.1681 39.0986 43.6436C38.3593 44.0936 37.5332 44.4311 36.6139 44.6496C35.5497 44.883 34.4634 45.0005 33.3739 45C31.4675 44.9874 29.573 44.6994 27.7489 44.145C25.7581 43.5499 23.8309 42.7596 21.9954 41.7857C20.0336 40.7463 18.1618 39.5454 16.3993 38.1954C14.5704 36.8029 12.8412 35.2842 11.2243 33.6504C9.60107 32.0111 8.09357 30.2754 6.705 28.4529C5.36215 26.702 4.17682 24.8358 3.16286 22.8761C2.2198 21.0515 1.44724 19.1438 0.855 17.1771C0.303343 15.3866 0.0153221 13.5253 0 11.6518C0 10.3789 0.109286 9.2925 0.327857 8.38607C0.530512 7.51871 0.868973 6.68883 1.33071 5.92714C1.78071 5.18786 2.33679 4.48072 2.98929 3.79286C3.64179 3.105 4.40357 2.32714 5.27143 1.45607C6.21516 0.522474 7.4893 -0.000811749 8.81679 9.45207e-07C9.6525 9.45207e-07 10.4561 0.225001 11.2275 0.675001C11.9989 1.13143 12.7446 1.68107 13.4646 2.33679C14.1814 2.98929 14.8468 3.67393 15.4479 4.39393C16.0489 5.11393 16.6179 5.73429 17.1514 6.25179C18.0842 7.19472 18.6075 8.46755 18.6075 9.79393C18.619 10.3956 18.5097 10.9935 18.2861 11.5521C18.0826 12.0474 17.8122 12.5124 17.4825 12.9343C17.1609 13.3382 16.8073 13.7155 16.425 14.0625C16.0393 14.4161 15.6889 14.7504 15.3707 15.0686C15.0754 15.3608 14.7984 15.671 14.5414 15.9975C14.3137 16.2806 14.1981 16.6375 14.2168 17.0004C14.2168 17.2029 14.3679 17.5211 14.6668 17.955C15.0549 18.4977 15.4745 19.0172 15.9236 19.5107C17.1719 20.9133 18.4702 22.2706 19.8161 23.58C20.5682 24.3193 21.2979 25.0264 22.0018 25.7143C22.7025 26.4021 23.3839 27.0546 24.0364 27.675C24.6889 28.2921 25.2418 28.8193 25.6918 29.2564C26.1418 29.6904 26.4954 30.0279 26.7461 30.2593C27.0324 30.5562 27.4161 30.7401 27.8269 30.7773C28.2377 30.8145 28.6482 30.7025 28.9832 30.4618C29.2821 30.2432 29.5939 29.9732 29.9121 29.6582C30.2304 29.3368 30.555 28.9864 30.8893 28.6007C31.2236 28.215 31.6093 27.8646 32.0464 27.5464C32.4804 27.2282 32.94 26.9518 33.4286 26.7171C33.9883 26.4704 34.5984 26.3592 35.2093 26.3925H35.2061ZM33.3739 41.7857C34.3961 41.7857 35.2479 41.6925 35.9357 41.5093C36.607 41.3317 37.2437 41.0427 37.8193 40.6543C38.3882 40.2686 38.9218 39.8186 39.4264 39.3011C39.9279 38.7804 40.5386 38.1696 41.2586 37.4689C41.6121 37.1154 41.7857 36.6975 41.7857 36.2121C41.7857 35.9936 41.6507 35.685 41.3839 35.28C41.0681 34.8148 40.7324 34.3633 40.3779 33.9268C39.9497 33.3944 39.488 32.8898 38.9957 32.4161C38.4814 31.9179 37.9768 31.455 37.4914 31.0371C37.069 30.6677 36.6247 30.3242 36.1607 30.0086C35.7589 29.7418 35.4407 29.6068 35.2061 29.6068C34.8464 29.6095 34.4962 29.7228 34.2032 29.9314C33.8648 30.1654 33.5523 30.4348 33.2711 30.735C32.9721 31.0564 32.6443 31.4068 32.2939 31.7925C31.9404 32.1782 31.5546 32.5286 31.1368 32.8468C30.7189 33.165 30.2593 33.4414 29.7546 33.6761C29.2028 33.9191 28.6019 34.0302 27.9996 34.0007C27.3402 34.0049 26.6866 33.8761 26.078 33.622C25.4695 33.368 24.9183 32.9939 24.4575 32.5221L12.4811 20.5393C12.0186 20.0801 11.6515 19.5339 11.4011 18.9321C11.1475 18.3179 11.0112 17.6616 10.9993 16.9971C10.9993 16.3446 11.1086 15.7661 11.3239 15.2646C11.5425 14.7632 11.8093 14.2939 12.1275 13.8568C12.4489 13.4229 12.7993 13.0468 13.185 12.7286C13.5707 12.4104 13.9211 12.0761 14.2393 11.7225C14.5575 11.3721 14.8339 11.0636 15.0686 10.7936C15.3053 10.5155 15.4221 10.1548 15.3932 9.79071C15.3932 9.57214 15.2582 9.26357 14.9914 8.85857C14.6799 8.39933 14.3452 7.95626 13.9886 7.53107C13.5517 7.00725 13.0904 6.5042 12.6064 6.02357C12.1258 5.53954 11.6228 5.07832 11.0989 4.64143C10.663 4.27765 10.2104 3.93442 9.7425 3.61286C9.32464 3.32679 9.01607 3.195 8.81357 3.21107C8.57564 3.20691 8.33937 3.25153 8.11935 3.34219C7.89933 3.43286 7.70021 3.56764 7.53429 3.73822C6.92728 4.34517 6.31655 4.9484 5.70214 5.54786C5.1941 6.03378 4.73938 6.57254 4.34571 7.155C3.96472 7.73142 3.68431 8.36832 3.51643 9.03857C3.31627 9.86909 3.21485 10.7203 3.21429 11.5746C3.21429 13.1818 3.47143 14.8371 3.99214 16.5439C4.54512 18.334 5.26843 20.0669 6.15214 21.7189C7.07464 23.4579 8.17714 25.1518 9.46607 26.7911C10.755 28.4304 12.1371 29.9957 13.6125 31.4839C16.5013 34.4071 19.7993 36.8952 23.4032 38.8704C25.0247 39.7549 26.733 40.4701 28.5011 41.0046C30.0813 41.4894 31.7214 41.7512 33.3739 41.7825V41.7857Z" fill="black"/>
</svg>
