<svg width="57" height="50" viewBox="0 0 57 50" fill="none" xmlns="http://www.w3.org/2000/svg">
<path d="M11.875 10.4168H16.625V14.5835H11.875V10.4168ZM2.375 2.0835H26.125V22.9168H2.375V2.0835ZM7.125 6.25016V18.7502H21.375V6.25016H7.125ZM11.875 35.4168H16.625V39.5835H11.875V35.4168ZM2.375 27.0835H26.125V47.9168H2.375V27.0835ZM7.125 31.2502V43.7502H21.375V31.2502H7.125ZM30.875 27.0835H40.375V31.2502H45.125V27.0835H54.625V31.2502H45.125V35.4168H54.625V47.9168H45.125V43.7502H35.625V47.9168H30.875V43.7502H35.625V39.5835H30.875V27.0835ZM49.875 43.7502V39.5835H45.125V43.7502H49.875ZM45.125 35.4168H40.375V31.2502H35.625V39.5835H45.125V35.4168ZM53.9125 6.97933L51.5375 9.06266L46.6688 4.896L49.0438 2.81266C49.5187 2.37516 50.3263 2.35433 50.8725 2.81266L53.9125 5.37516C54.4113 5.79183 54.435 6.50016 53.9125 6.97933ZM30.875 18.6252L45.2912 6.00016L50.16 10.271L35.7675 22.9168H30.875V18.6252Z" fill="black"/>
</svg>
