<svg width="22" height="22" viewBox="0 0 22 22" fill="none" xmlns="http://www.w3.org/2000/svg">
<path d="M7.06461 9.94427C7.34458 9.65135 7.5 9.25638 7.5 8.84678C7.5 8.43718 7.34458 8.04221 7.06461 7.74929C6.78427 7.45599 6.40156 7.28899 6 7.28899C5.59844 7.28899 5.21573 7.45599 4.93539 7.74929C4.65542 8.04221 4.5 8.43718 4.5 8.84678C4.5 9.25638 4.65542 9.65135 4.93539 9.94427C5.21573 10.2376 5.59844 10.4046 6 10.4046C6.40156 10.4046 6.78427 10.2376 7.06461 9.94427ZM12.0646 9.94427C12.3446 9.65135 12.5 9.25638 12.5 8.84678C12.5 8.43718 12.3446 8.04221 12.0646 7.74929C11.7843 7.45599 11.4016 7.28899 11 7.28899C10.5984 7.28899 10.2157 7.45599 9.93539 7.74929C9.65542 8.04221 9.5 8.43718 9.5 8.84678C9.5 9.25638 9.65542 9.65135 9.93539 9.94427C10.2157 10.2376 10.5984 10.4046 11 10.4046C11.4016 10.4046 11.7843 10.2376 12.0646 9.94427ZM17.0646 9.94427C17.3446 9.65135 17.5 9.25638 17.5 8.84678C17.5 8.43718 17.3446 8.04221 17.0646 7.74929C16.7843 7.45599 16.4016 7.28899 16 7.28899C15.5984 7.28899 15.2157 7.45599 14.9354 7.74929C14.6554 8.04221 14.5 8.43718 14.5 8.84678C14.5 9.25638 14.6554 9.65135 14.9354 9.94427C15.2157 10.2376 15.5984 10.4046 16 10.4046C16.4016 10.4046 16.7843 10.2376 17.0646 9.94427Z" fill="black" stroke="black" stroke-width="0.5"/>
<path d="M0.75 20.3463V20.3462V3.61559C0.75 2.85915 1.03711 2.13153 1.55151 1.59335C2.06627 1.05479 2.76691 0.75 3.5 0.75H18.5C19.2331 0.75 19.9337 1.05479 20.4485 1.59335C20.9629 2.13153 21.25 2.85915 21.25 3.61559V14.078C21.25 14.8344 20.9629 15.562 20.4485 16.1002C19.9337 16.6388 19.2331 16.9436 18.5 16.9436H6.51756C6.51754 16.9436 6.51752 16.9436 6.5175 16.9436C6.25606 16.9436 6.00294 17.0522 5.8145 17.2495L5.81448 17.2495L2.24844 20.9804L0.75 20.3463ZM0.75 20.3463C0.750036 20.5227 0.800041 20.696 0.894862 20.8443M0.75 20.3463L0.894862 20.8443M0.894862 20.8443C0.989754 20.9927 1.12577 21.1101 1.28701 21.1799M0.894862 20.8443L1.28701 21.1799M1.28701 21.1799C1.44842 21.2497 1.62668 21.268 1.79873 21.232M1.28701 21.1799L1.79873 21.232M1.79873 21.232C1.9706 21.1961 2.12678 21.1079 2.24823 20.9806L1.79873 21.232ZM6.5175 15.1358H6.51744C5.78443 15.1359 5.08391 15.4408 4.56927 15.9794C4.56927 15.9794 4.56926 15.9794 4.56925 15.9794L2.5 18.1444V3.61559C2.5 3.33149 2.60798 3.06118 2.79684 2.86358C2.98534 2.66637 3.23852 2.5578 3.5 2.5578H18.5C18.7615 2.5578 19.0147 2.66637 19.2032 2.86358C19.392 3.06118 19.5 3.33149 19.5 3.61559V14.078C19.5 14.3621 19.392 14.6324 19.2032 14.83C19.0147 15.0272 18.7615 15.1358 18.5 15.1358H6.5175Z" fill="black" stroke="black" stroke-width="0.5"/>
</svg>
