<svg width="27" height="25" viewBox="0 0 27 25" fill="none" xmlns="http://www.w3.org/2000/svg">
<path d="M25.65 5C25.292 5 24.9486 5.1317 24.6954 5.36612C24.4422 5.60054 24.3 5.91848 24.3 6.25V18.75C24.3 19.7446 23.8733 20.6984 23.1138 21.4017C22.3543 22.1049 21.3241 22.5 20.25 22.5H6.75C6.39196 22.5 6.04858 22.6317 5.79541 22.8661C5.54223 23.1005 5.4 23.4185 5.4 23.75C5.4 24.0815 5.54223 24.3995 5.79541 24.6339C6.04858 24.8683 6.39196 25 6.75 25H20.25C22.0402 25 23.7571 24.3415 25.023 23.1694C26.2888 21.9973 27 20.4076 27 18.75V6.25C27 5.91848 26.8578 5.60054 26.6046 5.36612C26.3514 5.1317 26.008 5 25.65 5ZM21.6 16.25V3.75C21.6 2.75544 21.1733 1.80161 20.4138 1.09835C19.6543 0.395088 18.6241 0 17.55 0H4.05C2.97587 0 1.94574 0.395088 1.18622 1.09835C0.426695 1.80161 0 2.75544 0 3.75V16.25C0 17.2446 0.426695 18.1984 1.18622 18.9017C1.94574 19.6049 2.97587 20 4.05 20H17.55C18.6241 20 19.6543 19.6049 20.4138 18.9017C21.1733 18.1984 21.6 17.2446 21.6 16.25ZM10.8 2.5H13.5V8.575L13.014 8.2C12.7714 8.01292 12.4657 7.91047 12.15 7.91047C11.8343 7.91047 11.5286 8.01292 11.286 8.2L10.8 8.575V2.5ZM2.7 16.25V3.75C2.7 3.41848 2.84223 3.10054 3.09541 2.86612C3.34858 2.6317 3.69196 2.5 4.05 2.5H8.1V11.25C8.09998 11.489 8.17394 11.7229 8.3131 11.9241C8.45227 12.1254 8.65081 12.2855 8.88521 12.3854C9.11962 12.4854 9.38005 12.5211 9.63567 12.4882C9.89129 12.4553 10.1314 12.3553 10.3275 12.2L12.15 10.7875L13.9725 12.2C14.217 12.3936 14.5282 12.5 14.85 12.5C15.0453 12.4987 15.2383 12.4604 15.417 12.3875C15.6513 12.2871 15.8497 12.1266 15.9884 11.9249C16.1272 11.7233 16.2006 11.4891 16.2 11.25V2.5H17.55C17.908 2.5 18.2514 2.6317 18.5046 2.86612C18.7578 3.10054 18.9 3.41848 18.9 3.75V16.25C18.9 16.5815 18.7578 16.8995 18.5046 17.1339C18.2514 17.3683 17.908 17.5 17.55 17.5H4.05C3.69196 17.5 3.34858 17.3683 3.09541 17.1339C2.84223 16.8995 2.7 16.5815 2.7 16.25Z" fill="black"/>
</svg>
