<svg width="33" height="27" viewBox="0 0 33 27" fill="none" xmlns="http://www.w3.org/2000/svg">
<g clip-path="url(#clip0)">
<path d="M5.5 6.75H2.75V22.5C2.75 23.7375 3.9875 24.75 5.5 24.75H24.75V22.5H5.5V6.75ZM27.5 2.25H11C9.4875 2.25 8.25 3.2625 8.25 4.5V18C8.25 19.2375 9.4875 20.25 11 20.25H27.5C29.0125 20.25 30.25 19.2375 30.25 18V4.5C30.25 3.2625 29.0125 2.25 27.5 2.25ZM27.5 18H11V4.5H27.5V18ZM13.75 10.125H24.75V12.375H13.75V10.125ZM13.75 13.5H19.25V15.75H13.75V13.5ZM13.75 6.75H24.75V9H13.75V6.75Z" fill="black"/>
</g>
<defs>
<clipPath id="clip0">
<rect width="33" height="27" fill="white"/>
</clipPath>
</defs>
</svg>
