<svg width="22" height="22" viewBox="0 0 22 22" fill="none" xmlns="http://www.w3.org/2000/svg">
<path d="M1.39995 15.3007H3.74366C3.6823 15.5463 3.64965 15.8017 3.64965 16.0606C3.64965 17.7913 5.06221 19.1977 6.79928 19.1977C8.19425 19.1977 9.37878 18.2896 9.7927 17.0384L19.8542 21.0817L19.8542 21.0817L19.8563 21.0825C19.9682 21.1256 20.084 21.15 20.2001 21.15C20.7063 21.15 21.15 20.727 21.15 20.1701L21.15 1.8299L21.15 1.82911C21.1471 1.27328 20.7067 0.85 20.1976 0.85C20.084 0.85 19.9673 0.87098 19.8512 0.9185C19.8511 0.918573 19.8509 0.918645 19.8507 0.918718L5.47043 6.69677H1.39995C1.09238 6.69677 0.85 6.95374 0.85 7.26172L0.85 14.7358C0.85 15.0438 1.09238 15.3007 1.39995 15.3007ZM5.84689 13.201H2.94978L2.94978 8.79654H5.84689H5.87599L5.90297 8.78567L6.22527 8.65575L6.22543 8.65568L19.0477 3.50413V18.4934L6.22543 13.3418L6.22527 13.3418L5.90297 13.2118L5.87599 13.201H5.84689ZM6.79928 17.1055C6.21909 17.1055 5.74943 16.6371 5.74943 16.0606C5.74943 15.8522 5.81114 15.652 5.92506 15.4827L7.83264 16.2489C7.7414 16.7347 7.31289 17.1055 6.79928 17.1055Z" fill="black" stroke="black" stroke-width="0.3"/>
</svg>
