<svg width="32" height="33" viewBox="0 0 32 33" fill="none" xmlns="http://www.w3.org/2000/svg">
<path d="M15.9792 4.93353C16.9242 4.93353 17.8306 5.32067 18.4988 6.00979C19.167 6.6989 19.5424 7.63353 19.5424 8.60808C19.5424 9.58264 19.167 10.5173 18.4988 11.2064C17.8306 11.8955 16.9242 12.2826 15.9792 12.2826C15.034 12.2826 14.1275 11.8954 13.4591 11.2061C12.7907 10.5169 12.4152 9.58203 12.4152 8.60726C12.4152 7.63249 12.7907 6.69764 13.4591 6.00838C14.1275 5.31911 15.034 4.93188 15.9792 4.93188V4.93353ZM15.9792 6.58353C15.4586 6.58353 14.9592 6.79683 14.591 7.17651C14.2229 7.55619 14.016 8.07114 14.016 8.60808C14.016 9.14503 14.2229 9.65998 14.591 10.0397C14.9592 10.4193 15.4586 10.6326 15.9792 10.6326C16.5001 10.6326 16.9997 10.4192 17.368 10.0394C17.7363 9.65958 17.9432 9.14442 17.9432 8.60726C17.9432 8.0701 17.7363 7.55493 17.368 7.1751C16.9997 6.79527 16.5001 6.58188 15.9792 6.58188V6.58353Z" fill="black"/>
<path d="M4.82562 18.975C4.82562 19.1938 4.74133 19.4037 4.5913 19.5584C4.44127 19.7131 4.23779 19.8 4.02562 19.8C3.81344 19.8 3.60996 19.7131 3.45993 19.5584C3.3099 19.4037 3.22562 19.1938 3.22562 18.975V14.8731C3.22567 14.469 3.36955 14.0789 3.62996 13.7769C3.89038 13.4749 4.24921 13.282 4.63842 13.2347L4.82562 13.2231H9.23682C9.00401 13.6374 8.86202 14.0992 8.82082 14.5761L8.80802 14.8731H4.82402V18.975H4.82562Z" fill="black"/>
<path d="M27.984 19.8C28.1962 19.8 28.3997 19.7131 28.5497 19.5584C28.6997 19.4037 28.784 19.1938 28.784 18.975V14.8731L28.7728 14.6817C28.7273 14.2801 28.5404 13.9096 28.2475 13.6407C27.9546 13.3719 27.5762 13.2232 27.184 13.2231H22.7296C22.9632 13.6406 23.1136 14.1191 23.1488 14.6273L23.1568 14.8748H27.184V18.975C27.184 19.1938 27.2683 19.4037 27.4183 19.5584C27.5684 19.7131 27.7718 19.8 27.984 19.8Z" fill="black"/>
<path d="M19.9568 13.2231C20.3492 13.2228 20.7281 13.3713 21.0213 13.6402C21.3145 13.9091 21.5017 14.2798 21.5472 14.6817L21.5568 14.8731V18.975C21.5568 19.1938 21.4725 19.4037 21.3225 19.5584C21.1725 19.7131 20.969 19.8 20.7568 19.8C20.5446 19.8 20.3412 19.7131 20.1911 19.5584C20.0411 19.4037 19.9568 19.1938 19.9568 18.975V14.8731H12.008V18.975C12.008 19.1938 11.9237 19.4037 11.7737 19.5584C11.6237 19.7131 11.4202 19.8 11.208 19.8C10.9958 19.8 10.7924 19.7131 10.6423 19.5584C10.4923 19.4037 10.408 19.1938 10.408 18.975V14.8731C10.4081 14.469 10.5519 14.0789 10.8124 13.7769C11.0728 13.4749 11.4316 13.282 11.8208 13.2347L12.008 13.2231H19.9568Z" fill="black"/>
<path d="M27.0208 9.1245C27.0208 8.28714 26.6982 7.48407 26.1241 6.89197C25.5499 6.29987 24.7712 5.96722 23.9592 5.96722C23.1472 5.96722 22.3685 6.29987 21.7943 6.89197C21.2201 7.48407 20.8976 8.28714 20.8976 9.1245C20.8976 9.96186 21.2201 10.7649 21.7943 11.357C22.3685 11.9491 23.1472 12.2818 23.9592 12.2818C24.7712 12.2818 25.5499 11.9491 26.1241 11.357C26.6982 10.7649 27.0208 9.96186 27.0208 9.1245ZM22.4976 9.1245C22.4976 8.72475 22.6516 8.34136 22.9257 8.05869C23.1998 7.77603 23.5715 7.61722 23.9592 7.61722C24.3468 7.61722 24.7186 7.77603 24.9927 8.05869C25.2668 8.34136 25.4208 8.72475 25.4208 9.1245C25.4208 9.52425 25.2668 9.90763 24.9927 10.1903C24.7186 10.473 24.3468 10.6318 23.9592 10.6318C23.5715 10.6318 23.1998 10.473 22.9257 10.1903C22.6516 9.90763 22.4976 9.52425 22.4976 9.1245Z" fill="black"/>
<path d="M8.02559 5.96814C8.83758 5.96814 9.61631 6.30078 10.1905 6.89288C10.7646 7.48499 11.0872 8.28805 11.0872 9.12541C11.0872 9.96278 10.7646 10.7658 10.1905 11.3579C9.61631 11.95 8.83758 12.2827 8.02559 12.2827C7.2136 12.2827 6.43487 11.95 5.86071 11.3579C5.28655 10.7658 4.96399 9.96278 4.96399 9.12541C4.96399 8.28805 5.28655 7.48499 5.86071 6.89288C6.43487 6.30078 7.2136 5.96814 8.02559 5.96814ZM8.02559 7.61814C7.63795 7.61814 7.26619 7.77694 6.99208 8.05961C6.71798 8.34228 6.56399 8.72566 6.56399 9.12541C6.56399 9.52517 6.71798 9.90855 6.99208 10.1912C7.26619 10.4739 7.63795 10.6327 8.02559 10.6327C8.41323 10.6327 8.78499 10.4739 9.0591 10.1912C9.3332 9.90855 9.48719 9.52517 9.48719 9.12541C9.48719 8.72566 9.3332 8.34228 9.0591 8.05961C8.78499 7.77694 8.41323 7.61814 8.02559 7.61814Z" fill="black"/>
<path d="M4.00001 21.45C3.78784 21.45 3.58436 21.5369 3.43433 21.6916C3.2843 21.8464 3.20001 22.0562 3.20001 22.275V23.925C3.20001 25.019 3.62144 26.0682 4.37159 26.8418C5.12173 27.6154 6.13915 28.05 7.20001 28.05H24.8C25.8609 28.05 26.8783 27.6154 27.6284 26.8418C28.3786 26.0682 28.8 25.019 28.8 23.925V22.275C28.8 22.0562 28.7157 21.8464 28.5657 21.6916C28.4157 21.5369 28.2122 21.45 28 21.45H4.00001ZM4.80001 23.925V23.1H27.2V23.925C27.2 24.5814 26.9472 25.211 26.4971 25.6751C26.047 26.1393 25.4365 26.4 24.8 26.4H7.20001C6.56349 26.4 5.95304 26.1393 5.50296 25.6751C5.05287 25.211 4.80001 24.5814 4.80001 23.925Z" fill="black"/>
</svg>
