<svg width="29" height="24" viewBox="0 0 29 24" fill="none" xmlns="http://www.w3.org/2000/svg">
<path d="M25.6952 1.00011H15.1586C14.8972 1.00011 14.6713 1.09663 14.5001 1.25701C14.317 1.0877 14.0828 0.99633 13.8415 1.00011H3.30494C2.73268 1.00011 2.31714 1.44792 2.31714 2.06462V21.9355C2.31714 22.5522 2.73268 23 3.30494 23H13.8415C14.103 23 14.3288 22.9035 14.5001 22.7431C14.6713 22.9035 14.8972 23 15.1586 23H25.6952C26.2675 23 26.683 22.5522 26.683 21.9355V2.06462C26.683 1.44792 26.2675 1.00011 25.6952 1.00011ZM13.8415 22.2903H3.30494C3.09882 22.2903 2.97568 22.1576 2.97568 21.9355V2.06462C2.97568 1.8425 3.09882 1.70979 3.30494 1.70979H13.8415C14.0477 1.70979 14.1708 1.8425 14.1708 2.06462V21.9355C14.1708 22.1576 14.0477 22.2903 13.8415 22.2903ZM26.0245 21.9355C26.0245 22.1576 25.9013 22.2903 25.6952 22.2903H15.1586C14.9525 22.2903 14.8293 22.1576 14.8293 21.9355V2.06462C14.8293 1.8425 14.9525 1.70979 15.1586 1.70979H25.6952C25.9013 1.70979 26.0245 1.8425 26.0245 2.06462V21.9355Z" fill="black" stroke="black" stroke-width="0.5"/>
<path d="M27.6708 2.41943C27.5834 2.41943 27.4997 2.45682 27.4379 2.52336C27.3762 2.58991 27.3415 2.68016 27.3415 2.77427V21.2258C27.3415 21.3199 27.3762 21.4102 27.4379 21.4767C27.4997 21.5432 27.5834 21.5806 27.6708 21.5806C27.7581 21.5806 27.8418 21.5432 27.9036 21.4767C27.9653 21.4102 28 21.3199 28 21.2258V2.77427C28 2.68016 27.9653 2.58991 27.9036 2.52336C27.8418 2.45682 27.7581 2.41943 27.6708 2.41943Z" fill="black" stroke="black" stroke-width="0.5"/>
<path d="M1.32927 21.5806C1.4166 21.5806 1.50035 21.5432 1.5621 21.4767C1.62385 21.4102 1.65854 21.3199 1.65854 21.2258V2.77427C1.65854 2.68016 1.62385 2.58991 1.5621 2.52336C1.50035 2.45682 1.4166 2.41943 1.32927 2.41943C1.24194 2.41943 1.15819 2.45682 1.09644 2.52336C1.03469 2.58991 1 2.68016 1 2.77427V21.2258C1 21.3199 1.03469 21.4102 1.09644 21.4767C1.15819 21.5432 1.24194 21.5806 1.32927 21.5806Z" fill="black" stroke="black" stroke-width="0.5"/>
<path d="M12.5244 7.38715H4.62196C4.53464 7.38715 4.45088 7.42453 4.38913 7.49108C4.32738 7.55762 4.29269 7.64787 4.29269 7.74198C4.29269 7.83609 4.32738 7.92635 4.38913 7.99289C4.45088 8.05944 4.53464 8.09682 4.62196 8.09682H12.5244C12.6117 8.09682 12.6955 8.05944 12.7572 7.99289C12.819 7.92635 12.8537 7.83609 12.8537 7.74198C12.8537 7.64787 12.819 7.55762 12.7572 7.49108C12.6955 7.42453 12.6117 7.38715 12.5244 7.38715Z" fill="black" stroke="black" stroke-width="0.5"/>
<path d="M12.5244 10.2258H4.62196C4.53464 10.2258 4.45088 10.2632 4.38913 10.3297C4.32738 10.3962 4.29269 10.4865 4.29269 10.5806C4.29269 10.6747 4.32738 10.765 4.38913 10.8315C4.45088 10.8981 4.53464 10.9354 4.62196 10.9354H12.5244C12.6117 10.9354 12.6955 10.8981 12.7572 10.8315C12.819 10.765 12.8537 10.6747 12.8537 10.5806C12.8537 10.4865 12.819 10.3962 12.7572 10.3297C12.6955 10.2632 12.6117 10.2258 12.5244 10.2258Z" fill="black" stroke="black" stroke-width="0.5"/>
<path d="M12.5244 4.5484H4.62196C4.53464 4.5484 4.45088 4.58579 4.38913 4.65233C4.32738 4.71888 4.29269 4.80913 4.29269 4.90324C4.29269 4.99735 4.32738 5.0876 4.38913 5.15415C4.45088 5.22069 4.53464 5.25807 4.62196 5.25807H12.5244C12.6117 5.25807 12.6955 5.22069 12.7572 5.15415C12.819 5.0876 12.8537 4.99735 12.8537 4.90324C12.8537 4.80913 12.819 4.71888 12.7572 4.65233C12.6955 4.58579 12.6117 4.5484 12.5244 4.5484Z" fill="black" stroke="black" stroke-width="0.5"/>
<path d="M12.5244 13.0646H4.62196C4.53464 13.0646 4.45088 13.102 4.38913 13.1685C4.32738 13.235 4.29269 13.3253 4.29269 13.4194C4.29269 13.5135 4.32738 13.6038 4.38913 13.6703C4.45088 13.7369 4.53464 13.7742 4.62196 13.7742H12.5244C12.6117 13.7742 12.6955 13.7369 12.7572 13.6703C12.819 13.6038 12.8537 13.5135 12.8537 13.4194C12.8537 13.3253 12.819 13.235 12.7572 13.1685C12.6955 13.102 12.6117 13.0646 12.5244 13.0646Z" fill="black" stroke="black" stroke-width="0.5"/>
<path d="M12.5244 15.9033H4.62196C4.53464 15.9033 4.45088 15.9407 4.38913 16.0072C4.32738 16.0738 4.29269 16.164 4.29269 16.2582C4.29269 16.3523 4.32738 16.4425 4.38913 16.5091C4.45088 16.5756 4.53464 16.613 4.62196 16.613H12.5244C12.6117 16.613 12.6955 16.5756 12.7572 16.5091C12.819 16.4425 12.8537 16.3523 12.8537 16.2582C12.8537 16.164 12.819 16.0738 12.7572 16.0072C12.6955 15.9407 12.6117 15.9033 12.5244 15.9033Z" fill="black" stroke="black" stroke-width="0.5"/>
<path d="M12.5244 18.7419H4.62196C4.53464 18.7419 4.45088 18.7793 4.38913 18.8459C4.32738 18.9124 4.29269 19.0027 4.29269 19.0968C4.29269 19.1909 4.32738 19.2811 4.38913 19.3477C4.45088 19.4142 4.53464 19.4516 4.62196 19.4516H12.5244C12.6117 19.4516 12.6955 19.4142 12.7572 19.3477C12.819 19.2811 12.8537 19.1909 12.8537 19.0968C12.8537 19.0027 12.819 18.9124 12.7572 18.8459C12.6955 18.7793 12.6117 18.7419 12.5244 18.7419Z" fill="black" stroke="black" stroke-width="0.5"/>
<path d="M24.378 7.38715H16.4756C16.3882 7.38715 16.3045 7.42453 16.2427 7.49108C16.181 7.55762 16.1463 7.64787 16.1463 7.74198C16.1463 7.83609 16.181 7.92635 16.2427 7.99289C16.3045 8.05944 16.3882 8.09682 16.4756 8.09682H24.378C24.4653 8.09682 24.5491 8.05944 24.6108 7.99289C24.6726 7.92635 24.7073 7.83609 24.7073 7.74198C24.7073 7.64787 24.6726 7.55762 24.6108 7.49108C24.5491 7.42453 24.4653 7.38715 24.378 7.38715Z" fill="black" stroke="black" stroke-width="0.5"/>
<path d="M24.378 10.2258H16.4756C16.3882 10.2258 16.3045 10.2632 16.2427 10.3297C16.181 10.3962 16.1463 10.4865 16.1463 10.5806C16.1463 10.6747 16.181 10.765 16.2427 10.8315C16.3045 10.8981 16.3882 10.9354 16.4756 10.9354H24.378C24.4653 10.9354 24.5491 10.8981 24.6108 10.8315C24.6726 10.765 24.7073 10.6747 24.7073 10.5806C24.7073 10.4865 24.6726 10.3962 24.6108 10.3297C24.5491 10.2632 24.4653 10.2258 24.378 10.2258Z" fill="black" stroke="black" stroke-width="0.5"/>
<path d="M24.378 4.5484H16.4756C16.3882 4.5484 16.3045 4.58579 16.2427 4.65233C16.181 4.71888 16.1463 4.80913 16.1463 4.90324C16.1463 4.99735 16.181 5.0876 16.2427 5.15415C16.3045 5.22069 16.3882 5.25807 16.4756 5.25807H24.378C24.4653 5.25807 24.5491 5.22069 24.6108 5.15415C24.6726 5.0876 24.7073 4.99735 24.7073 4.90324C24.7073 4.80913 24.6726 4.71888 24.6108 4.65233C24.5491 4.58579 24.4653 4.5484 24.378 4.5484Z" fill="black" stroke="black" stroke-width="0.5"/>
<path d="M24.378 13.0646H16.4756C16.3882 13.0646 16.3045 13.102 16.2427 13.1685C16.181 13.235 16.1463 13.3253 16.1463 13.4194C16.1463 13.5135 16.181 13.6038 16.2427 13.6703C16.3045 13.7369 16.3882 13.7742 16.4756 13.7742H24.378C24.4653 13.7742 24.5491 13.7369 24.6108 13.6703C24.6726 13.6038 24.7073 13.5135 24.7073 13.4194C24.7073 13.3253 24.6726 13.235 24.6108 13.1685C24.5491 13.102 24.4653 13.0646 24.378 13.0646Z" fill="black" stroke="black" stroke-width="0.5"/>
<path d="M24.378 15.9033H16.4756C16.3882 15.9033 16.3045 15.9407 16.2427 16.0072C16.181 16.0738 16.1463 16.164 16.1463 16.2582C16.1463 16.3523 16.181 16.4425 16.2427 16.5091C16.3045 16.5756 16.3882 16.613 16.4756 16.613H24.378C24.4653 16.613 24.5491 16.5756 24.6108 16.5091C24.6726 16.4425 24.7073 16.3523 24.7073 16.2582C24.7073 16.164 24.6726 16.0738 24.6108 16.0072C24.5491 15.9407 24.4653 15.9033 24.378 15.9033Z" fill="black" stroke="black" stroke-width="0.5"/>
<path d="M24.378 18.7419H16.4756C16.3882 18.7419 16.3045 18.7793 16.2427 18.8459C16.181 18.9124 16.1463 19.0027 16.1463 19.0968C16.1463 19.1909 16.181 19.2811 16.2427 19.3477C16.3045 19.4142 16.3882 19.4516 16.4756 19.4516H24.378C24.4653 19.4516 24.5491 19.4142 24.6108 19.3477C24.6726 19.2811 24.7073 19.1909 24.7073 19.0968C24.7073 19.0027 24.6726 18.9124 24.6108 18.8459C24.5491 18.7793 24.4653 18.7419 24.378 18.7419Z" fill="black" stroke="black" stroke-width="0.5"/>
</svg>
