<svg width="22" height="22" viewBox="0 0 22 22" fill="none" xmlns="http://www.w3.org/2000/svg">
<path d="M0.75 20.3463V20.3462V3.61559C0.75 2.85915 1.03711 2.13153 1.55151 1.59335C2.06627 1.05479 2.76691 0.75 3.5 0.75H18.5C19.2331 0.75 19.9337 1.05479 20.4485 1.59335C20.9629 2.13153 21.25 2.85915 21.25 3.61559V14.078C21.25 14.8344 20.9629 15.562 20.4485 16.1002C19.9337 16.6388 19.2331 16.9436 18.5 16.9436H6.51756C6.51754 16.9436 6.51752 16.9436 6.5175 16.9436C6.25606 16.9436 6.00294 17.0522 5.8145 17.2495L5.81448 17.2495L2.24844 20.9804L0.75 20.3463ZM0.75 20.3463C0.750036 20.5227 0.800041 20.696 0.894862 20.8443M0.75 20.3463L0.894862 20.8443M0.894862 20.8443C0.989754 20.9927 1.12577 21.1101 1.28701 21.1799M0.894862 20.8443L1.28701 21.1799M1.28701 21.1799C1.44842 21.2497 1.62668 21.268 1.79873 21.232M1.28701 21.1799L1.79873 21.232M1.79873 21.232C1.9706 21.1961 2.12678 21.1079 2.24823 20.9806L1.79873 21.232ZM6.5175 15.1358H6.51744C5.78443 15.1359 5.08391 15.4408 4.56927 15.9794C4.56927 15.9794 4.56926 15.9794 4.56925 15.9794L2.5 18.1444V3.61559C2.5 3.33149 2.60798 3.06118 2.79684 2.86358C2.98534 2.66637 3.23852 2.5578 3.5 2.5578H18.5C18.7615 2.5578 19.0147 2.66637 19.2032 2.86358C19.392 3.06118 19.5 3.33149 19.5 3.61559V14.078C19.5 14.3621 19.392 14.6324 19.2032 14.83C19.0147 15.0272 18.7615 15.1358 18.5 15.1358H6.5175Z" fill="black" stroke="black" stroke-width="0.5"/>
<path d="M4.75233 11.4812L4.75233 11.4812C4.58957 11.6514 4.5 11.8801 4.5 12.1163C4.5 12.3524 4.58957 12.5811 4.75233 12.7514C4.91547 12.9221 5.1392 13.0202 5.375 13.0202H11.625C11.8608 13.0202 12.0845 12.9221 12.2477 12.7514C12.4104 12.5811 12.5 12.3524 12.5 12.1163C12.5 11.8801 12.4104 11.6514 12.2477 11.4812C12.0845 11.3105 11.8608 11.2124 11.625 11.2124H5.375C5.1392 11.2124 4.91547 11.3105 4.75233 11.4812ZM4.75233 4.94217C4.58957 5.11246 4.5 5.34111 4.5 5.57728C4.5 5.81346 4.58957 6.04211 4.75233 6.2124C4.91547 6.38307 5.1392 6.48118 5.375 6.48118H16.625C16.8608 6.48118 17.0845 6.38307 17.2477 6.2124C17.4104 6.04211 17.5 5.81346 17.5 5.57728C17.5 5.34111 17.4104 5.11246 17.2477 4.94217C17.0845 4.77149 16.8608 4.67339 16.625 4.67339H5.375C5.1392 4.67339 4.91547 4.77149 4.75233 4.94217ZM4.75233 8.21166C4.58957 8.38195 4.5 8.6106 4.5 8.84678C4.5 9.08295 4.58957 9.3116 4.75233 9.48189C4.91547 9.65257 5.1392 9.75067 5.375 9.75067H16.625C16.8608 9.75067 17.0845 9.65257 17.2477 9.48189C17.4104 9.3116 17.5 9.08295 17.5 8.84678C17.5 8.6106 17.4104 8.38195 17.2477 8.21166C17.0845 8.04099 16.8608 7.94288 16.625 7.94288H5.375C5.1392 7.94288 4.91547 8.04099 4.75233 8.21166Z" fill="black" stroke="black" stroke-width="0.5"/>
</svg>
