<svg width="25" height="25" viewBox="0 0 25 25" fill="none" xmlns="http://www.w3.org/2000/svg">
<path d="M18.75 10.475V21.25H3.75V6.25H14.525C14.4338 5.8475 14.375 5.43125 14.375 5C14.375 4.56875 14.4338 4.1525 14.525 3.75H3.75C2.3725 3.75 1.25 4.875 1.25 6.25V21.25C1.25 22.625 2.375 23.75 3.75 23.75H18.75C20.125 23.75 21.25 22.625 21.25 21.25V10.475C20.8475 10.5662 20.4312 10.625 20 10.625C19.5688 10.625 19.1525 10.5662 18.75 10.475ZM20 1.25C19.5075 1.25 19.0199 1.347 18.5649 1.53545C18.11 1.72391 17.6966 2.00013 17.3483 2.34835C17.0001 2.69657 16.7239 3.10997 16.5355 3.56494C16.347 4.01991 16.25 4.50754 16.25 5C16.25 5.49246 16.347 5.98009 16.5355 6.43506C16.7239 6.89003 17.0001 7.30343 17.3483 7.65165C17.6966 7.99987 18.11 8.27609 18.5649 8.46455C19.0199 8.653 19.5075 8.75 20 8.75C20.9946 8.75 21.9484 8.35491 22.6517 7.65165C23.3549 6.94839 23.75 5.99456 23.75 5C23.75 4.00544 23.3549 3.05161 22.6517 2.34835C21.9484 1.64509 20.9946 1.25 20 1.25Z" fill="black"/>
</svg>
