<svg width="22" height="19" viewBox="0 0 22 19" fill="none" xmlns="http://www.w3.org/2000/svg">
<g clip-path="url(#clip0)">
<path d="M3.66667 4.74997C4.15013 4.74997 4.62274 4.61068 5.02473 4.34971C5.42671 4.08874 5.74003 3.71782 5.92504 3.28384C6.11005 2.84987 6.15846 2.37234 6.06414 1.91163C5.96982 1.45093 5.73701 1.02774 5.39515 0.695592C5.05329 0.363442 4.61773 0.137245 4.14355 0.0456055C3.66938 -0.0460344 3.17788 0.000998525 2.73122 0.180757C2.28455 0.360515 1.90278 0.664924 1.63419 1.05549C1.36559 1.44606 1.22222 1.90524 1.22222 2.37497C1.22222 3.00486 1.47976 3.60895 1.93818 4.05435C2.39661 4.49975 3.01836 4.74997 3.66667 4.74997ZM3.66667 11.2842C3.66612 11.0623 3.71202 10.8426 3.80158 10.6384C3.89114 10.4343 4.02249 10.25 4.18764 10.0967L6.9426 7.57028C7.00563 7.51276 7.0866 7.48456 7.15688 7.4378C6.97713 6.99569 6.66479 6.61626 6.26038 6.34873C5.85597 6.0812 5.37814 5.93792 4.88889 5.93747H2.44444C1.79614 5.93747 1.17438 6.18769 0.715961 6.63309C0.257539 7.07849 0 7.68258 0 8.31247L0 11.875C0 12.1899 0.128769 12.492 0.357981 12.7147C0.587192 12.9374 0.898069 13.0625 1.22222 13.0625V17.8125C1.22222 18.1274 1.35099 18.4295 1.5802 18.6522C1.80941 18.8749 2.12029 19 2.44444 19H4.88889C5.21304 19 5.52392 18.8749 5.75313 18.6522C5.98234 18.4295 6.11111 18.1274 6.11111 17.8125V14.2355L4.18764 12.4717C4.02243 12.3184 3.89105 12.1341 3.80149 11.93C3.71193 11.7258 3.66606 11.5061 3.66667 11.2842ZM18.3333 4.74997C18.8168 4.74997 19.2894 4.61068 19.6914 4.34971C20.0934 4.08874 20.4067 3.71782 20.5917 3.28384C20.7767 2.84987 20.8251 2.37234 20.7308 1.91163C20.6365 1.45093 20.4037 1.02774 20.0618 0.695592C19.72 0.363442 19.2844 0.137245 18.8102 0.0456055C18.336 -0.0460344 17.8445 0.000998525 17.3979 0.180757C16.9512 0.360515 16.5695 0.664924 16.3009 1.05549C16.0323 1.44606 15.8889 1.90524 15.8889 2.37497C15.8889 3.00486 16.1464 3.60895 16.6049 4.05435C17.0633 4.49975 17.685 4.74997 18.3333 4.74997ZM19.5556 5.93747H17.1111C16.6219 5.93789 16.1441 6.08112 15.7397 6.34858C15.3353 6.61604 15.0229 6.99539 14.8431 7.43743C14.9134 7.48456 14.9959 7.51165 15.0578 7.57065L17.8124 10.0963C17.977 10.25 18.108 10.4344 18.1975 10.6384C18.287 10.8425 18.3331 11.062 18.3331 11.2838C18.3331 11.5056 18.287 11.7252 18.1975 11.9292C18.108 12.1333 17.977 12.3177 17.8124 12.4713L15.8889 14.2359V17.8125C15.8889 18.1274 16.0177 18.4295 16.2469 18.6522C16.4761 18.8749 16.787 19 17.1111 19H19.5556C19.8797 19 20.1906 18.8749 20.4198 18.6522C20.649 18.4295 20.7778 18.1274 20.7778 17.8125V13.0625C21.1019 13.0625 21.4128 12.9374 21.642 12.7147C21.8712 12.492 22 12.1899 22 11.875V8.31247C22 7.68258 21.7425 7.07849 21.284 6.63309C20.8256 6.18769 20.2039 5.93747 19.5556 5.93747ZM16.9736 10.9599L14.219 8.43419C14.154 8.37397 14.0722 8.33364 13.9838 8.31821C13.8954 8.30278 13.8043 8.31294 13.7217 8.34741C13.6392 8.38189 13.5689 8.43916 13.5196 8.51212C13.4703 8.58508 13.4442 8.67051 13.4444 8.75778V10.0937H8.55556V8.75778C8.55589 8.67048 8.5298 8.585 8.48053 8.51198C8.43126 8.43897 8.36099 8.38163 8.27845 8.34711C8.19591 8.31259 8.10475 8.30241 8.0163 8.31782C7.92785 8.33324 7.84601 8.37358 7.78097 8.43382L5.02639 10.9599C4.93834 11.046 4.88893 11.1626 4.88893 11.284C4.88893 11.4054 4.93834 11.522 5.02639 11.6082L7.78097 14.1342C7.84604 14.1945 7.92791 14.2348 8.01639 14.2502C8.10488 14.2656 8.19607 14.2554 8.27862 14.2208C8.36118 14.1863 8.43145 14.1289 8.48069 14.0558C8.52993 13.9827 8.55596 13.8972 8.55556 13.8099V12.4687H13.4444V13.8099C13.444 13.8972 13.4701 13.9827 13.5193 14.0558C13.5686 14.1289 13.6388 14.1863 13.7214 14.2208C13.8039 14.2554 13.8951 14.2656 13.9836 14.2502C14.0721 14.2348 14.154 14.1945 14.219 14.1342L16.9736 11.6082C17.0617 11.522 17.1111 11.4054 17.1111 11.284C17.1111 11.1626 17.0617 11.046 16.9736 10.9599Z" fill="black"/>
</g>
<defs>
<clipPath id="clip0">
<rect width="22" height="19" fill="white"/>
</clipPath>
</defs>
</svg>
