<svg width="24" height="20" viewBox="0 0 24 20" fill="none" xmlns="http://www.w3.org/2000/svg">
<path d="M11.7 6.05C10.5898 6.05 9.5979 6.479 8.9427 7.15C8.53839 7.5646 8.27195 8.06286 8.17078 8.59352C8.06962 9.12418 8.13738 9.66806 8.36711 10.1692C8.59683 10.6703 8.98022 11.1106 9.47782 11.4448C9.97541 11.7789 10.5692 11.9948 11.1982 12.0703C12.0531 10.6748 13.5146 9.61442 15.275 9.1124V9.075C15.275 8.3435 14.9682 7.6725 14.4573 7.15C13.8021 6.479 12.8102 6.05 11.7 6.05ZM22.9801 10.9142C22.2016 10.1433 21.2061 9.5507 20.0855 9.19119C18.9649 8.83169 17.7554 8.71682 16.5685 8.8572C16.5326 8.26073 16.3431 7.67809 16.0134 7.15H21.45C21.9672 7.15 22.4632 7.32384 22.8289 7.63327C23.1946 7.94271 23.4 8.36239 23.4 8.8V9.35C23.4 9.878 23.257 10.4104 22.9801 10.9142ZM10.6691 13.2C10.4936 13.7247 10.4 14.278 10.4 14.85C10.4 16.8267 11.5193 18.5812 13.2522 19.6845C12.7399 19.7624 12.2204 19.801 11.7 19.8C7.618 19.8 5.2 17.5681 5.2 15.4V14.85C5.19931 14.6332 5.24928 14.4183 5.34704 14.2179C5.44479 14.0174 5.5884 13.8353 5.76961 13.682C5.95082 13.5286 6.16606 13.4071 6.40296 13.3244C6.63985 13.2417 6.89373 13.1994 7.15 13.2H10.6691ZM4.3095 13.5124C1.5665 12.8843 0 11.0957 0 9.35V8.8C0 8.36239 0.205446 7.94271 0.571142 7.63327C0.936838 7.32384 1.43283 7.15 1.95 7.15H7.3879C7.01727 7.74313 6.82401 8.40406 6.825 9.075C6.82413 9.64303 6.9623 10.2051 7.23078 10.7257C7.49927 11.2463 7.89226 11.7142 8.385 12.1H7.15C6.57074 12.0999 6.00197 12.2307 5.50256 12.4791C5.00315 12.7274 4.59125 13.0841 4.3095 13.5124ZM6.5 0C7.44815 0 8.35746 0.318705 9.02791 0.886002C9.69835 1.4533 10.075 2.22272 10.075 3.025C10.075 3.82728 9.69835 4.5967 9.02791 5.164C8.35746 5.7313 7.44815 6.05 6.5 6.05C5.55185 6.05 4.64254 5.7313 3.97209 5.164C3.30165 4.5967 2.925 3.82728 2.925 3.025C2.925 2.22272 3.30165 1.4533 3.97209 0.886002C4.64254 0.318705 5.55185 0 6.5 0ZM16.9 0C17.8481 0 18.7575 0.318705 19.4279 0.886002C20.0983 1.4533 20.475 2.22272 20.475 3.025C20.475 3.82728 20.0983 4.5967 19.4279 5.164C18.7575 5.7313 17.8481 6.05 16.9 6.05C15.9519 6.05 15.0425 5.7313 14.3721 5.164C13.7016 4.5967 13.325 3.82728 13.325 3.025C13.325 2.22272 13.7016 1.4533 14.3721 0.886002C15.0425 0.318705 15.9519 0 16.9 0ZM17.55 19.8C19.1015 19.8 20.5895 19.2785 21.6866 18.3502C22.7837 17.4219 23.4 16.1628 23.4 14.85C23.4 13.5372 22.7837 12.2781 21.6866 11.3498C20.5895 10.4215 19.1015 9.9 17.55 9.9C15.9985 9.9 14.5105 10.4215 13.4134 11.3498C12.3163 12.2781 11.7 13.5372 11.7 14.85C11.7 16.1628 12.3163 17.4219 13.4134 18.3502C14.5105 19.2785 15.9985 19.8 17.55 19.8ZM17.55 12.1C17.7224 12.1 17.8877 12.1579 18.0096 12.2611C18.1315 12.3642 18.2 12.5041 18.2 12.65V14.3H20.15C20.3224 14.3 20.4877 14.3579 20.6096 14.4611C20.7315 14.5642 20.8 14.7041 20.8 14.85C20.8 14.9959 20.7315 15.1358 20.6096 15.2389C20.4877 15.3421 20.3224 15.4 20.15 15.4H18.2V17.05C18.2 17.1959 18.1315 17.3358 18.0096 17.4389C17.8877 17.5421 17.7224 17.6 17.55 17.6C17.3776 17.6 17.2123 17.5421 17.0904 17.4389C16.9685 17.3358 16.9 17.1959 16.9 17.05V15.4H14.95C14.7776 15.4 14.6123 15.3421 14.4904 15.2389C14.3685 15.1358 14.3 14.9959 14.3 14.85C14.3 14.7041 14.3685 14.5642 14.4904 14.4611C14.6123 14.3579 14.7776 14.3 14.95 14.3H16.9V12.65C16.9 12.5041 16.9685 12.3642 17.0904 12.2611C17.2123 12.1579 17.3776 12.1 17.55 12.1Z" fill="black"/>
</svg>
