<svg width="28" height="20" viewBox="0 0 28 20" fill="none" xmlns="http://www.w3.org/2000/svg">
<path fill-rule="evenodd" clip-rule="evenodd" d="M0.564681 0.0564554C0.36114 0.121346 0.117583 0.37561 0.0532334 0.590074C0.0123521 0.726778 0.000238558 2.4121 0.000238558 7.98958C0.000238558 16.0206 -0.0191206 15.5002 0.29095 15.7966C0.597126 16.0893 0.33421 16.0692 4.17488 16.0929L7.67899 16.1146V16.5472V16.9798L6.17439 16.9911L4.66968 17.0025L4.6819 17.5319L4.69401 18.0613H7.15986H9.62571L9.65091 16.7418C9.68671 14.8651 9.85824 14.293 10.6203 13.5081L10.9669 13.1512H5.95938H0.951971V7.05147V0.951733H8.01772H15.0836L15.5269 0.475866L15.9702 0L8.34217 0.00443425C2.92195 0.00757064 0.670777 0.022604 0.564681 0.0564554ZM17.8669 0.494577C13.8955 1.3268 13.1953 6.62925 16.8162 8.45128C19.1891 9.64538 22.1003 8.31025 22.7874 5.71256C23.5712 2.74921 20.8548 -0.131512 17.8669 0.494577ZM7.33756 2.79128C5.41311 3.31971 4.77069 5.76782 6.18531 7.18244C7.85701 8.85414 10.6668 7.67031 10.6546 5.29942C10.6459 3.5916 8.98806 2.33813 7.33756 2.79128ZM6.33791 8.82981C4.95087 9.21904 4.01222 10.1857 3.90061 11.3398L3.86773 11.6804H8.03989H12.2122L12.1841 11.379C12.077 10.2254 11.0811 9.19038 9.72651 8.82483L9.3947 8.73528L8.73152 9.25571C8.36672 9.54198 8.05665 9.77635 8.04227 9.77645C8.028 9.77667 7.71846 9.54328 7.35453 9.25776C6.99061 8.97224 6.68108 8.74004 6.6668 8.74166C6.65242 8.74339 6.50447 8.78298 6.33791 8.82981ZM15.8336 9.75601C13.5303 10.0416 12.2139 11.1597 11.744 13.2294C11.6582 13.6069 11.624 13.6893 11.5211 13.7664C10.5802 14.4711 10.426 14.9854 10.426 17.4193V19.2077H10.9235H11.421V17.4232L11.4211 15.6387L11.5441 15.3791C11.6835 15.0849 11.9411 14.83 12.2377 14.6929L12.4377 14.6004H18.7104H24.9832L25.1995 14.7072C25.9445 15.0749 25.9998 15.2651 25.9998 17.4573V19.2077H26.5009H27.002L26.985 17.3367C26.9633 14.955 26.9028 14.7274 26.0878 13.9607L25.7396 13.6332L25.6699 13.2948C25.2385 11.2036 23.889 10.0426 21.5534 9.75288C20.8769 9.66895 16.5167 9.67133 15.8336 9.75601Z" fill="black"/>
</svg>
