<svg width="22" height="22" viewBox="0 0 22 22" fill="none" xmlns="http://www.w3.org/2000/svg">
<path d="M13.2 8.17949L16.5 5.64103V12.4103L13.2 9.8718V12.4103H5.5V5.64103H13.2V8.17949ZM4.1393 15.7949H19.8V2.25641H2.2V17.3574L4.1393 15.7949ZM4.9005 18.0513L0 22V1.12821C0 0.828987 0.115892 0.542023 0.322183 0.330444C0.528473 0.118864 0.808262 0 1.1 0H20.9C21.1917 0 21.4715 0.118864 21.6778 0.330444C21.8841 0.542023 22 0.828987 22 1.12821V16.9231C22 17.2223 21.8841 17.5093 21.6778 17.7208C21.4715 17.9324 21.1917 18.0513 20.9 18.0513H4.9005Z" fill="black"/>
</svg>
