<svg width="55" height="55" viewBox="0 0 55 55" fill="none" xmlns="http://www.w3.org/2000/svg">
<g clip-path="url(#clip0)">
<path d="M1.71998 0.000384609C1.22991 0.0935936 0.788541 0.357 0.473848 0.744076C0.159156 1.13115 -0.00861544 1.61699 0.000169727 2.11577V8.46192C0.000169727 9.02296 0.22304 9.56101 0.619752 9.95772C1.01646 10.3544 1.55452 10.5773 2.11555 10.5773C2.67659 10.5773 3.21465 10.3544 3.61136 9.95772C4.00807 9.56101 4.23094 9.02296 4.23094 8.46192V4.23115H8.46171C9.02274 4.23115 9.5608 4.00828 9.95751 3.61157C10.3542 3.21486 10.5771 2.6768 10.5771 2.11577C10.5771 1.55473 10.3542 1.01668 9.95751 0.619966C9.5608 0.223255 9.02274 0.000384609 8.46171 0.000384609H2.11555C2.04931 -0.00273237 1.98295 -0.00273237 1.91671 0.000384609C1.85046 -0.00273237 1.78411 -0.00273237 1.71786 0.000384609H1.71998ZM45.9442 0.000384609C45.3832 0.07921 44.8764 0.377677 44.5355 0.830127C44.1945 1.28258 44.0472 1.85195 44.126 2.41298C44.2049 2.97402 44.5033 3.48076 44.9558 3.82173C45.4082 4.16271 45.9776 4.30998 46.5386 4.23115H50.7694V8.46192C50.7694 9.02296 50.9923 9.56101 51.389 9.95772C51.7857 10.3544 52.3238 10.5773 52.8848 10.5773C53.4458 10.5773 53.9839 10.3544 54.3806 9.95772C54.7773 9.56101 55.0002 9.02296 55.0002 8.46192V2.11577C55.0002 1.55473 54.7773 1.01668 54.3806 0.619966C53.9839 0.223255 53.4458 0.000384609 52.8848 0.000384609H46.5386C46.4724 -0.00273237 46.406 -0.00273237 46.3398 0.000384609C46.2742 -0.00266332 46.2086 -0.00266332 46.1431 0.000384609C46.0768 -0.00271994 46.0105 -0.00271994 45.9442 0.000384609V0.000384609ZM27.5002 2.11577C10.1561 2.11577 8.1444 19.0558 8.52729 27.1048C7.21998 28.0377 6.34632 29.5502 6.34632 31.7312H2.11555C2.04931 31.728 1.98295 31.728 1.91671 31.7312C1.85046 31.728 1.78411 31.728 1.71786 31.7312C1.15683 31.7839 0.639721 32.0573 0.2803 32.4913C-0.0791208 32.9253 -0.251414 33.4843 -0.198676 34.0454C-0.145939 34.6064 0.127508 35.1235 0.561511 35.4829C0.995513 35.8424 1.55452 36.0147 2.11555 35.9619H52.8848C53.4458 35.9619 53.9839 35.739 54.3806 35.3423C54.7773 34.9456 55.0002 34.4076 55.0002 33.8465C55.0002 33.2855 54.7773 32.7474 54.3806 32.3507C53.9839 31.954 53.4458 31.7312 52.8848 31.7312H48.654C48.654 29.6538 47.8586 28.0377 46.4731 27.0371C46.839 18.9627 44.7956 2.11577 27.5002 2.11577ZM21.154 16.9235C21.154 23.6081 40.1925 20.7883 40.1925 25.385V30.409L42.5723 30.1446C42.604 30.1425 42.6569 30.1446 42.7711 30.1446C44.2731 30.1446 44.4232 30.8723 44.4232 31.7312H37.8782C37.9925 31.4054 38.0771 31.0394 38.0771 30.6735C38.0771 29.8319 37.7428 29.0248 37.1477 28.4298C36.5527 27.8347 35.7456 27.5004 34.904 27.5004C34.0625 27.5004 33.2554 27.8347 32.6603 28.4298C32.0652 29.0248 31.7309 29.8319 31.7309 30.6735C31.7309 31.0394 31.8156 31.4054 31.9298 31.7312H23.0706C23.1848 31.4054 23.2694 31.0394 23.2694 30.6735C23.2694 29.8319 22.9351 29.0248 22.34 28.4298C21.745 27.8347 20.9379 27.5004 20.0963 27.5004C19.2548 27.5004 18.4477 27.8347 17.8526 28.4298C17.2576 29.0248 16.9232 29.8319 16.9232 30.6735C16.9232 31.0394 17.0079 31.4054 17.1221 31.7312H10.5771C10.5771 31.1494 10.5834 30.1446 12.4936 30.1446L14.8079 30.409V25.385C14.8079 19.6248 18.6663 23.0263 21.154 16.9235ZM10.8415 38.0773C14.9454 47.8906 20.5596 52.885 27.5002 52.885C34.4429 52.885 40.0571 47.8927 44.1588 38.0773H39.5304C36.2727 45.0898 32.2238 48.6542 27.5002 48.6542C22.7765 48.6542 18.7298 45.0898 15.4679 38.0773H10.8436H10.8415ZM1.91671 44.3579C1.82725 44.374 1.73893 44.3959 1.65229 44.4235C1.1747 44.5305 0.749013 44.7998 0.447758 45.1856C0.146502 45.5713 -0.0116791 46.0496 0.000169727 46.5388V52.885C0.000169727 53.446 0.22304 53.9841 0.619752 54.3808C1.01646 54.7775 1.55452 55.0004 2.11555 55.0004H8.46171C9.02274 55.0004 9.5608 54.7775 9.95751 54.3808C10.3542 53.9841 10.5771 53.446 10.5771 52.885C10.5771 52.324 10.3542 51.7859 9.95751 51.3892C9.5608 50.9925 9.02274 50.7696 8.46171 50.7696H4.23094V46.5388C4.24162 46.238 4.18798 45.9384 4.07361 45.66C3.95924 45.3815 3.78676 45.1307 3.56771 44.9243C3.34865 44.7179 3.08806 44.5605 2.80335 44.4629C2.51864 44.3652 2.21636 44.3294 1.91671 44.3579V44.3579ZM52.6859 44.3579C52.5965 44.374 52.5082 44.3959 52.4215 44.4235C51.9439 44.5305 51.5182 44.7998 51.217 45.1856C50.9157 45.5713 50.7576 46.0496 50.7694 46.5388V50.7696H46.5386C45.9776 50.7696 45.4395 50.9925 45.0428 51.3892C44.6461 51.7859 44.4232 52.324 44.4232 52.885C44.4232 53.446 44.6461 53.9841 45.0428 54.3808C45.4395 54.7775 45.9776 55.0004 46.5386 55.0004H52.8848C53.4458 55.0004 53.9839 54.7775 54.3806 54.3808C54.7773 53.9841 55.0002 53.446 55.0002 52.885V46.5388C55.0109 46.238 54.9572 45.9384 54.8428 45.66C54.7285 45.3815 54.556 45.1307 54.3369 44.9243C54.1179 44.7179 53.8573 44.5605 53.5726 44.4629C53.2879 44.3652 52.9856 44.3294 52.6859 44.3579V44.3579Z" fill="black"/>
</g>
<defs>
<clipPath id="clip0">
<rect width="55" height="55" fill="white"/>
</clipPath>
</defs>
</svg>
