<svg width="53" height="40" viewBox="0 0 53 40" fill="none" xmlns="http://www.w3.org/2000/svg">
<path d="M13.25 12.5H26.5V15H13.25V12.5Z" fill="black"/>
<path d="M13.25 7.5H33.125V10H13.25V7.5Z" fill="black"/>
<path d="M13.25 2.5H33.125V5H13.25V2.5Z" fill="black"/>
<path d="M7.80259 35L17.1289 22.505L29.4415 30.6175C29.8137 30.8675 30.2558 31.0508 30.7349 31.154C31.214 31.2571 31.7178 31.2774 32.2087 31.2132C32.6996 31.1491 33.165 31.0022 33.5703 30.7834C33.9755 30.5647 34.3102 30.2799 34.5494 29.95L46.0934 16.9462L43.3424 15.5538L31.7487 28.6138L31.6327 28.7425L19.3185 20.63C18.9464 20.3815 18.5051 20.1992 18.0272 20.0966C17.5493 19.9941 17.0469 19.9738 16.5572 20.0374C16.0676 20.101 15.6031 20.2468 15.1981 20.464C14.793 20.6813 14.4579 20.9644 14.2172 21.2925L6.625 31.4788V2.5H3.3125V35C3.31338 35.6628 3.66265 36.2983 4.28368 36.767C4.9047 37.2357 5.74674 37.4993 6.625 37.5H49.6875V35H7.80259Z" fill="black"/>
</svg>
