<svg width="71" height="65" viewBox="0 0 71 65" fill="none" xmlns="http://www.w3.org/2000/svg">
<path d="M60.9659 16.3943C60.7208 15.5592 60.2281 14.8077 59.5447 14.234C58.6941 13.52 57.6051 13.129 56.4809 13.1292C56.4809 13.1292 56.4809 13.1292 56.4808 13.1292H40.8815C39.6525 13.1292 38.4696 13.5965 37.5942 14.4349C36.7181 15.2739 36.2217 16.4167 36.2217 17.613V29.5646C36.2217 30.761 36.7181 31.9037 37.5942 32.7428C38.4696 33.5811 39.6525 34.0485 40.8815 34.0485H56.4808C56.4809 34.0485 56.4809 34.0485 56.4809 34.0485C57.6051 34.0486 58.6941 33.6576 59.5447 32.9436C60.2282 32.3699 60.7208 31.6184 60.9659 30.7833L66.8803 33.2995C66.8803 33.2995 66.8803 33.2995 66.8803 33.2995C67.2709 33.4657 67.6977 33.5355 68.1222 33.5033C68.5467 33.4711 68.9575 33.3379 69.3172 33.1142C69.6771 32.8904 69.9752 32.5826 70.1827 32.2171C70.3903 31.8513 70.5 31.4402 70.5004 31.0212V31.0207V16.1569V16.1567C70.5002 15.7374 70.3905 15.3259 70.1828 14.9598C69.9752 14.594 69.6767 14.286 69.3165 14.0621C68.9565 13.8384 68.5453 13.7052 68.1204 13.6733C67.6956 13.6414 67.2686 13.7116 66.8778 13.8784C66.8778 13.8784 66.8777 13.8784 66.8777 13.8784L60.9659 16.3943ZM67.4205 16.9132V30.2644L61.1407 27.5907V19.5869L67.4205 16.9132ZM39.7566 16.5656C40.0514 16.2833 40.4557 16.1211 40.8815 16.1211H56.4809C56.9067 16.1211 57.311 16.2833 57.6058 16.5656C57.8999 16.8472 58.0608 17.2245 58.0608 17.613V29.5646C58.0608 29.9532 57.8999 30.3304 57.6058 30.612C57.311 30.8944 56.9067 31.0566 56.4809 31.0566H40.8815C40.4557 31.0566 40.0514 30.8944 39.7566 30.612C39.4626 30.3304 39.3016 29.9532 39.3016 29.5646V17.613C39.3016 17.2245 39.4626 16.8472 39.7566 16.5656Z" fill="black" stroke="black"/>
<path d="M10 25C10 22.3478 11.0536 19.8043 12.9289 17.9289C14.8043 16.0536 17.3478 15 20 15C22.6522 15 25.1957 16.0536 27.0711 17.9289C28.9464 19.8043 30 22.3478 30 25C30 27.6522 28.9464 30.1957 27.0711 32.0711C25.1957 33.9464 22.6522 35 20 35C17.3478 35 14.8043 33.9464 12.9289 32.0711C11.0536 30.1957 10 27.6522 10 25ZM20 20C18.6739 20 17.4021 20.5268 16.4645 21.4645C15.5268 22.4021 15 23.6739 15 25C15 26.3261 15.5268 27.5979 16.4645 28.5355C17.4021 29.4732 18.6739 30 20 30C21.3261 30 22.5979 29.4732 23.5355 28.5355C24.4732 27.5979 25 26.3261 25 25C25 23.6739 24.4732 22.4021 23.5355 21.4645C22.5979 20.5268 21.3261 20 20 20ZM7.5 40H32.5C34.4891 40 36.3968 40.7902 37.8033 42.1967C39.2098 43.6032 40 45.5109 40 47.5C40 53.08 37.705 57.55 33.94 60.575C30.235 63.55 25.265 65 20 65C14.735 65 9.765 63.55 6.06 60.575C2.3 57.55 0 53.08 0 47.5C0 45.5109 0.790177 43.6032 2.1967 42.1967C3.60322 40.7902 5.51088 40 7.5 40ZM32.5 45H7.5C6.83696 45 6.20107 45.2634 5.73223 45.7322C5.26339 46.2011 5 46.837 5 47.5C5 51.585 6.625 54.615 9.19 56.675C11.82 58.785 15.6 60 20 60C24.4 60 28.18 58.785 30.81 56.675C33.375 54.615 35 51.585 35 47.5C35 46.837 34.7366 46.2011 34.2678 45.7322C33.7989 45.2634 33.163 45 32.5 45Z" fill="black"/>
</svg>
