<svg width="70" height="37" viewBox="0 0 70 37" fill="none" xmlns="http://www.w3.org/2000/svg">
<path fill-rule="evenodd" clip-rule="evenodd" d="M0.989746 7.4C0.989746 5.4374 1.89383 3.55518 3.5031 2.16741C5.11237 0.77964 7.29502 5.12495e-08 9.57088 5.12495e-08H41.7501C43.8314 -0.000211078 45.8419 0.651913 47.4071 1.83493C48.9724 3.01795 49.9856 4.65123 50.2583 6.4306L63.602 1.3172C64.2551 1.06623 64.9706 0.960016 65.6835 1.0082C66.3963 1.05638 67.0839 1.25743 67.6837 1.59308C68.2836 1.92873 68.7766 2.38834 69.118 2.93012C69.4595 3.4719 69.6385 4.07868 69.6388 4.6953V32.3047C69.6382 32.9208 69.4591 33.5271 69.1179 34.0684C68.7767 34.6098 68.2841 35.0691 67.6849 35.4046C67.0857 35.7402 66.3988 35.9414 65.6865 35.99C64.9742 36.0385 64.2592 35.933 63.6062 35.6828L50.2583 30.5694C49.9856 32.3488 48.9724 33.982 47.4071 35.1651C45.8419 36.3481 43.8314 37.0002 41.7501 37H9.57088C7.29502 37 5.11237 36.2204 3.5031 34.8326C1.89383 33.4448 0.989746 31.5626 0.989746 29.6V7.4ZM50.3312 26.5475L65.3482 32.3047V4.6953L50.3312 10.4525V26.5475ZM9.57088 3.7C8.43295 3.7 7.34162 4.08982 6.53699 4.78371C5.73235 5.47759 5.28031 6.4187 5.28031 7.4V29.6C5.28031 30.5813 5.73235 31.5224 6.53699 32.2163C7.34162 32.9102 8.43295 33.3 9.57088 33.3H41.7501C42.888 33.3 43.9794 32.9102 44.784 32.2163C45.5886 31.5224 46.0407 30.5813 46.0407 29.6V7.4C46.0407 6.4187 45.5886 5.47759 44.784 4.78371C43.9794 4.08982 42.888 3.7 41.7501 3.7H9.57088Z" fill="black"/>
</svg>
