<svg width="60" height="39" viewBox="0 0 60 39" fill="none" xmlns="http://www.w3.org/2000/svg">
<path d="M13.6341 0.69302C13.3879 0.476304 13.0945 0.303566 12.7707 0.184673C12.447 0.06578 12.0993 0.00306404 11.7474 0.000109497C11.3956 -0.00284505 11.0465 0.0540189 10.7201 0.167453C10.3938 0.280887 10.0965 0.448667 9.8454 0.661206C7.00457 3.09688 4.7511 5.99355 3.21501 9.18411C1.67891 12.3747 0.890594 15.796 0.895531 19.2506C0.890923 22.8378 1.74128 26.3875 3.39383 29.6794C5.04638 32.9714 7.46585 35.9353 10.5021 38.3872C11.0131 38.7946 11.6881 39.0141 12.3838 38.9993C13.0795 38.9844 13.7411 38.7363 14.2281 38.3077C15.3939 37.3023 15.25 35.702 14.1285 34.7762C11.6918 32.7736 9.75276 30.3646 8.4292 27.6956C7.10564 25.0266 6.4252 22.1534 6.42925 19.2506C6.42925 13.3776 9.1629 8.05178 13.5973 4.17674C14.6671 3.2382 14.7778 1.67928 13.6341 0.69302Z" fill="black"/>
<path d="M20.131 6.29852C19.6451 5.86738 18.9809 5.61994 18.2839 5.61039C17.5868 5.60085 16.9138 5.83 16.4123 6.24761C14.4159 7.94676 12.8313 9.9714 11.7508 12.2037C10.6703 14.436 10.1155 16.8313 10.1187 19.2503C10.1187 24.6334 12.8117 29.4724 17.1022 32.8161C17.6085 33.2019 18.2676 33.4049 18.9427 33.383C19.6179 33.3611 20.2574 33.1159 20.7286 32.6984C21.9387 31.6549 21.7136 30.0133 20.5774 29.0906C19.0199 27.828 17.7792 26.3033 16.9321 24.6107C16.085 22.9182 15.6494 21.0938 15.6524 19.2503C15.6524 15.5916 17.3383 12.2702 20.0794 9.83314C21.1345 8.89778 21.3078 7.31023 20.131 6.29852Z" fill="black"/>
<path d="M40.6868 6.29852C41.1727 5.86738 41.8369 5.61994 42.5339 5.61039C43.231 5.60085 43.904 5.83 44.4055 6.24761C46.4019 7.94676 47.9865 9.9714 49.067 12.2037C50.1475 14.436 50.7023 16.8313 50.6991 19.2503C50.6991 24.6334 48.0061 29.4724 43.7156 32.8161C43.2093 33.2019 42.5502 33.4049 41.8751 33.383C41.1999 33.3611 40.5604 33.1159 40.0892 32.6984C38.8791 31.6549 39.1042 30.0133 40.2404 29.0906C41.7979 27.828 43.0386 26.3033 43.8857 24.6107C44.7328 22.9182 45.1684 21.0938 45.1654 19.2503C45.1654 15.5916 43.4795 12.2702 40.7384 9.83314C39.6834 8.89778 39.51 7.31023 40.6868 6.29852Z" fill="black"/>
<path d="M47.1832 0.69302C47.4295 0.476304 47.7229 0.303566 48.0466 0.184673C48.3704 0.06578 48.7181 0.00306404 49.0699 0.000109497C49.4218 -0.00284505 49.7709 0.0540189 50.0972 0.167453C50.4236 0.280887 50.7208 0.448667 50.972 0.661206C53.8128 3.09688 56.0662 5.99355 57.6023 9.18411C59.1384 12.3747 59.9268 15.796 59.9218 19.2506C59.9264 22.8378 59.0761 26.3875 57.4235 29.6794C55.771 32.9714 53.3515 35.9353 50.3153 38.3872C49.8043 38.7946 49.1293 39.0141 48.4336 38.9993C47.7379 38.9844 47.0763 38.7363 46.5893 38.3077C45.4235 37.3023 45.5674 35.702 46.6925 34.7762C49.1286 32.7733 51.0669 30.3642 52.3898 27.6952C53.7128 25.0262 54.3926 22.1532 54.3881 19.2506C54.3881 13.3776 51.6544 8.05178 47.2201 4.17674C46.1502 3.2382 46.0396 1.67928 47.1832 0.69302Z" fill="black"/>
<path d="M30.4087 14.4785C28.9411 14.4785 27.5336 14.9813 26.4958 15.8763C25.458 16.7712 24.875 17.9851 24.875 19.2507C24.875 20.5164 25.458 21.7302 26.4958 22.6252C27.5336 23.5202 28.9411 24.023 30.4087 24.023C31.8764 24.023 33.2839 23.5202 34.3216 22.6252C35.3594 21.7302 35.9424 20.5164 35.9424 19.2507C35.9424 17.9851 35.3594 16.7712 34.3216 15.8763C33.2839 14.9813 31.8764 14.4785 30.4087 14.4785Z" fill="black"/>
</svg>
