<svg width="49" height="51" viewBox="0 0 49 51" fill="none" xmlns="http://www.w3.org/2000/svg">
<path d="M20.5229 29.36C22.4764 31.4068 25.1253 32.5566 27.8873 32.5566C30.6493 32.5566 33.2982 31.4068 35.2516 29.36L42.6183 21.6402C44.5718 19.5924 45.6692 16.8151 45.6692 13.9192C45.6692 11.0232 44.5718 8.24589 42.6183 6.19815C40.6648 4.15041 38.0154 3 35.2528 3C32.4902 3 29.8407 4.15041 27.8873 6.19815L24.2051 10.058" stroke="black" stroke-width="5" stroke-linecap="round" stroke-linejoin="round"/>
<path d="M27.8875 21.6401C25.934 19.5932 23.2851 18.4434 20.5231 18.4434C17.7612 18.4434 15.1122 19.5932 13.1588 21.6401L5.79211 29.3598C3.83865 31.4076 2.74121 34.1849 2.74121 37.0808C2.74121 39.9768 3.83865 42.7541 5.79211 44.8019C7.74556 46.8496 10.395 48 13.1576 48C15.9202 48 18.5697 46.8496 20.5231 44.8019L24.2053 40.942" stroke="black" stroke-width="5" stroke-linecap="round" stroke-linejoin="round"/>
</svg>
