<svg width="50" height="50" viewBox="0 0 50 50" fill="none" xmlns="http://www.w3.org/2000/svg">
<path d="M37.6147 43.75V40.625H40.6794V43.75H37.6147Z" fill="black"/>
<path d="M28.4204 37.5V34.375H31.4851V37.5H28.4204Z" fill="black"/>
<path d="M28.4204 46.875H34.5498V43.75H31.4851V40.625H28.4204V46.875Z" fill="black"/>
<path d="M40.6792 40.625V34.375H43.7439V40.625H40.6792Z" fill="black"/>
<path d="M43.7439 40.625H46.8086V46.875H40.6792V43.75H43.7439V40.625Z" fill="black"/>
<path d="M40.6792 31.25V28.125H46.8086V34.375H43.7439V31.25H40.6792Z" fill="black"/>
<path d="M37.6147 31.25H34.55V37.5H31.4854V40.625H37.6147V31.25Z" fill="black"/>
<path d="M28.4204 31.25V28.125H34.5498V31.25H28.4204Z" fill="black"/>
<path d="M10.0322 34.375H16.1616V40.625H10.0322V34.375Z" fill="black"/>
<path d="M22.291 46.875H3.90283V28.125H22.291V46.875ZM6.96752 43.75H19.2263V31.25H6.96752V43.75Z" fill="black"/>
<path d="M34.5498 9.375H40.6792V15.625H34.5498V9.375Z" fill="black"/>
<path d="M46.8085 21.875H28.4204V3.125H46.8085V21.875ZM31.4851 18.75H43.7439V6.25H31.4851V18.75Z" fill="black"/>
<path d="M10.0322 9.375H16.1616V15.625H10.0322V9.375Z" fill="black"/>
<path d="M22.291 21.875H3.90283V3.125H22.291V21.875ZM6.96752 18.75H19.2263V6.25H6.96752V18.75Z" fill="black"/>
</svg>
