<svg width="1200" height="835" viewBox="0 0 1200 835" fill="none" xmlns="http://www.w3.org/2000/svg">
<path d="M1200 412.978C1064.7 409.906 1001.57 294.06 705.496 275.626C409.426 257.192 373.886 19.9763 211 1" stroke="black" stroke-opacity="0.1" stroke-width="2"/>
<path d="M1200 413.911C1081.33 397.459 1034.34 127.654 819.5 115.214C604.662 102.775 538.1 2.16079 439 1" stroke="black" stroke-opacity="0.1" stroke-width="2"/>
<path d="M1200 630.309C971.078 637.044 772.446 853.354 400.007 831.56C27.548 809.767 213.856 351.268 0 225.609" stroke="black" stroke-opacity="0.1" stroke-width="2"/>
<path d="M1200 833.102C985.158 828.342 782.138 614.986 400 564.733C17.8618 514.481 169.966 79.2703 0 1" stroke="black" stroke-opacity="0.1" stroke-width="2"/>
<path d="M1200 583.229C973.374 585.667 733.516 664.772 400.005 661.953C66.4791 659.135 198.278 510.186 0 475.822" stroke="black" stroke-opacity="0.1" stroke-width="2"/>
</svg>
