<svg xmlns="http://www.w3.org/2000/svg" width="24.4" height="241.034" viewBox="0 0 24.4 241.034">
  <g id="Group_10527" data-name="Group 10527" transform="translate(-2433 -1236)">
    <g id="demoIcon" transform="translate(2321 621.21)">
      <g id="review_1_" data-name="review (1)" transform="translate(112.924 614.785)">
        <path id="Path_14891" data-name="Path 14891" d="M20.951,3.668h-.688v-1.6a2.063,2.063,0,1,0-4.126,0v.563a1.611,1.611,0,0,1-1.164,1.543l-.67.191v-.01a.688.688,0,0,0-.688-.688h-2.75a.688.688,0,0,0-.688.688V7.427H2.063A2.065,2.065,0,0,0,0,9.49v13.3a.688.688,0,0,0,1.069.572l2.577-1.718H16.733A2.065,2.065,0,0,0,18.8,19.575v-7.2h2.155a2.524,2.524,0,0,0,2.521-2.521V6.189a2.524,2.524,0,0,0-2.525-2.521Zm-9.4,1.375h1.375V11H11.553Zm5.868,14.533a.688.688,0,0,1-.688.688H3.438a.688.688,0,0,0-.381.116L1.375,21.5V9.49a.688.688,0,0,1,.688-.69h8.114v2.89a.688.688,0,0,0,.688.688h2.751a.688.688,0,0,0,.683-.609,3.873,3.873,0,0,0,2.082.609h1.04ZM22.1,9.857A1.147,1.147,0,0,1,20.951,11h-4.57A2.5,2.5,0,0,1,14.3,9.891v-4.1l1.048-.3a2.993,2.993,0,0,0,2.161-2.865V2.063a.688.688,0,1,1,1.375,0V4.355a.688.688,0,0,0,.688.688h1.375A1.147,1.147,0,0,1,22.1,6.189Z" fill="#6e7cee"/>
        <path id="Path_14892" data-name="Path 14892" d="M60.688,253.375h4.584a.688.688,0,1,0,0-1.375H60.688a.688.688,0,1,0,0,1.375Z" transform="translate(-57.249 -240.447)" fill="#6e7cee"/>
        <path id="Path_14893" data-name="Path 14893" d="M72.607,312H60.688a.688.688,0,1,0,0,1.375H72.607a.688.688,0,1,0,0-1.375Z" transform="translate(-57.249 -297.697)" fill="#6e7cee"/>
        <path id="Path_14894" data-name="Path 14894" d="M72.607,372H60.688a.688.688,0,1,0,0,1.375H72.607a.688.688,0,1,0,0-1.375Z" transform="translate(-57.249 -354.946)" fill="#6e7cee"/>
      </g>
      <g id="businessman_1_" data-name="businessman (1)" transform="translate(112.924 659.148)">
        <path id="Path_15436" data-name="Path 15436" d="M21.421,9.327a2.556,2.556,0,0,0-1.43-4.675V1H1V16.339H6.316a1.456,1.456,0,0,0,1.258.73V20.9a1.276,1.276,0,0,0,2.191.892,1.276,1.276,0,0,0,2.191-.892V17.6a1.446,1.446,0,0,0,.73.2v4.565a1.276,1.276,0,0,0,2.191.892,1.276,1.276,0,0,0,2.191-.892V17.8a1.446,1.446,0,0,0,.73-.2v3.3a1.276,1.276,0,0,0,2.191.892A1.276,1.276,0,0,0,22.18,20.9V17.07a1.462,1.462,0,0,0,1.461-1.461V12.687a3.657,3.657,0,0,0-2.22-3.36Zm.4-2.118A1.826,1.826,0,1,1,20,5.383a1.826,1.826,0,0,1,1.826,1.826ZM19.261,1.73V3.922H1.73V1.73ZM1.73,15.609V4.652H19.261V4.76a2.555,2.555,0,0,0-.7,4.569,3.668,3.668,0,0,0-1.818,1.687,3.634,3.634,0,0,0-.438-.228,2.557,2.557,0,1,0-2.86,0,3.634,3.634,0,0,0-.438.228,3.668,3.668,0,0,0-1.818-1.687,2.556,2.556,0,1,0-2.857,0,3.657,3.657,0,0,0-2.222,3.36v2.922ZM13.052,8.67a1.826,1.826,0,1,1,1.826,1.83,1.826,1.826,0,0,1-1.826-1.83ZM7.939,7.209A1.826,1.826,0,1,1,9.765,9.035,1.826,1.826,0,0,1,7.939,7.209Zm3.287,13.7a.55.55,0,0,1-1.1,0V14.878H9.4V20.9a.55.55,0,1,1-1.1,0V12.322H7.57v4.017a.731.731,0,0,1-.73-.73V12.687a2.916,2.916,0,0,1,5.566-1.223,3.638,3.638,0,0,0-1.184,2.684V20.9ZM17.07,17.07V13.783h-.73v8.583a.55.55,0,0,1-1.1,0V16.339h-.73v6.026a.55.55,0,0,1-1.1,0V13.783h-.73V17.07a.731.731,0,0,1-.73-.73V14.148a2.922,2.922,0,0,1,5.844,0v2.191a.731.731,0,0,1-.724.731Zm5.844-1.461a.731.731,0,0,1-.73.73V12.322h-.73V20.9a.55.55,0,1,1-1.1,0V14.878h-.73V20.9a.55.55,0,1,1-1.1,0V14.148a3.638,3.638,0,0,0-1.184-2.684,2.916,2.916,0,0,1,5.566,1.223Z" transform="translate(-1 -1)" fill="#6e7cee"/>
        <path id="Path_15437" data-name="Path 15437" d="M5,5h.73v.73H5Z" transform="translate(-3.539 -3.539)" fill="#6e7cee"/>
        <path id="Path_15438" data-name="Path 15438" d="M9,5h.73v.73H9Z" transform="translate(-6.078 -3.539)" fill="#6e7cee"/>
        <path id="Path_15439" data-name="Path 15439" d="M13,5h.73v.73H13Z" transform="translate(-8.617 -3.539)" fill="#6e7cee"/>
        <path id="Path_15440" data-name="Path 15440" d="M5,13h.73v.73H5Z" transform="translate(-3.539 -8.617)" fill="#6e7cee"/>
        <path id="Path_15441" data-name="Path 15441" d="M9,13h.73v.73H9Z" transform="translate(-6.078 -8.617)" fill="#6e7cee"/>
        <path id="Path_15442" data-name="Path 15442" d="M13,13h.73v.73H13Z" transform="translate(-8.617 -8.617)" fill="#6e7cee"/>
        <path id="Path_15443" data-name="Path 15443" d="M5,17H8.652v.73H5Z" transform="translate(-3.539 -11.156)" fill="#6e7cee"/>
        <path id="Path_15444" data-name="Path 15444" d="M5,21H8.652v.73H5Z" transform="translate(-3.539 -13.696)" fill="#6e7cee"/>
        <path id="Path_15445" data-name="Path 15445" d="M5,25H8.652v.73H5Z" transform="translate(-3.539 -16.235)" fill="#6e7cee"/>
        <path id="Path_15446" data-name="Path 15446" d="M5,29H7.922v.73H5Z" transform="translate(-3.539 -18.774)" fill="#6e7cee"/>
        <path id="Path_15447" data-name="Path 15447" d="M5,33H7.922v.73H5Z" transform="translate(-3.539 -21.313)" fill="#6e7cee"/>
        <path id="Path_15448" data-name="Path 15448" d="M5,37H7.922v.73H5Z" transform="translate(-3.539 -23.852)" fill="#6e7cee"/>
      </g>
      <g id="communication" transform="translate(112.924 702.587)">
        <path id="Path_15449" data-name="Path 15449" d="M24.392,16.326a3.386,3.386,0,0,0,.219-1.2,3.431,3.431,0,0,0-2.519-3.3V9.094h.784a1.713,1.713,0,0,0,1.716-1.707.461.461,0,1,0-.921,0,.791.791,0,0,1-.794.785H21.632a.461.461,0,0,0-.461.461v2.4L18.507,8.312a.461.461,0,0,0-.329-.138H10.684a.461.461,0,0,0-.329.138L7.689,11.034v-2.4a.461.461,0,0,0-.461-.461H5.892a.791.791,0,0,1-.8-.785V1.705a.791.791,0,0,1,.8-.784H22.876a.79.79,0,0,1,.794.784V3.289a.461.461,0,1,0,.921,0V1.705A1.712,1.712,0,0,0,22.876,0H5.892A1.713,1.713,0,0,0,4.175,1.7V7.388A1.714,1.714,0,0,0,5.892,9.094h.876V11.83a3.432,3.432,0,0,0-2.519,3.3,3.384,3.384,0,0,0,.22,1.2,4.736,4.736,0,0,0-1.6,3.551v1.681a1.828,1.828,0,0,0,1.83,1.82h.927a.461.461,0,0,0,0-.921H4.7a.905.905,0,0,1-.909-.9V19.877a3.816,3.816,0,0,1,1.137-2.718,3.458,3.458,0,0,0,5.54,0A3.815,3.815,0,0,1,11.6,19.877v1.681a.905.905,0,0,1-.909.9H9.763a.461.461,0,0,0,0,.921h.927a1.828,1.828,0,0,0,1.83-1.821V19.877a4.735,4.735,0,0,0-1.6-3.551,3.385,3.385,0,0,0,.22-1.2,3.435,3.435,0,0,0-2.868-3.373l2.6-2.657h7.106l2.6,2.658a3.435,3.435,0,0,0-2.868,3.373,3.384,3.384,0,0,0,.219,1.2,4.738,4.738,0,0,0-1.6,3.552V21.56a1.828,1.828,0,0,0,1.832,1.821h5.987a1.828,1.828,0,0,0,1.83-1.821V19.877a4.739,4.739,0,0,0-1.6-3.552Zm-14.169-1.2a2.526,2.526,0,1,1-2.526-2.5,2.526,2.526,0,0,1,2.526,2.5Zm10.942-2.5a2.5,2.5,0,1,1-2.526,2.5,2.5,2.5,0,0,1,2.526-2.5Zm3.9,8.934a.905.905,0,0,1-.909.9H18.171a.906.906,0,0,1-.91-.9V19.877a3.817,3.817,0,0,1,1.133-2.717,3.457,3.457,0,0,0,5.54,0,3.817,3.817,0,0,1,1.133,2.717v1.681Z" transform="translate(-2.873)" fill="#6e7cee"/>
        <path id="Path_15450" data-name="Path 15450" d="M103.778,115.227H116.7a.461.461,0,1,0,0-.921H103.778a.461.461,0,0,0,0,.921Z" transform="translate(-98.731 -109.087)" fill="#6e7cee"/>
        <path id="Path_15451" data-name="Path 15451" d="M103.778,55.608h1.362a.461.461,0,1,0,0-.921h-1.362a.461.461,0,0,0,0,.921Z" transform="translate(-98.731 -52.19)" fill="#6e7cee"/>
        <path id="Path_15452" data-name="Path 15452" d="M212.478,54.687h-8.344a.461.461,0,1,0,0,.921h8.344a.461.461,0,1,0,0-.921Z" transform="translate(-194.504 -52.19)" fill="#6e7cee"/>
        <path id="Path_15453" data-name="Path 15453" d="M458.811,106.825a.461.461,0,0,0-.461.461h0a.461.461,0,1,0,.461-.463Z" transform="translate(-437.553 -101.947)" fill="#6e7cee"/>
        <path id="Path_15454" data-name="Path 15454" d="M98.865,491.82h0a.46.46,0,1,0,.328.134.461.461,0,0,0-.328-.134Z" transform="translate(-94.041 -469.363)" fill="#6e7cee"/>
      </g>
      <g id="payment-method" transform="translate(112 746.95)">
        <g id="Group_10491" data-name="Group 10491" transform="translate(7.278 18.289)">
          <g id="Group_10490" data-name="Group 10490">
            <path id="Path_15455" data-name="Path 15455" d="M153.693,384.24a.5.5,0,0,0-.027-.09.484.484,0,0,0-.044-.082.464.464,0,0,0-.132-.132.472.472,0,0,0-.082-.044.447.447,0,0,0-.089-.027.468.468,0,0,0-.186,0,.458.458,0,0,0-.09.027.485.485,0,0,0-.082.044.476.476,0,0,0-.175.214.483.483,0,0,0-.027.276.448.448,0,0,0,.027.089.441.441,0,0,0,.044.082.463.463,0,0,0,.132.132.48.48,0,0,0,.082.044.483.483,0,0,0,.276.027.449.449,0,0,0,.089-.027.472.472,0,0,0,.082-.044.463.463,0,0,0,.132-.132.471.471,0,0,0,.044-.082.482.482,0,0,0,.027-.089.457.457,0,0,0,0-.186Z" transform="translate(-152.75 -383.857)" fill="#6e7cee"/>
          </g>
        </g>
        <g id="Group_10493" data-name="Group 10493" transform="translate(0 14.766)">
          <g id="Group_10492" data-name="Group 10492">
            <path id="Path_15456" data-name="Path 15456" d="M21.918,313.975l-.006-.014a1.982,1.982,0,0,0-2.684-.99l-3.32.918a2.176,2.176,0,0,0-1.348-1.327h-.013L10.9,311.319a3.764,3.764,0,0,0-3.036-1.4A3.81,3.81,0,0,0,4.888,311.7H.476a.477.477,0,0,0-.476.477v6.008a.476.476,0,0,0,.476.476H3.31a.476.476,0,0,0,.476-.476v-.411H5.115a.476.476,0,0,0,.476-.477v-.137a3.378,3.378,0,0,1,1.741.625,28.83,28.83,0,0,0,2.863,1.462l.021.009a4.276,4.276,0,0,0,1.533.289,3.8,3.8,0,0,0,1.579-.338l7.338-2.627.039-.016a2.034,2.034,0,0,0,1.213-2.593ZM2.833,317.714H.953V312.66h1.88Zm1.805-.888H3.786V312.66h.852Zm15.684-1.132-7.334,2.626-.021.008-.019.008a3.088,3.088,0,0,1-2.373.04,27.614,27.614,0,0,1-2.767-1.413,4.289,4.289,0,0,0-2.217-.754v-3.838a2.943,2.943,0,0,1,2.272-1.5,2.75,2.75,0,0,1,2.333,1.1.477.477,0,0,0,.253.2l3.787,1.285a1.069,1.069,0,0,1,.778,1.261.928.928,0,0,1-1.141.641L9.6,314.007a.476.476,0,0,0-.288.908l4.276,1.355H13.6a1.881,1.881,0,0,0,2.324-1.295q.016-.058.029-.116l3.578-.991c.517-.176,1.195-.24,1.5.455.313.822-.5,1.271-.711,1.372Z" transform="translate(0 -309.922)" fill="#6e7cee"/>
          </g>
        </g>
        <g id="Group_10495" data-name="Group 10495" transform="translate(16.165 5.883)">
          <g id="Group_10494" data-name="Group 10494">
            <path id="Path_15457" data-name="Path 15457" d="M340.194,123.881a.464.464,0,0,0-.028-.09.452.452,0,0,0-.044-.082.463.463,0,0,0-.132-.132.482.482,0,0,0-.082-.044.475.475,0,0,0-.275-.027.447.447,0,0,0-.089.027.48.48,0,0,0-.214.176.483.483,0,0,0-.044.082.484.484,0,0,0-.027.276.449.449,0,0,0,.027.089.47.47,0,0,0,.044.082.464.464,0,0,0,.132.132.47.47,0,0,0,.082.044.48.48,0,0,0,.089.027.47.47,0,0,0,.093.01.477.477,0,0,0,.093-.01.5.5,0,0,0,.089-.027.482.482,0,0,0,.082-.044.463.463,0,0,0,.132-.132.437.437,0,0,0,.044-.082.45.45,0,0,0,.028-.089.482.482,0,0,0,0-.186Z" transform="translate(-339.25 -123.498)" fill="#6e7cee"/>
          </g>
        </g>
        <g id="Group_10497" data-name="Group 10497" transform="translate(1.415)">
          <g id="Group_10496" data-name="Group 10496">
            <path id="Path_15458" data-name="Path 15458" d="M52.2,1.637H49.363a.476.476,0,0,0-.476.476v.411H47.558A.476.476,0,0,0,47.081,3v.137a3.378,3.378,0,0,1-1.74-.625A28.833,28.833,0,0,0,42.478,1.05l-.021-.009a4.054,4.054,0,0,0-3.111.049l-1.917.687L35.812.163a.477.477,0,0,0-.674,0L29.832,5.469a.473.473,0,0,0,0,.674L38.9,15.21a.515.515,0,0,0,.674,0l4.844-4.844c.126.011.257.017.392.017A3.81,3.81,0,0,0,47.785,8.6H52.2a.476.476,0,0,0,.476-.476V2.114a.476.476,0,0,0-.476-.477ZM35.475,1.174,36.561,2.26a2.077,2.077,0,0,1-2.172,0ZM31.929,6.892,30.843,5.806,31.929,4.72A2.078,2.078,0,0,1,31.929,6.892ZM39.236,14.2,38.15,13.113a2.075,2.075,0,0,1,2.172,0Zm1.772-1.772a3.028,3.028,0,0,0-3.545,0l-4.848-4.85a3.028,3.028,0,0,0,0-3.545L33.7,2.946a3.028,3.028,0,0,0,3.545,0l1.031,1.031A1.889,1.889,0,0,0,36.86,5.016a2.716,2.716,0,1,0,3.123,3.362l1.609.546a3.042,3.042,0,0,0,.5,2.415Zm-2.9-4.685h.013l.953.323a1.763,1.763,0,1,1-2.393-2.014,2.11,2.11,0,0,0,1.43,1.69Zm4.672,2.91a2.084,2.084,0,0,1-.3-.991,3.7,3.7,0,0,0,.84.455Zm4.3-2.721a2.943,2.943,0,0,1-2.272,1.5,3.468,3.468,0,0,1-.5-.035h0a2.729,2.729,0,0,1-1.765-.966l-.057-.077a.475.475,0,0,0-.263-.218l-3.786-1.29a1.069,1.069,0,0,1-.778-1.261h0a.928.928,0,0,1,1.14-.639L43.069,6.3a.477.477,0,0,0,.288-.908l-3.4-1.076-.03-.03h0L38.174,2.524l1.511-.541.016-.006h.005l.019-.008a3.088,3.088,0,0,1,2.373-.04,27.6,27.6,0,0,1,2.767,1.413,4.288,4.288,0,0,0,2.217.754Zm1.805-.287h-.852V3.478h.852Zm2.833,0h-1.88V2.59h1.88Z" transform="translate(-29.691 -0.023)" fill="#6e7cee"/>
          </g>
        </g>
      </g>
      <g id="success" transform="translate(112.924 792.238)">
        <path id="Path_15459" data-name="Path 15459" d="M.3,22.384l.311.7,11.153-4.625,1.943.233.7,2.137-.933.894a1.12,1.12,0,0,0-.272,1.282l.389.972,6.451-2.526-.35-.933A1.1,1.1,0,0,0,18.6,19.78H17.318l-.7-1.671,1.71-.855a1.168,1.168,0,0,0,.583-1.438L16.7,9.871a1.2,1.2,0,0,0-1.516-.7.038.038,0,0,0-.039.039l-1.632.7-.233-.583.894-1.049A4.573,4.573,0,0,0,15.3,5.79l1.127-1.36a2.041,2.041,0,0,0-.272-2.876,3.253,3.253,0,0,0-.466-.311,1.931,1.931,0,0,0-1.321-.117l-.117-.35a1.124,1.124,0,0,0-1.477-.7L4.574,3.03a1.137,1.137,0,0,0-.7,1.477v.039l.194.505A2.153,2.153,0,0,0,2.939,7.694,2.21,2.21,0,0,0,4.727,9.132l1.827.194A5.061,5.061,0,0,0,9.08,10.3l1.282.117L10.6,11a1.157,1.157,0,0,0-.544.777L9.779,13.1.3,16.943l.272.738L6.01,15.505l1.321,3.964Zm18.615-1.632.078.233-4.974,1.982-.117-.233a.539.539,0,0,1,.078-.427l1.32-1.244,1.671-.544h1.554a.39.39,0,0,1,.386.233Zm-2.448-.933-1.4.466-.505-1.477a.864.864,0,0,0,.622-.117l.661-.311ZM15.414,9.793a.386.386,0,0,1,.5.194l.311.816-1.9.622.233.738,1.9-.622.466,1.244-1.826.622.233.739,1.865-.622.466,1.243-1.788.583.233.739,1.826-.622.194.505a.343.343,0,0,1-.194.466l-3.07,1.516a.493.493,0,0,1-.233.039l-2.643-.311-1.438-4.313.272-1.438a.411.411,0,0,1,.233-.272Zm-.039-7.85a1.287,1.287,0,0,1,.661,1.671,1.362,1.362,0,0,1-.194.311l-.466.583a5.808,5.808,0,0,0-.233-1.127l-.5-1.516a1.553,1.553,0,0,1,.737.078ZM3.717,7.5a1.339,1.339,0,0,1,.661-1.671L4.921,7.15A5.63,5.63,0,0,0,5.7,8.471l-.816-.078A1.3,1.3,0,0,1,3.717,7.5ZM9.235,9.56A4.247,4.247,0,0,1,5.66,6.878L4.649,4.313a.385.385,0,0,1,.194-.505l8.2-2.954a.429.429,0,0,1,.311,0,.4.4,0,0,1,.194.233L14.4,3.653a4.272,4.272,0,0,1-.816,4.119l-1.2,1.4.35.933-1.4.583-.389-.972ZM6.748,15.194l.894-.35L8.613,17.8l.738-.233-1.01-3.031L9.9,13.912l1.321,3.925L8.069,19.158Zm0,0" transform="translate(-0.297)" fill="#6e7cee"/>
        <path id="Path_15460" data-name="Path 15460" d="M357.439,41.044v.389h.777v-.389a1.924,1.924,0,0,1,1.943-1.943v-.777a1.924,1.924,0,0,1-1.943-1.943v-.389h-.777v.389a1.924,1.924,0,0,1-1.943,1.943V39.1a1.924,1.924,0,0,1,1.943,1.944Zm.389-3.264a2.679,2.679,0,0,0,.933.933,2.68,2.68,0,0,0-.933.933,2.68,2.68,0,0,0-.933-.933,2.678,2.678,0,0,0,.933-.933Zm0,0" transform="translate(-338.242 -34.244)" fill="#6e7cee"/>
        <path id="Path_15461" data-name="Path 15461" d="M5.439,201.044v.389h.777v-.389A1.924,1.924,0,0,1,8.159,199.1v-.777a1.924,1.924,0,0,1-1.943-1.943v-.389H5.439v.389A1.924,1.924,0,0,1,3.5,198.324v.777a1.924,1.924,0,0,1,1.939,1.943Zm.389-3.264a2.678,2.678,0,0,0,.933.933,2.68,2.68,0,0,0-.933.933,2.68,2.68,0,0,0-.933-.933A2.678,2.678,0,0,0,5.828,197.78Zm0,0" transform="translate(-3.341 -186.472)" fill="#6e7cee"/>
        <path id="Path_15462" data-name="Path 15462" d="M390.216,196.381v-.389h-.777v.389a1.924,1.924,0,0,1-1.943,1.943v.777a1.924,1.924,0,0,1,1.943,1.943v.389h.777v-.389a1.924,1.924,0,0,1,1.943-1.943v-.777a1.924,1.924,0,0,1-1.943-1.943Zm-.389,3.264a2.68,2.68,0,0,0-.933-.933,2.677,2.677,0,0,0,.933-.933,2.679,2.679,0,0,0,.933.933,2.681,2.681,0,0,0-.932.933Zm0,0" transform="translate(-368.687 -186.472)" fill="#6e7cee"/>
        <path id="Path_15463" data-name="Path 15463" d="M236.375,44.967l.544.544c2.137-2.137.155-5.4.039-5.518l-.661.428C236.336,40.42,238.085,43.257,236.375,44.967Zm0,0" transform="translate(-224.833 -38.049)" fill="#6e7cee"/>
      </g>
    </g>
    <g id="Group_10526" data-name="Group 10526" transform="translate(-38.07 -61)">
      <g id="social-media-01" transform="translate(2472.07 1515.896)">
        <path id="Subtraction_4" data-name="Subtraction 4" d="M-2423-1437.465h-6.786a1.487,1.487,0,0,1-1.607-1.6q0-.275,0-.551v-.248c0-.541,0-1.009,0-1.495,0-.152.038-.192.185-.192h.013c.543,0,.543,0,.543.561,0,.069,0,.14,0,.209v.122c0,.281,0,.546,0,.8a.178.178,0,0,0,.032.134.152.152,0,0,0,.111.031h.022c.153-.005.272-.007.385-.007s.241,0,.426.007h.015a.127.127,0,0,0,.1-.028c.021-.019.029-.054.028-.114v-.033c0-.5-.008-1.13,0-1.727a.267.267,0,0,0-.15-.238l-.014-.01-1.258-.9-.871-.621a1.745,1.745,0,0,1-.338-.313c-.479-.579-.99-1.193-1.659-1.994-.232-.277-.226-.416.031-.676l.019-.018.091-.092c.249-.25.559-.562.856-.857a.487.487,0,0,1,.326-.173.465.465,0,0,1,.336.205l.253.3.026.031c.422.5.873,1.037,1.312,1.569a1.075,1.075,0,0,0,.371.3l.1.047.011.005.027.012.03.013a2.968,2.968,0,0,1,.468.248,1.607,1.607,0,0,0,.955.242c.137,0,.26-.005.265-.005h.044l.155,0a2.206,2.206,0,0,1-.828-1.6,2.057,2.057,0,0,1,.6-1.509,2.039,2.039,0,0,1,1.44-.59,2.04,2.04,0,0,1,1.453.6,2.045,2.045,0,0,1,.58,1.5,2.21,2.21,0,0,1-.85,1.615h.058c.064,0,.131,0,.205,0l.05,0h.008c.117,0,.194-.006.273-.006a2.248,2.248,0,0,1,.318.019,1.832,1.832,0,0,1,1.611,1.872c0,.676.01,1.693,0,2.711,0,.167.045.221.184.221h.041c.134-.008.253-.013.354-.013s.211,0,.347.012h.037c.136,0,.159-.064.159-.208-.005-2.737-.006-5,0-7.136,0-1.291,0-2.625,0-3.938,0-.161-.018-.222-.2-.222-1.394,0-2.762.005-4.066.005s-2.672,0-4.066-.005c-.085,0-.131.012-.158.041a.235.235,0,0,0-.039.164c0,.455,0,.918,0,1.365v.006c0,.393,0,.98.006,1.548,0,.173-.044.22-.207.22h-.053c-.487-.01-.487-.01-.487-.529v-3.452a1.481,1.481,0,0,1,1.575-1.583h.487l1.162,0c.408,0,.817,0,1.224,0,.085,0,.129-.011.156-.04a.19.19,0,0,0,.033-.146c-.006-.217-.005-.431,0-.637,0-.187,0-.35,0-.5a.178.178,0,0,1,.031-.13.188.188,0,0,1,.134-.035h.166c.208,0,.309.013.361.089a.994.994,0,0,1,.052.473c0,.037,0,.074,0,.111v.12c0,.193,0,.353-.005.511a.2.2,0,0,0,.031.147.183.183,0,0,0,.14.038h.02c.346,0,.727,0,1.233,0q.807,0,1.616,0a1.487,1.487,0,0,1,1.6,1.607v12.72A1.485,1.485,0,0,1-2423-1437.465Zm-7.466-1.481c-.094,0-.144.013-.167.044s-.019.078.008.162a.755.755,0,0,0,.72.539h6.978a.753.753,0,0,0,.771-.539c.028-.08.03-.132.008-.162s-.071-.043-.167-.043c-.608,0-1.139,0-1.577,0h-3.5C-2428.326-1438.943-2429.381-1438.943-2430.466-1438.946Zm5.548-3.712h.016c.146,0,.184.039.184.19,0,.446,0,.879,0,1.379v.259c0,.2,0,.391,0,.587,0,.557,0,.557.545.561h.011c.149,0,.188-.039.188-.191,0-.665,0-1.325,0-1.939v-.749a1.113,1.113,0,0,0-1.217-1.2h-3.846a.387.387,0,0,1-.043,0,.711.711,0,0,1-.294-.064c-.505-.259-.956-.489-1.379-.7a.813.813,0,0,1-.26-.224l-.918-1.094-.607-.724-.028.031-.022.024-.053.058-.005.006-.012.014a3.341,3.341,0,0,1-.3.306c-.131.118-.136.194-.021.326.266.307.535.633.751.895l.008.009.043.053.063.077.062.074.262.314.042.05,0,0a2.233,2.233,0,0,0,.422.422c.357.251.733.519,1.065.755l.022.016.063.045.167.119.163.117q.41.293.821.584a.5.5,0,0,1,.23.448c0,.284,0,.574,0,.854v.22c0,.3,0,.587,0,.872,0,.081.007.125.034.152s.07.039.151.039c.448,0,.947,0,1.483,0s1.038,0,1.484,0h.019c.134,0,.171-.04.171-.185,0-.443,0-.874,0-1.372v-.257c0-.2,0-.4,0-.595C-2425.464-1442.654-2425.464-1442.654-2424.919-1442.658Zm-2.029-4.815a1.292,1.292,0,0,0-.9.365,1.3,1.3,0,0,0-.3,1.412,1.294,1.294,0,0,0,1.189.819h.016a1.3,1.3,0,0,0,1.3-1.274,1.294,1.294,0,0,0-.78-1.215A1.289,1.289,0,0,0-2426.947-1447.473Zm-2.929-5.193a.731.731,0,0,0-.732.495c-.043.119-.058.178-.036.21s.08.037.2.037h8.11c.118,0,.178-.006.2-.038s.008-.091-.035-.209a.744.744,0,0,0-.756-.495h-6.952Z" transform="translate(2443.629 1457.741)" fill="#6e7cee"/>
        <path id="Subtraction_1" data-name="Subtraction 1" d="M-2433.441-1445.992h-.036c-.523-.008-.523-.008-.523-.547v-3.082a1.486,1.486,0,0,1,1.568-1.566h.945a2.206,2.206,0,0,1-.839-1.579,2.057,2.057,0,0,1,.564-1.507,2.033,2.033,0,0,1,1.47-.622,2.035,2.035,0,0,1,1.422.576c.892.866.811,2.066-.212,3.133h.959a1.474,1.474,0,0,1,1.535,1.529q0,.678,0,1.356v.2c0,.629,0,1.279,0,1.919,0,.151-.037.19-.18.19h-.018c-.549,0-.549,0-.549-.561v-3.058a.749.749,0,0,0-.828-.833h-4.286a.745.745,0,0,0-.817.82q0,.429,0,.857c0,.841,0,1.71,0,2.571C-2433.254-1446.046-2433.282-1445.992-2433.441-1445.992Zm3.146-8.162a1.289,1.289,0,0,0-.915.378,1.294,1.294,0,0,0-.284,1.416,1.292,1.292,0,0,0,1.2.8,1.3,1.3,0,0,0,1.3-1.292,1.3,1.3,0,0,0-.8-1.2A1.3,1.3,0,0,0-2430.3-1454.154Z" transform="translate(2434 1468.13)" fill="#6e7cee"/>
        <path id="Path_15474" data-name="Path 15474" d="M237,15.621a3.416,3.416,0,0,1,.418-1.6c.062-.113.106-.171.236-.069s.356.161.429.3-.113.309-.171.468a2.555,2.555,0,0,0,.143,2.143c.071.137.057.2-.077.261a1.839,1.839,0,0,0-.2.124c-.287.181-.287.181-.441-.134A3.389,3.389,0,0,1,237,15.621Z" transform="translate(-223.096 -13.896)" fill="#6e7cee"/>
        <path id="Path_15475" data-name="Path 15475" d="M328.249,15.953a3.448,3.448,0,0,1-.433,1.639c-.055.1-.1.138-.2.062-.148-.109-.371-.168-.448-.309s.112-.309.17-.467a2.542,2.542,0,0,0-.133-2.121c-.085-.163-.062-.227.088-.294a1.6,1.6,0,0,0,.176-.109c.284-.176.283-.176.428.116A3.38,3.38,0,0,1,328.249,15.953Z" transform="translate(-307.669 -14.212)" fill="#6e7cee"/>
        <path id="Path_15476" data-name="Path 15476" d="M111.07,189.6c-.03.038-.056.075-.087.106-.457.459-.918.915-1.373,1.377-.079.081-.124.074-.2,0-.439-.412-.442-.409-.012-.838.349-.349.7-.7,1.045-1.051.093-.1.15-.1.234,0s.206.208.309.313C111.013,189.537,111.037,189.566,111.07,189.6Z" transform="translate(-103.081 -178.292)" fill="#6e7cee"/>
        <path id="Path_15477" data-name="Path 15477" d="M126.053,234.281c-.185-.138-.105-.386-.182-.571-.048-.116.018-.161.13-.181.4-.074.8-.156,1.2-.235l.655-.134c.106-.022.172-.03.2.124.124.567.131.568-.428.684C127.119,234.072,126.607,234.171,126.053,234.281Z" transform="translate(-118.822 -219.596)" fill="#6e7cee"/>
        <path id="Path_15478" data-name="Path 15478" d="M80.5,167.216c-.133.674-.263,1.331-.393,1.987-.012.062-.045.1-.113.08-.022,0-.046-.006-.069-.011-.563-.1-.566-.1-.457-.661.093-.494.195-.981.287-1.472.022-.117.062-.174.193-.135a3.382,3.382,0,0,0,.452.091C80.494,167.11,80.523,167.148,80.5,167.216Z" transform="translate(-75.252 -157.529)" fill="#6e7cee"/>
        <path id="Path_15479" data-name="Path 15479" d="M260.94,27.551a1.993,1.993,0,0,1,.221-.9c.048-.092.093-.108.172-.045.036.028.076.051.115.077.124.079.285.132.356.244s-.077.247-.1.379a1.07,1.07,0,0,0,.083.674c.055.111.037.164-.062.217-.075.039-.144.088-.216.133-.315.2-.318.2-.448-.162a2.558,2.558,0,0,1-.1-.378A1.947,1.947,0,0,1,260.94,27.551Z" transform="translate(-245.557 -25.788)" fill="#6e7cee"/>
        <path id="Path_15480" data-name="Path 15480" d="M307.574,27.753a1.916,1.916,0,0,1-.218.812c-.048.093-.093.106-.171.045-.036-.028-.077-.05-.116-.075-.124-.079-.284-.132-.356-.247s.075-.244.1-.379a1.079,1.079,0,0,0-.082-.674c-.052-.108-.044-.163.062-.215a2.422,2.422,0,0,0,.234-.146c.291-.185.29-.185.42.151A1.9,1.9,0,0,1,307.574,27.753Z" transform="translate(-288.482 -25.954)" fill="#6e7cee"/>
        <path id="Path_15481" data-name="Path 15481" d="M285.683,36.483a.371.371,0,1,1-.371-.363.371.371,0,0,1,.371.363Z" transform="translate(-268.074 -34.746)" fill="#6e7cee"/>
      </g>
    </g>
  </g>
</svg>
