<svg xmlns="http://www.w3.org/2000/svg" width="18.508" height="158.353" viewBox="0 0 18.508 158.353">
  <g id="formIcon" transform="translate(-833.999 -296.417)">
    <g id="user_2_" data-name="user (2)" transform="translate(835.256 296.417)">
      <path id="Path_15464" data-name="Path 15464" d="M90.684,7.305a3.534,3.534,0,0,0,2.583-1.07,3.534,3.534,0,0,0,1.07-2.583,3.535,3.535,0,0,0-1.07-2.583,3.652,3.652,0,0,0-5.165,0,3.534,3.534,0,0,0-1.07,2.582A3.534,3.534,0,0,0,88.1,6.235,3.535,3.535,0,0,0,90.684,7.305Zm0,0" transform="translate(-84.453)" fill="#333"/>
      <path id="Path_15465" data-name="Path 15465" d="M12.622,251.652a9.022,9.022,0,0,0-.123-.958,7.55,7.55,0,0,0-.236-.963,4.759,4.759,0,0,0-.4-.9,3.391,3.391,0,0,0-.6-.778,2.633,2.633,0,0,0-.858-.539,2.965,2.965,0,0,0-1.1-.2,1.112,1.112,0,0,0-.594.252c-.178.116-.386.25-.618.4a3.544,3.544,0,0,1-.8.353,3.107,3.107,0,0,1-1.957,0,3.535,3.535,0,0,1-.8-.352c-.23-.147-.438-.281-.619-.4a1.11,1.11,0,0,0-.593-.252,2.961,2.961,0,0,0-1.1.2,2.631,2.631,0,0,0-.858.539,3.391,3.391,0,0,0-.6.778,4.768,4.768,0,0,0-.4.9,7.568,7.568,0,0,0-.236.963,8.99,8.99,0,0,0-.123.959c-.02.29-.03.591-.03.9a2.518,2.518,0,0,0,.748,1.905,2.692,2.692,0,0,0,1.927.7h7.3a2.692,2.692,0,0,0,1.927-.7,2.517,2.517,0,0,0,.748-1.905C12.652,252.242,12.642,251.941,12.622,251.652Zm0,0" transform="translate(0 -239.991)" fill="#333"/>
    </g>
    <g id="envelope" transform="translate(835.186 278.597)">
      <g id="Group_10504" data-name="Group 10504" transform="translate(0 54.82)">
        <path id="Path_15466" data-name="Path 15466" d="M1.509,58.628q.3.211,1.8,1.25t2.3,1.6l.373.268q.285.206.474.333t.456.285a2.646,2.646,0,0,0,.5.237,1.39,1.39,0,0,0,.439.079H7.87a1.391,1.391,0,0,0,.439-.079,2.649,2.649,0,0,0,.5-.237q.268-.158.456-.285t.474-.333q.285-.206.373-.268l4.106-2.852a4.168,4.168,0,0,0,1.07-1.079,2.317,2.317,0,0,0,.43-1.325,1.416,1.416,0,0,0-1.4-1.4H1.4a1.253,1.253,0,0,0-1.04.456A1.771,1.771,0,0,0,0,56.417a2.049,2.049,0,0,0,.483,1.2A4.355,4.355,0,0,0,1.509,58.628Z" transform="translate(0 -54.82)" fill="#333"/>
        <path id="Path_15467" data-name="Path 15467" d="M14.845,185.2q-2.878,1.948-4.369,3.027-.5.368-.812.575a5.006,5.006,0,0,1-.829.421,2.524,2.524,0,0,1-.965.215H7.853a2.525,2.525,0,0,1-.965-.215,5.009,5.009,0,0,1-.829-.421q-.311-.206-.812-.575Q4.062,187.359.886,185.2A4.647,4.647,0,0,1,0,184.437V191.4a1.351,1.351,0,0,0,.412.992,1.352,1.352,0,0,0,.991.412H14.319a1.408,1.408,0,0,0,1.4-1.4v-6.966A4.837,4.837,0,0,1,14.845,185.2Z" transform="translate(0 -180.454)" fill="#333"/>
      </g>
    </g>
    <path id="Forma_1" data-name="Forma 1" d="M15.564,12.054a.739.739,0,0,1-.226.647l-2.15,2.136a1.211,1.211,0,0,1-.38.275,1.569,1.569,0,0,1-.461.146l-.1.008q-.081.008-.21.008a7.448,7.448,0,0,1-.994-.105,7.541,7.541,0,0,1-1.681-.518,14.107,14.107,0,0,1-2.255-1.238,16.817,16.817,0,0,1-2.683-2.265A17.722,17.722,0,0,1,2.554,9.012a15.216,15.216,0,0,1-1.2-1.885A10.158,10.158,0,0,1,.68,5.558,8.332,8.332,0,0,1,.372,4.345a4.011,4.011,0,0,1-.065-.8q.016-.291.016-.324a1.574,1.574,0,0,1,.145-.461,1.213,1.213,0,0,1,.275-.38L2.894.227A.712.712,0,0,1,3.411,0a.6.6,0,0,1,.372.121,1.124,1.124,0,0,1,.275.3L5.787,3.705a.788.788,0,0,1,.081.566,1.009,1.009,0,0,1-.275.518L4.8,5.582a.27.27,0,0,0-.057.105.4.4,0,0,0-.024.121,2.923,2.923,0,0,0,.291.777,7.132,7.132,0,0,0,.6.946A10.505,10.505,0,0,0,6.756,8.818,10.707,10.707,0,0,0,8.049,9.975a7.464,7.464,0,0,0,.945.607,2.514,2.514,0,0,0,.582.235l.2.04a.384.384,0,0,0,.105-.024.27.27,0,0,0,.105-.057l.921-.938a.989.989,0,0,1,.679-.259.844.844,0,0,1,.436.1h.016L15.16,11.52A.814.814,0,0,1,15.564,12.054Z" transform="translate(837.398 366.994) rotate(14)" fill="#333"/>
    <g id="business-and-trade" transform="translate(835.742 403.822)">
      <path id="Path_15468" data-name="Path 15468" d="M8.626,1.3,1.351.193A1.173,1.173,0,0,0,.41.451,1.184,1.184,0,0,0,0,1.338V15.287a.664.664,0,0,0,.662.662H2.814V12.473a1.156,1.156,0,0,1,1.159-1.159H5.627a1.156,1.156,0,0,1,1.159,1.159v3.476H9.6V2.443A1.159,1.159,0,0,0,8.626,1.3ZM3.641,9.825H2.648a.5.5,0,1,1,0-.993h.993a.5.5,0,1,1,0,.993Zm0-1.986H2.648a.5.5,0,0,1,0-.993h.993a.5.5,0,0,1,0,.993Zm0-1.986H2.648a.5.5,0,0,1,0-.993h.993a.5.5,0,0,1,0,.993Zm0-1.986H2.648a.5.5,0,0,1,0-.993h.993a.5.5,0,0,1,0,.993Zm3.31,5.958H5.958a.5.5,0,1,1,0-.993h.993a.5.5,0,1,1,0,.993Zm0-1.986H5.958a.5.5,0,0,1,0-.993h.993a.5.5,0,1,1,0,.993Zm0-1.986H5.958a.5.5,0,0,1,0-.993h.993a.5.5,0,1,1,0,.993Zm0-1.986H5.958a.5.5,0,1,1,0-.993h.993a.5.5,0,1,1,0,.993Z" fill="#333"/>
      <path id="Path_15469" data-name="Path 15469" d="M20.214,10.338,15.5,9.351v9.7h4.469a1.16,1.16,0,0,0,1.159-1.159V11.47A1.153,1.153,0,0,0,20.214,10.338Zm-1.569,6.725h-.993a.5.5,0,1,1,0-.993h.993a.5.5,0,0,1,0,.993Zm0-1.986h-.993a.5.5,0,1,1,0-.993h.993a.5.5,0,0,1,0,.993Zm0-1.986h-.993a.5.5,0,1,1,0-.993h.993a.5.5,0,0,1,0,.993Z" transform="translate(-5.239 -3.1)" fill="#333"/>
    </g>
    <g id="globe" transform="translate(835.742 439)">
      <g id="Group_10513" data-name="Group 10513">
        <path id="Path_15470" data-name="Path 15470" d="M7.885,0a7.885,7.885,0,1,0,7.885,7.885A7.881,7.881,0,0,0,7.885,0ZM4.834,1.625a17.987,17.987,0,0,0-.6,1.98A12.461,12.461,0,0,1,2.84,3.089,6.98,6.98,0,0,1,4.834,1.625Zm-2.606,2.2a13.4,13.4,0,0,0,1.811.685,18.235,18.235,0,0,0-.305,2.911H.94A6.9,6.9,0,0,1,2.228,3.827Zm0,8.117A6.9,6.9,0,0,1,.94,8.347H3.734a18.235,18.235,0,0,0,.305,2.911A13.4,13.4,0,0,0,2.228,11.944Zm.612.738a12.446,12.446,0,0,1,1.394-.516,17.994,17.994,0,0,0,.6,1.98A6.981,6.981,0,0,1,2.84,12.682Zm4.583,2.149A6.964,6.964,0,0,1,6,14.59a17.12,17.12,0,0,1-.875-2.66,12.546,12.546,0,0,1,2.3-.293Zm0-4.119a13.471,13.471,0,0,0-2.487.313,17.319,17.319,0,0,1-.278-2.678H7.423Zm0-3.289H4.658a17.319,17.319,0,0,1,.278-2.678,13.471,13.471,0,0,0,2.487.313Zm0-3.29a12.546,12.546,0,0,1-2.3-.293A17.12,17.12,0,0,1,6,1.181,6.964,6.964,0,0,1,7.423.94Zm6.119-.307a6.9,6.9,0,0,1,1.289,3.6H12.037a18.235,18.235,0,0,0-.305-2.911A13.4,13.4,0,0,0,13.543,3.827Zm-.612-.738a12.446,12.446,0,0,1-1.394.516,17.994,17.994,0,0,0-.6-1.98A6.981,6.981,0,0,1,12.931,3.089ZM8.347.94a6.964,6.964,0,0,1,1.421.241,17.12,17.12,0,0,1,.875,2.66,12.546,12.546,0,0,1-2.3.293Zm0,4.119a13.471,13.471,0,0,0,2.487-.313,17.319,17.319,0,0,1,.278,2.678H8.347ZM9.768,14.59a6.961,6.961,0,0,1-1.421.241V11.637a12.546,12.546,0,0,1,2.3.293A17.119,17.119,0,0,1,9.768,14.59ZM8.347,10.712V8.347h2.765a17.319,17.319,0,0,1-.278,2.678A13.471,13.471,0,0,0,8.347,10.712Zm2.589,3.434a17.987,17.987,0,0,0,.6-1.98,12.461,12.461,0,0,1,1.394.516A6.98,6.98,0,0,1,10.936,14.146Zm2.606-2.2a13.4,13.4,0,0,0-1.811-.685,18.235,18.235,0,0,0,.305-2.911h2.795A6.9,6.9,0,0,1,13.543,11.944Z" fill="#333"/>
      </g>
    </g>
  </g>
</svg>
