<svg class="safemeet-right" width="25" height="25" viewBox="0 0 25 25" fill="none" xmlns="http://www.w3.org/2000/svg">
<path d="M12.5 25C10.8073 25 9.18783 24.6704 7.6416 24.0112C6.09538 23.3521 4.76481 22.465 3.6499 21.3501C2.53499 20.2352 1.64795 18.9046 0.98877 17.3584C0.32959 15.8122 0 14.1927 0 12.5C0 10.8073 0.32959 9.18783 0.98877 7.6416C1.64795 6.09538 2.53499 4.76481 3.6499 3.6499C4.76481 2.53499 6.09538 1.64795 7.6416 0.98877C9.18783 0.32959 10.8073 0 12.5 0C14.1927 0 15.8122 0.32959 17.3584 0.98877C18.9046 1.64795 20.2352 2.53499 21.3501 3.6499C22.465 4.76481 23.3521 6.09538 24.0112 7.6416C24.6704 9.18783 25 10.8073 25 12.5C25 14.1927 24.6704 15.8122 24.0112 17.3584C23.3521 18.9046 22.465 20.2352 21.3501 21.3501C20.2352 22.465 18.9046 23.3521 17.3584 24.0112C15.8122 24.6704 14.1927 25 12.5 25ZM19.8364 8.26416C19.519 7.94678 19.1325 7.78809 18.6768 7.78809C18.221 7.78809 17.8385 7.95085 17.5293 8.27637L10.9131 14.8682L7.44629 11.4014C7.13704 11.0758 6.75456 10.9131 6.29883 10.9131C5.8431 10.9131 5.45654 11.0718 5.13916 11.3892C4.82178 11.7065 4.66309 12.0931 4.66309 12.5488C4.66309 13.0046 4.82585 13.387 5.15137 13.6963L9.7168 18.2617C10.0423 18.6035 10.4492 18.7663 10.9375 18.75C11.4095 18.7663 11.8083 18.6035 12.1338 18.2617L19.8242 10.5713C20.1497 10.262 20.3125 9.87956 20.3125 9.42383C20.3125 8.9681 20.1538 8.58154 19.8364 8.26416Z" fill="black"/>
</svg>
