<svg className="safemeet-wrong" width="25" height="25" viewBox="0 0 25 25" fill="none" xmlns="http://www.w3.org/2000/svg">
<path fill-rule="evenodd" clip-rule="evenodd" d="M12.5 0C5.59659 0 0 5.59659 0 12.5C0 19.4034 5.59659 25 12.5 25C19.4034 25 25 19.4034 25 12.5C25 5.59659 19.4034 0 12.5 0ZM16.7125 9.89432C16.9195 9.68 17.034 9.39295 17.0314 9.095C17.0289 8.79705 16.9093 8.51203 16.6987 8.30134C16.488 8.09065 16.203 7.97114 15.905 7.96855C15.607 7.96596 15.32 8.0805 15.1057 8.2875L12.5 10.8932L9.89432 8.2875C9.78949 8.17897 9.6641 8.09239 9.52546 8.03284C9.38682 7.97328 9.2377 7.94194 9.08682 7.94062C8.93593 7.93931 8.7863 7.96807 8.64664 8.0252C8.50699 8.08234 8.38011 8.16672 8.27341 8.27341C8.16672 8.38011 8.08234 8.50699 8.0252 8.64664C7.96807 8.7863 7.93931 8.93593 7.94062 9.08682C7.94194 9.2377 7.97328 9.38682 8.03284 9.52546C8.09239 9.6641 8.17897 9.78949 8.2875 9.89432L10.8932 12.5L8.2875 15.1057C8.17897 15.2105 8.09239 15.3359 8.03284 15.4745C7.97328 15.6132 7.94194 15.7623 7.94062 15.9132C7.93931 16.0641 7.96807 16.2137 8.0252 16.3534C8.08234 16.493 8.16672 16.6199 8.27341 16.7266C8.38011 16.8333 8.50699 16.9177 8.64664 16.9748C8.7863 17.0319 8.93593 17.0607 9.08682 17.0594C9.2377 17.0581 9.38682 17.0267 9.52546 16.9672C9.6641 16.9076 9.78949 16.821 9.89432 16.7125L12.5 14.1068L15.1057 16.7125C15.32 16.9195 15.607 17.034 15.905 17.0314C16.203 17.0289 16.488 16.9093 16.6987 16.6987C16.9093 16.488 17.0289 16.203 17.0314 15.905C17.034 15.607 16.9195 15.32 16.7125 15.1057L14.1068 12.5L16.7125 9.89432Z" fill="black"/>
</svg>
