<svg width="25" height="25" viewBox="0 0 25 25" fill="none" xmlns="http://www.w3.org/2000/svg">
<path d="M25 12.5C25 15.8152 23.683 18.9946 21.3388 21.3388C18.9946 23.683 15.8152 25 12.5 25C9.18479 25 6.00537 23.683 3.66117 21.3388C1.31696 18.9946 0 15.8152 0 12.5C0 9.18479 1.31696 6.00537 3.66117 3.66117C6.00537 1.31696 9.18479 0 12.5 0C15.8152 0 18.9946 1.31696 21.3388 3.66117C23.683 6.00537 25 9.18479 25 12.5V12.5ZM8.36563 7.25937C8.21893 7.11268 8.01996 7.03026 7.8125 7.03026C7.60504 7.03026 7.40607 7.11268 7.25937 7.25937C7.11268 7.40607 7.03026 7.60504 7.03026 7.8125C7.03026 8.01996 7.11268 8.21893 7.25937 8.36563L11.3953 12.5L7.25937 16.6344C7.18674 16.707 7.12912 16.7932 7.08981 16.8882C7.0505 16.9831 7.03026 17.0848 7.03026 17.1875C7.03026 17.2902 7.0505 17.3919 7.08981 17.4868C7.12912 17.5818 7.18674 17.668 7.25937 17.7406C7.40607 17.8873 7.60504 17.9697 7.8125 17.9697C7.91522 17.9697 8.01694 17.9495 8.11185 17.9102C8.20675 17.8709 8.29299 17.8133 8.36563 17.7406L12.5 13.6047L16.6344 17.7406C16.707 17.8133 16.7932 17.8709 16.8882 17.9102C16.9831 17.9495 17.0848 17.9697 17.1875 17.9697C17.2902 17.9697 17.3919 17.9495 17.4868 17.9102C17.5818 17.8709 17.668 17.8133 17.7406 17.7406C17.8133 17.668 17.8709 17.5818 17.9102 17.4868C17.9495 17.3919 17.9697 17.2902 17.9697 17.1875C17.9697 17.0848 17.9495 16.9831 17.9102 16.8882C17.8709 16.7932 17.8133 16.707 17.7406 16.6344L13.6047 12.5L17.7406 8.36563C17.8133 8.29299 17.8709 8.20675 17.9102 8.11185C17.9495 8.01694 17.9697 7.91522 17.9697 7.8125C17.9697 7.70978 17.9495 7.60806 17.9102 7.51315C17.8709 7.41825 17.8133 7.33201 17.7406 7.25937C17.668 7.18674 17.5818 7.12912 17.4868 7.08981C17.3919 7.0505 17.2902 7.03026 17.1875 7.03026C17.0848 7.03026 16.9831 7.0505 16.8882 7.08981C16.7932 7.12912 16.707 7.18674 16.6344 7.25937L12.5 11.3953L8.36563 7.25937Z" fill="white"/>
</svg>
