<svg xmlns="http://www.w3.org/2000/svg" width="285.957" height="221.145" viewBox="0 0 285.957 221.145">
  <g id="award" transform="translate(-116.557 -1694.239)">
    <path id="Path_15474" data-name="Path 15474" d="M19760.771,2623.5l5.584-57.776s.383-31.727,39.939-31.727c.4.4,151.863,0,151.863,0s52.688-4.114,42.205,70.954c-.42.445-5.848,69.687-5.848,69.687s-2.371,47.682-84.949,34.911c.547.4-116.281-15.65-116.281-15.65s-42.141-2.386-34.383-53.124C19758.762,2640.437,19760.771,2623.5,19760.771,2623.5Z" transform="translate(-19624.738 -799.862)" fill="#f5f6fb"/>
    <path id="Polygon_1" data-name="Polygon 1" d="M22.821,0a6,6,0,0,1,5.188,2.985l5.271,9.072a6,6,0,0,1,0,6.029l-5.271,9.072a6,6,0,0,1-5.188,2.985H12.211a6,6,0,0,1-5.188-2.985L1.752,18.086a6,6,0,0,1,0-6.029L7.023,2.985A6,6,0,0,1,12.211,0Z" transform="matrix(0.899, -0.438, 0.438, 0.899, 116.557, 1749.457)" fill="#70c5e0"/>
    <path id="Polygon_2" data-name="Polygon 2" d="M11.076,0A2,2,0,0,1,12.8.986l2.9,4.925a2,2,0,0,1,0,2.028l-2.9,4.925a2,2,0,0,1-1.724.986H5.217a2,2,0,0,1-1.724-.986L.6,7.939a2,2,0,0,1,0-2.028L3.493.986A2,2,0,0,1,5.217,0Z" transform="matrix(0.899, -0.438, 0.438, 0.899, 381.797, 1745.655)" fill="#eeb978"/>
    <path id="Polygon_4" data-name="Polygon 4" d="M16.3,0A2,2,0,0,1,18.02.986l4.637,7.883a2,2,0,0,1,0,2.028L18.02,18.78a2,2,0,0,1-1.724.986H6.957a2,2,0,0,1-1.724-.986L.6,10.9a2,2,0,0,1,0-2.028L5.234.986A2,2,0,0,1,6.957,0Z" transform="matrix(0.899, -0.438, 0.438, 0.899, 191.61, 1897.619)" fill="#eeb978"/>
    <path id="Polygon_5" data-name="Polygon 5" d="M6.856,0A2,2,0,0,1,8.58.986l1.49,2.533a2,2,0,0,1,0,2.028L8.58,8.081a2,2,0,0,1-1.724.986H3.811a2,2,0,0,1-1.724-.986L.6,5.547a2,2,0,0,1,0-2.028L2.087.986A2,2,0,0,1,3.811,0Z" transform="translate(151.233 1837.573) rotate(20)" fill="#6fc5df"/>
    <path id="Polygon_3" data-name="Polygon 3" d="M4.05,0A2,2,0,0,1,5.774.986l.555.943a2,2,0,0,1,0,2.028L5.774,4.9a2,2,0,0,1-1.724.986H2.875A2,2,0,0,1,1.151,4.9L.6,3.957a2,2,0,0,1,0-2.028L1.151.986A2,2,0,0,1,2.875,0Z" transform="matrix(0.899, -0.438, 0.438, 0.899, 375.28, 1884.966)" fill="#6fc5df"/>
    <g id="trophy" transform="translate(162.54 1694.239)">
      <g id="Group_10566" data-name="Group 10566" transform="translate(54.421 143.909)">
        <path id="Path_15475" data-name="Path 15475" d="M226.253,410.112,188.842,399.3l-37.41,10.812a4.392,4.392,0,0,0-.432,2.054v22.345h75.685V412.166A4.391,4.391,0,0,0,226.253,410.112Z" transform="translate(-151 -399.3)" fill="#646d73"/>
      </g>
      <path id="Path_15476" data-name="Path 15476" d="M293.842,434.511V412.166a4.392,4.392,0,0,0-.432-2.054L256,399.3v35.211Z" transform="translate(-163.737 -255.391)" fill="#474f54"/>
      <path id="Path_15477" data-name="Path 15477" d="M179.12,10.812H151.5c.048-1.826.232-3.546.232-5.406A5.353,5.353,0,0,0,146.324,0H38.2A5.353,5.353,0,0,0,32.8,5.406c0,1.86.185,3.58.232,5.406H5.406A5.4,5.4,0,0,0,0,16.218V29.913C0,60.1,24.18,84.619,53.979,86.2c6.208,8.547,13.576,14.89,21.958,18.464-1.3,26.273-16.326,44.546-19.894,48.33a3.837,3.837,0,0,0-1.19,1.73h74.82a3.84,3.84,0,0,0-1.19-1.73c-3.676-3.785-18.6-21.949-19.894-48.33,8.384-3.574,15.8-9.919,22.009-18.469,29.773-1.6,53.927-26.111,53.927-56.279V16.218a5.4,5.4,0,0,0-5.406-5.406ZM10.812,29.913V21.624h22.68C34.9,39.492,38.77,58.416,46.914,74.5,26.5,69.9,10.812,51.7,10.812,29.913Zm162.9,0c0,21.773-15.674,39.969-36.072,44.576,8.079-16.082,11.975-34.823,13.392-52.865h22.68Z" transform="translate(0)" fill="#fed843"/>
      <path id="Path_15478" data-name="Path 15478" d="M342.857,10.812H315.234c.048-1.826.232-3.546.232-5.406A5.353,5.353,0,0,0,310.06,0H256V154.721h37.41a3.84,3.84,0,0,0-1.19-1.73c-3.676-3.785-18.6-21.949-19.894-48.33,8.384-3.574,15.8-9.919,22.009-18.469,29.773-1.6,53.927-26.111,53.927-56.279V16.218a5.4,5.4,0,0,0-5.406-5.406Zm-5.406,19.1c0,21.773-15.674,39.969-36.072,44.576,8.08-16.082,11.976-34.823,13.392-52.865h22.68Z" transform="translate(-163.737)" fill="#fabe2c"/>
      <g id="Trophy_31_" transform="translate(68.865 24.567)">
        <g id="Group_10567" data-name="Group 10567">
          <path id="Path_15479" data-name="Path 15479" d="M223.1,112.363l-8.627-4.482-8.627,4.482a5.4,5.4,0,0,1-7.824-5.681l1.584-9.6-6.916-6.826a5.4,5.4,0,0,1,2.988-9.2l9.608-1.447,4.35-8.7c1.837-3.664,7.834-3.664,9.672,0l4.35,8.7,9.608,1.447a5.4,5.4,0,0,1,2.988,9.2l-6.916,6.826,1.584,9.6a5.4,5.4,0,0,1-7.824,5.681Z" transform="translate(-191.079 -68.167)" fill="#fabe2c"/>
        </g>
      </g>
      <path id="Path_15480" data-name="Path 15480" d="M264.627,112.362a5.4,5.4,0,0,0,7.824-5.681l-1.584-9.6,6.916-6.826a5.4,5.4,0,0,0-2.988-9.2l-9.608-1.447-4.35-8.7A5.29,5.29,0,0,0,256,68.166V107.88Z" transform="translate(-163.737 -43.599)" fill="#ff9100"/>
      <g id="Group_10568" data-name="Group 10568" transform="translate(43.609 173.714)">
        <path id="Path_15481" data-name="Path 15481" d="M212.9,492.812h-86.5a5.406,5.406,0,0,1,0-10.812h86.5a5.406,5.406,0,0,1,0,10.812Z" transform="translate(-121 -482)" fill="#474f54"/>
      </g>
      <path id="Path_15482" data-name="Path 15482" d="M299.248,482H256v10.812h43.248a5.406,5.406,0,0,0,0-10.812Z" transform="translate(-163.737 -308.286)" fill="#32393f"/>
    </g>
  </g>
</svg>
