<svg xmlns="http://www.w3.org/2000/svg" width="16.921" height="16.895" viewBox="0 0 16.921 16.895">
  <g id="call" transform="translate(2.824 -0.386) rotate(11)">
    <g id="Group_10605" data-name="Group 10605" transform="translate(0 0.394)">
      <g id="Group_10604" data-name="Group 10604" transform="translate(0 0)">
        <path id="Path_15550" data-name="Path 15550" d="M14.113,11.787l-2.23-2.23a1.163,1.163,0,0,0-1.639.031L9.121,10.711,8.9,10.588A11.178,11.178,0,0,1,6.2,8.634,11.24,11.24,0,0,1,4.24,5.927c-.042-.075-.081-.148-.121-.217l.754-.753.371-.371a1.161,1.161,0,0,0,.03-1.639L3.044.717A1.161,1.161,0,0,0,1.4.748L.776,1.38.793,1.4a3.634,3.634,0,0,0-.518.913,3.787,3.787,0,0,0-.23.926c-.294,2.441.821,4.671,3.848,7.7,4.184,4.184,7.556,3.868,7.7,3.852a3.767,3.767,0,0,0,.929-.233,3.621,3.621,0,0,0,.91-.516l.014.012.637-.623A1.164,1.164,0,0,0,14.113,11.787Z" transform="translate(0 -0.394)" fill="#666"/>
      </g>
    </g>
  </g>
</svg>
