<svg xmlns="http://www.w3.org/2000/svg" width="20.307" height="18.614" viewBox="0 0 20.307 18.614">
  <g id="checkmark_1_" data-name="checkmark (1)" transform="translate(0 -0.008)">
    <path id="Path_17700" data-name="Path 17700" d="M9.307,18.622A9.307,9.307,0,1,1,14.328,1.479a.635.635,0,0,1-.686,1.069,8.037,8.037,0,1,0,3.7,6.767c0-.265-.013-.527-.037-.785a.635.635,0,0,1,1.263-.123q.043.448.043.908A9.318,9.318,0,0,1,9.307,18.622Zm0,0" fill="#fff"/>
    <path id="Path_17701" data-name="Path 17701" d="M153.781,31.923a.63.63,0,0,1-.448-.186l-3.807-3.807a.635.635,0,1,1,.9-.9l3.359,3.359,8.858-8.858a.635.635,0,0,1,.9.9l-9.307,9.307A.636.636,0,0,1,153.781,31.923Zm0,0" transform="translate(-143.417 -20.494)" fill="#fff"/>
  </g>
</svg>
