<svg xmlns="http://www.w3.org/2000/svg" width="63" height="63" viewBox="0 0 63 63">
  <g id="downloadIcon" transform="translate(-0.158)">
    <circle id="Ellipse_555" data-name="Ellipse 555" cx="31.5" cy="31.5" r="31.5" transform="translate(0.158)" fill="#e0edff"/>
    <g id="downloadIcon-2" data-name="downloadIcon" transform="translate(13.067 15.245)">
      <g id="Group_10586" data-name="Group 10586" transform="translate(0.555 0.555)">
        <path id="Path_15504" data-name="Path 15504" d="M38.857,50.421H37.706c.027-.328.042-.66.042-1a11.856,11.856,0,0,0-23.309-3.06,7.467,7.467,0,0,0,.528,14.915H38.857a5.429,5.429,0,1,0,0-10.859Z" transform="translate(-7.5 -37.571)" fill="#9dc6fb"/>
        <path id="Path_15505" data-name="Path 15505" d="M16.164,53.809a7.468,7.468,0,0,0,7.467,7.467H14.967a7.467,7.467,0,0,1-.528-14.915,11.864,11.864,0,0,1,15.787-7.978A11.882,11.882,0,0,0,23.1,46.362a7.467,7.467,0,0,0-6.939,7.448Z" transform="translate(-7.5 -37.567)" fill="#80b4fb"/>
        <path id="Path_15506" data-name="Path 15506" d="M158.661,175.487h-1.3V166.91a2.52,2.52,0,0,0-2.52-2.52h-3.532a2.52,2.52,0,0,0-2.52,2.52v8.577h-1.3a2.639,2.639,0,0,0-2.011,4.347l5.583,6.573a2.639,2.639,0,0,0,4.023,0l5.583-6.573A2.639,2.639,0,0,0,158.661,175.487Z" transform="translate(-134.685 -155.003)" fill="#f9f6f9"/>
        <path id="Path_15507" data-name="Path 15507" d="M154.652,186.815a2.64,2.64,0,0,1-3.586-.41l-5.583-6.574a2.639,2.639,0,0,1,2.011-4.347h1.3v-8.578a2.52,2.52,0,0,1,2.52-2.52h3.151a2.52,2.52,0,0,0-2.52,2.52v8.578h-1.3a2.639,2.639,0,0,0-2.012,4.347l5.583,6.574A2.644,2.644,0,0,0,154.652,186.815Z" transform="translate(-134.684 -154.999)" fill="#dddaec"/>
      </g>
      <path id="Path_15508" data-name="Path 15508" d="M36.144,44.673a5.948,5.948,0,0,0-4.232-1.752H31.35q.008-.223.008-.441A12.408,12.408,0,0,0,9.894,34a.555.555,0,1,0,.81.759,11.188,11.188,0,0,1,8.245-3.575,11.312,11.312,0,0,1,11.3,11.3c0,.31-.014.629-.04.95a.555.555,0,0,0,.553.6h1.152a4.874,4.874,0,0,1,0,9.748H27.729a3.207,3.207,0,0,0-.3-1.372,3.163,3.163,0,0,0-2.9-1.853H23.79V42.532a3.079,3.079,0,0,0-3.075-3.075H17.182a3.079,3.079,0,0,0-3.075,3.075v8.022h-.742a3.163,3.163,0,0,0-2.9,1.853,3.207,3.207,0,0,0-.3,1.372H8.022a6.911,6.911,0,0,1-.49-13.806.555.555,0,0,0,.5-.411,11.251,11.251,0,0,1,1.376-3.136.555.555,0,1,0-.937-.6A12.359,12.359,0,0,0,7.063,38.9,8.022,8.022,0,0,0,8.022,54.89H10.38a3.229,3.229,0,0,0,.551.926l5.583,6.573a3.194,3.194,0,0,0,4.869,0l1.394-1.642a.555.555,0,1,0-.846-.719l-1.394,1.642a2.084,2.084,0,0,1-3.176,0L11.777,55.1a2.084,2.084,0,0,1,1.588-3.433h1.3a.555.555,0,0,0,.555-.555V42.532a1.967,1.967,0,0,1,1.965-1.965h3.532a1.967,1.967,0,0,1,1.965,1.965V51.11a.555.555,0,0,0,.555.555h1.3A2.084,2.084,0,0,1,26.12,55.1l-2.752,3.24a.555.555,0,1,0,.846.719l2.752-3.24a3.23,3.23,0,0,0,.551-.926h4.4a5.985,5.985,0,0,0,4.232-10.216Z" transform="translate(0 -30.07)"/>
    </g>
  </g>
</svg>
