<?xml version="1.0" encoding="utf-8"?>
<!-- Generator: Adobe Illustrator 26.2.1, SVG Export Plug-In . SVG Version: 6.00 Build 0)  -->
<svg version="1.1" id="Layer_1" xmlns="http://www.w3.org/2000/svg" xmlns:xlink="http://www.w3.org/1999/xlink" x="0px" y="0px"
	 viewBox="0 0 63 63" style="enable-background:new 0 0 63 63;" xml:space="preserve">
<style type="text/css">
	.st0{filter:url(#Ellipse_554);}
	.st1{fill:#FFECE3;}
	.st2{fill:#FFEFE7;}
	.st3{fill:#FFE0D1;}
	.st4{fill:#FFD1C2;}
</style>
<filter  filterUnits="userSpaceOnUse" height="111" id="Ellipse_554" width="111" x="0" y="0">
	<feOffset  input="SourceAlpha"></feOffset>
	<feGaussianBlur  result="blur" stdDeviation="8"></feGaussianBlur>
	<feFlood  flood-color="#c4c4c4" flood-opacity="0.161"></feFlood>
	<feComposite  in2="blur" operator="in"></feComposite>
	<feComposite  in="SourceGraphic" operator="over"></feComposite>
</filter>
<g id="easyTo" transform="translate(23.842 23.536)">
	<g transform="matrix(1, 0, 0, 1, -23.84, -23.54)" class="st0">
		<circle id="Ellipse_554-2_00000176730154229427145890000005712463567979941253_" class="st1" cx="31.5" cy="31.5" r="31.5"/>
	</g>
	<g id="easyTo-2" transform="translate(19.601 11.978)">
		<g id="Group_10584" transform="translate(0.561 0.594)">
			<path id="Path_15488" class="st2" d="M-15.9-13.7v-2c0-0.2,0.1-0.3,0.2-0.5l2.9-4.2c0.7-1.1,0.4-2.5-0.6-3.2S-16-24-16.7-23
				l-3.2,4.7c-0.4,0.6-0.6,1.3-0.6,2v12l5-3.4L-15.9-13.7z"/>
			<g id="Group_10581" transform="translate(0)">
				<g id="XMLID_148_">
					<g id="Group_10576" transform="translate(0 5.343)">
						<path id="Path_15489" class="st2" d="M-10-12.3l1.3-6.7l-5.2,4.3v0c0.6-0.1,1.1,0.1,1.6,0.4L-10-12.3z M-7-22.6L-7-22.6
							c0.6-0.4,1.2-0.7,1.9-0.8c1-0.1,2,0.6,2.1,1.6c0,0.1,0,0.3,0,0.4l-0.5,6.5c0,0.3,0,0.6,0.2,0.8l1,2.1C-1.1-9.2-1.1-6-2.3-3.2
							l-3.1,6.8v3.4c0,0.5-0.4,0.8-0.8,0.8c0,0,0,0,0,0l-12.2,0c-0.5,0-0.8-0.4-0.8-0.8V4.2l-2.4-3.1c-1-1.3-1.7-2.9-1.8-4.5
							L-24-9.9c-0.1-1.4,0.5-2.8,1.5-3.7l11.8-9.9c1-0.8,2.4-0.7,3.3,0.3C-7.2-23-7.1-22.8-7-22.6L-7-22.6z"/>
					</g>
					<g id="Group_10577" transform="translate(14.82 5.808)">
						<path id="Path_15490" class="st3" d="M-20.5-23.7c-0.5,0.1-0.9,0.3-1.3,0.6l-0.1,0c-0.2-0.4-0.4-0.7-0.7-0.9l-1,4.6l0.1-0.1
							l-0.5,2.3l2.5-2.1C-20.2-20.3-19.8-22.2-20.5-23.7z"/>
					</g>
					<path id="Path_15491" class="st4" d="M-18.5-9.6l2.7-1.8l-0.2-2.3v-1.5l-1.7,1.4c-0.2,0.2-0.6,0.2-0.8-0.1
						c-0.1-0.1-0.1-0.2-0.1-0.4v-1.7c0-0.7,0.2-1.4,0.6-2l3.2-4.7c0.3-0.5,0.8-0.8,1.4-1c-0.1,0-0.1-0.1-0.2-0.1
						c-1.1-0.7-2.5-0.5-3.2,0.6l-3.2,4.7c-0.4,0.6-0.6,1.3-0.6,2v6.7L-18.5-9.6L-18.5-9.6z"/>
					<path id="Path_15492" class="st2" d="M-7.4-17.8c0.8,1,0.7,2.4-0.3,3.3l-6.2,5.2v0c-0.4,0.1-0.7,0.2-1,0.5l-3,2.6l-5.9-0.1
						c0.3-0.7,0.7-1.4,1.3-1.9l11.8-9.9C-9.7-18.9-8.2-18.8-7.4-17.8L-7.4-17.8z"/>
					<g id="Group_10578" transform="translate(0 5.343)">
						<path id="Path_15493" class="st3" d="M-15.2,7.8c-0.5,0-0.8-0.4-0.8-0.8V5.5c0-0.8-0.3-1.6-0.8-2.3l-1.6-2.1
							c-1-1.3-1.7-2.9-1.8-4.5l-0.5-6.5c-0.1-1.4,0.5-2.8,1.5-3.7l11.7-9.8c-0.9-0.8-2.2-0.9-3.1-0.1l-11.8,9.9
							c-1.1,0.9-1.6,2.3-1.5,3.7l0.5,6.5c0.1,1.7,0.8,3.2,1.8,4.5l2.4,3.1V7c0,0.5,0.4,0.8,0.8,0.8L-15.2,7.8L-15.2,7.8z"/>
					</g>
					<g id="Group_10580" transform="translate(6.12 14.648)">
						<g id="XMLID_149_">
							<g id="Group_10579" transform="translate(4.479 0.01)">
								<path id="Path_15494" class="st3" d="M-17.3-15.7c1.2-1.4,1.1-3.6-0.4-4.8c0,0,0,0,0,0l-2.7-2.3l-0.2,1.3l-2.3-1.9
									c-0.3-0.3-0.7-0.4-1.1-0.5v9.6c0,1.6,0.7,3.1,1.9,4.1c1.4,1.2,3.6,1.1,4.8-0.3c1.2-1.4,1.1-3.5-0.3-4.8
									C-17.4-15.5-17.3-15.6-17.3-15.7z"/>
							</g>
							<path id="Path_15495" class="st2" d="M-13.1-17.9c0,1.1-0.8,2.1-1.9,2.3l0,0l-3.4-2.9c-0.7-0.6-1.8-0.6-2.5,0l-3,2.6v-5
								l3-2.6c0.7-0.6,1.8-0.6,2.5,0l2.3,1.9l2.3,1.9C-13.4-19.2-13.1-18.6-13.1-17.9z"/>
							<path id="Path_15496" class="st3" d="M-13.7-16.4c-0.1-0.2-0.3-0.5-0.5-0.6l-2.3-1.9l-2.3-1.9c-0.7-0.6-1.8-0.6-2.5,0
								l-2.2,1.9c-0.3,0.3-0.5,0.7-0.5,1.2v1.9l3-2.6c0.7-0.6,1.8-0.6,2.5,0l3.4,2.9l0,0C-14.5-15.7-14-16-13.7-16.4z"/>
						</g>
					</g>
				</g>
			</g>
			<g id="Group_10583" transform="translate(6.12 19.673)">
				<g id="XMLID_152_">
					<g id="Group_10582">
						<path id="Path_15497" class="st2" d="M-13.1-17.9c0,1.3-1,2.3-2.3,2.3c-0.5,0-1.1-0.2-1.5-0.5l-2.8-2.4l-0.8,0.8l-3.5-3.2
							l3-2.6c0.7-0.6,1.8-0.6,2.5,0l4.6,3.9C-13.4-19.2-13.1-18.6-13.1-17.9z"/>
					</g>
				</g>
			</g>
		</g>
		<g id="Group_10585" transform="translate(0)">
			<path id="Path_15498" d="M-2.4-8.3c-0.1-0.2-0.1-0.4-0.1-0.5l0.5-6.5c0.1-1.3-0.9-2.5-2.2-2.6c-0.2,0-0.4,0-0.5,0
				c-0.6,0.1-1.1,0.3-1.6,0.5c0-0.1-0.1-0.1-0.1-0.2c-1-1.2-2.8-1.4-4-0.4l-4.4,3.7v-0.8c0-0.1,0-0.1,0.1-0.2l0.9-1.3
				c0.2-0.3,0.1-0.6-0.1-0.8c-0.3-0.2-0.6-0.1-0.8,0.1l-0.9,1.3c-0.2,0.2-0.2,0.5-0.2,0.8v1.8l-3.5,2.9v-5.3c0-0.6,0.2-1.2,0.5-1.7
				l3.2-4.7c0.5-0.8,1.6-1,2.4-0.5s1,1.6,0.5,2.4l-0.6,0.9c-0.2,0.3-0.1,0.6,0.1,0.8c0.3,0.2,0.6,0.1,0.8-0.1l0,0l0.6-0.9
				c0.9-1.3,0.5-3.1-0.8-4c-1.3-0.9-3-0.5-3.9,0.7l-3.2,4.7c-0.5,0.7-0.7,1.5-0.7,2.3v6.2l-1.7,1.4c-1.2,1-1.9,2.6-1.7,4.1l0.4,4.5
				c0,0.3,0.3,0.5,0.6,0.5h0c0.3,0,0.5-0.3,0.5-0.6L-22.9-4c-0.1-1.2,0.4-2.4,1.3-3.2l11.8-9.9c0.7-0.6,1.8-0.5,2.5,0.2
				c0.6,0.7,0.5,1.8-0.2,2.5l-6.2,5.2C-14-9.2-14.4-9-14.7-8.7l-3,2.6c-0.2,0.2-0.3,0.6-0.1,0.8S-17.2-5-17-5.2l0,0l3-2.6
				c0.5-0.5,1.3-0.5,1.8,0L-7.6-4c0.7,0.6,0.8,1.7,0.2,2.5C-7.6-1.3-7.9-1.1-8.2-1l-3.2-2.7c-0.9-0.8-2.3-0.8-3.3,0l-3,2.6
				c-0.2,0.2-0.3,0.6-0.1,0.8S-17.2,0-17-0.2l3-2.6c0.5-0.5,1.3-0.5,1.8,0L-7.6,1c0.7,0.6,0.8,1.7,0.2,2.5s-1.7,0.8-2.5,0.2
				l-2.8-2.4c-0.2-0.2-0.6-0.2-0.8,0l-0.8,0.8c-0.2,0.2-0.2,0.6,0,0.8c0.2,0.2,0.6,0.2,0.8,0l0.5-0.5l2.4,2.1
				c0.5,0.4,1.2,0.7,1.9,0.7c0.1,0,0.2,0,0.2,0c1.6-0.1,2.8-1.5,2.6-3.1c-0.1-0.8-0.4-1.5-1-2l-0.4-0.4c1.4-0.8,1.8-2.6,1-3.9
				c-0.2-0.3-0.4-0.5-0.6-0.7l-2-1.7l1.2-6.2l0.9-0.8c0.8-0.7,1.2-1.8,1-2.9c0.4-0.2,0.8-0.4,1.3-0.4c0.7-0.1,1.4,0.4,1.5,1.1
				c0,0.1,0,0.2,0,0.3l-0.5,6.5c0,0.4,0,0.8,0.2,1.1l1,2.1c1.3,2.6,1.3,5.6,0.1,8.3l-0.6,1.4c-0.1,0.3,0,0.6,0.3,0.7
				c0.3,0.1,0.6,0,0.7-0.3L-1.2,3C0.1,0,0-3.3-1.4-6.2L-2.4-8.3z M-9.9-7.4l-1.6-1.3C-11.6-8.9-11.8-9-12-9.1l3-2.5L-9.9-7.4z"/>
			<path id="Path_15499" d="M-3.1,5.8c-0.3-0.1-0.6,0-0.7,0.3c0,0,0,0,0,0l-1.4,3.2c0,0.1,0,0.2,0,0.2v4.3c0,0.3,0.3,0.6,0.6,0.6
				s0.6-0.3,0.6-0.6V9.7l1.4-3.1C-2.7,6.3-2.9,6-3.1,5.8z"/>
			<path id="Path_15500" d="M-6.4-20.5c0.3,0,0.6-0.3,0.6-0.6c0,0,0,0,0,0v-2.4c0-0.3-0.3-0.6-0.6-0.6S-7-23.7-7-23.4v2.4
				C-7-20.8-6.7-20.5-6.4-20.5C-6.4-20.5-6.4-20.5-6.4-20.5z"/>
			<path id="Path_15501" d="M-4-19.9c0.3,0.2,0.6,0.1,0.8-0.2c0,0,0,0,0,0l1.2-2.1c0.2-0.3,0.1-0.6-0.2-0.8
				c-0.3-0.2-0.6-0.1-0.8,0.2l-1.1,2.1C-4.4-20.4-4.3-20.1-4-19.9z"/>
			<path id="Path_15502" d="M0.8-20.1c-0.2-0.3-0.5-0.3-0.8-0.2c0,0,0,0,0,0l-2,1.2c-0.3,0.2-0.3,0.5-0.2,0.8
				c0.2,0.3,0.5,0.3,0.8,0.2l2-1.2C0.9-19.5,0.9-19.9,0.8-20.1z"/>
			<path id="Path_15503" d="M-20.7,6.7c-0.9-1.1-1.4-2.4-1.6-3.8c0-0.3-0.3-0.5-0.6-0.5c-0.3,0-0.5,0.3-0.5,0.6
				c0.2,1.6,0.9,3.1,1.9,4.4l2.3,2.9v3.4c0,0.3,0.3,0.6,0.6,0.6s0.6-0.3,0.6-0.6l0,0v-3.6c0-0.1,0-0.3-0.1-0.4L-20.7,6.7z"/>
		</g>
	</g>
</g>
</svg>
