<?xml version="1.0" encoding="utf-8"?>
<!-- Generator: Adobe Illustrator 26.2.1, SVG Export Plug-In . SVG Version: 6.00 Build 0)  -->
<svg version="1.1" id="Layer_1" xmlns="http://www.w3.org/2000/svg" xmlns:xlink="http://www.w3.org/1999/xlink" x="0px" y="0px"
	 viewBox="0 0 63 63" style="enable-background:new 0 0 63 63;" xml:space="preserve">
<style type="text/css">
	.st0{filter:url(#Ellipse_554);}
	.st1{fill:#FFDDDE;}
	.st2{fill:#D16161;}
	.st3{fill:#AE3244;}
	.st4{fill:#FF8086;}
	.st5{fill:#F5FCFF;}
	.st6{fill:#DCE6EB;}
</style>
<filter  filterUnits="userSpaceOnUse" height="111" id="Ellipse_554" width="111" x="0" y="0">
	<feOffset  input="SourceAlpha"></feOffset>
	<feGaussianBlur  result="blur" stdDeviation="8"></feGaussianBlur>
	<feFlood  flood-color="#c4c4c4" flood-opacity="0.161"></feFlood>
	<feComposite  in2="blur" operator="in"></feComposite>
	<feComposite  in="SourceGraphic" operator="over"></feComposite>
</filter>
<g id="livesales" transform="translate(-429 -2500)">
	<g transform="matrix(1, 0, 0, 1, 429, 2500)" class="st0">
		<circle id="Ellipse_554-2_00000165943219174054828980000015412740327447998856_" class="st1" cx="31.5" cy="31.5" r="31.5"/>
	</g>
	<g id="livesales-2" transform="translate(470 2464.987)">
		<g id="Group_10590" transform="translate(0.427 81.44)">
			<path id="Path_15509" class="st2" d="M3-7.4l-9.2-5.9v-3.1L3-22.4c0.4-0.3,0.9-0.1,1.2,0.3c0.1,0.1,0.1,0.3,0.1,0.5V-9
				C4.3-7.5,3.6-7,3-7.4z"/>
			<path id="Path_15510" class="st3" d="M3-8.2l-9.2-5.9v1.7L3-6.5c0.4,0.3,0.9,0.1,1.2-0.3c0.1-0.1,0.1-0.3,0.1-0.5V-9
				c0,0.5-0.4,0.9-0.9,0.9C3.3-8.1,3.1-8.2,3-8.2z"/>
			<path id="Path_15511" class="st4" d="M-2.7-22.3c0-0.9-0.8-1.7-1.7-1.7h-17.9c-0.2,0-0.4,0-0.6,0.1l-0.3,18.1l20.3-0.3
				c0.1-0.2,0.1-0.4,0.1-0.6L-2.7-22.3z"/>
			<path id="Path_15512" class="st2" d="M-22.9-6.9v-17c-0.7,0.2-1.1,0.9-1.1,1.6v15.7c0,0.9,0.8,1.7,1.7,1.7h17.9
				C-3.7-4.9-3-5.4-2.8-6H-22C-22.5-6-22.9-6.4-22.9-6.9C-22.9-6.9-22.9-6.9-22.9-6.9z"/>
			<path id="Path_15513" class="st5" d="M-8.7-15.2l-7.4-4.8c-0.1,0-0.1-0.1-0.2-0.1l-0.6,10.6c0,0.2,0.2,0.4,0.4,0.4
				c0.1,0,0.1,0,0.2-0.1l7.9-5.3C-8.3-14.7-8.5-15-8.7-15.2z"/>
			<path id="Path_15514" class="st6" d="M-16.3-10v-10c-0.4-0.2-0.9,0.1-1.1,0.5c0,0.1,0,0.2,0,0.3v9.5c0,0.5,0.4,0.9,0.9,0.9
				c0.2,0,0.3,0,0.5-0.1l7.4-4.8c0.2-0.1,0.4-0.4,0.4-0.7l-7.3,4.7c-0.2,0.1-0.4,0.1-0.6-0.1C-16.3-9.9-16.3-9.9-16.3-10z"/>
		</g>
		<g id="Group_10591" transform="translate(0 81.013)">
			<path id="Path_15515" d="M-4-4.1h-17.9C-23-4.1-24-5-24-6.2v-15.7c0-1.2,1-2.1,2.1-2.1h4.3c0.2,0,0.4,0.2,0.4,0.4
				c0,0.2-0.2,0.4-0.4,0.4h-4.3c-0.7,0-1.3,0.6-1.3,1.3v15.7c0,0.7,0.6,1.3,1.3,1.3H-4c0.7,0,1.3-0.6,1.3-1.3v-9.1
				c0-0.2,0.2-0.4,0.4-0.4s0.4,0.2,0.4,0.4v5.2l5.5,3.6c0.2,0.1,0.5,0.1,0.6-0.1c0-0.1,0.1-0.1,0.1-0.2v-14.4c0-0.2-0.2-0.4-0.4-0.4
				c-0.1,0-0.2,0-0.2,0.1L-1.8-18v1c0,0.2-0.2,0.4-0.4,0.4s-0.4-0.2-0.4-0.4l0,0v-4.9c0-0.7-0.6-1.3-1.3-1.3h-11.9
				c-0.2,0-0.4-0.2-0.4-0.4c0-0.2,0.2-0.4,0.4-0.4H-4c1.2,0,2.1,1,2.1,2.1v2.9l5-3.3c0.6-0.4,1.4-0.2,1.8,0.4
				c0.1,0.2,0.2,0.4,0.2,0.7v14.4c0,0.7-0.6,1.3-1.3,1.3c-0.2,0-0.5-0.1-0.7-0.2l-5-3.3v2.9C-1.8-5-2.8-4.1-4-4.1z M-15.5-8.2
				c-0.6,0.4-1.4,0.2-1.8-0.4c-0.1-0.2-0.2-0.4-0.2-0.7v-9.5c0-0.7,0.6-1.3,1.3-1.3c0.2,0,0.5,0.1,0.7,0.2l3.2,2.1
				c0.2,0.1,0.3,0.4,0.1,0.6s-0.4,0.3-0.6,0.1l0,0l-3.2-2.1c-0.2-0.1-0.5-0.1-0.6,0.1c0,0.1-0.1,0.1-0.1,0.2v9.5
				c0,0.2,0.2,0.4,0.4,0.4c0.1,0,0.2,0,0.2-0.1l7.4-4.8c0.2-0.1,0.3-0.4,0.1-0.6c0-0.1-0.1-0.1-0.1-0.1l-2.8-1.8
				c-0.2-0.1-0.3-0.4-0.1-0.6s0.4-0.3,0.6-0.1l2.8,1.8c0.6,0.4,0.8,1.2,0.4,1.8C-7.8-13.2-7.9-13-8.1-13L-15.5-8.2z"/>
		</g>
	</g>
</g>
</svg>
