<?xml version="1.0" encoding="utf-8"?>
<!-- Generator: Adobe Illustrator 26.2.1, SVG Export Plug-In . SVG Version: 6.00 Build 0)  -->
<svg version="1.1" id="Layer_1" xmlns="http://www.w3.org/2000/svg" xmlns:xlink="http://www.w3.org/1999/xlink" x="0px" y="0px"
	 viewBox="0 0 63 63" style="enable-background:new 0 0 63 63;" xml:space="preserve">
<style type="text/css">
	.st0{fill:#B8F9FA;}
	.st1{fill:#E9EAEB;}
	.st2{fill:#B9BBC1;}
	.st3{fill:#FDC74F;}
	.st4{fill:#FCA629;}
	.st5{fill:#E60D28;}
	.st6{fill:#F2F2F2;}
	.st7{fill:#FC502A;}
	.st8{fill:#FFFFFF;}
	.st9{fill:#8B8996;}
	.st10{fill:#706F7F;}
	.st11{fill:#00C6C8;}
	.st12{fill:#0FB0C0;}
</style>
<g id="offlineStore" transform="translate(-843 -2350)">
	<g transform="matrix(1, 0, 0, 1, 843, 2350)">
		<circle id="Ellipse_554-2" class="st0" cx="31.5" cy="31.5" r="31.5"/>
	</g>
	<g id="offlineStore-2" transform="translate(882 2364.349)">
		<rect id="Rectangle_5765" x="-21.2" y="7.6" class="st1" width="27.5" height="23.5"/>
		<rect id="Rectangle_5766" x="2.8" y="7.6" class="st2" width="3.5" height="23.5"/>
		<path id="Path_15516" class="st3" d="M6.4,7.6h-27.7V3.7c0-0.3,0.3-0.6,0.6-0.6H5.8c0.3,0,0.6,0.3,0.6,0.6
			C6.4,3.7,6.4,7.6,6.4,7.6z"/>
		<path id="Path_15517" class="st4" d="M5.8,3.1H2.9V6h3.5V3.7C6.4,3.4,6.1,3.1,5.8,3.1z"/>
		<path id="Path_15518" class="st5" d="M-21.2,14.6L-21.2,14.6c-1.3,0-2.3-1-2.3-2.3l0,0v-1.9h4.6v1.9
			C-18.9,13.5-19.9,14.6-21.2,14.6C-21.2,14.6-21.2,14.6-21.2,14.6z"/>
		<path id="Path_15519" class="st6" d="M-16.6,14.6L-16.6,14.6c-1.3,0-2.3-1-2.3-2.3l0,0v-1.9h4.6v1.9
			C-14.3,13.5-15.4,14.6-16.6,14.6L-16.6,14.6z"/>
		<path id="Path_15520" class="st5" d="M-12,14.6L-12,14.6c-1.3,0-2.3-1-2.3-2.3l0,0v-1.9h4.6v1.9C-9.7,13.5-10.8,14.6-12,14.6
			L-12,14.6z"/>
		<path id="Path_15521" class="st6" d="M-7.5,14.6L-7.5,14.6c-1.3,0-2.3-1-2.3-2.3l0,0v-1.9h4.6v1.9C-5.2,13.5-6.2,14.6-7.5,14.6
			L-7.5,14.6z"/>
		<path id="Path_15522" class="st5" d="M-2.9,14.6L-2.9,14.6c-1.3,0-2.3-1-2.3-2.3v-1.9h4.6v1.9C-0.6,13.5-1.6,14.6-2.9,14.6
			C-2.9,14.6-2.9,14.6-2.9,14.6z"/>
		<path id="Path_15523" class="st6" d="M1.7,14.6L1.7,14.6c-1.3,0-2.3-1-2.3-2.3v-1.9H4v1.9C4,13.5,3,14.6,1.7,14.6
			C1.7,14.6,1.7,14.6,1.7,14.6z"/>
		<path id="Path_15524" class="st5" d="M6.3,14.6L6.3,14.6c-1.3,0-2.3-1-2.3-2.3v-1.9h4.6v1.9C8.6,13.5,7.6,14.6,6.3,14.6L6.3,14.6z
			"/>
		<path id="Path_15525" class="st7" d="M-18.9,10.4h-4.6l2.2-4.4h4L-18.9,10.4z"/>
		<path id="Path_15526" class="st8" d="M-14.3,10.4h-4.6l1.6-4.4h4L-14.3,10.4z"/>
		<path id="Path_15527" class="st7" d="M-9.7,10.4h-4.6l0.9-4.4h4L-9.7,10.4z"/>
		<path id="Path_15528" class="st8" d="M-5.2,10.4h-4.6L-9.4,6h4L-5.2,10.4z"/>
		<path id="Path_15529" class="st7" d="M-0.6,10.4h-4.6L-5.5,6h4L-0.6,10.4z"/>
		<path id="Path_15530" class="st8" d="M4,10.4h-4.6L-1.5,6h4L4,10.4z"/>
		<path id="Path_15531" class="st7" d="M8.6,10.4H4L2.4,6h4L8.6,10.4z"/>
		<path id="Path_15532" class="st9" d="M7.6,28.9h-30c-0.6,0-1,0.5-1,1c0,0,0,0,0,0v1.5c0,0.2,0.1,0.3,0.3,0.3H8.3
			c0.2,0,0.3-0.1,0.3-0.3V30C8.6,29.4,8.2,28.9,7.6,28.9C7.6,28.9,7.6,28.9,7.6,28.9z"/>
		<path id="Path_15533" class="st10" d="M7.6,28.9H5.1v2.9h3.2c0.2,0,0.3-0.1,0.3-0.3V30C8.6,29.4,8.1,28.9,7.6,28.9
			C7.6,28.9,7.6,28.9,7.6,28.9z"/>
		<path id="Path_15534" class="st11" d="M3.6,25.9h-14.1c-0.2,0-0.4-0.2-0.4-0.4v-7.8c0-0.2,0.2-0.4,0.4-0.4h0H3.6
			c0.2,0,0.4,0.2,0.4,0.4v0v7.8C4,25.7,3.8,25.9,3.6,25.9z"/>
		<path id="Path_15535" class="st12" d="M3.6,17.3H0.5v8.6h3.1c0.2,0,0.4-0.2,0.4-0.4v-7.8C4,17.5,3.8,17.3,3.6,17.3L3.6,17.3z"/>
		<path id="Path_15536" class="st11" d="M-12.9,28.9h-6.4V17.7c0-0.2,0.2-0.4,0.4-0.4h0h5.6c0.2,0,0.4,0.2,0.4,0.4l0,0L-12.9,28.9
			L-12.9,28.9z"/>
		<path id="Path_15537" class="st12" d="M-13.3,17.3h-3.1v11.7h3.5V17.7C-12.9,17.5-13.1,17.3-13.3,17.3L-13.3,17.3z"/>
		<path id="Path_15538" d="M-14.7,23.9c0.3,0,0.5-0.2,0.5-0.5v-0.9c0-0.3-0.2-0.5-0.5-0.5s-0.5,0.2-0.5,0.5v0.9
			C-15.2,23.6-15,23.9-14.7,23.9z"/>
		<path id="Path_15539" d="M7.6,28.5H6.8V15c1.3-0.2,2.3-1.4,2.3-2.7v-1.9c0,0,0,0,0-0.1l0,0c0,0,0,0,0-0.1v0c0,0,0,0,0,0v0L6.9,5.9
			V3.7c0-0.6-0.5-1-1-1h-22.1c-0.3,0-0.5,0.2-0.5,0.5c0,0.3,0.2,0.5,0.5,0.5c0,0,0,0,0,0h22c0,0,0.1,0,0.1,0.1v1.9h-26.7V3.7
			c0,0,0-0.1,0.1-0.1h2.3c0.3,0,0.5-0.2,0.5-0.5c0-0.3-0.2-0.5-0.5-0.5c0,0,0,0,0,0h-2.3c-0.6,0-1,0.5-1,1v2.2l-2.1,4.3v0
			c0,0,0,0,0,0v0c0,0,0,0,0,0.1l0,0c0,0,0,0,0,0.1c0,0,0,0,0,0v1.9c0,1.3,1,2.5,2.3,2.7v13.5h-0.8c-0.8,0-1.5,0.7-1.5,1.5v1.5
			c0,0.4,0.3,0.8,0.8,0.8H8.3c0.4,0,0.8-0.3,0.8-0.8V30C9.1,29.1,8.4,28.5,7.6,28.5z M8.1,12.3c0,1-0.8,1.8-1.8,1.8
			s-1.8-0.8-1.8-1.8v-1.4h3.6V12.3z M6.1,6.5l1.7,3.4H4.3L3.1,6.5L6.1,6.5z M2.1,6.5l1.2,3.4h-3.5l-0.7-3.4L2.1,6.5z M3.5,10.9v1.4
			c0,1-0.9,1.8-1.8,1.8c-1,0-1.7-0.8-1.8-1.8v-1.4H3.5z M-1.9,6.5l0.7,3.4h-3.5L-5,6.5L-1.9,6.5z M-1.1,10.9v1.4
			c0,1-0.9,1.8-1.8,1.8c-1,0-1.7-0.8-1.8-1.8v-1.4H-1.1z M-9,6.5h3.1l0.2,3.4h-3.5L-9,6.5z M-9.3,10.9h3.6v1.4c0,1-0.8,1.8-1.8,1.8
			s-1.8-0.8-1.8-1.8L-9.3,10.9z M-7.5,15c0.9,0,1.8-0.5,2.3-1.2c0.9,1.3,2.6,1.6,3.9,0.7c0.3-0.2,0.5-0.4,0.7-0.7
			c0.9,1.3,2.6,1.6,3.9,0.7c0.3-0.2,0.5-0.4,0.7-0.7c0.4,0.6,1.1,1,1.8,1.2v13.5h-18.2V17.7c0-0.5-0.4-0.9-0.9-0.9h0h-5.6
			c-0.5,0-0.9,0.4-0.9,0.9l0,0v10.8h-0.9V15c0.7-0.1,1.4-0.6,1.8-1.2c0.9,1.3,2.6,1.6,3.9,0.7c0.3-0.2,0.5-0.4,0.7-0.7
			c0.9,1.3,2.6,1.6,3.9,0.7c0.3-0.2,0.5-0.4,0.7-0.7C-9.2,14.6-8.4,15-7.5,15L-7.5,15z M-13.4,17.7v10.7h-5.5V17.8L-13.4,17.7z
			 M-18.4,12.3v-1.4h3.6v1.4c0,1-0.9,1.8-1.8,1.8C-17.6,14-18.4,13.2-18.4,12.3z M-13,6.5h3l-0.2,3.4h-3.5L-13,6.5z M-13.8,10.9h3.6
			v1.4c0,1-0.8,1.8-1.8,1.8s-1.8-0.8-1.8-1.8V10.9z M-14,6.5l-0.7,3.4h-3.5l1.2-3.4H-14z M-21,6.5h3l-1.2,3.4h-3.5L-21,6.5z
			 M-23,12.3v-1.4h3.6v1.4c0,1-0.8,1.8-1.8,1.8C-22.2,14.1-23,13.3-23,12.3L-23,12.3z M8.1,31.3H-23V30c0-0.3,0.3-0.6,0.6-0.6
			c0,0,0,0,0,0h30c0.3,0,0.6,0.3,0.6,0.6L8.1,31.3z"/>
		<path id="Path_15540" d="M-11.4,17.7v7.8c0,0.5,0.4,0.9,0.9,0.9H3.6c0.5,0,0.9-0.4,0.9-0.9v-7.8c0-0.5-0.4-0.9-0.9-0.9h-5.9
			c-0.3,0-0.5,0.2-0.5,0.5s0.2,0.5,0.5,0.5h5.9v7.6h-14v-7.6h5.8c0.3,0,0.5-0.2,0.5-0.5s-0.2-0.5-0.5-0.5h-5.9
			C-11,16.8-11.4,17.2-11.4,17.7C-11.4,17.7-11.4,17.7-11.4,17.7L-11.4,17.7z"/>
	</g>
</g>
</svg>
