<svg xmlns="http://www.w3.org/2000/svg" width="63" height="63" viewBox="0 0 63 63">
  <g id="onlineStore" transform="translate(-867 -2223)">
    <circle id="Ellipse_555" data-name="Ellipse 555" cx="31.5" cy="31.5" r="31.5" transform="translate(867 2223)" fill="#dedede"/>
    <g id="onlineStore-2" data-name="onlineStore" transform="translate(880 2238)">
      <g id="_018---Book-Shopping" data-name="018---Book-Shopping">
        <ellipse id="Oval" cx="2.235" cy="1.676" rx="2.235" ry="1.676" transform="translate(25.616 28.968)" fill="#9e9e9e"/>
        <path id="Shape" d="M49.328,51a2.2,2.2,0,0,0-.828.166,2.2,2.2,0,0,1,0,4.088A2.208,2.208,0,1,0,49.328,51Z" transform="translate(-21.727 -22.847)" fill="#707070"/>
        <ellipse id="Oval-2" data-name="Oval" cx="2.794" cy="1.676" rx="2.794" ry="1.676" transform="translate(12.207 28.968)" fill="#9e9e9e"/>
        <path id="Shape-2" data-name="Shape" d="M27.328,51a2.2,2.2,0,0,0-.828.166,2.2,2.2,0,0,1,0,4.088A2.208,2.208,0,1,0,27.328,51Z" transform="translate(-11.871 -22.847)" fill="#707070"/>
        <path id="Shape-3" data-name="Shape" d="M38.4,19.552V30.593a2.76,2.76,0,0,1-2.76,2.76H15.256L13.02,19H37.85A.552.552,0,0,1,38.4,19.552Z" transform="translate(-5.833 -8.511)" fill="#9e9e9e"/>
        <path id="Shape-4" data-name="Shape" d="M54.864,19H53.208a.552.552,0,0,1,.552.552V30.593A2.76,2.76,0,0,1,51,33.353h1.656a2.76,2.76,0,0,0,2.76-2.76V19.552A.552.552,0,0,0,54.864,19Z" transform="translate(-22.847 -8.511)" fill="#707070"/>
        <path id="Shape-5" data-name="Shape" d="M32.4,1.011a1.1,1.1,0,0,0-.916.767l-2.832,9.158H24V1C30.265,1,32.258,1.011,32.4,1.011Z" transform="translate(-10.751 -0.448)" fill="#ff9801"/>
        <path id="Shape-6" data-name="Shape" d="M24,1c4.958,0,6.615.01,6.74.01a1.1,1.1,0,0,0-.916.767l-2.832,9.159h1.656L31.48,1.778a1.1,1.1,0,0,1,.916-.767C32.258,1.011,30.265,1,24,1Z" transform="translate(-10.751 -0.448)" fill="#f57c00"/>
        <path id="Shape-7" data-name="Shape" d="M22.208,1v9.936H20V2.1A1.107,1.107,0,0,1,21.1,1Z" transform="translate(-8.959 -0.448)" fill="#f44335"/>
        <path id="Shape-8" data-name="Shape" d="M31.977,8.208H28V6h4.416v.784Z" transform="translate(-12.544 -2.688)" fill="#fec108"/>
        <path id="Shape-9" data-name="Shape" d="M47.834,4.821l-1.987,6.42H36.6L39.564,1.68l7.911,2.451a.548.548,0,0,1,.359.69Z" transform="translate(-16.396 -0.753)" fill="#ff9801"/>
        <path id="Shape-10" data-name="Shape" d="M49.763,4.131,41.852,1.68l-.145.468,6.4,1.983a.548.548,0,0,1,.359.69l-1.987,6.42h1.656l1.987-6.42a.548.548,0,0,0-.359-.69Z" transform="translate(-18.684 -0.753)" fill="#f57c00"/>
        <path id="Shape-11" data-name="Shape" d="M37.692,1.376l-2.964,9.561H32.42l2.832-9.158a1.1,1.1,0,0,1,.916-.767,1.049,1.049,0,0,1,.469.039Z" transform="translate(-14.523 -0.448)" fill="#f44335"/>
        <path id="Rectangle-path" d="M0,0H4.416V2.208H0Z" transform="matrix(0.955, 0.296, -0.296, 0.955, 24.455, 4.22)" fill="#fec108"/>
        <g id="Group_10593" data-name="Group 10593">
          <path id="Shape-12" data-name="Shape" d="M32.018,9.936H30.2l1.762-5.7a1.1,1.1,0,0,0-.718-1.386L22.279.075A1.643,1.643,0,0,0,21.554.02c-.11-.007-.221-.012-.346-.012H19.671C18.217,0,15.843,0,12.145,0a1.656,1.656,0,0,0-1.656,1.656v8.28H7.661L6.833,4.629A2.2,2.2,0,0,0,4.654,2.76H.552a.552.552,0,0,0,0,1.1h4.1a1.1,1.1,0,0,1,1.09.935l3.213,20.64a3.845,3.845,0,0,0,3.818,3.27h.49a2.731,2.731,0,0,0-.566,1.656,2.76,2.76,0,0,0,5.52,0,2.731,2.731,0,0,0-.566-1.656h7.757a2.731,2.731,0,0,0-.566,1.656,2.76,2.76,0,0,0,5.52,0A2.731,2.731,0,0,0,29.8,28.7H32.57a.552.552,0,0,0,0-1.1H12.77a2.739,2.739,0,0,1-2.7-2.208H29.809a3.315,3.315,0,0,0,3.312-3.312V11.041a1.1,1.1,0,0,0-1.1-1.1Zm-14.9,20.425a1.654,1.654,0,1,0-.005,0Zm12.145,0a1.66,1.66,0,1,0-.006,0ZM29.045,9.936h-8.09l2.579-8.317L30.914,3.9ZM22.479,1.292,19.8,9.936H18.646l2.611-8.442a.552.552,0,0,1,.272-.327.545.545,0,0,1,.424-.038ZM19.026,4.968H16.009v-1.1h3.312v.148Zm1.2-3.858c-.007.019-.018.037-.024.055l-.492,1.6H15.457a.552.552,0,0,0-.552.552V5.52a.552.552,0,0,0,.552.552h3.229l-1.2,3.864H13.8V1.1c3.2,0,5.234.008,6.427.011Zm-8.634.545a.552.552,0,0,1,.552-.552H12.7V9.936H11.6ZM32.018,22.081a2.208,2.208,0,0,1-2.208,2.208H9.894L7.833,11.041H32.018Z"/>
          <path id="Shape-13" data-name="Shape" d="M42.152,9.14a.552.552,0,0,0,.364.69l4.219,1.307a.559.559,0,0,0,.166.025.552.552,0,0,0,.527-.386l.653-2.109a.552.552,0,0,0-.364-.691L43.5,6.667a.552.552,0,0,0-.691.364ZM43.7,7.885l3.162.98L46.535,9.92,43.37,8.937Z" transform="translate(-18.872 -2.975)"/>
          <path id="Shape-14" data-name="Shape" d="M34.561,24.208V22.552a.552.552,0,1,0-1.1,0v1.656h-4.42V22.552a.552.552,0,0,0-1.1,0v1.656H23.52V22.552a.552.552,0,0,0-1.1,0v1.656H18.552a.552.552,0,0,0,0,1.1h3.864v4.416h-2.76a.552.552,0,0,0,0,1.1h2.76V32.48a.552.552,0,1,0,1.1,0V30.832h4.416v1.656a.552.552,0,1,0,1.1,0V30.832h4.416v1.656a.552.552,0,1,0,1.1,0V30.832H37.86a.552.552,0,0,0,0-1.1h-3.3v-4.42h3.312a.552.552,0,0,0,0-1.1ZM23.52,29.728V25.312h4.416v4.416Zm9.936,0H29.041V25.312h4.416Z" transform="translate(-8.064 -9.855)"/>
        </g>
      </g>
    </g>
  </g>
</svg>
