<svg id="user" xmlns="http://www.w3.org/2000/svg" width="13.297" height="15.938" viewBox="0 0 13.297 15.938">
  <path id="Path_15548" data-name="Path 15548" d="M90.87,7.677a3.714,3.714,0,0,0,2.714-1.125,3.714,3.714,0,0,0,1.124-2.714,3.715,3.715,0,0,0-1.125-2.714,3.838,3.838,0,0,0-5.428,0,3.714,3.714,0,0,0-1.125,2.714,3.714,3.714,0,0,0,1.125,2.714A3.715,3.715,0,0,0,90.87,7.677Zm0,0" transform="translate(-84.322 0)" fill="#666"/>
  <path id="Path_15549" data-name="Path 15549" d="M13.264,251.873a9.481,9.481,0,0,0-.129-1.007,7.935,7.935,0,0,0-.248-1.012,5,5,0,0,0-.416-.944,3.564,3.564,0,0,0-.628-.818,2.768,2.768,0,0,0-.9-.566,3.116,3.116,0,0,0-1.151-.208,1.168,1.168,0,0,0-.624.265c-.187.122-.406.263-.65.419a3.723,3.723,0,0,1-.841.37,3.265,3.265,0,0,1-2.057,0,3.714,3.714,0,0,1-.84-.37c-.242-.155-.461-.3-.651-.419a1.167,1.167,0,0,0-.624-.265,3.112,3.112,0,0,0-1.151.209,2.765,2.765,0,0,0-.9.567,3.564,3.564,0,0,0-.627.818,5.011,5.011,0,0,0-.416.944,7.954,7.954,0,0,0-.248,1.012,9.449,9.449,0,0,0-.129,1.007c-.021.3-.032.621-.032.941a2.646,2.646,0,0,0,.786,2,2.829,2.829,0,0,0,2.025.739h7.674a2.829,2.829,0,0,0,2.025-.739,2.645,2.645,0,0,0,.786-2C13.3,252.493,13.286,252.177,13.264,251.873Zm0,0" transform="translate(0 -239.618)" fill="#666"/>
</svg>
