<svg xmlns="http://www.w3.org/2000/svg" width="55.217" height="60" viewBox="0 0 55.217 60">
  <g id="browsing" transform="translate(-20.409)">
    <g id="Group_10727" data-name="Group 10727" transform="translate(21.281 0.879)">
      <g id="Group_10726" data-name="Group 10726" transform="translate(0)">
        <path id="Path_15578" data-name="Path 15578" d="M68.705,149.192H28.44a.586.586,0,0,1-.586-.586V109.125l1.172-5.34a.586.586,0,0,1,.586-.586l39.093-1.172a.586.586,0,0,1,.586.586v45.993A.586.586,0,0,1,68.705,149.192Z" transform="translate(-27.854 -90.95)" fill="#f2fbff"/>
        <path id="Path_15579" data-name="Path 15579" d="M120,101.93H79.733a.586.586,0,0,1-.586-.586V61.883l1.172-5.36a.586.586,0,0,1,.586-.586L120,54.765a.586.586,0,0,1,.586.586v45.993A.586.586,0,0,1,120,101.93Z" transform="translate(-73.136 -49.226)" fill="#dff6fd"/>
        <path id="Path_15580" data-name="Path 15580" d="M169.529,18.088v44.7a.7.7,0,0,1-.586.7H131.021a.586.586,0,0,1-.586-.586V23.428l1.172-5.34a.586.586,0,0,1,.586-.586h36.75a.586.586,0,0,1,.586.586Z" transform="translate(-118.414 -16.33)" fill="#f2fbff"/>
        <path id="Path_15581" data-name="Path 15581" d="M451.97,8.205l1.172,6.394V54.081a.586.586,0,0,1-.586.586H449.04a.586.586,0,0,0,.586-.586V14.6L450.8,8.088c0-.323-1.434-.586-1.758-.586l2.344.117a.586.586,0,0,1,.586.586Z" transform="translate(-399.682 -7.502)" fill="#dff6fd"/>
        <path id="Path_15582" data-name="Path 15582" d="M169.534,8.086V14.6H130.44V8.086a.586.586,0,0,1,.586-.586h37.922A.586.586,0,0,1,169.534,8.086Z" transform="translate(-118.418 -7.5)" fill="#aee4a4"/>
        <path id="Path_15583" data-name="Path 15583" d="M85.109,61.863H79.092V55.351a.586.586,0,0,1,.586-.586h5.431Z" transform="translate(-73.088 -49.226)" fill="#8bd5a7"/>
        <path id="Path_15584" data-name="Path 15584" d="M33.871,109.125H27.854v-6.512a.586.586,0,0,1,.586-.586h5.431v7.1Z" transform="translate(-27.854 -90.95)" fill="#aee4a4"/>
        <path id="Path_15585" data-name="Path 15585" d="M209.034,117.613H187.848a2.521,2.521,0,1,1,0-5.043h21.186a2.521,2.521,0,0,1,0,5.043Z" transform="translate(-166.873 -100.257)" fill="#275e7c"/>
        <path id="Path_15586" data-name="Path 15586" d="M383.666,115.093a2.521,2.521,0,0,1-2.521,2.522H377.63a2.521,2.521,0,0,0,0-5.043h3.516A2.521,2.521,0,0,1,383.666,115.093Z" transform="translate(-336.641 -100.259)" fill="#1a4c65"/>
        <path id="Path_15587" data-name="Path 15587" d="M200.3,297.673H179.986a.586.586,0,0,1-.586-.586v-9.706h21.486v9.706A.586.586,0,0,1,200.3,297.673Z" transform="translate(-161.641 -254.582)" fill="#ffd271"/>
        <path id="Path_15588" data-name="Path 15588" d="M358.19,297.673h-6.578V287.381h7.164v9.706A.586.586,0,0,1,358.19,297.673Z" transform="translate(-313.672 -254.582)" fill="#275e7c"/>
        <path id="Path_15589" data-name="Path 15589" d="M401.842,287.382v9.707a.585.585,0,0,1-.586.586H397.74a.585.585,0,0,0,.586-.586v-9.707Z" transform="translate(-354.394 -254.583)" fill="#1a4c65"/>
        <path id="Path_15590" data-name="Path 15590" d="M268.541,200.256v9.705H249.4v-9.707a.586.586,0,0,1,.586-.586h17.97A.585.585,0,0,1,268.541,200.256Z" transform="translate(-223.438 -177.15)" fill="#95c7f9"/>
        <path id="Path_15591" data-name="Path 15591" d="M188.908,209.96H179.4v-9.706a.586.586,0,0,1,.586-.586h8.922Z" transform="translate(-161.641 -177.148)" fill="#aee4a4"/>
        <path id="Path_15592" data-name="Path 15592" d="M401.842,200.256v9.705h-3.516v-9.705a.585.585,0,0,0-.586-.586h3.516A.585.585,0,0,1,401.842,200.256Z" transform="translate(-354.394 -177.15)" fill="#4ca3f6"/>
        <path id="Path_15593" data-name="Path 15593" d="M453.142,8.086V14.6h-3.516V8.086a.586.586,0,0,0-.586-.586h3.516A.586.586,0,0,1,453.142,8.086Z" transform="translate(-399.682 -7.5)" fill="#8bd5a7"/>
      </g>
    </g>
    <g id="Group_10728" data-name="Group 10728" transform="translate(20.409)">
      <path id="Path_15594" data-name="Path 15594" d="M75.626,1.465A1.466,1.466,0,0,0,74.161,0H33.9A1.466,1.466,0,0,0,32.43,1.465V5.539H27.885A1.466,1.466,0,0,0,26.42,7v4.074H21.874a1.466,1.466,0,0,0-1.465,1.465V31.317a.879.879,0,1,0,1.758,0V19.933H26.42V53a1.466,1.466,0,0,0,1.465,1.465h7.6a.879.879,0,1,0,0-1.758h-7.3V19.156a.889.889,0,0,0,.006-.1.867.867,0,0,0-.006-.1V14.394H32.43V47.457A1.466,1.466,0,0,0,33.9,48.922H67.857V52.7H39.311a.879.879,0,0,0,0,1.758H61.846v3.781H22.167v-23.1a.879.879,0,0,0-1.758,0V58.535A1.466,1.466,0,0,0,21.874,60H62.139A1.466,1.466,0,0,0,63.6,58.535V54.461H68.15A1.466,1.466,0,0,0,69.615,53V48.922h4.546a1.466,1.466,0,0,0,1.465-1.465V22.869a.879.879,0,0,0-1.758,0v24.3H34.188V13.524s0-.006,0-.009,0-.006,0-.009V8.855h39.68V19.039a.879.879,0,0,0,1.758,0ZM26.42,18.175H22.167v-5.34H26.42Zm1.758-5.539V7.3H32.43v5.34Zm6.01-10.878h39.68V7.1H34.188Z" transform="translate(-20.409)"/>
      <path id="Path_15595" data-name="Path 15595" d="M155.164,29.763a.879.879,0,1,0,.879.879A.879.879,0,0,0,155.164,29.763Z" transform="translate(-138.596 -26.275)"/>
      <path id="Path_15596" data-name="Path 15596" d="M180.334,29.763a.879.879,0,1,0,.879.879A.879.879,0,0,0,180.334,29.763Z" transform="translate(-160.817 -26.275)"/>
      <path id="Path_15597" data-name="Path 15597" d="M205.5,29.763a.879.879,0,1,0,.879.879A.879.879,0,0,0,205.5,29.763Z" transform="translate(-183.038 -26.275)"/>
      <path id="Path_15598" data-name="Path 15598" d="M181.282,111.868h23.529a3.4,3.4,0,1,0,0-6.8H181.282a3.4,3.4,0,1,0,0,6.8Zm0-5.043h23.529a1.642,1.642,0,1,1,0,3.285H181.282a1.642,1.642,0,1,1,0-3.285Z" transform="translate(-159.428 -92.755)"/>
      <path id="Path_15599" data-name="Path 15599" d="M202,310.759h5.051a.879.879,0,0,0,0-1.758H202a.879.879,0,0,0,0,1.758Z" transform="translate(-179.948 -272.79)"/>
      <path id="Path_15600" data-name="Path 15600" d="M213.926,335.027H202a.879.879,0,0,0,0,1.758h11.921a.879.879,0,1,0,0-1.758Z" transform="translate(-179.948 -295.766)"/>
      <path id="Path_15601" data-name="Path 15601" d="M354.06,223.046h5.051a.879.879,0,0,0,0-1.758H354.06a.879.879,0,1,0,0,1.758Z" transform="translate(-314.184 -195.356)"/>
      <path id="Path_15602" data-name="Path 15602" d="M294.338,249.073h11.921a.879.879,0,0,0,0-1.758H294.338a.879.879,0,0,0,0,1.758Z" transform="translate(-261.461 -218.333)"/>
      <path id="Path_15603" data-name="Path 15603" d="M171.955,193.632v19.4a1.466,1.466,0,0,0,1.465,1.465h28.517a1.466,1.466,0,0,0,1.465-1.465v-19.4a1.466,1.466,0,0,0-1.465-1.465H173.42A1.466,1.466,0,0,0,171.955,193.632Zm1.758,10.572h8.482a.824.824,0,0,0,.294,0h9.648v8.534H173.713Zm20.181,8.534V204.2h7.75v8.534Zm7.75-10.292H183.22v-8.521h18.423Zm-20.181-8.521v8.521h-7.75v-8.521Z" transform="translate(-154.196 -169.647)"/>
    </g>
  </g>
</svg>
