<svg xmlns="http://www.w3.org/2000/svg" width="60.427" height="60.428" viewBox="0 0 60.427 60.428">
  <g id="campaign" transform="translate(-0.005)">
    <g id="Group_10750" data-name="Group 10750" transform="translate(0.889 5.03)">
      <g id="Group_10737" data-name="Group 10737" transform="translate(17.379 33.733)">
        <path id="Path_15675" data-name="Path 15675" d="M158.283,328.437l-3.541,3.541,3.709,5.4,3.2-3.2Z" transform="translate(-154.742 -328.437)" fill="#ffe07d"/>
      </g>
      <g id="Group_10738" data-name="Group 10738" transform="translate(13.838 36.6)">
        <path id="Path_15676" data-name="Path 15676" d="M128.956,352.723l-4.215,4.215,7.587,10.622,4.047-4.047Z" transform="translate(-124.741 -352.723)" fill="#9bb9c1"/>
      </g>
      <g id="Group_10739" data-name="Group 10739" transform="translate(13.838 36.6)">
        <path id="Path_15677" data-name="Path 15677" d="M126.287,359.1l1.992-1.992a7.153,7.153,0,0,1,1.668-1.241l.857-.461-1.846-2.686-4.215,4.215Z" transform="translate(-124.741 -352.724)" fill="#86a0af"/>
      </g>
      <g id="Group_10740" data-name="Group 10740" transform="translate(14.5)">
        <path id="Path_15678" data-name="Path 15678" d="M133.064,42.967l-2.36,2.36a1.192,1.192,0,0,0,0,1.686l25.291,25.291a1.192,1.192,0,0,0,1.686,0l2.36-2.36a1.192,1.192,0,0,0,0-1.686L134.75,42.967a1.192,1.192,0,0,0-1.686,0Z" transform="translate(-130.354 -42.618)" fill="#e278b1"/>
      </g>
      <g id="Group_10741" data-name="Group 10741" transform="translate(15.476)">
        <path id="Path_15679" data-name="Path 15679" d="M140.353,42.967,138.619,44.7a1.192,1.192,0,0,1,1.686,0L165.6,69.993a1.192,1.192,0,0,1,0,1.686l1.734-1.734a1.192,1.192,0,0,0,0-1.686L142.039,42.967A1.192,1.192,0,0,0,140.353,42.967Z" transform="translate(-138.619 -42.618)" fill="#dd5ca2"/>
      </g>
      <g id="Group_10742" data-name="Group 10742" transform="translate(6.419 5.239)">
        <path id="Path_15680" data-name="Path 15680" d="M70.424,93.9l-8.54,15.867L72,119.884l15.867-8.54a7.154,7.154,0,0,1,3.647-.85l3.248.117-23.6-23.6.117,3.248a7.154,7.154,0,0,1-.85,3.647Z" transform="translate(-61.884 -87.006)" fill="#80b4fb"/>
      </g>
      <g id="Group_10743" data-name="Group 10743" transform="translate(19.584 12.482)">
        <path id="Path_15681" data-name="Path 15681" d="M193.138,164.74l-3.248-.117a7.131,7.131,0,0,0-3.647.85l-12.819,6.9c4.5-6.643,5.215-17.612,3.351-23.995Z" transform="translate(-173.424 -148.378)" fill="#61a2f9"/>
      </g>
      <g id="Group_10744" data-name="Group 10744" transform="translate(1.855 28.001)">
        <path id="Path_15682" data-name="Path 15682" d="M27.775,279.865l-4.215,4.215a1.192,1.192,0,0,0,0,1.686l8.43,8.43a1.192,1.192,0,0,0,1.686,0l4.215-4.215Z" transform="translate(-23.21 -279.865)" fill="#e278b1"/>
      </g>
      <g id="Group_10745" data-name="Group 10745" transform="translate(4.843 27.999)">
        <path id="Path_15683" data-name="Path 15683" d="M0,0H2.223V14.307H0Z" transform="translate(0 1.571) rotate(-45)" fill="#dd5ca2"/>
      </g>
      <g id="Group_10746" data-name="Group 10746" transform="translate(0 33.902)">
        <path id="Path_15684" data-name="Path 15684" d="M9.7,329.866l-1.855,1.855a1.192,1.192,0,0,0,0,1.686l6.744,6.744a1.192,1.192,0,0,0,1.686,0l1.855-1.855Z" transform="translate(-7.495 -329.866)" fill="#4a80aa"/>
      </g>
      <g id="Group_10747" data-name="Group 10747" transform="translate(26.483 6.623)">
        <path id="Path_15685" data-name="Path 15685" d="M242,110.164l1.041-1.988a2.384,2.384,0,0,0-.426-2.792l-5.951-5.951a2.385,2.385,0,0,0-2.792-.426l-1.988,1.041Z" transform="translate(-231.884 -98.734)" fill="#407093"/>
      </g>
      <g id="Group_10748" data-name="Group 10748" transform="translate(21.047 47.012)">
        <path id="Path_15686" data-name="Path 15686" d="M193.115,443.856l-4.384,4.384a.715.715,0,0,1-1.012,0l-1.686-1.686a.715.715,0,0,1,0-1.012l4.384-4.384a.715.715,0,0,1,1.012,0l1.686,1.686A.715.715,0,0,1,193.115,443.856Z" transform="translate(-185.824 -440.949)" fill="#e278b1"/>
      </g>
      <g id="Group_10749" data-name="Group 10749" transform="translate(24.123 47.012)">
        <path id="Path_15687" data-name="Path 15687" d="M213.4,441.158l-1.517,1.517a.715.715,0,0,1,1.012,0l1.686,1.686a.715.715,0,0,1,0,1.012l1.517-1.517a.715.715,0,0,0,0-1.012l-1.686-1.686A.715.715,0,0,0,213.4,441.158Z" transform="translate(-211.885 -440.949)" fill="#dd5ca2"/>
      </g>
    </g>
    <g id="Group_10752" data-name="Group 10752" transform="translate(38.563 0.885)">
      <g id="Group_10751" data-name="Group 10751">
        <path id="Path_15688" data-name="Path 15688" d="M347.69,7.5V18.945H334.1l-4.65,3.457V18.945h-2.742V7.5Z" transform="translate(-326.707 -7.5)" fill="#e4f6ff"/>
      </g>
    </g>
    <g id="Group_10753" data-name="Group 10753" transform="translate(41.901 17.815)">
      <circle id="Ellipse_561" data-name="Ellipse 561" cx="8.823" cy="8.823" r="8.823" fill="#ffe07d"/>
    </g>
    <g id="Group_10754" data-name="Group 10754" transform="translate(47.863 22.345)">
      <path id="Path_15689" data-name="Path 15689" d="M405.5,189.329v8.584l7.63-4.292Z" transform="translate(-405.5 -189.329)" fill="#61a2f9"/>
    </g>
    <g id="Group_10755" data-name="Group 10755" transform="translate(0.005 0)">
      <path id="Path_15690" data-name="Path 15690" d="M352.417,34.1H365.77a.885.885,0,0,0,0-1.77H352.417a.885.885,0,0,0,0,1.77Z" transform="translate(-310.043 -28.51)"/>
      <path id="Path_15691" data-name="Path 15691" d="M352.417,66.42H361a.885.885,0,0,0,0-1.77h-8.584a.885.885,0,0,0,0,1.77Z" transform="translate(-310.043 -57.02)"/>
      <path id="Path_15692" data-name="Path 15692" d="M341.076,0H320.092a.885.885,0,0,0-.885.885V12.331a.885.885,0,0,0,.885.885h1.857v2.572a.885.885,0,0,0,1.413.71l4.414-3.283h13.3a.885.885,0,0,0,.885-.885V.885A.885.885,0,0,0,341.076,0Zm-.885,11.445H327.484a.886.886,0,0,0-.528.175l-3.236,2.407v-1.7a.885.885,0,0,0-.885-.885h-1.857V1.77H340.19Z" transform="translate(-281.534 0)"/>
      <path id="Path_15693" data-name="Path 15693" d="M50.724,47.91a9.72,9.72,0,0,0-9.63,8.508L38.574,53.9l.739-1.412a3.256,3.256,0,0,0-.584-3.829l-5.951-5.951a3.255,3.255,0,0,0-3.829-.584l-1.411.739-2.154-2.154a.885.885,0,0,0-1.252,1.252L41.109,58.937a9.667,9.667,0,0,0,2.19,4.926l-1.208,1.209a.31.31,0,0,1-.437,0L16.365,39.783a.31.31,0,0,1,0-.437l2.36-2.36a.307.307,0,0,1,.434,0l2.053,2.052a.885.885,0,1,0,1.252-1.252L20.41,35.734a2.081,2.081,0,0,0-2.937,0l-2.361,2.361a2.084,2.084,0,0,0,0,2.939l.6.6.1,2.9a6.273,6.273,0,0,1-.745,3.2L6.59,63.478,2.466,67.6a2.078,2.078,0,0,0-.484,2.17L.612,71.142a2.08,2.08,0,0,0,0,2.938l6.744,6.744a2.08,2.08,0,0,0,2.938,0l1.37-1.37a2.071,2.071,0,0,0,2.171-.485l.779-.779L16.265,80.5a.885.885,0,1,0,1.44-1.029l-1.822-2.551,2.075-2.075,1.055-.568,6.2,9.018-2.787,2.787-2.321-3.25a.885.885,0,1,0-1.441,1.029l2.546,3.564a1.6,1.6,0,0,0,.309,1.827l1.686,1.686a1.6,1.6,0,0,0,2.264,0l4.384-4.384a1.6,1.6,0,0,0,0-2.264l-1.686-1.686a1.6,1.6,0,0,0-1.559-.409L23.8,78.111,25.806,76.1a.885.885,0,0,0,.137-1.075l-2-3.4,9.769-5.258a6.272,6.272,0,0,1,3.2-.745l2.9.1.6.6a2.084,2.084,0,0,0,2.939,0l1.213-1.214a9.663,9.663,0,0,0,6.168,2.217c.218,0,.43-.007.632-.021a.885.885,0,1,0-.122-1.766c-.164.011-.331.017-.51.017a7.935,7.935,0,1,1,4.04-1.1.885.885,0,1,0,.9,1.523A9.709,9.709,0,0,0,50.724,47.91ZM8.608,79.572,1.864,72.828a.307.307,0,0,1,0-.434l1.229-1.229,7.179,7.178L9.042,79.572A.307.307,0,0,1,8.608,79.572Zm3.975-1.855a.307.307,0,0,1-.434,0L3.72,69.288h0a.307.307,0,0,1,0-.434l3.589-3.589,8.865,8.865Zm15.9,7.708-4.144,4.143-1.446-1.446,4.143-4.143ZM24.07,75.336l-1.292,1.292-2.2-3.194,1.8-.969Zm12.9-11.482a8.045,8.045,0,0,0-4.1.955L17.584,73.037,8.4,63.852l8.228-15.287a8.046,8.046,0,0,0,.955-4.1l-.036-1L37.968,63.89Zm-7.2-20.163a1.492,1.492,0,0,1,1.756.268l5.951,5.951a1.493,1.493,0,0,1,.268,1.756l-.483.922-8.413-8.414Z" transform="translate(-0.005 -30.981)"/>
      <path id="Path_15694" data-name="Path 15694" d="M407.4,187.006a.885.885,0,0,0-.451-.772l-7.63-4.292a.885.885,0,0,0-1.319.772V191.3a.885.885,0,0,0,1.319.772l7.63-4.292A.885.885,0,0,0,407.4,187.006Zm-7.63,2.778v-5.557l4.94,2.779Z" transform="translate(-351.027 -160.369)"/>
    </g>
  </g>
</svg>
