<svg xmlns="http://www.w3.org/2000/svg" xmlns:xlink="http://www.w3.org/1999/xlink" width="354.358" height="396" viewBox="0 0 354.358 396">
  <defs>
    <clipPath id="clip-path">
      <rect id="Rectangle_6181" data-name="Rectangle 6181" width="354.358" height="396" fill="none"/>
    </clipPath>
    <clipPath id="clip-path-3">
      <rect id="Rectangle_6154" data-name="Rectangle 6154" width="3.104" height="1.964" fill="none"/>
    </clipPath>
    <clipPath id="clip-path-4">
      <rect id="Rectangle_6155" data-name="Rectangle 6155" width="0.044" height="1.686" fill="none"/>
    </clipPath>
    <clipPath id="clip-path-5">
      <rect id="Rectangle_6156" data-name="Rectangle 6156" width="0.017" height="1.039" fill="none"/>
    </clipPath>
    <clipPath id="clip-path-6">
      <rect id="Rectangle_6157" data-name="Rectangle 6157" width="0.147" height="8.695" fill="none"/>
    </clipPath>
    <clipPath id="clip-path-7">
      <rect id="Rectangle_6158" data-name="Rectangle 6158" width="0.953" height="2.726" fill="none"/>
    </clipPath>
    <clipPath id="clip-path-11">
      <rect id="Rectangle_6168" data-name="Rectangle 6168" width="36.924" height="73.158" fill="none"/>
    </clipPath>
    <clipPath id="clip-path-12">
      <rect id="Rectangle_6169" data-name="Rectangle 6169" width="7.399" height="28.874" fill="none"/>
    </clipPath>
    <clipPath id="clip-path-13">
      <rect id="Rectangle_6170" data-name="Rectangle 6170" width="3.352" height="3.414" fill="none"/>
    </clipPath>
    <clipPath id="clip-path-14">
      <rect id="Rectangle_6171" data-name="Rectangle 6171" width="39.512" height="25.251" fill="none"/>
    </clipPath>
    <clipPath id="clip-path-15">
      <rect id="Rectangle_6172" data-name="Rectangle 6172" width="20.769" height="14.621" fill="none"/>
    </clipPath>
    <clipPath id="clip-path-16">
      <rect id="Rectangle_6173" data-name="Rectangle 6173" width="3.469" height="3.456" fill="none"/>
    </clipPath>
    <clipPath id="clip-path-17">
      <rect id="Rectangle_6174" data-name="Rectangle 6174" width="44.658" height="3.801" fill="none"/>
    </clipPath>
    <clipPath id="clip-path-18">
      <rect id="Rectangle_6175" data-name="Rectangle 6175" width="21.605" height="4.556" fill="none"/>
    </clipPath>
    <clipPath id="clip-path-19">
      <rect id="Rectangle_6176" data-name="Rectangle 6176" width="39.671" height="14.271" fill="none"/>
    </clipPath>
    <clipPath id="clip-path-20">
      <rect id="Rectangle_6177" data-name="Rectangle 6177" width="15.387" height="6.098" fill="none"/>
    </clipPath>
    <clipPath id="clip-path-21">
      <rect id="Rectangle_6178" data-name="Rectangle 6178" width="16.433" height="5.217" fill="none"/>
    </clipPath>
    <clipPath id="clip-path-22">
      <rect id="Rectangle_6179" data-name="Rectangle 6179" width="5.551" height="33.176" fill="none"/>
    </clipPath>
  </defs>
  <g id="leftImage13" transform="translate(-9976 -2131)">
    <g id="Group_11811" data-name="Group 11811" transform="translate(9976 2131)">
      <g id="Group_11810" data-name="Group 11810" clip-path="url(#clip-path)">
        <g id="Group_11767" data-name="Group 11767">
          <g id="Group_11766" data-name="Group 11766" clip-path="url(#clip-path)">
            <path id="Path_17508" data-name="Path 17508" d="M67.116,125.306a30.2,30.2,0,1,1-30.2-30.2,30.2,30.2,0,0,1,30.2,30.2" transform="translate(-0.888 -12.591)" fill="#fafafa"/>
            <path id="Path_17509" data-name="Path 17509" d="M67.242,125.034A8.637,8.637,0,0,1,67,123.1a15.806,15.806,0,0,0-.289-2.325,22.7,22.7,0,0,0-.651-3.12,29.3,29.3,0,0,0-3.35-8.006,30.14,30.14,0,0,0-7.591-8.525,29.821,29.821,0,0,0-28.166-4.477,27.985,27.985,0,0,0-7.552,3.974,33.752,33.752,0,0,0-3.4,2.829,33.969,33.969,0,0,0-2.943,3.411,29.582,29.582,0,0,0-.412,35.073,33.715,33.715,0,0,0,2.862,3.481,33.615,33.615,0,0,0,3.33,2.908,27.927,27.927,0,0,0,7.459,4.151,30.043,30.043,0,0,0,36.052-12.163,29.322,29.322,0,0,0,3.535-7.926,22.858,22.858,0,0,0,.724-3.1,15.848,15.848,0,0,0,.343-2.316,8.631,8.631,0,0,1,.29-1.93,8.531,8.531,0,0,1,.048,1.955,13.74,13.74,0,0,1-.187,2.367,21.2,21.2,0,0,1-.586,3.195,28.676,28.676,0,0,1-3.366,8.248,30.916,30.916,0,0,1-21,14.582,31.19,31.19,0,0,1-16.392-1.463,29.3,29.3,0,0,1-7.884-4.32,35.054,35.054,0,0,1-3.523-3.05,35.16,35.16,0,0,1-3.035-3.657,31.082,31.082,0,0,1,.435-37.019,35.221,35.221,0,0,1,3.12-3.584,34.825,34.825,0,0,1,3.594-2.965,29.306,29.306,0,0,1,7.981-4.134,31.2,31.2,0,0,1,16.42-1.079,30.91,30.91,0,0,1,20.657,15.068,28.727,28.727,0,0,1,3.174,8.325,21.228,21.228,0,0,1,.51,3.208,13.594,13.594,0,0,1,.132,2.371,8.516,8.516,0,0,1-.093,1.953" transform="translate(-0.717 -12.378)" fill="#e0e0e0"/>
            <path id="Path_17510" data-name="Path 17510" d="M62.064,107.892c.069.094-.475.579-1.527,1.381l-1.945,1.433c-.385.271-.789.578-1.237.867l-1.492.8a34.413,34.413,0,0,1-17.868,4.74l-2.716-.087-2.609-.375c-.427-.066-.852-.118-1.268-.2l-1.22-.309c-.8-.212-1.6-.39-2.352-.621a39.312,39.312,0,0,1-7.65-3.409c-4.117-2.419-6.134-4.642-5.981-4.788.162-.191,2.407,1.663,6.55,3.748a45.913,45.913,0,0,0,7.526,2.969c.731.2,1.5.354,2.269.541l1.172.275,1.215.168,2.493.335,2.588.072a37.118,37.118,0,0,0,17.309-4.116l1.51-.679c.459-.247.876-.512,1.277-.74l2.067-1.173c1.15-.627,1.823-.933,1.891-.84" transform="translate(-1.879 -14.209)" fill="#e0e0e0"/>
            <path id="Path_17511" data-name="Path 17511" d="M13.684,150.008c-.069-.094.475-.579,1.527-1.381l1.945-1.433c.385-.271.788-.578,1.237-.867l1.492-.8a34.413,34.413,0,0,1,17.868-4.74l2.715.087,2.61.375c.427.066.852.117,1.268.2l1.22.308c.8.213,1.6.39,2.353.622a39.3,39.3,0,0,1,7.649,3.409c4.118,2.419,6.135,4.642,5.982,4.788-.162.191-2.407-1.663-6.55-3.748a45.913,45.913,0,0,0-7.526-2.969c-.732-.2-1.5-.354-2.269-.541l-1.172-.276-1.215-.167-2.493-.335-2.588-.072a37.118,37.118,0,0,0-17.309,4.116l-1.51.678c-.46.248-.876.513-1.277.741l-2.067,1.173c-1.15.627-1.823.933-1.891.84" transform="translate(-1.811 -18.639)" fill="#e0e0e0"/>
            <path id="Path_17512" data-name="Path 17512" d="M67.36,130.472c-.005.463-13.663.678-30.5.482s-30.49-.732-30.485-1.2,13.66-.678,30.5-.481,30.487.732,30.481,1.195" transform="translate(-0.844 -17.107)" fill="#e0e0e0"/>
            <path id="Path_17513" data-name="Path 17513" d="M40.247,155.257c-.463-.005-.678-13.659-.482-30.491s.732-30.481,1.195-30.474.678,13.655.482,30.494-.732,30.477-1.195,30.472" transform="translate(-5.255 -12.484)" fill="#e0e0e0"/>
            <path id="Path_17514" data-name="Path 17514" d="M37.96,155.209c-.113.179-3.5-2.056-7.442-7.165a41.021,41.021,0,0,1-5.573-9.826,36.763,36.763,0,0,1-2.531-13.631,34.963,34.963,0,0,1,2.907-13.562,42.359,42.359,0,0,1,5.835-9.665c4.043-5.013,7.4-7.255,7.518-7.08.167.188-2.869,2.723-6.575,7.8a45.687,45.687,0,0,0-5.352,9.542A35.15,35.15,0,0,0,24.09,124.6a37.108,37.108,0,0,0,2.3,13.072,43.965,43.965,0,0,0,5.088,9.676c3.594,5.153,6.651,7.676,6.484,7.862" transform="translate(-2.967 -12.482)" fill="#e0e0e0"/>
            <path id="Path_17515" data-name="Path 17515" d="M41.832,94.289c.113-.179,3.5,2.056,7.441,7.165a40.991,40.991,0,0,1,5.574,9.826,36.763,36.763,0,0,1,2.531,13.631,34.963,34.963,0,0,1-2.907,13.562,42.359,42.359,0,0,1-5.835,9.665c-4.043,5.013-7.4,7.255-7.518,7.08-.167-.188,2.869-2.723,6.576-7.8a45.7,45.7,0,0,0,5.351-9.541A35.15,35.15,0,0,0,55.7,124.9a37.128,37.128,0,0,0-2.3-13.072,43.965,43.965,0,0,0-5.088-9.676c-3.594-5.153-6.651-7.676-6.484-7.862" transform="translate(-5.443 -12.483)" fill="#e0e0e0"/>
            <path id="Path_17516" data-name="Path 17516" d="M41.071,163.489c.125,0,.226,4.4.226,9.824s-.1,9.826-.226,9.826-.226-4.4-.226-9.826.1-9.824.226-9.824" transform="translate(-5.408 -21.646)" fill="#ebebeb"/>
            <path id="Path_17517" data-name="Path 17517" d="M64.075,74.34a1.375,1.375,0,0,1-.4.046l-1.158.042-4.26.072c-3.6.041-8.568.067-14.056.067l-3.53,0,.222-.222c-.03,4.608-.056,8.666-.076,11.664-.028,1.407-.049,2.563-.067,3.44a7.333,7.333,0,0,1-.079,1.246,7.331,7.331,0,0,1-.079-1.246c-.017-.877-.039-2.033-.067-3.44-.02-3-.046-7.056-.076-11.664l0-.222h.224l3.53,0c5.488,0,10.458.025,14.056.066l4.26.072,1.158.043a1.4,1.4,0,0,1,.4.045" transform="translate(-5.355 -9.813)" fill="#ebebeb"/>
            <rect id="Rectangle_6150" data-name="Rectangle 6150" width="9.356" height="44.153" transform="translate(241.924 351.759)" fill="#ebebeb"/>
            <rect id="Rectangle_6151" data-name="Rectangle 6151" width="9.356" height="44.153" transform="translate(321.426 351.759)" fill="#ebebeb"/>
            <rect id="Rectangle_6152" data-name="Rectangle 6152" width="118.027" height="10.919" transform="translate(226.449 296.251)" fill="#ebebeb"/>
            <path id="Path_17518" data-name="Path 17518" d="M375.427,399.19l-106.141.23V354.046H375.427Z" transform="translate(-35.654 -46.876)" fill="#ebebeb"/>
            <path id="Path_17519" data-name="Path 17519" d="M379.033,354.014c0,.117-26.424.213-59.011.213s-59.017-.1-59.017-.213,26.418-.212,59.017-.212,59.011.1,59.011.212" transform="translate(-34.557 -46.844)" fill="#e0e0e0"/>
            <path id="Path_17520" data-name="Path 17520" d="M375.1,406.312c0,.117-23.587.212-52.678.212s-52.683-.1-52.683-.212,23.583-.213,52.683-.213,52.678.1,52.678.213" transform="translate(-35.713 -53.768)" fill="#e0e0e0"/>
            <path id="Path_17521" data-name="Path 17521" d="M367.978,391.221s-.01-.18-.014-.521-.009-.852-.015-1.507c-.009-1.333-.02-3.283-.035-5.806-.017-5.055-.043-12.4-.076-21.609l.14.14-88.631.073h-.005l.212-.213c0,10.229,0,20.153-.006,29.444l-.206-.206,63.395.1,18.526.057,4.977.027,1.292.013c.292,0,.448.013.448.013s-.138.009-.422.013l-1.268.013-4.933.027-18.478.057-63.536.1h-.206v-.206c0-9.291,0-19.215-.007-29.444v-.213h.218l88.631.073h.14v.14c-.033,9.249-.059,16.619-.076,21.693-.015,2.51-.026,4.448-.035,5.776-.006.644-.011,1.137-.015,1.482s-.014.494-.014.494" transform="translate(-36.957 -47.871)" fill="#e0e0e0"/>
            <path id="Path_17522" data-name="Path 17522" d="M282.9,391.294a14.665,14.665,0,0,1-3.389,3.636,14.665,14.665,0,0,1,3.389-3.636" transform="translate(-37.007 -51.807)" fill="#e0e0e0"/>
            <path id="Path_17523" data-name="Path 17523" d="M282.886,365.673a16.105,16.105,0,0,1-3.512-3.856,16.11,16.11,0,0,1,3.512,3.856" transform="translate(-36.988 -47.904)" fill="#e0e0e0"/>
            <path id="Path_17524" data-name="Path 17524" d="M381.086,361.915a7.732,7.732,0,0,1-1.93,2.044,12.085,12.085,0,0,1-2.21,1.725,7.733,7.733,0,0,1,1.93-2.044,12.139,12.139,0,0,1,2.21-1.725" transform="translate(-49.907 -47.917)" fill="#e0e0e0"/>
            <path id="Path_17525" data-name="Path 17525" d="M380.932,395.159a18.189,18.189,0,0,1-3.981-3.861,18.192,18.192,0,0,1,3.981,3.861" transform="translate(-49.908 -51.807)" fill="#e0e0e0"/>
            <path id="Path_17526" data-name="Path 17526" d="M364.533,387.949s-.009-.134-.013-.383-.008-.627-.014-1.1c-.007-.982-.017-2.408-.031-4.261-.016-3.719-.041-9.132-.071-15.974l.129.129-81.139.082h0l.213-.212c0,7.466,0,14.746-.005,21.721l-.207-.207,57.9.095,17.041.059,4.592.027,1.195.014c.27,0,.415.013.415.013s-.127.009-.388.013l-1.17.014-4.547.027-16.994.059-58.045.095h-.207v-.208c0-6.975,0-14.256-.005-21.721v-.213h.217l81.139.082h.13v.129c-.03,6.875-.055,12.315-.071,16.051-.014,1.84-.024,3.258-.031,4.233-.006.466-.01.823-.014,1.08,0,.241-.013.357-.013.357" transform="translate(-37.493 -48.461)" fill="#e0e0e0"/>
            <path id="Path_17527" data-name="Path 17527" d="M336.988,376.243a8.6,8.6,0,0,0-2.179-.991,7.006,7.006,0,0,0-2.154-.335h-5.973a6.88,6.88,0,0,0-4.758,1.839,3.954,3.954,0,0,0-.712.862,2.455,2.455,0,0,0,.232,2.92c.768.719,2.336.369,2.466-.676a2.591,2.591,0,0,0,2.749,2.442,3.49,3.49,0,0,0,2.938-2.548,2.332,2.332,0,0,0,4.641.352c.737.96,1.827,1.858,3.086,1.449a2.225,2.225,0,0,0,1.43-1.6,3.584,3.584,0,0,0-1.766-3.719" transform="translate(-42.48 -49.639)" fill="#e0e0e0"/>
            <path id="Path_17528" data-name="Path 17528" d="M328.207,374.884a8.36,8.36,0,0,0-3.836,5.272c-.05,0-.089-.4.033-1.021a5.946,5.946,0,0,1,2.841-3.905c.556-.307.943-.392.961-.345" transform="translate(-42.941 -49.633)" fill="#ebebeb"/>
            <path id="Path_17529" data-name="Path 17529" d="M331.351,375.172a13.273,13.273,0,0,1-.494,4.7,13.271,13.271,0,0,1,.494-4.7" transform="translate(-43.795 -49.673)" fill="#ebebeb"/>
            <path id="Path_17530" data-name="Path 17530" d="M334.757,375.092c.027-.043.338.082.693.475a3.731,3.731,0,0,1,.839,1.838,6.651,6.651,0,0,1,.011,1.993c-.069.5-.151.8-.208.8s-.083-.318-.091-.816a12.276,12.276,0,0,0-.13-1.9,4.611,4.611,0,0,0-.659-1.728c-.261-.4-.495-.6-.456-.658" transform="translate(-44.321 -49.661)" fill="#ebebeb"/>
            <rect id="Rectangle_6153" data-name="Rectangle 6153" width="72.727" height="8.519" transform="translate(250.251 366.627)" fill="#ebebeb"/>
            <path id="Path_17531" data-name="Path 17531" d="M343.155,328.72v10.97h-47.17a5.485,5.485,0,0,1,0-10.97" transform="translate(-38.462 -43.523)" fill="#e0e0e0"/>
            <path id="Path_17532" data-name="Path 17532" d="M348.334,337.742H332.457a2.841,2.841,0,0,1-2.841-2.841v-.688a2.841,2.841,0,0,1,2.841-2.841h15.876Z" transform="translate(-43.641 -43.874)" fill="#ebebeb"/>
            <path id="Path_17533" data-name="Path 17533" d="M343.155,316.077v10.97h-47.17a5.485,5.485,0,0,1,0-10.97Z" transform="translate(-38.462 -41.849)" fill="#ebebeb"/>
            <path id="Path_17534" data-name="Path 17534" d="M348.334,325.1H332.457a2.841,2.841,0,0,1-2.841-2.841v-.688a2.841,2.841,0,0,1,2.841-2.841h15.876Z" transform="translate(-43.641 -42.2)" fill="#f5f5f5"/>
            <path id="Path_17535" data-name="Path 17535" d="M310.783,295.8l-7.491,17.6h4.821l3.328-9.4Z" transform="translate(-40.156 -39.164)" fill="#e0e0e0"/>
            <path id="Path_17536" data-name="Path 17536" d="M334.734,277.443l2.893,33.519H313.144l-2.69-33.519Z" transform="translate(-41.104 -36.734)" fill="#f5f5f5"/>
            <path id="Path_17537" data-name="Path 17537" d="M332.886,280.483l2.535,28.075-18.379.242-2.482-28.48Z" transform="translate(-41.648 -37.114)" fill="#fafafa"/>
            <path id="Path_17538" data-name="Path 17538" d="M329.648,284.987l1.442,19.32h-9.8l-1.729-19.32Z" transform="translate(-42.31 -37.732)" fill="#e0e0e0"/>
            <path id="Path_17539" data-name="Path 17539" d="M289.574,72.95c-.079-.809-.168-1.607-.281-2.4q-.164-1.264-.374-2.514.21,1.251.374,2.514c.113.8.2,1.6.281,2.4" transform="translate(-38.253 -9.007)" fill="#263238"/>
            <path id="Path_17540" data-name="Path 17540" d="M261.627,73.907a35.489,35.489,0,0,1-1.314-4.965,3.288,3.288,0,0,0-1.494-2.225,13.224,13.224,0,0,0-1.786-.4c-2.1-.629-2.673-3.561-4.662-4.472a6.781,6.781,0,0,0-2-.416c-2.663-.314-5.415-1.235-7.088-3.325a13.079,13.079,0,0,0-1.641-2.022,1.963,1.963,0,0,0-2.4-.225c.562,1.124,1.112,2.247,1.663,3.359a8.839,8.839,0,0,0,1.864,2.8,3.009,3.009,0,0,0,3.134.674,2.071,2.071,0,0,1,1.057-.371,1.146,1.146,0,0,1,.685.438c1.449,1.607.977,4.269-.438,5.909s-3.495,2.483-5.5,3.28a4.272,4.272,0,0,1-2.247.438c-1.393-.259-2.134-1.775-2.539-3.135-.91-3.011-1.348-6.28-3.213-8.818a11.031,11.031,0,0,1-1.7-2.461c-.383-1.011-.292-2.19-.9-3.077-.63-.933-1.966-1.472-2.056-2.6a2.049,2.049,0,0,1,1.314-1.819c.719-.348,1.528-.449,2.27-.753.292-.123.618-.337.629-.652,0-.471-.652-.662-.821-1.1-.18-.495.326-.955.54-1.438.461-1.1-.685-2.213-1.8-2.663s-2.438-.775-2.954-1.853a6.394,6.394,0,0,1-.359-1.607,3.516,3.516,0,0,0-2.629-2.9,2.315,2.315,0,0,0-2.685,2.37,9.755,9.755,0,0,0,1,2.033c.315.7.226,1.73-.494,1.955-1.18.36-2.315-1.8-3.3-1.056.4,1.382.8,2.764,1.2,4.157-1.55.786-3.4-.64-4.066-2.257s-.685-3.45-1.471-5-2.91-2.718-4.257-1.617c-.068,2,2.572,2.808,3.74,4.426a2.713,2.713,0,0,1-.527,3.808c-1.236.742-3.2-.55-2.73-1.91.169-.472.562-.865.606-1.371.045-.629-.482-1.135-.966-1.539-.753-.64-1.505-1.269-2.257-1.9a4.767,4.767,0,0,0-1.607-1.012c-1.55-.449-3.1.809-3.921,2.191s-1.281,3.023-2.415,4.179a4.416,4.416,0,0,1-6.246.023c-1.539-1.764-.753-5.067,1.505-5.707.854-.235,1.932-.213,2.382-.966.786-1.337-1.461-3.044-.685-4.393.6-1.033,2.168-.561,3.314-.91s1.775-1.494,2.448-2.482,1.708-1.966,2.876-1.707a3.6,3.6,0,0,1,.124-2.045,1.25,1.25,0,0,1,1.718-.629,2.077,2.077,0,0,0,1.112,2.729,6.063,6.063,0,0,0,3.269.236c1.1-.134,2.483-.539,2.573-1.64.034-.36-.1-.742.034-1.078.482-1.314,2.909.494,3.842-.562.539-.55-.056-1.528-.809-1.707a8.231,8.231,0,0,0-2.28.113c-.763.033-1.7-.371-1.73-1.135s.809-1.292.9-2.034c.146-1.258-1.989-1.583-2.742-.561s-.482,2.427-.258,3.673.348,2.718-.573,3.6c-.393.6-1.415.28-1.753-.349a5.075,5.075,0,0,1-.325-2.1,1.81,1.81,0,0,0-1.067-1.719,3.8,3.8,0,0,0-1.494.168c-1.955.236-3.314-2.291-2.7-4.157s2.382-3.078,4.1-4.033c1.258-.7,2.82-1.348,4.066-.64.585.325.989.887,1.562,1.224.989.584,2.213.37,3.348.393a7.8,7.8,0,0,1,4.886,1.9c.506.461.978,1.225.585,1.775-.427.584-1.652.708-1.438,1.393a2.436,2.436,0,0,0,3.056-1.966,2.043,2.043,0,0,1,1.18,1.662,3.637,3.637,0,0,1,5.336.438,4.6,4.6,0,0,0,.989,1.269c.449.292,1.235.147,1.292-.382a1.073,1.073,0,0,0-.09-.495c-.27-.763-.55-1.517-.82-2.269,1.045-.562,2.28.314,2.988,1.258,2.629,3.516,4.505,1.4,8.212,1.977,2.506.382,3.607,1.989,5.022,3.932,4.336,5.976,10.066,10.874,14.009,17.12.416.652.8,1.314,1.156,1.988-.067-.168-.123-.337-.191-.5a69.253,69.253,0,0,0-5.729-11.649q-.725-1.18-1.484-2.326c-.314-.471-.64-.954-.966-1.415-.416-.606-.854-1.191-1.292-1.775-.349-.472-.7-.932-1.056-1.382-.247-.314-.506-.629-.764-.943-.269-.359-.561-.708-.876-1.056l-.943-1.09a4.261,4.261,0,0,0-.3-.337c-.325-.382-.674-.752-1.022-1.124a.325.325,0,0,0-.1-.112c-.089-.1-.191-.2-.291-.3-.281-.314-.585-.618-.877-.921-.482-.495-.977-.989-1.483-1.461-.416-.416-.842-.809-1.281-1.2-.382-.348-.763-.7-1.157-1.033s-.764-.663-1.157-.989c-.472-.4-.954-.8-1.45-1.19h-.011c-1.359-1.09-2.763-2.123-4.2-3.09-.359-.247-.708-.483-1.067-.719s-.731-.472-1.09-.7-.73-.46-1.1-.673c-.37-.236-.742-.449-1.112-.664-.3-.18-.6-.348-.9-.5a4.631,4.631,0,0,0-.461-.259c-.64-.359-1.292-.708-1.943-1.033-.325-.168-.652-.337-.988-.495-.416-.213-.842-.416-1.269-.606a1.017,1.017,0,0,0-.191-.09c-.383-.18-.764-.359-1.157-.527-.551-.236-1.1-.472-1.651-.7-.629-.259-1.259-.517-1.9-.753-.707-.269-1.415-.528-2.134-.763s-1.449-.483-2.179-.708-1.46-.427-2.2-.629c-1.46-.393-2.943-.742-4.437-1.045-.023-.011-.056-.011-.079-.023-.573-.112-1.146-.225-1.719-.314a.5.5,0,0,0-.113-.023c-.246-.045-.5-.09-.763-.124-1.067-.18-2.146-.325-3.235-.449-.123-.023-.259-.034-.393-.045-.315-.044-.629-.067-.955-.1-.718-.068-1.438-.124-2.168-.168-.752-.056-1.517-.09-2.28-.113-.8-.034-1.6-.045-2.393-.045Q194.28,0,191.18.28c-.495.034-.978.079-1.461.135-.5.056-1.011.112-1.517.18S187.191.73,186.7.808s-1,.157-1.505.247c-.427.067-.865.146-1.292.236q-1.584.3-3.134.673-.725.169-1.45.371c-.482.123-.966.258-1.438.393-.8.225-1.573.472-2.348.719h-.011c-.629.213-1.269.427-1.887.64a.084.084,0,0,0-.045.022c-.641.225-1.258.461-1.888.708l-.1.034c-.574.225-1.146.461-1.707.7-.708.292-1.4.606-2.09.921-.584.269-1.157.539-1.719.82-.606.3-1.213.606-1.808.921l-.068.033c-.573.3-1.146.619-1.707.944-.584.325-1.157.663-1.73,1.022h-.011c-.54.326-1.067.652-1.6.989-.2.123-.393.259-.6.393-.562.359-1.1.731-1.652,1.112-.673.461-1.326.943-1.976,1.426-.573.427-1.135.865-1.686,1.3a70.7,70.7,0,0,0-8.83,8.37c-.955,1.056-1.853,2.134-2.729,3.235-.742.943-1.461,1.9-2.146,2.887q-.927,1.288-1.787,2.625.862-1.335,1.787-2.625c.18-.023.36-.045.54-.056a8.308,8.308,0,0,0,2.988-.483,17.849,17.849,0,0,0,2.2-1.707c1.955-1.393,5.156-1.652,5.685-3.988a16.71,16.71,0,0,1,.259-2.393c.55-1.4,2.426-1.606,3.932-1.583.64,0,1.393.089,1.685.651a1.609,1.609,0,0,1-.068,1.3,12.212,12.212,0,0,1-5.156,6.335c-1.955,1.191-4.505,2.113-5.044,4.336.27.753,1.64.7,1.753,1.483.079.63-.73.955-1.022,1.517-.427.82.55,1.819,1.483,1.774a4.1,4.1,0,0,0,2.393-1.347c2.044-1.9,4.19-3.943,4.931-6.64.315-1.112.427-2.415,1.326-3.156a2.2,2.2,0,0,1,3.337,1.067c.888-.495,2.269-.865,2.729.056a4.7,4.7,0,0,1,.191,1.056c.292,1.438,2.258,2.089,2.461,3.538.236,1.674-1.91,2.539-3.584,2.8-1.517.235-3.033.471-4.55.718a4.213,4.213,0,0,0-1.887.606,1.472,1.472,0,0,0-.561,1.764,4.441,4.441,0,0,0,.786.809A2.419,2.419,0,0,1,154.8,42.3c-.606.022-1.2-.2-1.809-.225-1.8-.079-3.224,1.505-4.078,3.089s-1.494,3.393-2.932,4.472c-2.315,1.741-6.3,1.337-7.426,4.01a6.413,6.413,0,0,0-.034,3.449,4.607,4.607,0,0,1-.416,3.382c-.663.943-2.393,1.146-2.887.089a2.594,2.594,0,0,1-.067-1.494c.269-1.662.528-3.325.786-4.988.191-1.235.359-2.618-.37-3.628-1.023-1.416-3.314-1.281-4.64-.146A8.185,8.185,0,0,0,128.7,54.91a19.991,19.991,0,0,1-1.281,4.471h0c-.236,1.392-.427,2.808-.573,4.235-.146,1.461-.247,2.91-.3,4.393a5.971,5.971,0,0,0,.573-.539c.707-.731,2.134-3.82,3.415-2.3a1.148,1.148,0,0,1,.023,1.4c-.393.5-1.18.618-1.483,1.168-.37.652.146,1.461.752,1.888a6.553,6.553,0,0,1,1.775,1.325c.82,1.18.034,2.966.831,4.168.685,1.034,2.146,1.1,3.393,1.236.146.023.28.045.427.067a5.67,5.67,0,0,1,4.875-5.246c4.651-1.056,10.763,2.8,13.379,6.3,2.921,3.921,4.3,9.47,8.774,11.436,3.2,1.4,7.751.9,9.313,4.033,1.393,2.808-1.033,5.966-1.4,9.077-.236,2.056.438,4.1.6,6.156s-.461,4.472-2.336,5.337c-1.045.471-2.359.416-3.2,1.2-1.494,1.415-.269,4.336-1.763,5.752a7.7,7.7,0,0,1-1.9,1c-3.359,1.7-3.269,6.639-1.707,10.065.056.124.113.236.168.36a70.993,70.993,0,0,0,36.41,10.055,70.654,70.654,0,0,0,33.308-8.291h.011a70.983,70.983,0,0,0,6.28-3.786,69.943,69.943,0,0,0,8.819-7.01,68.794,68.794,0,0,0,5.392-5.628c1.19-1.37,2.314-2.8,3.392-4.257.551-.752,1.09-1.505,1.6-2.281a69.744,69.744,0,0,0,8.83-18.165A68.978,68.978,0,0,0,267.783,80.5c.213-1.595.382-3.213.494-4.841a4.085,4.085,0,0,1-2.853,1.269c-1.707-.023-3.112-1.449-3.8-3.022" transform="translate(-16.754 0)" fill="#f5f5f5"/>
            <path id="Path_17541" data-name="Path 17541" d="M135.735,100.784c-.225-2.034.449-4.066.483-6.123.023-1.415-.079-2.91-.1-4.336a19.5,19.5,0,0,1-3.606-.506,1.075,1.075,0,0,1-.663-.337,1.321,1.321,0,0,1-.146-.753c-.09-1.595-1.629-2.651-3.011-3.449A12.046,12.046,0,0,0,126.5,84.2c0,.168,0,.326.011.495a70.71,70.71,0,0,0,4.516,22.524,67.979,67.979,0,0,0,4.336,9.3c.7,1.291,1.46,2.561,2.258,3.808.988,1.539,2.021,3.044,3.134,4.493,1.033,1.393,2.134,2.753,3.292,4.055a70.38,70.38,0,0,0,5.022,5.168q2.343,2.19,4.886,4.157c-3.876-10.4-7.526-21.019-14.154-29.871-1.741-2.314-3.741-4.673-4.067-7.549" transform="translate(-16.749 -11.148)" fill="#f5f5f5"/>
            <path id="Path_17542" data-name="Path 17542" d="M126.485,80.331c-.007.429-.023.854-.023,1.281,0,.349.011.692.017,1.039-.006-.347-.017-.691-.017-1.039,0-.427.016-.852.023-1.281" transform="translate(-16.744 -10.636)" fill="#263238"/>
            <g id="Group_11753" data-name="Group 11753" transform="translate(141.18 129.933)" opacity="0.6">
              <g id="Group_11752" data-name="Group 11752">
                <g id="Group_11751" data-name="Group 11751" clip-path="url(#clip-path-3)">
                  <path id="Path_17543" data-name="Path 17543" d="M162.725,149.761q.9.605,1.813,1.178c.426.27.854.528,1.292.786-.438-.259-.866-.516-1.292-.786q-.919-.573-1.813-1.178" transform="translate(-162.725 -149.761)" fill="#263238"/>
                </g>
              </g>
            </g>
            <path id="Path_17544" data-name="Path 17544" d="M226.8,132.448a6.208,6.208,0,0,1-1.325-.141,4.325,4.325,0,0,1-3.133-2.372,8.165,8.165,0,0,1-.545-3.091,11.662,11.662,0,0,0-.225-2.113,11.193,11.193,0,0,0-1.667-3.393,15.828,15.828,0,0,1-1.444-2.619,15.7,15.7,0,0,1-.777-5.382l-.012-.436c-.375-12.486-3.856-22.622-10.068-29.31a6.771,6.771,0,0,0-3.048-2.156,3.788,3.788,0,0,0-3.908,1.347,7.9,7.9,0,0,0-.59.964,5.41,5.41,0,0,1-1.027,1.463,2.938,2.938,0,0,1-2.5.676,4.522,4.522,0,0,1-3.116-2.15c-1.1-1.943-.9-4.335-.744-6.258l.641-7.748a6.813,6.813,0,0,1,1.2-3.955,6.589,6.589,0,0,1,2.879-1.652,8.646,8.646,0,0,0,2.221-1.064c1.244-.931,1.8-2.4,2.379-3.958a16.693,16.693,0,0,1,1.129-2.562,4.784,4.784,0,0,1,4.449-2.188,2.08,2.08,0,0,1,1.633,1.091,4.871,4.871,0,0,1,2.892-2.649c2.567-.737,5.695,1.3,8.72,3.258,2.762,1.792,5.368,3.486,7.417,3.114.514-.095,1.039-.242,1.547-.384a8.139,8.139,0,0,1,3.332-.458c2.983.417,4.5,3.653,5.5,6.425l4.852,13.559c.6,1.687,1.382,3.54,2.986,4.162a6.181,6.181,0,0,0,2.028.3,6.868,6.868,0,0,1,2.11.3,3.392,3.392,0,0,1,2.23,2.736,7.92,7.92,0,0,1-2.611,6.814,31.237,31.237,0,0,1-2.844,2.1c-2.194,1.494-4.266,2.9-5.159,5.223a12.515,12.515,0,0,0-.6,3.968,12.254,12.254,0,0,1-.691,4.269,12.23,12.23,0,0,1-2.112,3.076,19.262,19.262,0,0,0-1.41,1.8c-1.554,2.34-1.984,5.243-2.4,8.051-.054.359-.107.718-.162,1.075-.486,3.127-1.325,6.617-3.863,8.793a6.514,6.514,0,0,1-4.171,1.482" transform="translate(-25.493 -6.969)" fill="#e0e0e0"/>
            <g id="Group_11756" data-name="Group 11756" transform="translate(109.741 68.009)" opacity="0.6">
              <g id="Group_11755" data-name="Group 11755">
                <g id="Group_11754" data-name="Group 11754" clip-path="url(#clip-path-4)">
                  <path id="Path_17545" data-name="Path 17545" d="M126.532,78.4v0c-.011.134-.023.259-.023.393-.016.422-.016.853-.023,1.281.007-.428.006-.859.023-1.281,0-.134.011-.259.023-.393" transform="translate(-126.488 -78.388)" fill="#263238"/>
                </g>
              </g>
            </g>
            <g id="Group_11759" data-name="Group 11759" transform="translate(109.735 72.014)" opacity="0.6">
              <g id="Group_11758" data-name="Group 11758">
                <g id="Group_11757" data-name="Group 11757" clip-path="url(#clip-path-5)">
                  <path id="Path_17546" data-name="Path 17546" d="M126.481,83c.005.347.005.7.016,1.039-.011-.343-.011-.692-.016-1.039" transform="translate(-126.481 -83.004)" fill="#263238"/>
                </g>
              </g>
            </g>
            <path id="Path_17547" data-name="Path 17547" d="M136.236,86.306l-.427-.068c-1.247-.134-2.708-.2-3.392-1.235-.8-1.2-.011-2.988-.832-4.168a6.543,6.543,0,0,0-1.775-1.326c-.606-.427-1.123-1.235-.752-1.887.3-.551,1.09-.663,1.483-1.169a1.145,1.145,0,0,0-.023-1.4c-1.281-1.517-2.707,1.572-3.415,2.3a6.2,6.2,0,0,1-.573.54V77.9c-.011.134-.023.258-.023.393-.017.421-.016.852-.023,1.281s-.023.854-.023,1.281c0,.348.011.692.017,1.039s.005.7.016,1.039a11.994,11.994,0,0,1,2.191,1.079c1.381.8,2.92,1.853,3.011,3.448a1.321,1.321,0,0,0,.146.753,1.083,1.083,0,0,0,.663.337,19.573,19.573,0,0,0,3.606.5" transform="translate(-16.744 -9.882)" fill="#e0e0e0"/>
            <path id="Path_17548" data-name="Path 17548" d="M137.519,90.011c.023,1.426.124,2.921.1,4.336-.034,2.056-.708,4.089-.483,6.123.325,2.876,2.325,5.235,4.066,7.549,6.628,8.852,10.279,19.468,14.155,29.871h.011c.719.573,1.449,1.112,2.191,1.641q.876.631,1.771,1.237t1.812,1.178c.427.27.854.528,1.292.786-.056-.123-.112-.236-.168-.359-1.562-3.427-1.651-8.37,1.707-10.066a7.68,7.68,0,0,0,1.9-1c1.495-1.416.27-4.336,1.764-5.752.842-.786,2.158-.73,3.2-1.2,1.877-.865,2.483-3.269,2.337-5.337s-.831-4.1-.6-6.156c.37-3.112,2.8-6.268,1.4-9.077-1.562-3.135-6.111-2.629-9.313-4.033-4.471-1.966-5.853-7.515-8.774-11.436-2.617-3.505-8.729-7.358-13.379-6.3a5.669,5.669,0,0,0-4.875,5.246" transform="translate(-18.151 -10.835)" fill="#e0e0e0"/>
            <path id="Path_17549" data-name="Path 17549" d="M131.065,53.314c1.326-1.135,3.618-1.269,4.64.146.73,1.012.561,2.393.37,3.629-.259,1.662-.517,3.325-.786,4.988a2.594,2.594,0,0,0,.067,1.494c.495,1.056,2.225.854,2.887-.09a4.6,4.6,0,0,0,.416-3.381,6.413,6.413,0,0,1,.034-3.449c1.124-2.674,5.112-2.27,7.426-4.011,1.438-1.078,2.078-2.887,2.932-4.471s2.281-3.168,4.078-3.09c.607.023,1.2.247,1.809.225a2.419,2.419,0,0,0,1.55-3.909,4.441,4.441,0,0,1-.786-.809,1.472,1.472,0,0,1,.561-1.763,4.2,4.2,0,0,1,1.887-.606c1.517-.247,3.033-.483,4.55-.719,1.674-.259,3.82-1.124,3.584-2.8-.2-1.45-2.168-2.1-2.461-3.539a4.712,4.712,0,0,0-.191-1.056c-.461-.921-1.842-.55-2.729-.056a2.2,2.2,0,0,0-3.337-1.067c-.9.742-1.011,2.045-1.326,3.157-.741,2.7-2.887,4.741-4.931,6.639a4.107,4.107,0,0,1-2.393,1.348c-.933.045-1.91-.955-1.483-1.775.292-.562,1.1-.888,1.022-1.517-.112-.786-1.483-.731-1.753-1.483.54-2.225,3.09-3.146,5.044-4.336a12.214,12.214,0,0,0,5.156-6.336,1.607,1.607,0,0,0,.068-1.3c-.292-.562-1.045-.652-1.685-.652-1.505-.023-3.382.18-3.932,1.584A16.685,16.685,0,0,0,151.1,26.7c-.528,2.336-3.73,2.595-5.685,3.987a17.7,17.7,0,0,1-2.2,1.707,8.286,8.286,0,0,1-2.988.483c-.18.011-.359.034-.54.056q-.927,1.288-1.787,2.626t-1.661,2.71A70.224,70.224,0,0,0,130.077,52q-.826,2.52-1.458,5.12t-1.071,5.272a20.005,20.005,0,0,0,1.281-4.471,8.188,8.188,0,0,1,2.235-4.606" transform="translate(-16.888 -3.008)" fill="#e0e0e0"/>
            <path id="Path_17550" data-name="Path 17550" d="M197.4,17.913c.671-.881.475-2.146.91-3.163.723-1.691,2.969-2.3,3.748-3.961.3-.64.373-1.423.9-1.9.436-.4,1.082-.477,1.55-.835,1.046-.8.613-2.625-.5-3.335C201.226,2.94,196.1,5,193.7,6.737c-3.093,2.238-6.119,4.932-10.234,4.669a8.1,8.1,0,0,0-3.377.018c-1.063.4-1.718,2-.8,2.67.509.375,1.231.271,1.805.536,1.06.492,1.166,2.027.649,3.076s-1.451,1.832-2.062,2.828a5.352,5.352,0,0,0-.764,3.252,2.958,2.958,0,0,0,.963,2.089c1.281,1.022,3.227.147,4.312-1.081s1.832-2.815,3.24-3.656a8.071,8.071,0,0,1,2.306-.8L195.1,19.06a3.888,3.888,0,0,0,2.309-1.147" transform="translate(-23.679 -0.534)" fill="#e0e0e0"/>
            <g id="Group_11762" data-name="Group 11762" transform="translate(251.523 66.954)" opacity="0.6">
              <g id="Group_11761" data-name="Group 11761">
                <g id="Group_11760" data-name="Group 11760" clip-path="url(#clip-path-6)">
                  <path id="Path_17551" data-name="Path 17551" d="M290.031,80.215q-.009-1.533-.091-3.044.082,1.512.091,3.044c.023.325.023.652.023.977,0,1.573-.056,3.123-.146,4.674.089-1.55.146-3.1.146-4.674,0-.325,0-.652-.023-.977" transform="translate(-289.907 -77.171)" fill="#263238"/>
                </g>
              </g>
            </g>
            <g id="Group_11765" data-name="Group 11765" transform="translate(247.209 46.171)" opacity="0.6">
              <g id="Group_11764" data-name="Group 11764">
                <g id="Group_11763" data-name="Group 11763" clip-path="url(#clip-path-7)">
                  <path id="Path_17552" data-name="Path 17552" d="M284.935,53.228q.506,1.348.953,2.715-.449-1.368-.953-2.715s.011-.011,0-.011Z" transform="translate(-284.935 -53.217)" fill="#263238"/>
                </g>
              </g>
            </g>
            <path id="Path_17553" data-name="Path 17553" d="M278.7,72.233q-.009-1.533-.091-3.044t-.234-3.011c-.079-.809-.169-1.607-.281-2.4q-.165-1.264-.375-2.514a68.88,68.88,0,0,0-1.659-7.372q-.4-1.39-.844-2.756t-.953-2.714v-.011h0c-.359-.673-.741-1.336-1.156-1.988-3.943-6.246-9.673-11.144-14.009-17.12-1.415-1.943-2.516-3.55-5.022-3.932-3.706-.573-5.583,1.539-8.212-1.977-.707-.944-1.943-1.82-2.988-1.258.27.752.55,1.505.82,2.269a1.073,1.073,0,0,1,.09.495c-.056.528-.842.674-1.292.382a4.6,4.6,0,0,1-.989-1.269,3.637,3.637,0,0,0-5.336-.438,2.043,2.043,0,0,0-1.18-1.662,2.435,2.435,0,0,1-3.056,1.966c-.213-.685,1.012-.809,1.438-1.393.393-.55-.079-1.314-.585-1.775a7.8,7.8,0,0,0-4.886-1.9c-1.135-.023-2.359.191-3.348-.393-.573-.337-.977-.9-1.561-1.224-1.248-.708-2.809-.056-4.067.64-1.719.954-3.494,2.157-4.1,4.033s.742,4.393,2.7,4.157a3.8,3.8,0,0,1,1.494-.168,1.81,1.81,0,0,1,1.067,1.719,5.075,5.075,0,0,0,.325,2.1c.337.629,1.36.944,1.753.349.921-.876.809-2.349.573-3.6s-.483-2.651.259-3.673,2.887-.7,2.741.561c-.09.742-.933,1.281-.9,2.034s.966,1.169,1.73,1.135a8.237,8.237,0,0,1,2.281-.113c.752.18,1.347,1.157.809,1.707-.933,1.057-3.359-.752-3.842.562-.135.337,0,.719-.034,1.078-.09,1.1-1.471,1.505-2.572,1.64a6.062,6.062,0,0,1-3.269-.236,2.075,2.075,0,0,1-1.112-2.729,1.251,1.251,0,0,0-1.719.629,3.6,3.6,0,0,0-.124,2.045c-1.168-.259-2.212.73-2.876,1.707s-1.314,2.134-2.448,2.482-2.719-.123-3.314.91c-.775,1.348,1.471,3.056.685,4.393-.449.753-1.528.731-2.382.966-2.258.64-3.044,3.943-1.505,5.707a4.416,4.416,0,0,0,6.246-.023c1.135-1.157,1.6-2.786,2.415-4.178s2.37-2.64,3.921-2.191a4.743,4.743,0,0,1,1.607,1.011c.752.629,1.5,1.258,2.258,1.9.483.4,1.011.91.967,1.539-.045.506-.438.9-.607,1.371-.471,1.36,1.495,2.651,2.73,1.91a2.712,2.712,0,0,0,.528-3.808c-1.168-1.618-3.808-2.427-3.74-4.426,1.347-1.1,3.471.056,4.257,1.617s.809,3.393,1.471,5,2.517,3.044,4.067,2.257c-.405-1.393-.8-2.775-1.2-4.157.988-.741,2.123,1.416,3.3,1.056.719-.225.809-1.258.494-1.955a9.8,9.8,0,0,1-1-2.033,2.315,2.315,0,0,1,2.685-2.37,3.516,3.516,0,0,1,2.629,2.9,6.394,6.394,0,0,0,.359,1.607c.516,1.078,1.853,1.4,2.954,1.853s2.258,1.562,1.8,2.663c-.213.483-.719.944-.539,1.438.168.438.82.629.82,1.1-.011.314-.337.528-.629.651-.742.3-1.55.405-2.27.753a2.049,2.049,0,0,0-1.314,1.82c.09,1.123,1.426,1.662,2.056,2.595.606.888.516,2.067.9,3.078a11.046,11.046,0,0,0,1.7,2.46c1.864,2.539,2.3,5.808,3.213,8.819.4,1.359,1.146,2.875,2.539,3.134A4.272,4.272,0,0,0,252,74.176c2.01-.8,4.1-1.651,5.5-3.28s1.887-4.3.438-5.909a1.145,1.145,0,0,0-.685-.438,2.066,2.066,0,0,0-1.056.371,3.011,3.011,0,0,1-3.135-.674,8.839,8.839,0,0,1-1.864-2.8c-.551-1.112-1.1-2.236-1.663-3.359a1.965,1.965,0,0,1,2.4.225,13.077,13.077,0,0,1,1.641,2.022c1.674,2.089,4.426,3.011,7.088,3.325a6.781,6.781,0,0,1,2,.416c1.989.91,2.561,3.843,4.662,4.472a13.24,13.24,0,0,1,1.786.4,3.288,3.288,0,0,1,1.494,2.225,35.489,35.489,0,0,0,1.314,4.965c.685,1.573,2.09,3,3.8,3.022a4.089,4.089,0,0,0,2.854-1.269v-.011c.089-1.55.146-3.1.146-4.674,0-.325,0-.652-.023-.977" transform="translate(-27.055 -2.235)" fill="#e0e0e0"/>
            <path id="Path_17554" data-name="Path 17554" d="M255.817,114.634c-1.058.208-1.268.83-1.844,1.614-.748,1.019-1.819,2.041-2.5,3.046-1.155,1.707-.115,4.367-1.634,5.8a12.525,12.525,0,0,0-.987.807,1.79,1.79,0,0,0,.364,2.479,2.436,2.436,0,0,0,2.646.049,3.875,3.875,0,0,0,1.621-2.215,3.729,3.729,0,0,1,.822-1.815c.869-.761,2.219-.2,3.364-.357,4.868-.682,2.776-10.321-1.851-9.41" transform="translate(-32.902 -15.17)" fill="#e0e0e0"/>
            <rect id="Rectangle_6159" data-name="Rectangle 6159" width="93.176" height="69.568" transform="translate(261.182 115.599)" fill="#f5f5f5"/>
            <rect id="Rectangle_6160" data-name="Rectangle 6160" width="93.176" height="7.023" transform="translate(261.182 115.599)" fill="#e0e0e0"/>
            <path id="Path_17555" data-name="Path 17555" d="M305.877,137.145a.939.939,0,1,1-.939-.939.939.939,0,0,1,.939.939" transform="translate(-40.25 -18.034)" fill="#f5f5f5"/>
            <path id="Path_17556" data-name="Path 17556" d="M309.248,137.145a.939.939,0,1,1-.939-.939.939.939,0,0,1,.939.939" transform="translate(-40.696 -18.034)" fill="#f5f5f5"/>
            <path id="Path_17557" data-name="Path 17557" d="M312.619,137.145a.939.939,0,1,1-.939-.939.939.939,0,0,1,.939.939" transform="translate(-41.142 -18.034)" fill="#f5f5f5"/>
            <rect id="Rectangle_6161" data-name="Rectangle 6161" width="93.176" height="69.568" transform="translate(250.888 127.792)" fill="#ebebeb"/>
            <rect id="Rectangle_6162" data-name="Rectangle 6162" width="93.176" height="7.023" transform="translate(250.888 127.792)" fill="#e0e0e0"/>
            <path id="Path_17558" data-name="Path 17558" d="M294.012,151.2a.939.939,0,1,1-.939-.939.939.939,0,0,1,.939.939" transform="translate(-38.679 -19.894)" fill="#f5f5f5"/>
            <path id="Path_17559" data-name="Path 17559" d="M297.383,151.2a.939.939,0,1,1-.939-.939.939.939,0,0,1,.939.939" transform="translate(-39.125 -19.894)" fill="#f5f5f5"/>
            <path id="Path_17560" data-name="Path 17560" d="M300.754,151.2a.939.939,0,1,1-.939-.939.939.939,0,0,1,.939.939" transform="translate(-39.571 -19.894)" fill="#f5f5f5"/>
            <rect id="Rectangle_6163" data-name="Rectangle 6163" width="93.176" height="69.568" transform="translate(235.301 140.085)" fill="#f5f5f5"/>
            <rect id="Rectangle_6164" data-name="Rectangle 6164" width="93.176" height="7.023" transform="translate(235.301 140.085)" fill="#e0e0e0"/>
            <path id="Path_17561" data-name="Path 17561" d="M276.046,165.368a.939.939,0,1,1-.939-.939.939.939,0,0,1,.939.939" transform="translate(-36.3 -21.771)" fill="#f5f5f5"/>
            <path id="Path_17562" data-name="Path 17562" d="M279.416,165.368a.939.939,0,1,1-.939-.939.939.939,0,0,1,.939.939" transform="translate(-36.746 -21.771)" fill="#f5f5f5"/>
            <path id="Path_17563" data-name="Path 17563" d="M282.787,165.368a.939.939,0,1,1-.939-.939.939.939,0,0,1,.939.939" transform="translate(-37.193 -21.771)" fill="#f5f5f5"/>
            <path id="Path_17564" data-name="Path 17564" d="M318.249,241.648a1.333,1.333,0,0,1,.023.279c.005.207.012.477.021.818.01.749.023,1.806.042,3.16.016,2.778.04,6.763.069,11.714v.155h-.155l-42.506.071-41.356-.066-12.532-.072-3.407-.042-.887-.023a1.5,1.5,0,0,1-.3-.023,1.654,1.654,0,0,1,.3-.023l.887-.023,3.407-.043,12.532-.072,41.356-.066,42.506.071-.154.154c.029-4.951.053-8.936.069-11.714.018-1.353.031-2.411.042-3.16.009-.341.016-.611.021-.818a1.333,1.333,0,0,1,.023-.279" transform="translate(-28.765 -31.994)" fill="#ebebeb"/>
            <path id="Path_17565" data-name="Path 17565" d="M332.6,127.69c-.125,0-.226-7.96-.226-17.777s.1-17.778.226-17.778.226,7.958.226,17.778-.1,17.777-.226,17.777" transform="translate(-44.007 -12.199)" fill="#ebebeb"/>
          </g>
        </g>
        <g id="Group_11769" data-name="Group 11769">
          <g id="Group_11768" data-name="Group 11768" clip-path="url(#clip-path)">
            <path id="Path_17566" data-name="Path 17566" d="M374.762,336.377a29.727,29.727,0,0,1,2.315-34.687c2.522-2.921,6.047-5.46,9.892-5.131,3.937.337,7.109,3.714,8.307,7.48s.783,7.846.079,11.733c-.986,5.445-2.635,11.016-6.412,15.059s-9.327,8.2-14.182,5.546" transform="translate(-49.022 -39.261)" fill="#ff725e"/>
            <path id="Path_17567" data-name="Path 17567" d="M379.612,397.212a15.552,15.552,0,0,1,4.335-17.662c1.564-1.276,3.611-2.264,5.562-1.746a5.4,5.4,0,0,1,3.6,4.606,12.806,12.806,0,0,1-1.023,6.052c-1,2.716-2.356,5.436-4.668,7.178s-5.548,3.379-7.809,1.572" transform="translate(-50.109 -50.003)" fill="#ff725e"/>
            <path id="Path_17568" data-name="Path 17568" d="M357.287,392.223a22.507,22.507,0,0,0-11.344-23.751c-2.592-1.348-5.783-2.147-8.4-.838-2.676,1.34-3.961,4.6-3.749,7.588s1.648,5.737,3.232,8.276c2.218,3.554,4.939,7.009,8.728,8.8s8.856,3.155,11.529-.071" transform="translate(-44.192 -48.587)" fill="#ff725e"/>
            <path id="Path_17569" data-name="Path 17569" d="M358.206,362.48c3.258-10.513-2.266-23.259-11.471-29.29-2.858-1.872-6.476-3.175-9.668-1.959-3.268,1.245-5.147,4.891-5.25,8.387s1.244,6.867,2.788,10.005c2.164,4.394,4.924,8.732,9.122,11.255s10.992,5.042,14.479,1.6" transform="translate(-43.932 -43.793)" fill="#ff725e"/>
            <path id="Path_17570" data-name="Path 17570" d="M366.189,419.865a2.323,2.323,0,0,1-.107-.509c-.056-.383-.129-.868-.219-1.466q-.066-.485-.147-1.06-.113-.582-.241-1.25c-.171-.9-.348-1.921-.642-3.033q-.2-.839-.423-1.753-.266-.9-.55-1.876c-.35-1.3-.869-2.654-1.354-4.092a71.646,71.646,0,0,0-9.315-17.356c-.93-1.2-1.768-2.377-2.662-3.391l-1.259-1.495q-.639-.687-1.227-1.322c-.763-.859-1.52-1.573-2.172-2.211l-.908-.892-.8-.709-1.1-.993a2.381,2.381,0,0,1-.365-.37,2.195,2.195,0,0,1,.423.3l1.157.931.831.682.937.868c.672.624,1.447,1.326,2.23,2.175l1.255,1.31,1.286,1.486c.911,1.01,1.766,2.185,2.71,3.385a68.642,68.642,0,0,1,9.369,17.459c.478,1.451.986,2.812,1.323,4.13q.273.98.528,1.893.207.92.4,1.768c.276,1.123.432,2.156.58,3.062q.109.673.206,1.261.059.579.109,1.069c.056.6.1,1.094.135,1.48a2.256,2.256,0,0,1,.017.518" transform="translate(-45.373 -49.794)" fill="#263238"/>
            <path id="Path_17571" data-name="Path 17571" d="M366.105,417.282a.766.766,0,0,1,0-.21l.045-.609q.079-.856.215-2.336c.05-.51.106-1.073.167-1.686s.063-1.291.1-2.013c.054-1.445.192-3.086.141-4.906q-.007-1.365-.014-2.855c-.01-.992-.1-2.022-.154-3.089-.072-2.14-.363-4.407-.62-6.8a97.337,97.337,0,0,0-8.856-29.864c-1.087-2.144-2.08-4.2-3.186-6.036-.54-.923-1.022-1.838-1.555-2.676l-1.545-2.4c-.949-1.554-1.96-2.854-2.793-4.036-.425-.585-.806-1.14-1.182-1.632l-1.058-1.322-1.454-1.841-.37-.486a.717.717,0,0,1-.115-.176c.006,0,.056.045.149.147l.4.457,1.52,1.79,1.091,1.3c.386.485.778,1.034,1.214,1.614.854,1.17,1.885,2.463,2.855,4.011l1.575,2.394c.542.836,1.034,1.749,1.583,2.671,1.124,1.831,2.133,3.894,3.234,6.042a95.119,95.119,0,0,1,8.894,29.991c.247,2.4.525,4.679.581,6.827.042,1.072.128,2.107.129,3.1s-.01,1.951-.016,2.865c.031,1.826-.129,3.472-.207,4.919-.049.723-.079,1.4-.138,2.015q-.112.92-.206,1.686l-.3,2.33c-.036.244-.065.442-.089.6a.731.731,0,0,1-.045.2" transform="translate(-45.529 -45.322)" fill="#263238"/>
            <path id="Path_17572" data-name="Path 17572" d="M387.206,311.05a.756.756,0,0,1-.087.194l-.293.546-1.163,2.076c-.249.452-.549.942-.838,1.5s-.585,1.176-.91,1.831l-1.05,2.1c-.354.752-.691,1.565-1.067,2.408s-.773,1.725-1.15,2.658-.74,1.919-1.13,2.931l-.594,1.545q-.269.8-.547,1.618l-1.139,3.379c-1.442,4.663-2.808,9.858-3.963,15.372-1.117,5.525-1.9,10.839-2.48,15.688-.5,4.858-.863,9.243-.963,12.937-.094,1.845-.113,3.516-.119,4.983-.023,1.468-.03,2.732.005,3.764.014,1,.025,1.8.034,2.38,0,.25,0,.454,0,.619a.774.774,0,0,1-.016.213.764.764,0,0,1-.03-.21c-.01-.166-.024-.369-.042-.618-.029-.58-.068-1.375-.117-2.38-.061-1.033-.081-2.3-.081-3.769-.018-1.47-.021-3.144.053-4.993.06-3.7.395-8.1.87-12.971.557-4.862,1.331-10.193,2.451-15.732,1.157-5.53,2.54-10.737,4.008-15.407q.595-1.737,1.16-3.384l.56-1.62q.308-.785.607-1.545.6-1.519,1.157-2.931c.386-.934.806-1.81,1.181-2.656s.733-1.652,1.1-2.4q.574-1.109,1.083-2.093l.946-1.818c.3-.553.613-1.038.875-1.485l1.237-2.037.331-.523a.78.78,0,0,1,.126-.17" transform="translate(-48.916 -41.183)" fill="#263238"/>
            <path id="Path_17573" data-name="Path 17573" d="M385.592,384.654a9.156,9.156,0,0,1-.724,1.27c-.5.8-1.181,1.97-1.982,3.442s-1.687,3.262-2.578,5.289c-.869,2.037-1.738,4.313-2.5,6.752a71.659,71.659,0,0,0-1.744,6.988c-.408,2.177-.694,4.153-.855,5.822s-.268,3.023-.305,3.96a9.3,9.3,0,0,1-.119,1.457,9.091,9.091,0,0,1-.055-1.461c-.016-.941.036-2.305.165-3.984a58.887,58.887,0,0,1,.766-5.868,60.514,60.514,0,0,1,4.272-13.829,59.144,59.144,0,0,1,2.678-5.277c.84-1.46,1.567-2.614,2.111-3.383a9.18,9.18,0,0,1,.869-1.176" transform="translate(-49.614 -50.928)" fill="#263238"/>
            <path id="Path_17574" data-name="Path 17574" d="M354.372,421.146h29.889l-3.617,30.526H358.1Z" transform="translate(-46.919 -55.76)" fill="#455a64"/>
            <path id="Path_17575" data-name="Path 17575" d="M355.629,452.533l2.539,3.3h22.643l2.611-3.189Z" transform="translate(-47.086 -59.916)" fill="#263238"/>
            <path id="Path_17576" data-name="Path 17576" d="M383.252,431.461c0,.123-6.2.223-13.852.223s-13.853-.1-13.853-.223,6.2-.223,13.853-.223,13.852.1,13.852.223" transform="translate(-47.075 -57.096)" fill="#fafafa"/>
            <path id="Path_17577" data-name="Path 17577" d="M383.252,433.8c0,.123-6.2.223-13.852.223s-13.853-.1-13.853-.223,6.2-.223,13.853-.223,13.852.1,13.852.223" transform="translate(-47.075 -57.406)" fill="#fafafa"/>
            <path id="Path_17578" data-name="Path 17578" d="M382.97,436.071c0,.123-5.986.223-13.367.223s-13.368-.1-13.368-.223,5.984-.223,13.368-.223,13.367.1,13.367.223" transform="translate(-47.166 -57.706)" fill="#fafafa"/>
          </g>
        </g>
        <g id="Group_11771" data-name="Group 11771">
          <g id="Group_11770" data-name="Group 11770" clip-path="url(#clip-path)">
            <path id="Path_17579" data-name="Path 17579" d="M300.619,52.558H76.7a16.535,16.535,0,1,0,0,33.07H300.619a16.535,16.535,0,1,0,0-33.07" transform="translate(-7.966 -6.959)" fill="#fff"/>
            <path id="Path_17580" data-name="Path 17580" d="M332.889,85.628H300.524V52.558h32.365a16.089,16.089,0,0,1,16.089,16.089v.893a16.089,16.089,0,0,1-16.089,16.089" transform="translate(-39.79 -6.959)" fill="#ff725e"/>
            <path id="Path_17581" data-name="Path 17581" d="M324.444,74.645a7.208,7.208,0,1,1,7.209-7.209,7.217,7.217,0,0,1-7.209,7.209m0-13.362a6.153,6.153,0,1,0,6.153,6.153,6.161,6.161,0,0,0-6.153-6.153" transform="translate(-42.002 -7.974)" fill="#fff"/>
            <path id="Path_17582" data-name="Path 17582" d="M336.943,81.009a.525.525,0,0,1-.373-.154l-6.326-6.325a.528.528,0,0,1,.746-.746l6.326,6.325a.528.528,0,0,1-.373.9" transform="translate(-43.704 -9.749)" fill="#fff"/>
            <path id="Path_17583" data-name="Path 17583" d="M91.88,69.669a2.672,2.672,0,0,1-.075-.6,5.007,5.007,0,0,0-.09-.722,7.066,7.066,0,0,0-.2-.969,9.12,9.12,0,0,0-1.04-2.487,9.379,9.379,0,0,0-2.357-2.648,9.263,9.263,0,0,0-8.748-1.39,8.66,8.66,0,0,0-2.346,1.234,8.432,8.432,0,0,0-1.969,1.938,9.189,9.189,0,0,0-.128,10.893A8.436,8.436,0,0,0,76.847,76.9a8.687,8.687,0,0,0,2.316,1.289,9.33,9.33,0,0,0,11.2-3.778,9.108,9.108,0,0,0,1.1-2.461,6.923,6.923,0,0,0,.225-.964,4.916,4.916,0,0,0,.107-.719,2.676,2.676,0,0,1,.09-.6,2.623,2.623,0,0,1,.015.607,4.249,4.249,0,0,1-.058.735,6.539,6.539,0,0,1-.182.993,8.9,8.9,0,0,1-1.045,2.561,9.6,9.6,0,0,1-6.523,4.529,9.691,9.691,0,0,1-5.091-.454A9.1,9.1,0,0,1,76.547,77.3a10.812,10.812,0,0,1-1.095-.947,10.943,10.943,0,0,1-.942-1.136,9.653,9.653,0,0,1,.134-11.5,11.151,11.151,0,0,1,.969-1.113,10.837,10.837,0,0,1,1.117-.921A9.07,9.07,0,0,1,79.208,60.4a9.675,9.675,0,0,1,5.1-.335,9.6,9.6,0,0,1,6.415,4.679,8.893,8.893,0,0,1,.986,2.586,6.508,6.508,0,0,1,.159,1,4.221,4.221,0,0,1,.041.737,2.589,2.589,0,0,1-.029.606" transform="translate(-9.623 -7.927)" fill="#e0e0e0"/>
            <path id="Path_17584" data-name="Path 17584" d="M90.272,64.345c.021.03-.147.18-.475.43l-.6.445c-.12.084-.245.179-.384.269l-.463.249A10.673,10.673,0,0,1,82.8,67.21l-.843-.026-.809-.116c-.133-.021-.265-.037-.394-.061l-.379-.1c-.249-.065-.5-.121-.731-.193a12.274,12.274,0,0,1-2.376-1.058,5.408,5.408,0,0,1-1.858-1.488c.05-.059.748.517,2.035,1.164a14.3,14.3,0,0,0,2.337.922c.227.063.465.11.7.168l.364.084.377.053.775.1.8.023a11.535,11.535,0,0,0,5.376-1.278l.469-.211c.142-.077.272-.161.4-.23l.642-.364c.357-.2.567-.29.587-.262" transform="translate(-9.983 -8.496)" fill="#e0e0e0"/>
            <path id="Path_17585" data-name="Path 17585" d="M75.246,77.425c-.022-.029.147-.18.475-.429l.6-.444c.12-.084.245-.18.384-.27l.463-.249a10.681,10.681,0,0,1,5.55-1.472l.842.027.81.116c.133.021.265.036.394.061l.379.1c.249.066.5.121.731.193a12.221,12.221,0,0,1,2.375,1.058A5.424,5.424,0,0,1,90.112,77.6c-.051.06-.748-.516-2.035-1.163a14.3,14.3,0,0,0-2.337-.922c-.227-.062-.465-.11-.7-.168l-.364-.085-.377-.052-.775-.1-.8-.023a11.521,11.521,0,0,0-5.376,1.279l-.469.21c-.143.077-.272.16-.4.23l-.642.364c-.357.2-.567.29-.587.261" transform="translate(-9.962 -9.872)" fill="#e0e0e0"/>
            <path id="Path_17586" data-name="Path 17586" d="M91.917,71.358a86.218,86.218,0,0,1-9.473.149,86.493,86.493,0,0,1-9.467-.37,86.317,86.317,0,0,1,9.473-.15,86.381,86.381,0,0,1,9.467.371" transform="translate(-9.662 -9.396)" fill="#e0e0e0"/>
            <path id="Path_17587" data-name="Path 17587" d="M83.5,79.055a86.155,86.155,0,0,1-.149-9.47,86.453,86.453,0,0,1,.37-9.465,86.273,86.273,0,0,1,.15,9.471,86.315,86.315,0,0,1-.371,9.464" transform="translate(-11.032 -7.96)" fill="#e0e0e0"/>
            <path id="Path_17588" data-name="Path 17588" d="M82.785,79.041a7.6,7.6,0,0,1-2.311-2.225,12.712,12.712,0,0,1-1.731-3.051,11.407,11.407,0,0,1-.786-4.234,10.852,10.852,0,0,1,.9-4.212,13.14,13.14,0,0,1,1.812-3,8.078,8.078,0,0,1,2.335-2.2c.052.059-.891.846-2.041,2.422A14.175,14.175,0,0,0,79.3,65.5a10.92,10.92,0,0,0-.825,4.031,11.518,11.518,0,0,0,.714,4.059,13.658,13.658,0,0,0,1.58,3.006c1.117,1.6,2.066,2.383,2.014,2.441" transform="translate(-10.321 -7.959)" fill="#e0e0e0"/>
            <path id="Path_17589" data-name="Path 17589" d="M83.988,60.121A7.6,7.6,0,0,1,86.3,62.346,12.711,12.711,0,0,1,88.03,65.4a11.407,11.407,0,0,1,.786,4.234,10.867,10.867,0,0,1-.9,4.212,13.172,13.172,0,0,1-1.812,3,8.065,8.065,0,0,1-2.335,2.2c-.052-.059.891-.846,2.042-2.422a14.213,14.213,0,0,0,1.661-2.963,10.919,10.919,0,0,0,.825-4.031,11.521,11.521,0,0,0-.714-4.06A13.658,13.658,0,0,0,86,62.562c-1.117-1.6-2.066-2.383-2.014-2.441" transform="translate(-11.09 -7.96)" fill="#e0e0e0"/>
            <path id="Path_17590" data-name="Path 17590" d="M105.231,81.851c-.125,0-.226-5.04-.226-11.254s.1-11.255.226-11.255.226,5.038.226,11.255-.1,11.254-.226,11.254" transform="translate(-13.903 -7.857)" fill="#e0e0e0"/>
            <path id="Path_17591" data-name="Path 17591" d="M120.782,72.512v4.053h-.944V72.6a1.952,1.952,0,0,0-2.1-2.233,2.292,2.292,0,0,0-2.446,2.526v3.668h-.944V66.7h.944V70.8a2.954,2.954,0,0,1,2.618-1.275,2.676,2.676,0,0,1,2.871,2.991" transform="translate(-15.14 -8.832)" fill="#263238"/>
            <path id="Path_17592" data-name="Path 17592" d="M128.237,76.345a2.247,2.247,0,0,1-1.476.492,1.852,1.852,0,0,1-2.047-2.034V70.576h-1.249v-.8h1.249V68.25h.944v1.529h2.126v.8h-2.126V74.75a1.119,1.119,0,0,0,1.209,1.275,1.56,1.56,0,0,0,1.037-.358Z" transform="translate(-16.347 -9.036)" fill="#263238"/>
            <path id="Path_17593" data-name="Path 17593" d="M134.243,76.345a2.247,2.247,0,0,1-1.476.492A1.852,1.852,0,0,1,130.72,74.8V70.576h-1.249v-.8h1.249V68.25h.944v1.529h2.126v.8h-2.126V74.75a1.119,1.119,0,0,0,1.209,1.275,1.56,1.56,0,0,0,1.037-.358Z" transform="translate(-17.142 -9.036)" fill="#263238"/>
            <path id="Path_17594" data-name="Path 17594" d="M144.033,73.5a3.386,3.386,0,0,1-3.483,3.563,3.053,3.053,0,0,1-2.658-1.383v3.895h-.944V70h.9v1.382a3.046,3.046,0,0,1,2.7-1.435,3.382,3.382,0,0,1,3.483,3.548m-.944,0a2.608,2.608,0,1,0-2.6,2.726,2.575,2.575,0,0,0,2.6-2.726" transform="translate(-18.132 -9.262)" fill="#263238"/>
            <path id="Path_17595" data-name="Path 17595" d="M146.631,70.668a.7.7,0,0,1,.7-.718.715.715,0,0,1,.718.718.726.726,0,0,1-.718.731.715.715,0,0,1-.7-.731m0,5.662a.7.7,0,0,1,.7-.717.714.714,0,0,1,.718.717.726.726,0,0,1-.718.731.716.716,0,0,1-.7-.731" transform="translate(-19.414 -9.261)" fill="#263238"/>
            <path id="Path_17596" data-name="Path 17596" d="M153.76,65.17h.864l-4.387,12.521h-.863Z" transform="translate(-19.777 -8.629)" fill="#263238"/>
            <path id="Path_17597" data-name="Path 17597" d="M166.023,70.012,163.378,77h-.89l-2.206-5.729L158.074,77h-.89l-2.631-6.991h.9l2.192,5.941,2.247-5.941h.81l2.233,5.941,2.219-5.941Z" transform="translate(-20.463 -9.27)" fill="#263238"/>
            <path id="Path_17598" data-name="Path 17598" d="M179.414,70.012,176.769,77h-.89l-2.206-5.729L171.465,77h-.89l-2.631-6.991h.9l2.193,5.941,2.247-5.941h.81l2.233,5.941,2.219-5.941Z" transform="translate(-22.236 -9.27)" fill="#263238"/>
            <path id="Path_17599" data-name="Path 17599" d="M192.806,70.012,190.16,77h-.89l-2.206-5.729L184.857,77h-.89l-2.631-6.991h.9l2.193,5.941,2.247-5.941h.81l2.233,5.941,2.219-5.941Z" transform="translate(-24.009 -9.27)" fill="#263238"/>
            <path id="Path_17600" data-name="Path 17600" d="M194.971,77.195a.7.7,0,0,1,.7-.717.714.714,0,0,1,.718.717.726.726,0,0,1-.718.731.716.716,0,0,1-.7-.731" transform="translate(-25.814 -10.126)" fill="#263238"/>
            <path id="Path_17601" data-name="Path 17601" d="M202.928,80.361a44.766,44.766,0,0,1-.289-7.173,44.758,44.758,0,0,1,.289-7.173,44.827,44.827,0,0,1,.288,7.173,44.836,44.836,0,0,1-.288,7.173" transform="translate(-26.83 -8.74)" fill="#ff725e"/>
            <path id="Path_17602" data-name="Path 17602" d="M300.586,52.523s.482.009,1.425.049c.472.014,1.048.137,1.741.227.346.05.707.167,1.1.259a8.169,8.169,0,0,1,1.242.377,16.408,16.408,0,0,1,5.8,3.491,17.961,17.961,0,0,1,1.456,1.512c.23.281.443.583.672.881l.341.455.3.493a15.76,15.76,0,0,1,1.973,4.531,16.562,16.562,0,0,1-1.032,11.392,16.481,16.481,0,0,1-13.974,9.481c-1.294.1-2.59.037-3.915.057l-8.189.009-17.8.016L76.682,85.82A16.764,16.764,0,0,1,67.2,55.237,16.47,16.47,0,0,1,73.537,52.6a38.012,38.012,0,0,1,6.787-.3l51.786.013,87.686.049,59.115.072,16.071.043,4.18.022c.941.008,1.424.023,1.424.023s-.482.016-1.424.023l-4.18.022-16.071.043-59.115.072-87.686.049-51.786.013a37.736,37.736,0,0,0-6.7.3,16.025,16.025,0,0,0-6.169,2.565,16.393,16.393,0,0,0-6.93,11.263A16.222,16.222,0,0,0,64.34,79.714a16.39,16.39,0,0,0,12.342,5.654l195.041.066,17.8.016,8.189.009c1.32-.017,2.635.047,3.9-.048a16.683,16.683,0,0,0,3.688-.639,16.439,16.439,0,0,0,11.164-19.928,15.612,15.612,0,0,0-1.935-4.494l-.3-.49-.336-.452c-.225-.3-.435-.6-.661-.876a17.848,17.848,0,0,0-1.437-1.507,16.415,16.415,0,0,0-5.737-3.5,8.142,8.142,0,0,0-1.232-.385c-.392-.095-.751-.215-1.095-.269-.689-.1-1.262-.228-1.733-.249-.939-.055-1.42-.095-1.42-.095" transform="translate(-7.934 -6.924)" fill="#263238"/>
          </g>
        </g>
        <path id="Path_17603" data-name="Path 17603" d="M1.382,451.335l9.742.088,13.835-32.8L5.676,418.6Z" transform="translate(-0.183 -55.422)" fill="#263238"/>
        <path id="Path_17604" data-name="Path 17604" d="M62.66,451.306l9.742.088,13.65-32.648-19.132-.038Z" transform="translate(-8.296 -55.437)" fill="#263238"/>
        <g id="Group_11809" data-name="Group 11809">
          <g id="Group_11808" data-name="Group 11808" clip-path="url(#clip-path)">
            <path id="Path_17605" data-name="Path 17605" d="M2.042,190.921c5.346-8.02,110.915-9.2,115.432-.84l38.567,73.3,58.008-2.667c0-.021,7.8-.37,15.43,6.928,3.765,3.6,3.575,26.308,2.513,35.08-.706,5.842-9.6,85.282-9.6,85.282L3.84,387.565s-7.146-188.624-1.8-196.644" transform="translate(-0.007 -24.406)" fill="#455a64"/>
            <path id="Path_17606" data-name="Path 17606" d="M75.847,414.956s.023-.237.039-.7q.022-.718.063-2.048c.044-1.815.108-4.459.191-7.847.141-6.818.346-16.623.6-28.646l-.181.177,66.374.474,68.771.379-.172-.146a112.511,112.511,0,0,1,1.216,26.814c-.233,3.178-.539,5.639-.756,7.307l-.266,1.9c-.058.428-.076.649-.076.649a86.578,86.578,0,0,0,1.294-9.838,110.407,110.407,0,0,0-1.066-26.888l-.023-.145-.148,0-68.77-.493-66.376-.369H76.38l0,.178c-.185,12.023-.335,21.83-.44,28.648-.04,3.388-.072,6.033-.094,7.849,0,.888-.008,1.569-.01,2.048,0,.462.014.7.014.7" transform="translate(-10.04 -49.721)" fill="#263238"/>
            <path id="Path_17607" data-name="Path 17607" d="M80.87,279.187s-.149-.009-.444-.008a8.916,8.916,0,0,0-1.311.067,13.38,13.38,0,0,0-4.846,1.517,18.2,18.2,0,0,0-6.1,5.382,24.486,24.486,0,0,0-4.146,10.12,70.673,70.673,0,0,0-.888,13.509c.007,4.911.171,10.2.5,15.823.65,11.246,2.043,23.787,3.546,37.315l.022.191.191,0,55.263.375,100.232.587.162,0,.01-.159a88.7,88.7,0,0,0-.984-19.919c-1.021-5.786-2.763-10.679-5.187-14.075A14.431,14.431,0,0,0,213,326.037l-.485-.335-.5-.262-.942-.487c-.639-.218-1.2-.463-1.734-.6l-1.412-.3c-.411-.05-.761-.062-1.039-.086-.558-.039-.844-.047-.844-.047s.285.041.84.1c.277.032.624.052,1.032.11l1.4.319c.524.139,1.081.39,1.711.612l.927.493.494.264.475.336a14.373,14.373,0,0,1,3.818,3.868c2.375,3.379,4.082,8.247,5.074,14.013a88.95,88.95,0,0,1,.911,19.846l.171-.157-100.231-.711L67.4,362.674l.213.192c-1.52-13.529-2.936-26.059-3.614-37.29-.341-5.614-.521-10.9-.543-15.8a70.812,70.812,0,0,1,.83-13.459,24.357,24.357,0,0,1,4.052-10.049,18.173,18.173,0,0,1,6-5.378,13.617,13.617,0,0,1,4.789-1.569c1.143-.145,1.748-.094,1.746-.13" transform="translate(-8.359 -36.963)" fill="#263238"/>
            <path id="Path_17608" data-name="Path 17608" d="M249.759,419.076l3.168,32.317-9.742-.088-12.2-32.268Z" transform="translate(-30.583 -55.481)" fill="#263238"/>
            <path id="Path_17609" data-name="Path 17609" d="M227.908,330.857a4.092,4.092,0,0,1-.969-.1l-2.609-.436c-2.2-.371-5.238-.91-8.616-1.275a78.24,78.24,0,0,0-8.689-.409l-2.643.035a4.069,4.069,0,0,1-.973-.035,4.048,4.048,0,0,1,.964-.141c.623-.066,1.526-.126,2.644-.178a60.015,60.015,0,0,1,8.745.279c3.4.368,6.439.959,8.627,1.412,1.094.23,1.977.427,2.585.576a4.08,4.08,0,0,1,.934.275" transform="translate(-26.931 -43.462)" fill="#263238"/>
            <path id="Path_17610" data-name="Path 17610" d="M246.59,272.531c.019.043-.7.357-1.941,1.04a24.967,24.967,0,0,0-4.813,3.524,30.366,30.366,0,0,0-5.5,6.91,38.613,38.613,0,0,0-4.075,10.02c-1.846,7.513-1.729,14.6-1.612,19.649.073,2.534.172,4.586.231,6,.024.672.043,1.214.059,1.634a2.681,2.681,0,0,1-.01.572,2.738,2.738,0,0,1-.081-.566c-.037-.419-.084-.96-.143-1.628-.113-1.416-.26-3.465-.375-6s-.183-5.567-.023-8.93a56.255,56.255,0,0,1,1.517-10.84,38.133,38.133,0,0,1,4.156-10.123,29.822,29.822,0,0,1,5.639-6.932,23.256,23.256,0,0,1,4.945-3.444,15.35,15.35,0,0,1,1.489-.685,2.668,2.668,0,0,1,.535-.2" transform="translate(-30.216 -36.083)" fill="#263238"/>
            <g id="Group_11774" data-name="Group 11774" transform="translate(101.04 290.661)" opacity="0.3">
              <g id="Group_11773" data-name="Group 11773">
                <g id="Group_11772" data-name="Group 11772" clip-path="url(#clip-path-11)">
                  <path id="Path_17611" data-name="Path 17611" d="M117.534,341.561a77.937,77.937,0,0,0,20.11,2.007,503.616,503.616,0,0,0,5.459,63.048,14.23,14.23,0,0,0,5.281,1.557,4.847,4.847,0,0,0,4.6-2.477,7.087,7.087,0,0,0,.368-3.239,530.25,530.25,0,0,0-6.472-62.742c-.252-1.537-.615-3.244-1.9-4.117-1.23-.832-2.864-.6-4.323-.331q-12.218,2.28-24.2,5.651" transform="translate(-116.459 -335.018)"/>
                </g>
              </g>
            </g>
            <g id="Group_11777" data-name="Group 11777" transform="translate(92.492 295.443)" opacity="0.3">
              <g id="Group_11776" data-name="Group 11776">
                <g id="Group_11775" data-name="Group 11775" clip-path="url(#clip-path-12)">
                  <path id="Path_17612" data-name="Path 17612" d="M106.607,340.529l2.035,28.874s6.825-15.616,5.076-21.594a10.611,10.611,0,0,0-7.112-7.28" transform="translate(-106.607 -340.529)"/>
                </g>
              </g>
            </g>
            <path id="Path_17613" data-name="Path 17613" d="M99.816,196.97l-2.03-68.291-2.209-3.928c-1.94-1.715-5.088-1.419-7.19.094a12.759,12.759,0,0,0-4.176,6.4C80.159,143,83.367,155.9,82.509,168.3c-.187,2.689-.612,5.483-2.175,7.679-2.122,2.979-6.058,4.452-7.683,7.729a7.038,7.038,0,0,0,2.4,8.728,16.038,16.038,0,0,0-5.367,4.263c-1.321,1.887-1.691,4.649-.226,6.428,1.584,1.924,4.477,1.95,6.96,1.727a97.846,97.846,0,0,0,20.713-4.082,4.045,4.045,0,0,0,2.239-1.317,4.133,4.133,0,0,0,.452-2.489" transform="translate(-9.071 -16.362)" fill="#263238"/>
            <path id="Path_17614" data-name="Path 17614" d="M87.89,186.169a5.228,5.228,0,0,0,1.9-1.288,10.235,10.235,0,0,0,2.022-5.868,143.638,143.638,0,0,0-.1-21.009c-.314-4.1-.805-7.979-1.358-11.5-.577-3.5-.873-6.812-.114-9.471a9.322,9.322,0,0,1,3.538-5.265A6.625,6.625,0,0,1,95.34,131a2.968,2.968,0,0,1,.593-.135,8.813,8.813,0,0,0-2.061,1.055,9.329,9.329,0,0,0-3.331,5.2c-.7,2.591-.383,5.828.217,9.323.576,3.521,1.082,7.419,1.4,11.527a131.2,131.2,0,0,1-.03,21.077c-.273,2.7-1.112,4.857-2.212,5.956a4.521,4.521,0,0,1-1.438,1,2.847,2.847,0,0,1-.586.169" transform="translate(-11.636 -17.326)" fill="#455a64"/>
            <path id="Path_17615" data-name="Path 17615" d="M105.786,129.06c-.2.962.468-.806,0,0" transform="translate(-14.001 -17.059)" fill="#ff725e"/>
            <path id="Path_17616" data-name="Path 17616" d="M103.716,124.614c-.788-.828-2-.478-2.908.169a10.77,10.77,0,0,0-3.494,4.962,25.9,25.9,0,0,0-1.393,6.452c-.136,1.277-.139,2.811.691,3.547a1.65,1.65,0,0,0,2.07-.031,6.2,6.2,0,0,0,1.562-1.923,45.406,45.406,0,0,0,4.233-9.354,6.1,6.1,0,0,0-.76-3.822" transform="translate(-12.691 -16.435)" fill="#ff725e"/>
            <path id="Path_17617" data-name="Path 17617" d="M97.285,140.615c1.742-7.4,4.859-14.969,10.994-19.465,5.467-4.007,13.439-5.533,20.2-5.029a23.984,23.984,0,0,1,9.891,3.646c3.907,2.382,5.443,7.007,7.229,11.219,3.577,8.441,2.723,19.685.016,22.73l-35.345,17.22c-6.047-3.4-12.6-7.983-14.008-14.775-.96-4.626-.056-10.947,1.026-15.546" transform="translate(-12.691 -15.362)" fill="#263238"/>
            <path id="Path_17618" data-name="Path 17618" d="M112.365,128.345l22.079-5.741c7.078-.8,11.846,7.892,12.343,15,.551,7.893.913,17.553.017,23.452-1.8,11.862-10.878,14.677-10.878,14.677,0-.04-.021,10.3-.064,13.821l-10.3,31.372-14.648-31.372L108.665,132.6a4.168,4.168,0,0,1,3.7-4.252" transform="translate(-14.387 -16.226)" fill="#ffbe9d"/>
            <path id="Path_17619" data-name="Path 17619" d="M147.6,150.711a1.52,1.52,0,0,1-1.455,1.543,1.453,1.453,0,0,1-1.576-1.36,1.521,1.521,0,0,1,1.453-1.544,1.455,1.455,0,0,1,1.577,1.36" transform="translate(-19.14 -19.774)" fill="#263238"/>
            <path id="Path_17620" data-name="Path 17620" d="M149.312,145.466c-.187.2-1.344-.645-2.979-.629-1.634-.008-2.828.842-3.007.642-.088-.088.1-.447.622-.831a4.173,4.173,0,0,1,2.4-.759,4.009,4.009,0,0,1,2.373.748c.506.383.678.74.587.829" transform="translate(-18.974 -19.051)" fill="#263238"/>
            <path id="Path_17621" data-name="Path 17621" d="M130.493,150.711a1.52,1.52,0,0,1-1.455,1.543,1.453,1.453,0,0,1-1.576-1.36,1.52,1.52,0,0,1,1.453-1.544,1.455,1.455,0,0,1,1.577,1.36" transform="translate(-16.876 -19.774)" fill="#263238"/>
            <path id="Path_17622" data-name="Path 17622" d="M130.788,145.944c-.187.2-1.346-.645-2.98-.629-1.633-.008-2.827.842-3.006.642-.088-.088.1-.447.622-.831a4.173,4.173,0,0,1,2.4-.759,4.011,4.011,0,0,1,2.373.748c.5.383.678.74.587.829" transform="translate(-16.521 -19.114)" fill="#263238"/>
            <path id="Path_17623" data-name="Path 17623" d="M138.509,158.038a10.807,10.807,0,0,1,2.652-.5c.418-.046.812-.132.881-.417a2.117,2.117,0,0,0-.287-1.235q-.6-1.512-1.256-3.171c-1.746-4.515-3.012-8.229-2.83-8.3s1.746,3.535,3.491,8.05q.63,1.67,1.205,3.19a2.416,2.416,0,0,1,.227,1.638,1.046,1.046,0,0,1-.682.614,2.816,2.816,0,0,1-.709.1,10.624,10.624,0,0,1-2.692.022" transform="translate(-18.225 -19.121)" fill="#263238"/>
            <path id="Path_17624" data-name="Path 17624" d="M137.693,183.32l-.067,2.951c-11.851,1.189-15.831-7.075-15.831-7.075a30.147,30.147,0,0,0,15.9,4.125" transform="translate(-16.126 -23.726)" fill="#eb996e"/>
            <path id="Path_17625" data-name="Path 17625" d="M132.386,163.492a2.627,2.627,0,0,1,2.176-1.205,3.418,3.418,0,0,1,3.124,1.521,2.129,2.129,0,0,1,.148,1.533c-.113.26-.025.132-.226.312a5.981,5.981,0,0,1-2.434,1.532,2.564,2.564,0,0,1-2.715-.979,2.617,2.617,0,0,1-.075-2.715" transform="translate(-17.482 -21.486)" fill="#eb996e"/>
            <path id="Path_17626" data-name="Path 17626" d="M133.062,161.457c.265-.017.281,1.758,1.809,3.007s3.416,1.041,3.431,1.289c.026.111-.419.348-1.217.375a4.413,4.413,0,0,1-2.863-.976,3.849,3.849,0,0,1-1.4-2.522c-.073-.741.122-1.183.244-1.173" transform="translate(-17.583 -21.377)" fill="#263238"/>
            <path id="Path_17627" data-name="Path 17627" d="M131.411,139.962c-.158.446-1.792.246-3.709.49-1.922.206-3.465.778-3.723.381-.115-.19.153-.61.775-1.045a6.5,6.5,0,0,1,5.662-.664c.706.279,1.063.626,1,.837" transform="translate(-16.411 -18.372)" fill="#263238"/>
            <path id="Path_17628" data-name="Path 17628" d="M148.648,138.942c-.285.373-1.414,0-2.769-.014-1.354-.056-2.5.267-2.767-.12-.117-.187.061-.56.56-.916a4.01,4.01,0,0,1,4.46.108c.482.378.641.76.515.942" transform="translate(-18.944 -18.174)" fill="#263238"/>
            <path id="Path_17629" data-name="Path 17629" d="M111.343,150.7c-.163-.075-6.6-2.118-6.538,4.5s6.687,5.191,6.7,5-.158-9.5-.158-9.5" transform="translate(-13.876 -19.905)" fill="#ffbe9d"/>
            <path id="Path_17630" data-name="Path 17630" d="M109.715,158.034c-.029-.021-.115.082-.309.173a1.148,1.148,0,0,1-.861.025,2.85,2.85,0,0,1-1.342-2.546,3.81,3.81,0,0,1,.308-1.652,1.329,1.329,0,0,1,.859-.892.586.586,0,0,1,.683.31c.09.184.049.317.085.327.018.016.141-.112.085-.384a.738.738,0,0,0-.264-.412.87.87,0,0,0-.639-.163,1.62,1.62,0,0,0-1.195,1.036,3.922,3.922,0,0,0-.383,1.847,2.992,2.992,0,0,0,1.707,2.841,1.233,1.233,0,0,0,1.052-.184c.2-.165.238-.313.214-.325" transform="translate(-14.132 -20.232)" fill="#eb996e"/>
            <path id="Path_17631" data-name="Path 17631" d="M107.612,161.283c-.03-.03-.285.279-.248.87a1.232,1.232,0,0,0,.468.927,1.369,1.369,0,0,0,1.269.091,1.338,1.338,0,0,0,.879-.917,1.379,1.379,0,0,0-.18-1.017c-.329-.511-.745-.56-.741-.523-.028.049.311.179.533.638a1.215,1.215,0,0,1,.089.828,1.071,1.071,0,0,1-.7.678,1.11,1.11,0,0,1-.974-.031,1.045,1.045,0,0,1-.409-.7,3.652,3.652,0,0,1,.013-.842" transform="translate(-14.214 -21.277)" fill="#e0e0e0"/>
            <path id="Path_17632" data-name="Path 17632" d="M150.317,139.082a10.337,10.337,0,0,0-4.463-4.362c-1.838-1.045-3.827-1.806-5.656-2.868a19.873,19.873,0,0,1-8.887-11.117,11.932,11.932,0,0,1,10.59.137,16.172,16.172,0,0,1,7.318,7.907,25.345,25.345,0,0,1,2.019,10.712" transform="translate(-17.386 -15.83)" fill="#263238"/>
            <path id="Path_17633" data-name="Path 17633" d="M109.717,126.3c4.89-4.647,14.131-7.211,20.507-5.036-.947,5.567-5.148,11.821-8.845,16.091-3.72,4.3-5.965,11.826-14.057,9.268-.558-.176-1.195.331-1.7.036a2.068,2.068,0,0,1-.781-1.226,18.966,18.966,0,0,1,4.874-19.132" transform="translate(-13.769 -15.952)" fill="#263238"/>
            <path id="Path_17634" data-name="Path 17634" d="M107.384,125.765a.84.84,0,0,0,.139.223c.1.135.239.351.456.6a11.965,11.965,0,0,0,2.008,1.894,13.02,13.02,0,0,0,16.817-.924,11.937,11.937,0,0,0,1.788-2.1,7.274,7.274,0,0,0,.389-.641.861.861,0,0,0,.114-.237,18.064,18.064,0,0,1-2.439,2.82,13.567,13.567,0,0,1-3.355,2.218,12.647,12.647,0,0,1-9.606.527,13.555,13.555,0,0,1-3.578-1.837,18.155,18.155,0,0,1-2.733-2.536" transform="translate(-14.218 -16.493)" fill="#fff"/>
            <path id="Path_17635" data-name="Path 17635" d="M103.727,134.83a1.21,1.21,0,0,0,.221.226,6.842,6.842,0,0,0,.692.585,10.347,10.347,0,0,0,2.949,1.546,13.149,13.149,0,0,0,4.9.661,15.152,15.152,0,0,0,5.855-1.507,19.183,19.183,0,0,0,4.9-3.548,25.194,25.194,0,0,0,3.147-3.807,29.923,29.923,0,0,0,1.72-2.847c.187-.344.315-.622.406-.808a1.2,1.2,0,0,0,.121-.292,1.238,1.238,0,0,0-.176.263l-.456.777c-.4.675-.986,1.641-1.793,2.781a26.45,26.45,0,0,1-3.167,3.727,19.42,19.42,0,0,1-4.838,3.475,15.163,15.163,0,0,1-5.734,1.5,13.3,13.3,0,0,1-4.811-.583,11.084,11.084,0,0,1-2.948-1.437c-.638-.447-.963-.737-.984-.712" transform="translate(-13.733 -16.555)" fill="#455a64"/>
            <path id="Path_17636" data-name="Path 17636" d="M108.451,173.044a1.267,1.267,0,0,1-.35-.161c-.22-.123-.553-.293-.958-.549a26.32,26.32,0,0,1-3.294-2.382A23.455,23.455,0,0,1,99.77,165.5a22.825,22.825,0,0,1-3.161-6.682,26.261,26.261,0,0,1-.321-13.315,23.794,23.794,0,0,1,1.263-3.864c.18-.444.359-.773.469-1a1.223,1.223,0,0,1,.2-.333,11.815,11.815,0,0,1-.5,1.4,28.678,28.678,0,0,0-1.115,3.869,27.045,27.045,0,0,0,.443,13.118,23.112,23.112,0,0,0,3.07,6.573,24.406,24.406,0,0,0,3.945,4.446,32.4,32.4,0,0,0,3.181,2.475,11.087,11.087,0,0,1,1.213.858" transform="translate(-12.655 -18.576)" fill="#455a64"/>
            <path id="Path_17637" data-name="Path 17637" d="M218.536,370.208l11.049,20.078s23.241-5.906,25.645-2.394l-37.283,24.24-18.5-30.578Z" transform="translate(-26.407 -49.016)" fill="#ff725e"/>
            <g id="Group_11780" data-name="Group 11780" transform="translate(189.919 346.18)" opacity="0.6">
              <g id="Group_11779" data-name="Group 11779">
                <g id="Group_11778" data-name="Group 11778" clip-path="url(#clip-path-13)">
                  <path id="Path_17638" data-name="Path 17638" d="M219.372,399.5a1.816,1.816,0,0,0-.014,2.423,1.746,1.746,0,0,0,2.4.035,1.915,1.915,0,0,0,0-2.566,1.81,1.81,0,0,0-2.5.241" transform="translate(-218.902 -399.009)" fill="#fff"/>
                </g>
              </g>
            </g>
            <g id="Group_11783" data-name="Group 11783" transform="translate(189.675 337.866)" opacity="0.6">
              <g id="Group_11782" data-name="Group 11782">
                <g id="Group_11781" data-name="Group 11781" clip-path="url(#clip-path-14)">
                  <path id="Path_17639" data-name="Path 17639" d="M220.485,414.677l-1.865-3.083,36.817-22.151a3.075,3.075,0,0,1,2.7,1.143Z" transform="translate(-218.621 -389.426)" fill="#fff"/>
                </g>
              </g>
            </g>
            <path id="Path_17640" data-name="Path 17640" d="M234.395,392.693c.1.19-.776.832-1.334,1.979-.589,1.133-.579,2.224-.794,2.251-.193.067-.582-1.213.119-2.591s1.948-1.835,2.009-1.64" transform="translate(-30.715 -51.987)" fill="#263238"/>
            <path id="Path_17641" data-name="Path 17641" d="M240.3,391.845c.151.154-.467.954-.628,2.121-.2,1.162.154,2.109-.036,2.212-.158.134-.94-.881-.711-2.327s1.265-2.182,1.375-2.007" transform="translate(-31.629 -51.877)" fill="#263238"/>
            <path id="Path_17642" data-name="Path 17642" d="M246.27,395.182c-.146.141-.961-.635-1.093-1.942s.5-2.234.668-2.126c.2.09-.042.976.083,2.047.1,1.074.516,1.891.342,2.021" transform="translate(-32.459 -51.783)" fill="#263238"/>
            <path id="Path_17643" data-name="Path 17643" d="M230.686,387.728c.023.217-.985.471-2,1.172-1.025.681-1.633,1.524-1.825,1.423-.188-.07.2-1.238,1.4-2.048s2.424-.749,2.42-.547" transform="translate(-30.031 -51.318)" fill="#263238"/>
            <g id="Group_11786" data-name="Group 11786" transform="translate(175.517 325.172)" opacity="0.3">
              <g id="Group_11785" data-name="Group 11785">
                <g id="Group_11784" data-name="Group 11784" clip-path="url(#clip-path-15)">
                  <path id="Path_17644" data-name="Path 17644" d="M221.1,374.795l1.974,3.575-18.857,11.046-1.911-3.142Z" transform="translate(-202.302 -374.795)"/>
                </g>
              </g>
            </g>
            <path id="Path_17645" data-name="Path 17645" d="M227.512,383c.049.076-.619.632-1.917,1.133a10,10,0,0,1-2.367.582,10.5,10.5,0,0,1-1.445.074,2.747,2.747,0,0,1-.846-.1.948.948,0,0,1-.678-.94,1.189,1.189,0,0,1,.562-.914,2.878,2.878,0,0,1,.776-.33,8.019,8.019,0,0,1,1.432-.3,7.858,7.858,0,0,1,2.454.1,3.717,3.717,0,0,1,2.052.88c-.048.112-.827-.213-2.133-.351a8.911,8.911,0,0,0-2.279.059,8.344,8.344,0,0,0-1.3.318c-.468.136-.813.338-.809.581,0,.091.015.121.17.189a2.239,2.239,0,0,0,.62.075,11.8,11.8,0,0,0,1.355-.027,12.342,12.342,0,0,0,2.271-.4,15.478,15.478,0,0,1,2.082-.626" transform="translate(-29.162 -50.596)" fill="#263238"/>
            <path id="Path_17646" data-name="Path 17646" d="M228.1,382.522c-.049.069-.818-.378-1.609-1.544a7.217,7.217,0,0,1-1.2-3.7,1.84,1.84,0,0,1,.642-1.694,1.039,1.039,0,0,1,1.117.056,2.982,2.982,0,0,1,.615.583,4.938,4.938,0,0,1,.771,1.287,5.124,5.124,0,0,1,.364,2.462c-.154,1.435-.8,2.123-.852,2.069a18.073,18.073,0,0,0,.318-2.1,5.126,5.126,0,0,0-.469-2.158,4.565,4.565,0,0,0-.7-1.083c-.3-.37-.65-.606-.777-.475a1.274,1.274,0,0,0-.294,1.026,7.371,7.371,0,0,0,.146,1.319,8.007,8.007,0,0,0,.77,2.128c.618,1.151,1.234,1.73,1.15,1.819" transform="translate(-29.829 -49.709)" fill="#263238"/>
            <path id="Path_17647" data-name="Path 17647" d="M179.1,415.071l-1.137,22.889s23.7,7.073,23.315,12.682l-44.6-.057.218-35.879Z" transform="translate(-20.745 -54.907)" fill="#ff725e"/>
            <g id="Group_11789" data-name="Group 11789" transform="translate(142.183 380.868)" opacity="0.6">
              <g id="Group_11788" data-name="Group 11788">
                <g id="Group_11787" data-name="Group 11787" clip-path="url(#clip-path-16)">
                  <path id="Path_17648" data-name="Path 17648" d="M165.2,439.061a1.816,1.816,0,0,0-1.284,2.054,1.746,1.746,0,0,0,2.026,1.291,1.916,1.916,0,0,0,1.348-2.183,1.811,1.811,0,0,0-2.256-1.109" transform="translate(-163.881 -438.991)" fill="#fff"/>
                </g>
              </g>
            </g>
            <g id="Group_11792" data-name="Group 11792" transform="translate(135.88 391.934)" opacity="0.6">
              <g id="Group_11791" data-name="Group 11791">
                <g id="Group_11790" data-name="Group 11790" clip-path="url(#clip-path-17)">
                  <path id="Path_17649" data-name="Path 17649" d="M156.674,455.489l-.058-3.743,42.558.471s2.1,1.487,2.1,3.329Z" transform="translate(-156.616 -451.746)" fill="#fff"/>
                </g>
              </g>
            </g>
            <path id="Path_17650" data-name="Path 17650" d="M181.427,441.229c-.01.217-1.1.3-2.175.984-1.1.656-1.659,1.589-1.858,1.5-.2-.044.142-1.338,1.462-2.143s2.621-.539,2.571-.34" transform="translate(-23.48 -58.391)" fill="#263238"/>
            <path id="Path_17651" data-name="Path 17651" d="M186.939,443.543c.046.211-.9.567-1.649,1.476-.776.886-.976,1.877-1.192,1.864-.2.031-.337-1.242.616-2.354s2.223-1.193,2.225-.986" transform="translate(-24.355 -58.713)" fill="#263238"/>
            <path id="Path_17652" data-name="Path 17652" d="M190.321,449.464c-.2.043-.485-1.045.089-2.226s1.6-1.641,1.685-1.458c.121.18-.547.809-1,1.786-.479.966-.554,1.881-.77,1.9" transform="translate(-25.166 -59.016)" fill="#263238"/>
            <path id="Path_17653" data-name="Path 17653" d="M180.976,435.091c-.094.2-1.085-.116-2.314-.05-1.229.042-2.19.441-2.3.253-.123-.158.82-.949,2.268-1.007s2.456.636,2.347.805" transform="translate(-23.349 -57.499)" fill="#263238"/>
            <g id="Group_11795" data-name="Group 11795" transform="translate(135.981 376.374)" opacity="0.3">
              <g id="Group_11794" data-name="Group 11794">
                <g id="Group_11793" data-name="Group 11793" clip-path="url(#clip-path-18)">
                  <path id="Path_17654" data-name="Path 17654" d="M178.337,433.811l-.258,4.556-21.347-.56.023-3.678Z" transform="translate(-156.732 -433.811)"/>
                </g>
              </g>
            </g>
            <path id="Path_17655" data-name="Path 17655" d="M180.822,429.329a4.166,4.166,0,0,1-2.226-.042,9.993,9.993,0,0,1-2.32-.748,10.511,10.511,0,0,1-1.269-.7,2.744,2.744,0,0,1-.665-.533.946.946,0,0,1-.083-1.157,1.191,1.191,0,0,1,.958-.483,2.875,2.875,0,0,1,.834.127,8.009,8.009,0,0,1,1.378.494,7.86,7.86,0,0,1,2.035,1.376c1.019.969,1.359,1.786,1.285,1.826-.1.07-.593-.616-1.631-1.419a8.928,8.928,0,0,0-1.97-1.146,8.263,8.263,0,0,0-1.274-.412c-.469-.129-.869-.139-.993.069-.045.079-.051.111.046.25a2.2,2.2,0,0,0,.488.389,11.719,11.719,0,0,0,1.168.689,12.325,12.325,0,0,0,2.14.855,15.478,15.478,0,0,1,2.1.561" transform="translate(-23.05 -56.359)" fill="#263238"/>
            <path id="Path_17656" data-name="Path 17656" d="M181.431,429.167a3.552,3.552,0,0,1-.558-2.159,7.215,7.215,0,0,1,.923-3.778,1.84,1.84,0,0,1,1.436-1.1,1.041,1.041,0,0,1,.921.633,3.029,3.029,0,0,1,.217.82,4.919,4.919,0,0,1-.019,1.5,5.12,5.12,0,0,1-.982,2.287c-.885,1.14-1.794,1.387-1.812,1.314-.071-.11.691-.519,1.372-1.617a5.141,5.141,0,0,0,.733-2.082,4.591,4.591,0,0,0-.023-1.287c-.063-.474-.235-.857-.413-.811-.22-.007-.6.344-.789.718a7.439,7.439,0,0,0-.568,1.2,8.049,8.049,0,0,0-.462,2.216c-.079,1.3.142,2.12.023,2.152" transform="translate(-23.947 -55.89)" fill="#263238"/>
            <path id="Path_17657" data-name="Path 17657" d="M106.909,189.645l2.5-1.058c-.761-1.217,5.2,10.413,13.311,10.489,11.088.1,12.2-10.945,12.2-10.945l.58.071,18.234,18.893,2.4,52.89-1.98,6.788L115,281,101.336,253.8l-1.2-16.753Z" transform="translate(-13.258 -24.909)" fill="#f5f5f5"/>
            <path id="Path_17658" data-name="Path 17658" d="M104.651,189.194s-22.237,5.062-25.863,14.554c-1.6,4.19-2.113,71.782-2.113,71.782s-2.767,6.186-2.586,18.947c.174,12.234,8.266,20.146,18.359,22.432,0,0,2.657-19.221,13.3-28.854,10.084-9.127,11.012-8.024,11.012-8.024l-2.434-22.04L111.809,238.8c-2.526-13.712.315-28.581-4.355-41.719Z" transform="translate(-9.808 -25.049)" fill="#ff725e"/>
            <path id="Path_17659" data-name="Path 17659" d="M160.416,202.493l15.168,66.714L159.277,265.5l-5.189-40.028-13.381-37.334s2.254.294,5.152.746a17.745,17.745,0,0,1,14.557,13.607" transform="translate(-18.63 -24.91)" fill="#ff725e"/>
            <g id="Group_11798" data-name="Group 11798" transform="translate(66.963 250.781)" opacity="0.3">
              <g id="Group_11797" data-name="Group 11797">
                <g id="Group_11796" data-name="Group 11796" clip-path="url(#clip-path-19)">
                  <path id="Path_17660" data-name="Path 17660" d="M77.246,300.2a2.4,2.4,0,0,0,1.081,2.05,5.47,5.47,0,0,0,2.26.818,23.617,23.617,0,0,0,11.238-1.221,89.873,89.873,0,0,0,12.033-5.23,112.056,112.056,0,0,0,12.995-7.568c-5.645,2.31-7.513,2.6-13.458,3.962-8.876,2.034-18.176,3.045-26.213,7.325" transform="translate(-77.182 -289.052)"/>
                </g>
              </g>
            </g>
            <path id="Path_17661" data-name="Path 17661" d="M114.859,271.566l9.924-2.142s11.4-6.354,13.953-6.343c2.3.01,11.406,4.123,13.191,4.94a1.038,1.038,0,0,1,.471.432,1.783,1.783,0,0,1-.614,2.4l-.158.1.114.233a2.948,2.948,0,0,1,.284.96,1.2,1.2,0,0,1-2.117.87l.4.5a1.367,1.367,0,0,1,.292.707l.054.5a1.365,1.365,0,0,1-2.2,1.219c-1.229-.975-3.852-2.9-5.416-2.907a36.219,36.219,0,0,0-5.011.563,1.708,1.708,0,0,0-1.386,1.331c.914-.082,7.742,2.171,10.16,2.981a2.414,2.414,0,0,1,1.588,1.581c.2.684-.037,1.471-1.469,1.374a61.693,61.693,0,0,1-8.8-1.785s-2.874-.337-4.448,1.21c-2.214,2.174-3.255,3.009-5.521,2.648a18.425,18.425,0,0,1-4.017-1.125l-3.594.679Z" transform="translate(-15.207 -34.832)" fill="#ffbe9d"/>
            <path id="Path_17662" data-name="Path 17662" d="M138.928,270.564c.018.044.823-.366,2.223-.687a11.9,11.9,0,0,1,10.471,2.578c1.092.934,1.614,1.672,1.649,1.641a2.807,2.807,0,0,0-.361-.516,10.279,10.279,0,0,0-1.182-1.248,11.537,11.537,0,0,0-10.615-2.614,10.416,10.416,0,0,0-1.627.557,2.8,2.8,0,0,0-.559.29" transform="translate(-18.394 -35.663)" fill="#eb996e"/>
            <path id="Path_17663" data-name="Path 17663" d="M139.852,266.941a10.072,10.072,0,0,1,2.3-.8,10.474,10.474,0,0,1,5.763.659,22.517,22.517,0,0,1,5.052,3.03l1.427,1.094a3.766,3.766,0,0,0,.54.383,3.578,3.578,0,0,0-.482-.453c-.321-.279-.79-.678-1.385-1.154A20.624,20.624,0,0,0,148,266.586a10.207,10.207,0,0,0-5.881-.606,6.806,6.806,0,0,0-1.706.609,4.122,4.122,0,0,0-.424.248c-.095.061-.142.1-.138.1" transform="translate(-18.516 -35.19)" fill="#eb996e"/>
            <path id="Path_17664" data-name="Path 17664" d="M90.555,207.6,85.6,260.877H84.2l22.455.444,8.129,16.32s-29.447,14.327-42.033,10.378C57.834,283.34,62.091,266.7,62.2,260.814c.019-1.036,8.388-50.53,16.5-57.946,0,0,10.7.711,11.852,4.728" transform="translate(-8.15 -26.86)" fill="#ff725e"/>
            <path id="Path_17665" data-name="Path 17665" d="M94.977,225.46a8.6,8.6,0,0,1-.129,1.438c-.135,1-.313,2.312-.528,3.895-.5,3.358-1.181,7.851-1.927,12.817-.764,5-1.427,9.537-1.891,12.821-.226,1.58-.415,2.89-.558,3.889a8.518,8.518,0,0,1-.26,1.419,8.631,8.631,0,0,1,.081-1.441c.08-.925.22-2.26.412-3.909.381-3.3.993-7.842,1.758-12.849s1.51-9.526,2.061-12.8c.274-1.573.5-2.877.673-3.87a8.564,8.564,0,0,1,.308-1.411" transform="translate(-11.873 -29.851)" fill="#263238"/>
            <path id="Path_17666" data-name="Path 17666" d="M93.822,199.007c.027-.017.18.182.436.56a12.778,12.778,0,0,1,.947,1.684,17.812,17.812,0,0,1,1.024,2.682,22.328,22.328,0,0,1,.677,3.448,31.6,31.6,0,0,1,.029,6.357,12.461,12.461,0,0,1-.386,2.6,17.938,17.938,0,0,1,.059-2.622,41.509,41.509,0,0,0-.162-6.281,25.5,25.5,0,0,0-.628-3.387,21.287,21.287,0,0,0-.911-2.663c-.626-1.479-1.153-2.335-1.084-2.377" transform="translate(-12.421 -26.348)" fill="#263238"/>
            <path id="Path_17667" data-name="Path 17667" d="M74.46,296.859a.821.821,0,0,1,.221.039l.634.16a16.8,16.8,0,0,0,2.477.365,34.826,34.826,0,0,0,9.157-.894c1.9-.4,4.017-.848,6.239-1.36,2.205-.589,4.517-1.433,6.936-2.328,4.835-1.816,10.1-3.96,15.591-6.282l.686-.292-.116.317c-2.921-5.882-5.679-11.438-8.108-16.33l.187.115c-3.612-.029-6.917-.226-9.863-.321-2.944-.11-5.521-.165-7.649-.149s-3.8.1-4.943.219-1.744.233-1.751.2a2.275,2.275,0,0,1,.439-.108c.292-.061.724-.154,1.3-.219a44.346,44.346,0,0,1,4.954-.336c2.133-.052,4.716-.029,7.664.052s6.263.24,9.851.25h.13l.057.115,8.15,16.309.11.22-.227.1-.687.292c-5.5,2.325-10.77,4.459-15.623,6.256-2.432.887-4.747,1.718-6.99,2.3-2.262.5-4.345.922-6.271,1.308a33.383,33.383,0,0,1-9.236.752,11.093,11.093,0,0,1-3.317-.744" transform="translate(-9.859 -35.698)" fill="#263238"/>
            <path id="Path_17668" data-name="Path 17668" d="M90.379,269.38c-.058.055-.559-.516-1.571-1.15A11.358,11.358,0,0,0,84.45,266.7a25.72,25.72,0,0,0-4.689-.146,9.234,9.234,0,0,1-1.969.009,7.641,7.641,0,0,1,1.946-.337,19.305,19.305,0,0,1,4.78.015,10.176,10.176,0,0,1,4.473,1.718,4.1,4.1,0,0,1,1.388,1.422" transform="translate(-10.3 -35.229)" fill="#263238"/>
            <g id="Group_11801" data-name="Group 11801" transform="translate(64.937 233.842)" opacity="0.3">
              <g id="Group_11800" data-name="Group 11800">
                <g id="Group_11799" data-name="Group 11799" clip-path="url(#clip-path-20)">
                  <path id="Path_17669" data-name="Path 17669" d="M89.613,269.771a21.774,21.774,0,0,0-9.549.689,8.431,8.431,0,0,0-4.86,3.158c-.342.539-.552,1.318-.092,1.759a1.462,1.462,0,0,0,1.57.041,14.621,14.621,0,0,0,2.984-2,19.846,19.846,0,0,1,4.937-2.886,11.116,11.116,0,0,1,5.632-.7" transform="translate(-74.847 -269.528)"/>
                </g>
              </g>
            </g>
            <g id="Group_11804" data-name="Group 11804" transform="translate(62.282 227.724)" opacity="0.3">
              <g id="Group_11803" data-name="Group 11803">
                <g id="Group_11802" data-name="Group 11802" clip-path="url(#clip-path-21)">
                  <path id="Path_17670" data-name="Path 17670" d="M88.219,267.693c-.674-1.871-3.136-3.624-4.724-4.166-3.615-1.234-7.78-1.7-10.984.386a1.321,1.321,0,0,0-.724.941c-.022.573.616.924,1.169,1.076,2.284.627,4.7.247,7.062.019s4.882-.264,6.922.942" transform="translate(-71.786 -262.476)"/>
                </g>
              </g>
            </g>
            <g id="Group_11807" data-name="Group 11807" transform="translate(77.963 197.422)" opacity="0.3">
              <g id="Group_11806" data-name="Group 11806">
                <g id="Group_11805" data-name="Group 11805" clip-path="url(#clip-path-22)">
                  <path id="Path_17671" data-name="Path 17671" d="M89.861,260.726a57.241,57.241,0,0,0,4.864-33.176Z" transform="translate(-89.861 -227.55)"/>
                </g>
              </g>
            </g>
            <path id="Path_17672" data-name="Path 17672" d="M95.205,328.882s8.032,5.331,23.994,5.331,19.616-1.105,19.616-1.105l14.947-13.576,32.793,57.429s26.025-16.136,26.2-15.615c.312.311-24.281-54.405-29.661-63.869a70.821,70.821,0,0,0-6.1-8.842,23.219,23.219,0,0,0-23.3-8.464,106.62,106.62,0,0,0-13.631,3.813c-11.9,4.357-21.995,7.288-30.607,14.923-9.951,8.82-15.979,25.953-14.253,29.976" transform="translate(-12.566 -37.024)" fill="#263238"/>
            <path id="Path_17673" data-name="Path 17673" d="M156.688,318s-11.8,8.162-11.479,14.706c.266,5.482,7.559,86.181,7.559,86.181l29.042-.494,1.991-52.84Z" transform="translate(-19.225 -42.103)" fill="#263238"/>
            <path id="Path_17674" data-name="Path 17674" d="M186.152,369.686a.915.915,0,0,1-.133-.194l-.348-.593-1.3-2.3-4.7-8.51-15.361-28.159L158.2,318.654l.221.115a14.757,14.757,0,0,0-10.509,6.67,14.166,14.166,0,0,0-1.962,5.075,23.53,23.53,0,0,0-.324,4.708c.082,2.879.344,5.171.415,6.749.042.789.065,1.4.064,1.81a3.872,3.872,0,0,1-.014.626,3.647,3.647,0,0,1-.062-.623c-.035-.443-.08-1.043-.138-1.8-.118-1.572-.423-3.854-.545-6.753a23.419,23.419,0,0,1,.274-4.775,14.433,14.433,0,0,1,1.969-5.218,15.1,15.1,0,0,1,10.78-6.909l.149-.019.073.134,6.124,11.262c5.945,11.007,11.326,20.972,15.242,28.225l4.573,8.581,1.222,2.344c.126.25.226.452.308.615a.922.922,0,0,1,.091.217" transform="translate(-19.242 -42.144)" fill="#455a64"/>
            <path id="Path_17675" data-name="Path 17675" d="M163.784,305.344a15.5,15.5,0,0,0-3.673,12.009,5.184,5.184,0,0,1-.394-1.891,12.605,12.605,0,0,1,2.683-8.771,5.171,5.171,0,0,1,1.384-1.347" transform="translate(-21.141 -40.427)" fill="#455a64"/>
            <path id="Path_17676" data-name="Path 17676" d="M157.239,302.776c.076.023-.162.831-.335,2.162a16.572,16.572,0,0,0,1.9,10.108c.646,1.176,1.159,1.843,1.1,1.892a6.432,6.432,0,0,1-1.379-1.727,14.664,14.664,0,0,1-1.939-10.325,6.476,6.476,0,0,1,.66-2.11" transform="translate(-20.7 -40.088)" fill="#455a64"/>
            <path id="Path_17677" data-name="Path 17677" d="M131.282,256.631c-.067-.056.822-1.068,1.951-2.9a26.4,26.4,0,0,0,1.733-3.352,26.108,26.108,0,0,0,2.081-8.957,26.443,26.443,0,0,0-.079-3.774c-.206-2.145-.557-3.443-.472-3.464a3.844,3.844,0,0,1,.3.9,9.4,9.4,0,0,1,.253,1.08c.077.425.188.908.239,1.452a23.311,23.311,0,0,1,.177,3.827,24.472,24.472,0,0,1-2.114,9.105A23.325,23.325,0,0,1,133.5,253.9c-.285.465-.6.849-.855,1.2a9.377,9.377,0,0,1-.7.858,3.794,3.794,0,0,1-.663.675" transform="translate(-17.381 -31.006)" fill="#263238"/>
            <path id="Path_17678" data-name="Path 17678" d="M162.048,200.66s31.487,54.085,32.191,58.238c.524,3.089-.476,11.9-3.3,13.037-7.893,3.192-17.02-.517-25.358-6.286l-1.25-.864Z" transform="translate(-21.455 -26.568)" fill="#ff725e"/>
            <path id="Path_17679" data-name="Path 17679" d="M2.035,191.85s4.932-2.868,6.107,5.122,9.276,66.58,9.276,66.58l50.362-.476s10.639-.405,17.861,21.28c5.053,15.17,10.206,66.789,10.206,66.789l-.953,37.362-91.062-.015S1.019,310.185.549,275.363s-1.471-72.8,1.485-83.513" transform="translate(0 -25.335)" fill="#455a64"/>
            <path id="Path_17680" data-name="Path 17680" d="M7.584,191.323a2.479,2.479,0,0,0,.272.242,7.339,7.339,0,0,1,.745.764,6.7,6.7,0,0,1,1.53,3.778l1.863,15.447c1.622,13.123,3.879,31.378,6.427,52l.025.2.2,0,10.507-.221c11.359-.182,22.184-.26,32.017.022,2.458.076,4.854.176,7.173.36l1.725.147c.57.055,1.127.152,1.685.225a5.813,5.813,0,0,1,3.007,1.152,19.85,19.85,0,0,1,4.269,4.669,51.815,51.815,0,0,1,3.08,5.062,93.741,93.741,0,0,1,6.871,16.592,36.363,36.363,0,0,1,1.16,4.758,10.756,10.756,0,0,1,.133,1.266c0,.286.008.436.008.436s.021-.146.038-.436a8.9,8.9,0,0,0-.088-1.28,33.583,33.583,0,0,0-1.081-4.8c-.585-2.053-1.412-4.529-2.506-7.351a88.956,88.956,0,0,0-4.253-9.347,51.749,51.749,0,0,0-3.076-5.113,20.161,20.161,0,0,0-4.339-4.776l-.715-.457c-.246-.143-.514-.251-.772-.378a8.209,8.209,0,0,0-.832-.26c-.28-.062-.56-.088-.842-.133-.563-.076-1.13-.176-1.7-.233l-1.734-.153c-2.329-.192-4.729-.3-7.192-.382-9.846-.3-20.675-.239-32.037-.057l-10.512.225.228.2c-2.607-20.61-4.915-38.857-6.575-51.975-.846-6.531-1.527-11.785-2-15.429a6.675,6.675,0,0,0-1.628-3.813,4.791,4.791,0,0,0-1.081-.949" transform="translate(-1.004 -25.331)" fill="#263238"/>
            <path id="Path_17681" data-name="Path 17681" d="M80.84,279.188a2.637,2.637,0,0,1-.331.058c-.218.035-.542.086-.963.181a19.474,19.474,0,0,0-8.6,4.277,20.878,20.878,0,0,0-2.569,2.662l-1.148,1.666c-.1.144-.2.285-.293.433l-.241.472q-.243.474-.492.96l-.5.984c-.154.338-.261.7-.4,1.058-.249.721-.543,1.445-.77,2.205a33.692,33.692,0,0,0-.923,4.87c-.084.854-.217,1.719-.266,2.6q-.013,1.331-.026,2.7c-.064,1.826.1,3.72.156,5.656.344,7.747.907,16.255,1.589,25.179.788,10.061,1.648,19.577,2.5,27.928l-.2-.182,26.586.225,7.534.1,1.994.042.513.019a.736.736,0,0,1,.174.017.663.663,0,0,1-.174.017l-.513.013-1.995.021-7.535.017-26.587-.061h-.182l-.019-.182c-.88-8.354-1.757-17.87-2.545-27.936-.683-8.928-1.233-17.442-1.554-25.2-.051-1.941-.208-3.824-.138-5.673q.02-1.385.037-2.727c.054-.893.191-1.766.28-2.628a33.9,33.9,0,0,1,.96-4.92c.235-.769.537-1.5.794-2.23.139-.36.251-.728.409-1.071l.518-.994q.255-.492.506-.971l.248-.476c.095-.15.2-.292.3-.437l1.178-1.68a20.992,20.992,0,0,1,2.631-2.676,18.033,18.033,0,0,1,5.115-3.1,17.021,17.021,0,0,1,3.629-1.071c.426-.081.754-.117.975-.137a1.966,1.966,0,0,1,.336-.012" transform="translate(-8.329 -36.964)" fill="#263238"/>
            <path id="Path_17682" data-name="Path 17682" d="M82.9,413.632c-.125,0-.226-8.127-.226-18.148s.1-18.15.226-18.15.226,8.125.226,18.15-.1,18.148-.226,18.148" transform="translate(-10.946 -49.959)" fill="#263238"/>
            <path id="Path_17683" data-name="Path 17683" d="M200.457,237.068,149.208,241.7a1.174,1.174,0,0,0-1.018.825L136.8,279.1a1.173,1.173,0,0,1-.734.764l-19.682,5.356a1.175,1.175,0,0,0,.662,2.251l21.177-4.487,47.634-5.942a1.175,1.175,0,0,0,.96-.736l14.841-37.64a1.174,1.174,0,0,0-1.2-1.6" transform="translate(-15.305 -31.387)" fill="#e0e0e0"/>
            <path id="Path_17684" data-name="Path 17684" d="M200.423,237.067a.959.959,0,0,1,.458.027,1.207,1.207,0,0,1,.852.991,1.856,1.856,0,0,1-.214.978l-.432,1.121q-.472,1.219-1.085,2.8l-7.036,18.026-4.937,12.593-.675,1.721-.342.872a1.476,1.476,0,0,1-.62.829,1.343,1.343,0,0,1-.51.185l-.479.061-.953.121-1.93.244-8.024,1.012-36.28,4.554.018,0-11.019,2.338-5.637,1.2-2.847.6-1.43.3a1.915,1.915,0,0,1-.815.065,1.4,1.4,0,0,1-.212-2.7l.009,0,.007,0,19.683-5.351-.015,0a.99.99,0,0,0,.635-.746l.365-1.171.726-2.327,1.434-4.6,2.791-8.94,5.232-16.746q.311-.994.618-1.975a6.015,6.015,0,0,1,.361-1.006,1.366,1.366,0,0,1,.955-.629l3.986-.358,7.571-.672,13.493-1.191,19.306-1.677,5.191-.431,1.344-.1c.3-.021.458-.021.458-.021s-.153.028-.454.062l-1.34.141-5.185.506-19.294,1.809-13.489,1.246-7.569.7-3.961.365a.988.988,0,0,0-.689.456,6.275,6.275,0,0,0-.318.92q-.3.981-.613,1.977c-1.648,5.309-3.387,10.911-5.2,16.756q-1.361,4.383-2.779,8.944-.708,2.279-1.429,4.6l-.724,2.328-.364,1.171a1.441,1.441,0,0,1-.911,1.034l-.014,0h0l-19.681,5.361.016-.005a.948.948,0,0,0,.143,1.827,1.475,1.475,0,0,0,.633-.061l1.431-.3,2.848-.6,5.639-1.194,11.024-2.333.009,0h.01l36.289-4.5,8.027-.992,1.931-.238.953-.117a2.045,2.045,0,0,0,.847-.193,1.111,1.111,0,0,0,.478-.657l.345-.871.68-1.718,4.987-12.573,7.159-17.978,1.12-2.79q.243-.6.449-1.114a1.8,1.8,0,0,0,.228-.932,1.166,1.166,0,0,0-.785-.961,1.937,1.937,0,0,0-.446-.066" transform="translate(-15.271 -31.386)" fill="#263238"/>
            <path id="Path_17685" data-name="Path 17685" d="M154.571,242.2a1.654,1.654,0,0,1-.082.436c-.086.331-.192.735-.32,1.225-.285,1.061-.724,2.591-1.281,4.475-1.112,3.769-2.727,8.953-4.551,14.663-1.817,5.68-3.461,10.82-4.676,14.622-.583,1.822-1.062,3.319-1.419,4.431-.16.481-.292.877-.4,1.2a1.66,1.66,0,0,1-.169.409,1.58,1.58,0,0,1,.082-.436c.087-.331.193-.735.32-1.225.286-1.061.724-2.59,1.281-4.474,1.112-3.77,2.727-8.954,4.551-14.666,1.816-5.678,3.459-10.817,4.676-14.619L154,243.815c.161-.481.293-.876.4-1.2a1.658,1.658,0,0,1,.169-.41" transform="translate(-18.757 -32.068)" fill="#263238"/>
            <path id="Path_17686" data-name="Path 17686" d="M178.805,259.418a2.383,2.383,0,0,0-2,.94,1.866,1.866,0,0,0-.559,2,1.594,1.594,0,0,0,1.3.831,2.665,2.665,0,0,0,1.54-.4,2.258,2.258,0,0,0,1.24-1.753,1.637,1.637,0,0,0-1.522-1.617" transform="translate(-23.319 -34.347)" fill="#fff"/>
            <path id="Path_17687" data-name="Path 17687" d="M170.383,236.315a5.542,5.542,0,0,1-.411-1.08c-.26-.789-.593-1.787-.988-2.98-.835-2.515-2.026-5.977-3.464-9.754s-2.855-7.154-3.906-9.588l-1.246-2.881a5.581,5.581,0,0,1-.412-1.079,5.735,5.735,0,0,1,.572,1c.343.659.815,1.624,1.378,2.827,1.128,2.4,2.592,5.77,4.037,9.557s2.589,7.275,3.347,9.819c.379,1.273.669,2.307.851,3.027a5.715,5.715,0,0,1,.243,1.13" transform="translate(-21.178 -27.665)" fill="#263238"/>
          </g>
        </g>
      </g>
    </g>
  </g>
</svg>
