<svg xmlns="http://www.w3.org/2000/svg" xmlns:xlink="http://www.w3.org/1999/xlink" width="407.449" height="351.639" viewBox="0 0 407.449 351.639">
  <defs>
    <clipPath id="clip-path">
      <path id="Rectangle_6143" data-name="Rectangle 6143" d="M8.251,0H84.642a8.251,8.251,0,0,1,8.251,8.251V114.459a8.25,8.25,0,0,1-8.25,8.25H8.251A8.251,8.251,0,0,1,0,114.458V8.251A8.251,8.251,0,0,1,8.251,0Z" transform="translate(117.513 69.409)" fill="none"/>
    </clipPath>
  </defs>
  <g id="leftImage03" transform="translate(-9991.254 -1303.332)">
    <path id="Path_17403" data-name="Path 17403" d="M388.618,351.639H4.788C2.154,351.639,0,348.6,0,344.9s2.155-6.744,4.789-6.744h383.83c2.634,0,4.788,3.035,4.788,6.744s-2.155,6.743-4.788,6.743" transform="translate(10005.297 1303.332)" fill="#dee6f9"/>
    <g id="Group_11749" data-name="Group 11749" transform="translate(10256.378 1539.608)">
      <path id="Path_17404" data-name="Path 17404" d="M413.673,295.71a31.04,31.04,0,0,1,31.04,31.04h-62.08a31.04,31.04,0,0,1,31.04-31.04" transform="translate(-362.563 -224.755)" fill="#31a8a5"/>
      <path id="Path_17405" data-name="Path 17405" d="M451.256,307.953a22.086,22.086,0,0,1,22.086,22.086H429.17a22.086,22.086,0,0,1,22.086-22.086" transform="translate(-375.065 -228.044)" fill="#48b7b7"/>
      <path id="Path_17406" data-name="Path 17406" d="M363.628,309.9s-10.1-70.48,92.21-94.185c0,0-23.342,11.622-39.684,45.346s-36.289,45.775-52.526,48.839" transform="translate(-357.383 -203.263)" fill="#31a8a5"/>
      <path id="Path_17407" data-name="Path 17407" d="M372.691,302.664c12.254-30.258,35.341-55.882,62.838-73.2q5.954-3.667,12.2-6.8a232.042,232.042,0,0,0-22.7,16.044c-21.462,17.511-39.785,39.2-52.339,63.959" transform="translate(-359.892 -205.129)" fill="#6ed3d1"/>
      <path id="Path_17408" data-name="Path 17408" d="M358.745,295.358s-24.054-54.47,52.973-96.669c0,0-16.17,14.632-21.71,45.478s-18.88,45.056-31.262,51.191" transform="translate(-355.189 -198.689)" fill="#48b7b7"/>
      <path id="Path_17409" data-name="Path 17409" d="M364.457,288.933c2.013-21.223,10.92-42.064,22.982-59.515,1.745-2.593,4.277-5.652,6.182-8.184.691-.795,4.1-4.626,4.854-5.48,2.593-2.9,5.527-5.5,8.33-8.192-2.456,3.02-5.152,5.811-7.515,8.9-.708.9-3.845,4.923-4.472,5.712-14.532,19.861-25.331,42.605-30.361,66.761" transform="translate(-357.679 -201.073)" fill="#6ed3d1"/>
      <path id="Path_17410" data-name="Path 17410" d="M356.94,319.354s11.023-70.342,115.786-62.985c0,0-25.725,4.262-51.242,31.707s-48.123,33.113-64.544,31.278" transform="translate(-355.66 -214.041)" fill="#48b7b7"/>
      <path id="Path_17411" data-name="Path 17411" d="M369.159,313.413c20.593-25.331,50.181-43.054,81.551-51.544q6.768-1.758,13.656-2.921a232.137,232.137,0,0,0-26.406,8.678c-25.656,10.443-49.535,25.8-68.8,45.787" transform="translate(-358.943 -214.878)" fill="#6ed3d1"/>
    </g>
    <path id="Path_17412" data-name="Path 17412" d="M115.613,295.71a31.04,31.04,0,0,0-31.04,31.04h62.08a31.04,31.04,0,0,0-31.04-31.04" transform="translate(9973.894 1314.853)" fill="#31a8a5"/>
    <path id="Path_17413" data-name="Path 17413" d="M84.61,307.953a22.086,22.086,0,0,0-22.086,22.086H106.7A22.086,22.086,0,0,0,84.61,307.953" transform="translate(9979.817 1311.563)" fill="#48b7b7"/>
    <path id="Path_17414" data-name="Path 17414" d="M155.686,319.377s7.334-51.174-66.951-68.385c0,0,16.948,8.439,28.813,32.925s26.349,33.236,38.138,35.46" transform="translate(9972.775 1326.867)" fill="#31a8a5"/>
    <path id="Path_17415" data-name="Path 17415" d="M153.759,314.124s-.537-1.148-1.593-3.091-2.626-4.682-4.667-7.866c-1.012-1.6-2.171-3.285-3.4-5.069-1.254-1.764-2.595-3.61-4.038-5.476-1.425-1.88-2.991-3.749-4.575-5.651-1.613-1.878-3.274-3.766-5.015-5.581l-1.291-1.374-1.321-1.341c-.871-.9-1.769-1.765-2.665-2.62-1.793-1.707-3.576-3.369-5.366-4.906-.878-.788-1.781-1.516-2.65-2.247l-1.292-1.082L114.6,266.8c-1.687-1.357-3.339-2.566-4.848-3.707l-2.214-1.569c-.7-.5-1.365-.983-2.01-1.4-1.287-.842-2.378-1.631-3.32-2.209l-2.93-1.879,3.1,1.6c.99.5,2.146,1.193,3.491,1.958s2.812,1.71,4.425,2.724c1.58,1.063,3.31,2.194,5.056,3.507l1.342.979,1.345,1.041c.912.7,1.831,1.427,2.74,2.2s1.855,1.532,2.765,2.355,1.858,1.629,2.756,2.5c.913.857,1.829,1.727,2.718,2.631l1.347,1.347,1.316,1.382c1.748,1.851,3.416,3.775,5.033,5.688,1.6,1.929,3.11,3.878,4.515,5.8,1.428,1.911,2.7,3.836,3.9,5.662,1.179,1.84,2.254,3.6,3.186,5.266a88.786,88.786,0,0,1,4.152,8.211c.453,1.013.764,1.828.982,2.38l.317.854" transform="translate(9969.942 1325.512)" fill="#6ed3d1"/>
    <path id="Path_17416" data-name="Path 17416" d="M168.822,308.819s17.466-39.549-38.462-70.189c0,0,11.741,10.624,15.764,33.021s13.708,32.714,22.7,37.169" transform="translate(9961.592 1330.188)" fill="#48b7b7"/>
    <path id="Path_17417" data-name="Path 17417" d="M168.457,304.154s-.042-.262-.146-.747-.266-1.194-.466-2.1c-.222-.9-.483-1.988-.826-3.228l-.55-1.972q-.315-1.033-.662-2.17-.173-.566-.353-1.155l-.407-1.188-.841-2.5-.982-2.6-.5-1.346c-.173-.452-.37-.9-.557-1.356l-1.152-2.77c-.4-.933-.857-1.851-1.276-2.8-.442-.934-.835-1.9-1.327-2.825l-1.444-2.8-.71-1.406-.775-1.367-1.546-2.712c-.5-.909-1.06-1.765-1.6-2.623l-1.6-2.538c-.268-.412-.51-.84-.795-1.231l-.831-1.173-1.6-2.278c-1.007-1.505-2.095-2.825-3.061-4.076l-1.394-1.791c-.437-.575-.851-1.121-1.286-1.594l-2.179-2.522-1.882-2.225,2.119,2,2.413,2.326c.477.441.935.954,1.42,1.494l1.52,1.708,1.653,1.861c.591.628,1.094,1.363,1.664,2.078l1.719,2.229c.594.756,1.184,1.541,1.724,2.38l1.693,2.526.864,1.289c.3.427.534.894.806,1.343l1.594,2.737.8,1.38.732,1.42,1.439,2.85c.489.942.88,1.927,1.32,2.879.423.96.865,1.9,1.238,2.86s.733,1.907,1.09,2.839c.176.467.363.925.526,1.388s.307.926.458,1.382l.874,2.675c.491,1.763,1,3.413,1.344,4.974.181.777.369,1.517.522,2.228q.207,1.07.393,2.026c.252,1.27.4,2.391.534,3.309.119.921.194,1.647.233,2.144s.058.759.058.759" transform="translate(9959.618 1328.457)" fill="#6ed3d1"/>
    <path id="Path_17418" data-name="Path 17418" d="M154.326,326.241s-8-51.074-84.069-45.731c0,0,18.678,3.094,37.206,23.021s34.94,24.043,46.863,22.71" transform="translate(9977.74 1319.042)" fill="#48b7b7"/>
    <path id="Path_17419" data-name="Path 17419" d="M150.943,321.928s-.85-.94-2.43-2.488-3.884-3.706-6.768-6.15c-1.436-1.229-3.04-2.5-4.735-3.849-1.716-1.319-3.54-2.69-5.467-4.05-1.915-1.379-3.959-2.706-6.032-4.06-2.092-1.322-4.235-2.639-6.432-3.864l-1.637-.935-1.656-.894c-1.1-.6-2.209-1.169-3.317-1.722-2.214-1.106-4.407-2.171-6.569-3.116-1.07-.5-2.147-.927-3.193-1.37l-1.552-.655-1.533-.6c-2.01-.8-3.944-1.473-5.722-2.122l-2.577-.851c-.818-.276-1.594-.539-2.333-.75-1.477-.427-2.751-.862-3.822-1.138l-3.352-.936,3.429.617c1.094.189,2.4.51,3.912.847s3.19.81,5.029,1.306c1.822.553,3.808,1.126,5.863,1.869l1.57.542,1.591.6c1.077.4,2.168.827,3.264,1.3s2.223.921,3.335,1.441c1.12.5,2.254,1.011,3.369,1.583,1.125.551,2.255,1.114,3.37,1.717l1.683.892,1.664.935c2.214,1.256,4.373,2.606,6.48,3.961,2.094,1.376,4.111,2.8,6.02,4.224,1.926,1.408,3.706,2.875,5.387,4.269,1.667,1.414,3.212,2.784,4.591,4.1a89.026,89.026,0,0,1,6.378,6.631c.731.836,1.267,1.525,1.637,1.989l.554.723" transform="translate(9974.634 1318.433)" fill="#6ed3d1"/>
    <path id="Path_17420" data-name="Path 17420" d="M136.966,150.542H69.908a3.654,3.654,0,0,0-3.654,3.654v57.369a3.652,3.652,0,0,0,3.652,3.651h67.061a3.652,3.652,0,0,0,3.652-3.651V154.2a3.653,3.653,0,0,0-3.653-3.653" transform="translate(9925 1303.332)" fill="#1e8ceb"/>
    <path id="Path_17421" data-name="Path 17421" d="M87.764,154.25a2.548,2.548,0,1,1-1.83,1.834,2.55,2.55,0,0,1,1.83-1.834" transform="translate(9925 1303.332)" fill="#fff"/>
    <path id="Path_17422" data-name="Path 17422" d="M79.662,154.249a2.548,2.548,0,1,1-1.833,1.832,2.552,2.552,0,0,1,1.833-1.832" transform="translate(9925 1303.332)" fill="#fff"/>
    <path id="Path_17423" data-name="Path 17423" d="M69.724,157.349a2.546,2.546,0,1,1,1.829,1.836,2.551,2.551,0,0,1-1.829-1.836" transform="translate(9925 1303.332)" fill="#fff"/>
    <path id="Path_17424" data-name="Path 17424" d="M134.935,211.1H71.942a1.81,1.81,0,0,1-1.81-1.81V163.734a1.811,1.811,0,0,1,1.81-1.81h62.993a1.811,1.811,0,0,1,1.81,1.81v45.555a1.81,1.81,0,0,1-1.81,1.81" transform="translate(9925 1303.332)" fill="#fff"/>
    <path id="Path_17425" data-name="Path 17425" d="M372.373,344.9H194.921a11.738,11.738,0,0,1-11.739-11.738V11.738A11.739,11.739,0,0,1,194.921,0H372.373a11.738,11.738,0,0,1,11.738,11.738v321.42A11.738,11.738,0,0,1,372.373,344.9" transform="translate(9925 1303.332)" fill="#1362c9"/>
    <path id="Path_17426" data-name="Path 17426" d="M359.079,344.9H181.627a11.738,11.738,0,0,1-11.739-11.738V11.738A11.739,11.739,0,0,1,181.627,0H359.079a11.738,11.738,0,0,1,11.738,11.738v321.42A11.738,11.738,0,0,1,359.079,344.9" transform="translate(9925 1303.332)" fill="#1e8ceb"/>
    <path id="Path_17427" data-name="Path 17427" d="M351.586,329.262H189.121a7.661,7.661,0,0,1-7.662-7.661V23.3a7.661,7.661,0,0,1,7.662-7.661H351.586a7.661,7.661,0,0,1,7.661,7.661V321.6a7.661,7.661,0,0,1-7.661,7.661" transform="translate(9925 1303.332)" fill="#fff"/>
    <path id="Path_17428" data-name="Path 17428" d="M292.809,9.682H255.9a2.227,2.227,0,0,1,0-4.454h36.914a2.227,2.227,0,1,1,0,4.454" transform="translate(9925 1303.332)" fill="#1362c9"/>
    <path id="Path_17429" data-name="Path 17429" d="M252.442,191.135c.18-12.975-23.972-2.383-23.972-2.383s-10.857,31.292-12.4,35.256-22.056,30.755-22.056,30.755l20.416,11.164s19.273-28.837,23.012-34.422,15-40.37,15-40.37" transform="translate(9925 1303.332)" fill="#fbb6c1"/>
    <path id="Path_17430" data-name="Path 17430" d="M194.011,254.763s-11.3,3.534-9.942,8.914,30.358,2.25,30.358,2.25Z" transform="translate(9925 1303.332)" fill="#fbb6c1"/>
    <path id="Path_17431" data-name="Path 17431" d="M247.564,205.7,245.926,192.4s-9.044-2.773-14.029-4.973c-2.064.735-3.428,1.33-3.428,1.33s-3.367,9.706-6.618,18.992C232.287,207.9,247.564,205.7,247.564,205.7Z" transform="translate(9925 1303.332)" fill="#fc9fad"/>
    <path id="Path_17432" data-name="Path 17432" d="M219.065,195.677s18.938,11.374,35.81,10.237l9.674-48.406a13.565,13.565,0,0,0-26.59-4.914Z" transform="translate(9925 1303.332)" fill="#ff981e"/>
    <path id="Path_17433" data-name="Path 17433" d="M269.707,80.929s-13,4.416-7.817,22.174c3.234,11.078-.283,17.236-.283,17.236s-6.26,11.341,2.517,18.653c9.073,7.557,24.74-5.4,24.74-5.4s-15.354-11.577-15.628-31.112-3.529-21.546-3.529-21.546" transform="translate(9925 1303.332)" fill="#023766"/>
    <path id="Path_17434" data-name="Path 17434" d="M284.036,122.834l-7.3,43.583,18.309,3.067,8.35-49.839Z" transform="translate(9925 1303.332)" fill="#fc9fad"/>
    <path id="Path_17435" data-name="Path 17435" d="M273.307,99.728s-1.453,22.8,8.728,28.927,24.725-3.434,28.469-12.593c0,0,7.832-.582,8.49-6.864s-5.294-4.675-6.613-3.4a22.214,22.214,0,0,1-2.072-15.421c1.888-9.154-35.353-18.393-37,9.348" transform="translate(9925 1303.332)" fill="#fbb6c1"/>
    <path id="Path_17436" data-name="Path 17436" d="M312.382,105.8a22.211,22.211,0,0,1-2.073-15.421c1.889-9.154-35.353-18.393-37,9.348,0,0-.059,1.006-.068,2.6,1.744.475,7.99,1.49,16.391-5.114,9.947-7.82,17.509-4.17,17.509-4.17s.19,9.226,5.242,12.756" transform="translate(9925 1303.332)" fill="#fc9fad"/>
    <path id="Path_17437" data-name="Path 17437" d="M274.645,203.671l7.784-46.462.037-25.342-6.587-1.1.58,7.189s-14.008,2.5-21.976,4.5a5.992,5.992,0,0,0-4.286,4.05c-3.024,9.771-12,20.092-12.323,28.581-.392,10.351,7.69,16.283,7.69,16.283s2.112,38.143-12.868,75.41l30.293,5.075Z" transform="translate(9925 1303.332)" fill="#ffae1e"/>
    <path id="Path_17438" data-name="Path 17438" d="M262.989,271.849l57.784,9.681s17-100.067,18.373-108.269c2.115-12.624-3.859-15.676-15.7-23.713l-15.667-7.091,2.637-5.908-15.043-2.52L282.43,157.208Z" transform="translate(9925 1303.332)" fill="#ffae1e"/>
    <path id="Path_17439" data-name="Path 17439" d="M312.568,167.468l-4.11,56.332,10.352-1.194-1.666,58.543s10.911-11.563,14.649-19.924,4.989-28.718,4.137-36.916-.51-22-4.137-27.777-8.8-16.527-9-17.522-10.223-11.542-10.223-11.542" transform="translate(9925 1303.332)" fill="#ff6f1e"/>
    <path id="Path_17440" data-name="Path 17440" d="M309.575,138.43l.84-1.881-15.043-2.52L282.43,157.208l.036-25.342-6.587-1.1.58,7.189,2.969,37.17Z" transform="translate(9925 1303.332)" fill="#fff"/>
    <path id="Path_17441" data-name="Path 17441" d="M310.309,90.38s-11.82-4.348-21.443,3.629-16.468,11.239-20.83,4.915c-5.714-8.285,1.463-34.875,27.44-36.363S325.944,77.61,325.944,77.61,340.09,85.5,338.31,101.78s-13.006,36.176-9.583,44.01c0,0-30.472,4.76-29.154-3.345,1.913-11.755,13.832-13.309,21.5-29.426S310.309,90.38,310.309,90.38" transform="translate(9925 1303.332)" fill="#084384"/>
    <path id="Path_17442" data-name="Path 17442" d="M329.684,103.333c.118-3.532-.263-6.91-1.2-7.66a32.1,32.1,0,0,1-2.991-3.342s-2.685-3.054-4.028-3.516-6.255-2.942-6.735-2.9a7.194,7.194,0,0,1-1.611-.276l-2.807,4.745a22.214,22.214,0,0,0,2.072,15.421c.837-.811,3.533-1.747,5.229-.725l.012,0a1.488,1.488,0,0,1,.626.555,4.6,4.6,0,0,1,.746,3.563c-.658,6.283-8.489,6.865-8.489,6.865a29,29,0,0,0-3.005,1.392,19.607,19.607,0,0,0-9.817,12.954c-3.132,14.459,4.959,15.654,4.959,15.654s8.586-7.466,9.43-7.561,5.512-3.93,6.628-6.348,2.368-9.192,5-14.314,5.864-10.974,5.982-14.506" transform="translate(9925 1303.332)" fill="#084384"/>
    <path id="Path_17443" data-name="Path 17443" d="M342.462,198.556c-5.427-11.787-22.66,8.177-22.66,8.177s3.683,32.917,4,37.16-6.654,37.257-6.654,37.257l23.234,1.279s4.969-34.328,5.937-40.977-3.853-42.9-3.853-42.9" transform="translate(9925 1303.332)" fill="#fbb6c1"/>
    <path id="Path_17444" data-name="Path 17444" d="M344.335,213.8l-7.211-11.3s-9.356,1.394-14.8,1.556c-1.547,1.552-2.521,2.677-2.521,2.677s1.143,10.21,2.209,19.99C331.5,222.369,344.335,213.8,344.335,213.8Z" transform="translate(9925 1303.332)" fill="#fc9fad"/>
    <path id="Path_17445" data-name="Path 17445" d="M314.3,217.034s21.991,2.105,36.727-6.189L338.9,162.994a13.565,13.565,0,0,0-26.114,7.02Z" transform="translate(9925 1303.332)" fill="#ff981e"/>
    <path id="Path_17446" data-name="Path 17446" d="M296.093,109.105h0a1.764,1.764,0,0,1-1.444-2.025l.658-3.926a1.759,1.759,0,1,1,3.469.581l-.658,3.926a1.764,1.764,0,0,1-2.025,1.444" transform="translate(9925 1303.332)" fill="#023766"/>
    <path id="Path_17447" data-name="Path 17447" d="M298.993,104.8l-1.53-.256a.6.6,0,1,1,.2-1.178l1.529.256a.6.6,0,1,1-.2,1.178" transform="translate(9925 1303.332)" fill="#fff"/>
    <path id="Path_17448" data-name="Path 17448" d="M295.136,99.76c-.022-.815,2.528-3.143,6.622-.822,2.49,1.411,1,2.284-1.141,1.286-3.554-1.655-5.459.351-5.481-.464" transform="translate(9925 1303.332)" fill="#023766"/>
    <path id="Path_17449" data-name="Path 17449" d="M279.552,106.333h0a1.764,1.764,0,0,1-1.444-2.025l.658-3.926a1.759,1.759,0,0,1,3.469.581l-.658,3.926a1.764,1.764,0,0,1-2.025,1.444" transform="translate(9925 1303.332)" fill="#023766"/>
    <path id="Path_17450" data-name="Path 17450" d="M282.452,102.025l-1.53-.256a.6.6,0,0,1,.2-1.178l1.529.256a.6.6,0,1,1-.2,1.178" transform="translate(9925 1303.332)" fill="#fff"/>
    <path id="Path_17451" data-name="Path 17451" d="M278.6,96.989c-.022-.815,2.528-3.143,6.622-.822,2.49,1.411,1,2.284-1.141,1.286-3.554-1.655-5.459.351-5.481-.464" transform="translate(9925 1303.332)" fill="#023766"/>
    <path id="Path_17452" data-name="Path 17452" d="M287.171,105.135s-2.86,5.427-4.967,7.16,5.179,3.222,5.179,3.222.045-.958-1.537-1.872c-3.006-1.737,1.17-3.168,1.325-8.51" transform="translate(9925 1303.332)" fill="#ea8196"/>
    <path id="Path_17453" data-name="Path 17453" d="M281.96,116.963a13.584,13.584,0,0,0,10.7.38s-1.7,3.618-5.34,3.361-5.361-3.741-5.361-3.741" transform="translate(9925 1303.332)" fill="#fff"/>
    <path id="Path_17454" data-name="Path 17454" d="M314.61,107.817s2.013-.571,2.552.428-.917,3.866-3.383,4.529.2-.8,1.219-2.049c1.61-1.985-1.711-2.238-.388-2.908" transform="translate(9925 1303.332)" fill="#fc9fad"/>
    <rect id="Rectangle_6138" data-name="Rectangle 6138" width="177.788" height="9.173" transform="translate(10106.459 1557.379)" fill="#084384"/>
    <path id="Path_17455" data-name="Path 17455" d="M181.459,263.221V321.6a7.661,7.661,0,0,0,7.661,7.661H351.586a7.661,7.661,0,0,0,7.661-7.661v-58.38Z" transform="translate(9925 1303.332)" fill="#1362c9"/>
    <path id="Path_17456" data-name="Path 17456" d="M287.89,263.221a17.537,17.537,0,1,1-17.537-17.537,17.537,17.537,0,0,1,17.537,17.537" transform="translate(9925 1303.332)" fill="#fff"/>
    <path id="Path_17457" data-name="Path 17457" d="M275.562,265.091l-1.422,1.422,4.427,4.426,1.422-1.421a.457.457,0,0,0,0-.645l-3.782-3.781a.454.454,0,0,0-.644,0m-13.682-5.256c.526,2.465,3.586,5.708,4.874,6.986s4.519,4.346,6.985,4.873c.964.2,2.988.587,4.419-.413l-4.39-4.39-.012.014c-.428.237-1.57.478-3.558-1.756l-.325-.325-1.124-1.124-.324-.324c-2.233-1.988-1.994-3.131-1.756-3.559l.014-.011-4.389-4.389c-1,1.429-.616,3.455-.414,4.418m2.177-6.249-1.422,1.422,4.426,4.425,1.422-1.421a.456.456,0,0,0,0-.644l-3.783-3.783a.456.456,0,0,0-.643,0" transform="translate(9925 1303.332)" fill="#1362c9"/>
    <text id="_02_:_15_Video_Call" data-name="02 : 15 Video Call" transform="translate(10117.514 1361.369)" fill="#1362c9" font-size="5.731" font-family="Roboto-Bold, Roboto" font-weight="700"><tspan x="0" y="0">02 : 15 Video Call</tspan></text>
    <text id="saleassist.ai" transform="translate(10117.514 1353.463)" fill="#1362c9" font-size="12.78" font-family="Roboto-Bold, Roboto" font-weight="700"><tspan x="0" y="0">saleassist.ai</tspan></text>
    <path id="Path_17458" data-name="Path 17458" d="M233.165,304.383a10.7,10.7,0,1,1-10.7-10.7,10.7,10.7,0,0,1,10.7,10.7" transform="translate(9925 1303.332)" fill="#1e8ceb"/>
    <path id="Path_17459" data-name="Path 17459" d="M281.056,304.383a10.7,10.7,0,1,1-10.7-10.7,10.7,10.7,0,0,1,10.7,10.7" transform="translate(9925 1303.332)" fill="#1e8ceb"/>
    <path id="Path_17460" data-name="Path 17460" d="M270.353,299.122a.951.951,0,0,1,.95.95v3.437a.95.95,0,1,1-1.9,0v-3.437a.951.951,0,0,1,.95-.95m0-.75a1.7,1.7,0,0,0-1.7,1.7v3.437a1.7,1.7,0,1,0,3.4,0v-3.437a1.7,1.7,0,0,0-1.7-1.7" transform="translate(9925 1303.332)" fill="#fff"/>
    <path id="Path_17461" data-name="Path 17461" d="M267,302.048v1.025a3.352,3.352,0,0,0,3.353,3.353v3.487" transform="translate(9925 1303.332)" fill="none" stroke="#fff" stroke-miterlimit="10" stroke-width="0.75"/>
    <path id="Path_17462" data-name="Path 17462" d="M273.707,302.048v1.025a3.353,3.353,0,0,1-3.354,3.353" transform="translate(9925 1303.332)" fill="none" stroke="#fff" stroke-miterlimit="10" stroke-width="0.75"/>
    <line id="Line_722" data-name="Line 722" x2="3.034" transform="translate(10193.86 1613.244)" fill="none" stroke="#fff" stroke-miterlimit="10" stroke-width="0.75"/>
    <path id="Path_17463" data-name="Path 17463" d="M226.6,301.522H218.32a1.07,1.07,0,0,0-1.07,1.07v4.291a1.07,1.07,0,0,0,1.07,1.069H226.6a1.07,1.07,0,0,0,1.07-1.069v-4.291A1.07,1.07,0,0,0,226.6,301.522Zm-4.142,4.755a1.54,1.54,0,1,1,1.54-1.54A1.54,1.54,0,0,1,222.462,306.277Z" transform="translate(9925 1303.332)" fill="none" stroke="#fff" stroke-miterlimit="10" stroke-width="0.75"/>
    <rect id="Rectangle_6140" data-name="Rectangle 6140" width="2.277" height="0.924" transform="translate(10143.321 1603.931)" fill="#fff"/>
    <path id="Path_17464" data-name="Path 17464" d="M328.947,304.383a10.7,10.7,0,1,1-10.7-10.7,10.7,10.7,0,0,1,10.7,10.7" transform="translate(9925 1303.332)" fill="#1e8ceb"/>
    <path id="Path_17465" data-name="Path 17465" d="M318.245,308.851a4.2,4.2,0,1,1,0-8.39v1.023a3.172,3.172,0,1,0,3.171,3.172,3.142,3.142,0,0,0-.956-2.269l.716-.733a4.2,4.2,0,0,1-2.931,7.2" transform="translate(9925 1303.332)" fill="#fff"/>
    <path id="Path_17466" data-name="Path 17466" d="M320.419,300.972l-2.336,1.349v-2.7Z" transform="translate(9925 1303.332)" fill="#fff"/>
    <path id="Path_17467" data-name="Path 17467" d="M341.133,28.29a3.371,3.371,0,1,1-3.371-3.371,3.371,3.371,0,0,1,3.371,3.371" transform="translate(9925 1303.332)" fill="#1362c9"/>
    <path id="Path_17468" data-name="Path 17468" d="M351.6,28.29a3.372,3.372,0,1,1-3.371-3.371A3.371,3.371,0,0,1,351.6,28.29" transform="translate(9925 1303.332)" fill="#1362c9"/>
    <path id="Path_17469" data-name="Path 17469" d="M193.236,28.29l3.595-3.595.839.84-2.755,2.755,2.755,2.756-.839.839Z" transform="translate(9925 1303.332)" fill="#1362c9"/>
    <path id="Path_17470" data-name="Path 17470" d="M218.893,254.048h-23.25l-2.416-37.538h28.082Z" transform="translate(9925 1303.332)" fill="#a4c1ed"/>
    <path id="Path_17471" data-name="Path 17471" d="M222.065,220.042H192.471a1.766,1.766,0,0,1,0-3.532h29.594a1.766,1.766,0,0,1,0,3.532" transform="translate(9925 1303.332)" fill="#c7deff"/>
    <path id="Path_17472" data-name="Path 17472" d="M206.959,235.07a7.607,7.607,0,0,1-.356-5.407c-1.568.545-2.739,2.633-2.739,5.14,0,2.763,1.423,5,3.23,5.243a6.3,6.3,0,0,0-.135-4.976" transform="translate(9925 1303.332)" fill="#6590ce"/>
    <path id="Path_17473" data-name="Path 17473" d="M207.715,229.561a6.3,6.3,0,0,0,.135,4.977,7.6,7.6,0,0,1,.357,5.406c1.567-.545,2.738-2.633,2.738-5.141,0-2.762-1.422-5-3.23-5.242" transform="translate(9925 1303.332)" fill="#6590ce"/>
    <path id="Path_17474" data-name="Path 17474" d="M196.985,213.931l5.531.807a.775.775,0,0,1,.665.768v1H196.1V214.7a.777.777,0,0,1,.889-.768" transform="translate(9925 1303.332)" fill="#c7deff"/>
    <path id="Rectangle_6141" data-name="Rectangle 6141" d="M9.25,0H85.642a9.251,9.251,0,0,1,9.251,9.251V115.458a9.251,9.251,0,0,1-9.251,9.251H9.251A9.251,9.251,0,0,1,0,115.458V9.25A9.25,9.25,0,0,1,9.25,0Z" transform="translate(10041.514 1371.741)" fill="#fff"/>
    <path id="Path_17475" data-name="Path 17475" d="M202.156,69.409a8.251,8.251,0,0,1,8.251,8.251V183.867a8.251,8.251,0,0,1-8.251,8.251H125.764a8.251,8.251,0,0,1-8.251-8.251V77.66a8.251,8.251,0,0,1,8.251-8.251Zm0-2H125.764A10.263,10.263,0,0,0,115.513,77.66V183.867a10.263,10.263,0,0,0,10.251,10.251h76.392a10.263,10.263,0,0,0,10.251-10.251V77.66a10.263,10.263,0,0,0-10.251-10.251" transform="translate(9925 1303.332)" fill="#1e8ceb"/>
    <g id="Group_11748" data-name="Group 11748" transform="translate(9925 1303.332)">
      <g id="Group_11747" data-name="Group 11747" clip-path="url(#clip-path)">
        <path id="Path_17476" data-name="Path 17476" d="M190.1,175.413c-.136-9.813,18.13-1.8,18.13-1.8s8.212,23.666,9.38,26.664,16.682,23.26,16.682,23.26l-15.441,8.444s-14.577-21.81-17.4-26.034S190.1,175.413,190.1,175.413" fill="#fbb6c1"/>
        <path id="Path_17477" data-name="Path 17477" d="M234.294,223.536s8.547,2.673,7.519,6.742-22.96,1.7-22.96,1.7Z" fill="#fbb6c1"/>
        <path id="Path_17478" data-name="Path 17478" d="M193.791,186.429l1.239-10.063s6.84-2.1,10.61-3.761c1.561.555,2.592,1.006,2.592,1.006s2.547,7.34,5.006,14.363C205.345,188.093,193.791,186.429,193.791,186.429Z" fill="#fc9fad"/>
        <path id="Path_17479" data-name="Path 17479" d="M215.346,178.848s-14.324,8.6-27.084,7.743l-7.317-36.61a10.26,10.26,0,0,1,20.112-3.717Z" fill="#084384"/>
        <path id="Path_17480" data-name="Path 17480" d="M166.207,123.757l5.522,32.962-13.846,2.32-6.316-37.694Z" fill="#fc9fad"/>
        <path id="Path_17481" data-name="Path 17481" d="M174.322,106.282s1.1,17.245-6.6,21.877-18.7-2.6-21.532-9.524c0,0-5.923-.44-6.42-5.191s4-3.536,5-2.569a16.8,16.8,0,0,0,1.567-11.663c-1.428-6.923,26.738-13.91,27.985,7.07" fill="#fbb6c1"/>
        <path id="Path_17482" data-name="Path 17482" d="M144.77,110.875a16.8,16.8,0,0,0,1.568-11.663c-1.429-6.923,26.737-13.91,27.984,7.07,0,0,.044.761.051,1.967-1.319.36-6.043,1.127-12.4-3.868-7.523-5.914-13.242-3.153-13.242-3.153s-.144,6.978-3.965,9.647" fill="#fc9fad"/>
        <path id="Path_17483" data-name="Path 17483" d="M173.31,184.894l-5.887-35.14-.028-19.166,4.982-.834-.439,5.437s10.6,1.894,16.62,3.4a4.531,4.531,0,0,1,3.242,3.063c2.288,7.39,20.9,89.495,20.9,89.495l-30.575,5.308Z" fill="#1362c9"/>
        <path id="Path_17484" data-name="Path 17484" d="M182.126,236.458l-43.7,7.322s-12.857-75.682-13.9-81.885c-1.6-9.547,2.919-11.855,11.875-17.934l11.849-5.363-1.994-4.468,11.376-1.906,9.789,17.53Z" fill="#1362c9"/>
        <path id="Path_17485" data-name="Path 17485" d="M144.628,157.514l3.108,42.6-7.829-.9,1.26,44.277s-8.252-8.746-11.079-15.069-3.773-21.719-3.129-27.92.386-16.639,3.129-21.008a107.7,107.7,0,0,0,6.808-13.252c.151-.753,7.732-8.729,7.732-8.729" fill="#0456af"/>
        <path id="Path_17486" data-name="Path 17486" d="M122.02,181.026c4.105-8.915,17.138,6.184,17.138,6.184s-2.786,24.895-3.022,28.1,5.032,28.178,5.032,28.178l-17.572.967s-3.758-25.961-4.49-30.991,2.914-32.442,2.914-32.442" fill="#fbb6c1"/>
        <path id="Path_17487" data-name="Path 17487" d="M120.6,192.556l5.454-8.547s7.076,1.053,11.194,1.176c1.17,1.174,1.907,2.025,1.907,2.025s-.864,7.721-1.671,15.118C130.313,199.035,120.6,192.556,120.6,192.556Z" fill="#fc9fad"/>
        <path id="Path_17488" data-name="Path 17488" d="M143.32,195s-16.632,1.592-27.777-4.681l9.17-36.19a10.26,10.26,0,0,1,19.75,5.31Z" fill="#084384"/>
        <path id="Path_17489" data-name="Path 17489" d="M157.089,113.373h0a1.334,1.334,0,0,0,1.091-1.531l-.5-2.97a1.33,1.33,0,1,0-2.623.439l.5,2.97a1.333,1.333,0,0,0,1.532,1.092" fill="#023766"/>
        <path id="Path_17490" data-name="Path 17490" d="M154.9,110.115l1.157-.194a.452.452,0,1,0-.149-.891l-1.157.194a.452.452,0,1,0,.149.891" fill="#fff"/>
        <path id="Path_17491" data-name="Path 17491" d="M157.813,106.306c.017-.616-1.912-2.377-5.008-.622-1.883,1.067-.758,1.728.862.973,2.689-1.252,4.129.265,4.146-.351" fill="#023766"/>
        <path id="Path_17492" data-name="Path 17492" d="M169.6,111.277h0a1.334,1.334,0,0,0,1.092-1.531l-.5-2.97a1.33,1.33,0,1,0-2.623.439l.5,2.97a1.333,1.333,0,0,0,1.531,1.092" fill="#023766"/>
        <path id="Path_17493" data-name="Path 17493" d="M167.4,108.019l1.157-.194a.452.452,0,1,0-.149-.891l-1.157.194a.452.452,0,1,0,.149.891" fill="#fff"/>
        <path id="Path_17494" data-name="Path 17494" d="M170.323,104.21c.017-.616-1.912-2.377-5.008-.622-1.883,1.067-.758,1.728.862.973,2.689-1.252,4.129.265,4.146-.351" fill="#023766"/>
        <path id="Path_17495" data-name="Path 17495" d="M163.837,110.371s2.162,4.1,3.756,5.415-3.917,2.437-3.917,2.437-.033-.724,1.163-1.416c2.273-1.314-.886-2.4-1-6.436" fill="#ea8196"/>
        <path id="Path_17496" data-name="Path 17496" d="M167.778,119.317a10.275,10.275,0,0,1-8.093.287s1.285,2.736,4.038,2.542a5.349,5.349,0,0,0,4.055-2.829" fill="#fff"/>
        <path id="Path_17497" data-name="Path 17497" d="M143.085,112.4s-1.523-.432-1.93.323.693,2.925,2.558,3.426-.151-.6-.921-1.55c-1.218-1.5,1.294-1.692.293-2.2" fill="#fc9fad"/>
        <path id="Path_17498" data-name="Path 17498" d="M141.07,110.2s-6.439-7.371-4.019-12.077c1.027-2,4.019-3.167,4.019-3.167s-1.994-6.577,7.446-10.84c0,0,13.133-6.334,19.975-4.355,6.06,1.753,11.936,12.52,4.727,21.816,0,0-3.631-5.281-7.772-5.221a5.551,5.551,0,0,1,1.433,4.142,27.5,27.5,0,0,0-19.094-2.375s.412,9.521-3.015,12.75a4.8,4.8,0,0,0-3.7-.673" fill="#084384"/>
      </g>
    </g>
    <path id="Path_17499" data-name="Path 17499" d="M121.315,45.766l3.631,3.631a12.842,12.842,0,0,1,18.155,0l3.631-3.631a17.976,17.976,0,0,0-25.417,0" transform="translate(9925 1303.332)" fill="#1e8ceb"/>
    <path id="Path_17500" data-name="Path 17500" d="M114.053,38.5l3.631,3.631a23.109,23.109,0,0,1,32.679,0l3.631-3.631a28.243,28.243,0,0,0-39.941,0" transform="translate(9925 1303.332)" fill="#1e8ceb"/>
    <path id="Path_17501" data-name="Path 17501" d="M137.657,53.03a3.633,3.633,0,1,1-3.633-3.633,3.634,3.634,0,0,1,3.633,3.633" transform="translate(9925 1303.332)" fill="#1e8ceb"/>
    <path id="Path_17502" data-name="Path 17502" d="M78.522,129.493a6.878,6.878,0,0,0,6.8-8.21,3.286,3.286,0,1,1-4.1-5.1,6.927,6.927,0,1,0-2.7,13.308m0,9.167c-2.106,0-3.855-.612-4.236-1.419l-7.871,1.237v2.943H90.631v-2.943l-7.871-1.237c-.382.807-2.131,1.419-4.238,1.419m0-3.825a12.269,12.269,0,1,0-12.27-12.27,12.27,12.27,0,0,0,12.27,12.27m0-22.167a9.9,9.9,0,1,1-9.9,9.9,9.91,9.91,0,0,1,9.9-9.9" transform="translate(9925 1303.332)" fill="#1e8ceb"/>
    <rect id="Rectangle_6144" data-name="Rectangle 6144" width="8.553" height="6.484" transform="translate(9999.286 1436.746)" fill="#1e8ceb"/>
    <path id="Path_17503" data-name="Path 17503" d="M436.7,48.592H350.121a3.654,3.654,0,0,0-3.654,3.654v57.369a3.652,3.652,0,0,0,3.652,3.651H436.7a3.652,3.652,0,0,0,3.652-3.651V52.245a3.653,3.653,0,0,0-3.653-3.653" transform="translate(9925 1303.332)" fill="#1e8ceb"/>
    <path id="Path_17504" data-name="Path 17504" d="M367.977,52.3a2.548,2.548,0,1,1-1.83,1.834,2.55,2.55,0,0,1,1.83-1.834" transform="translate(9925 1303.332)" fill="#e8efff"/>
    <path id="Path_17505" data-name="Path 17505" d="M359.875,52.3a2.548,2.548,0,1,1-1.833,1.832,2.552,2.552,0,0,1,1.833-1.832" transform="translate(9925 1303.332)" fill="#e8efff"/>
    <path id="Path_17506" data-name="Path 17506" d="M349.937,55.4a2.546,2.546,0,1,1,1.829,1.836,2.551,2.551,0,0,1-1.829-1.836" transform="translate(9925 1303.332)" fill="#e8efff"/>
    <path id="Path_17507" data-name="Path 17507" d="M434.667,109.149H352.155a1.81,1.81,0,0,1-1.81-1.81V61.784a1.811,1.811,0,0,1,1.81-1.81h82.512a1.811,1.811,0,0,1,1.81,1.81v45.555a1.81,1.81,0,0,1-1.81,1.81" transform="translate(9925 1303.332)" fill="#fff"/>
    <rect id="Rectangle_6145" data-name="Rectangle 6145" width="54.466" height="3.804" transform="translate(10297.398 1371.343)" fill="#1e8ceb"/>
    <rect id="Rectangle_6146" data-name="Rectangle 6146" width="66.906" height="3.804" transform="translate(10284.958 1379.124)" fill="#1e8ceb"/>
    <rect id="Rectangle_6147" data-name="Rectangle 6147" width="66.906" height="3.804" transform="translate(10284.958 1386.904)" fill="#1e8ceb"/>
    <rect id="Rectangle_6148" data-name="Rectangle 6148" width="66.906" height="3.804" transform="translate(10284.958 1394.685)" fill="#1e8ceb"/>
    <rect id="Rectangle_6149" data-name="Rectangle 6149" width="66.906" height="3.804" transform="translate(10284.958 1402.466)" fill="#1e8ceb"/>
  </g>
</svg>
