<svg xmlns="http://www.w3.org/2000/svg" xmlns:xlink="http://www.w3.org/1999/xlink" width="442.029" height="424.552" viewBox="0 0 442.029 424.552">
  <defs>
    <clipPath id="clip-path">
      <rect id="Rectangle_6067" data-name="Rectangle 6067" width="442.029" height="424.552" fill="none"/>
    </clipPath>
    <clipPath id="clip-path-5">
      <rect id="Rectangle_6072" data-name="Rectangle 6072" width="11.213" height="3.704" fill="none"/>
    </clipPath>
    <clipPath id="clip-path-6">
      <rect id="Rectangle_6082" data-name="Rectangle 6082" width="11.212" height="3.704" fill="none"/>
    </clipPath>
    <clipPath id="clip-path-7">
      <rect id="Rectangle_6083" data-name="Rectangle 6083" width="24.265" height="25.444" fill="none"/>
    </clipPath>
    <clipPath id="clip-path-8">
      <rect id="Rectangle_6084" data-name="Rectangle 6084" width="19.873" height="13.966" fill="none"/>
    </clipPath>
    <clipPath id="clip-path-9">
      <rect id="Rectangle_6085" data-name="Rectangle 6085" width="8.435" height="52.37" fill="none"/>
    </clipPath>
    <clipPath id="clip-path-10">
      <rect id="Rectangle_6086" data-name="Rectangle 6086" width="3.187" height="21.892" fill="none"/>
    </clipPath>
  </defs>
  <g id="leftImage02" transform="translate(-180.56 -3010)">
    <path id="Path_16899" data-name="Path 16899" d="M108.976,155.844v7.236h7.236V148.607h-7.236Z" transform="translate(176.787 3004.855)" fill="#ebebeb"/>
    <rect id="Rectangle_6050" data-name="Rectangle 6050" width="7.236" height="7.236" transform="translate(285.762 3117.28)" fill="#ebebeb"/>
    <rect id="Rectangle_6051" data-name="Rectangle 6051" width="7.236" height="7.236" transform="translate(330.48 3196.955)" fill="#ebebeb"/>
    <path id="Path_16900" data-name="Path 16900" d="M116.212,125.859V133.1h-7.236v7.236h7.236v7.237h14.473v7.236h7.236V147.57h7.237V133.1h-7.237v7.236H123.449V118.623h-7.236Z" transform="translate(176.787 3005.893)" fill="#ebebeb"/>
    <path id="Path_16901" data-name="Path 16901" d="M131.2,111.127h-7.236v7.236h14.473v-7.236Z" transform="translate(176.268 3006.153)" fill="#ebebeb"/>
    <path id="Path_16902" data-name="Path 16902" d="M165.057,171.128h3.889v-7.236H161.17v7.236Z" transform="translate(174.98 3004.326)" fill="#ebebeb"/>
    <rect id="Rectangle_6052" data-name="Rectangle 6052" width="7.236" height="7.236" transform="translate(314.709 3124.516)" fill="#ebebeb"/>
    <rect id="Rectangle_6053" data-name="Rectangle 6053" width="7.236" height="7.236" transform="translate(365.365 3153.462)" fill="#ebebeb"/>
    <rect id="Rectangle_6054" data-name="Rectangle 6054" width="7.236" height="7.236" transform="translate(372.601 3073.86)" fill="#ebebeb"/>
    <path id="Path_16903" data-name="Path 16903" d="M160.93,125.34V118.1h7.236v-7.236H160.93v-7.236h-7.236v7.236h-7.236V118.1h7.236v28.947h7.236V132.577h7.236V125.34Z" transform="translate(175.489 3006.412)" fill="#ebebeb"/>
    <path id="Path_16904" data-name="Path 16904" d="M198.67,200.821h7.236v-7.236H191.433v7.236Z" transform="translate(173.932 3003.298)" fill="#ebebeb"/>
    <rect id="Rectangle_6055" data-name="Rectangle 6055" width="7.236" height="7.236" transform="translate(358.128 3073.86)" fill="#ebebeb"/>
    <path id="Path_16905" data-name="Path 16905" d="M188.781,125.6v-7.236h-7.236v-7.236h-7.236V125.6h-7.236v7.236h14.473V125.6Z" transform="translate(174.775 3006.153)" fill="#ebebeb"/>
    <rect id="Rectangle_6056" data-name="Rectangle 6056" width="7.236" height="7.236" transform="translate(397.164 3117.28)" fill="#ebebeb"/>
    <rect id="Rectangle_6057" data-name="Rectangle 6057" width="7.236" height="7.236" transform="translate(322.154 3153.462)" fill="#ebebeb"/>
    <path id="Path_16906" data-name="Path 16906" d="M183.418,102.593V95.356h7.236V88.12h14.473V80.883h-7.236V73.647h-7.236v7.236h-7.236V88.12h-7.236v7.236h-7.236v7.236h14.473Z" transform="translate(174.71 3007.45)" fill="#ebebeb"/>
    <path id="Path_16907" data-name="Path 16907" d="M183.418,155.584v-7.236h7.236v-7.236H176.182v7.236h-7.236v7.236h14.473Z" transform="translate(174.71 3005.115)" fill="#ebebeb"/>
    <path id="Path_16908" data-name="Path 16908" d="M204.868,185.565v-7.236H190.4v-7.236h-7.236v7.236h-7.236v7.236H161.449V192.8h21.71v-7.236H190.4V192.8h7.236v-7.236Z" transform="translate(174.97 3004.077)" fill="#ebebeb"/>
    <path id="Path_16909" data-name="Path 16909" d="M175.662,73.387V66.15H161.189v7.236h-7.236v7.236h14.473V73.387Z" transform="translate(175.229 3007.71)" fill="#ebebeb"/>
    <rect id="Rectangle_6058" data-name="Rectangle 6058" width="7.236" height="7.236" transform="translate(343.656 3088.333)" fill="#ebebeb"/>
    <path id="Path_16910" data-name="Path 16910" d="M194.922,110.608h-7.236v21.709h14.473v-7.236h-7.236v-7.236h7.236v-7.236h7.236v-7.236h-7.236V96.135h-7.236v14.473Z" transform="translate(174.062 3006.672)" fill="#ebebeb"/>
    <rect id="Rectangle_6059" data-name="Rectangle 6059" width="7.236" height="7.236" transform="translate(336.419 3095.57)" fill="#ebebeb"/>
    <path id="Path_16911" data-name="Path 16911" d="M191.433,163.34v7.236h14.473V163.34H220.38V156.1h-21.71v7.236Z" transform="translate(173.932 3004.595)" fill="#ebebeb"/>
    <rect id="Rectangle_6060" data-name="Rectangle 6060" width="7.236" height="7.236" transform="translate(397.165 3138.989)" fill="#ebebeb"/>
    <rect id="Rectangle_6061" data-name="Rectangle 6061" width="7.236" height="7.236" transform="translate(372.601 3146.226)" fill="#ebebeb"/>
    <path id="Path_16912" data-name="Path 16912" d="M224.647,118.623H210.174v7.236h7.236V133.1h7.236V118.623Z" transform="translate(173.283 3005.893)" fill="#ebebeb"/>
    <rect id="Rectangle_6062" data-name="Rectangle 6062" width="7.236" height="7.236" transform="translate(387.074 3146.226)" fill="#ebebeb"/>
    <path id="Path_16913" data-name="Path 16913" d="M138.441,185.185h21.718V156.1h-29.09v7.245h-7.1v7.236h7.1v7.236h-7.1v7.236h7.1v.135h.135v7.1h-7.236v14.473H131.2v-7.236h7.236V185.185Zm16.147-5.427H136.5V161.666h18.091Z" transform="translate(176.268 3004.596)" fill="#ebebeb"/>
    <path id="Path_16914" data-name="Path 16914" d="M235.891,155.844h7.236v-7.236H221.418v7.236h14.473Z" transform="translate(172.894 3004.855)" fill="#ebebeb"/>
    <path id="Path_16915" data-name="Path 16915" d="M236.41,125.6h7.236V111.127H236.41V125.6Z" transform="translate(172.375 3006.153)" fill="#ebebeb"/>
    <path id="Path_16916" data-name="Path 16916" d="M176.461,163.892h-7.236v14.473h7.236V163.892Z" transform="translate(174.701 3004.326)" fill="#ebebeb"/>
    <rect id="Rectangle_6063" data-name="Rectangle 6063" width="7.236" height="7.236" transform="translate(416.021 3160.698)" fill="#ebebeb"/>
    <path id="Path_16917" data-name="Path 16917" d="M251.143,140.852v-7.236h-7.236v14.473h7.236Z" transform="translate(172.115 3005.374)" fill="#ebebeb"/>
    <path id="Path_16918" data-name="Path 16918" d="M116.212,193.584h-7.236v14.473h7.236V193.584Z" transform="translate(176.787 3003.298)" fill="#ebebeb"/>
    <path id="Path_16919" data-name="Path 16919" d="M250.1,66.15H213.922v36.183H250.1Zm-30.755,5.427h25.328V96.906H219.349Z" transform="translate(173.153 3007.71)" fill="#ebebeb"/>
    <rect id="Rectangle_6064" data-name="Rectangle 6064" width="14.473" height="14.473" transform="translate(397.93 3084.714)" fill="#ebebeb"/>
    <path id="Path_16920" data-name="Path 16920" d="M250.1,171.1H213.922v36.183H250.1Zm-30.755,5.427h25.328v25.329H219.349Z" transform="translate(173.153 3004.076)" fill="#ebebeb"/>
    <rect id="Rectangle_6065" data-name="Rectangle 6065" width="14.473" height="14.473" transform="translate(397.93 3186.027)" fill="#ebebeb"/>
    <path id="Path_16921" data-name="Path 16921" d="M108.882,102.333h36.183V66.15H108.882Zm30.756-5.428H114.31V71.576h25.328Z" transform="translate(176.79 3007.71)" fill="#ebebeb"/>
    <rect id="Rectangle_6066" data-name="Rectangle 6066" width="14.473" height="14.473" transform="translate(296.527 3084.714)" fill="#ebebeb"/>
    <g id="Group_11681" data-name="Group 11681" transform="translate(180.56 3010)">
      <g id="Group_11680" data-name="Group 11680" clip-path="url(#clip-path)">
        <path id="Path_16922" data-name="Path 16922" d="M48.826,212.837a3.426,3.426,0,1,1-3.41-3.442,3.425,3.425,0,0,1,3.41,3.442" transform="translate(-1.453 -7.25)" fill="#ebebeb"/>
        <path id="Path_16923" data-name="Path 16923" d="M38.315,208.153a9.492,9.492,0,0,1,13.734-.181,1.927,1.927,0,0,0,2.737-2.712,13.388,13.388,0,0,0-19.183.156c-1.71,1.795,1,4.537,2.712,2.737" transform="translate(-1.214 -6.969)" fill="#ebebeb"/>
        <path id="Path_16924" data-name="Path 16924" d="M26.26,191.48c5.209-4.5,11.427-7.337,18.39-7.354a27.285,27.285,0,0,1,18.762,7.18c1.805,1.7,4.549-1.01,2.737-2.712a31.286,31.286,0,0,0-21.482-8.322c-8.013.02-15.133,3.3-21.12,8.471-1.88,1.625.843,4.353,2.712,2.737" transform="translate(-0.793 -6.241)" fill="#ebebeb"/>
        <path id="Path_16925" data-name="Path 16925" d="M31.02,200.672a18.845,18.845,0,0,1,27.695-.4c1.732,1.78,4.469-.933,2.737-2.712a22.691,22.691,0,0,0-33.143.371c-1.682,1.817,1.023,4.561,2.712,2.737" transform="translate(-0.962 -6.597)" fill="#ebebeb"/>
        <path id="Path_16926" data-name="Path 16926" d="M199.828,18.241c.583-4.235-5.395-7.719-9.885-8.081-2.142-.173-4.366.154-6.4-.552C179.151,8.075,177.395,2.4,173.1.586,169.9-.767,166.205.437,163.1,2s-6.181,3.534-9.656,3.756c-3.021.193-6.3-.927-8.945.549-1.97,1.1-3,3.369-4.817,4.708-1.776,1.31-4.093,1.588-6.3,1.708s-4.486.142-6.492,1.061-3.667,3.041-3.25,5.208Z" transform="translate(-4.278 0)" fill="#ebebeb"/>
        <path id="Path_16927" data-name="Path 16927" d="M80.655,92.424c.522-3.8-4.836-6.92-8.862-7.244-1.919-.154-3.914.139-5.732-.5C62.118,83.31,60.545,78.219,56.7,76.6c-2.875-1.213-6.184-.133-8.971,1.269s-5.541,3.168-8.656,3.367c-2.708.174-5.649-.831-8.019.492-1.766.986-2.691,3.021-4.318,4.221a10.294,10.294,0,0,1-5.645,1.531,15.9,15.9,0,0,0-5.82.951c-1.8.823-3.287,2.726-2.914,4.669Z" transform="translate(-0.426 -2.634)" fill="#f5f5f5"/>
        <path id="Path_16928" data-name="Path 16928" d="M455.217,89.6c.56-4.065-5.177-7.409-9.489-7.757-2.055-.166-4.192.149-6.139-.53-4.22-1.471-5.905-6.923-10.023-8.659-3.079-1.3-6.622-.143-9.606,1.359s-5.934,3.392-9.268,3.606c-2.9.185-6.05-.89-8.587.527-1.89,1.055-2.881,3.234-4.624,4.52-1.7,1.257-3.928,1.523-6.044,1.638a17.017,17.017,0,0,0-6.231,1.018c-1.926.882-3.52,2.918-3.12,5Z" transform="translate(-13.226 -2.496)" fill="#f5f5f5"/>
      </g>
    </g>
    <g id="Group_11683" data-name="Group 11683" transform="translate(180.56 3010)">
      <g id="Group_11682" data-name="Group 11682" clip-path="url(#clip-path)">
        <path id="Path_16929" data-name="Path 16929" d="M433.383,439.509c0,.139-97.023.251-216.681.251C97,439.76,0,439.648,0,439.509s97-.251,216.7-.251c119.658,0,216.681.112,216.681.251" transform="translate(0 -15.208)" fill="#263238"/>
      </g>
    </g>
    <g id="Group_11685" data-name="Group 11685" transform="translate(180.56 3010)">
      <g id="Group_11684" data-name="Group 11684" clip-path="url(#clip-path)">
        <path id="Path_16930" data-name="Path 16930" d="M394.975,395.526a7.854,7.854,0,0,1,4.07,4.611,13.862,13.862,0,0,1,.541,6.244c-.46,4.053-2.762,8.144-5.242,11.383-3.413-2.979-4.2-8.175-4.43-10.835-.368-4.205,1.52-12.029,5.061-11.4" transform="translate(-13.498 -13.692)" fill="#ff725e"/>
        <path id="Path_16931" data-name="Path 16931" d="M398.608,425.187a6.7,6.7,0,0,1,2.165-6.37,8.891,8.891,0,0,1,6.563-2.049,3.744,3.744,0,0,1,2.881,1.293,2.867,2.867,0,0,1,.043,2.9,5.807,5.807,0,0,1-2.149,2.118c-2.957,1.855-6.16,3.108-9.5,2.1" transform="translate(-13.795 -14.428)" fill="#ff725e"/>
        <path id="Path_16932" data-name="Path 16932" d="M394.08,437.757a4.738,4.738,0,0,1,.122-.832c.107-.585.246-1.342.412-2.25a23.529,23.529,0,0,1,2.324-7.19A14.389,14.389,0,0,1,402.1,422a9.768,9.768,0,0,1,2.1-.931,6.094,6.094,0,0,1,.606-.154.634.634,0,0,1,.216-.03,15.412,15.412,0,0,0-2.818,1.294,14.862,14.862,0,0,0-5.009,5.448,25.329,25.329,0,0,0-2.376,7.089c-.208.942-.375,1.707-.506,2.232a4.377,4.377,0,0,1-.234.808" transform="translate(-13.643 -14.572)" fill="#263238"/>
        <path id="Path_16933" data-name="Path 16933" d="M394.207,401.831a1.752,1.752,0,0,1,.042.363c.016.27.037.617.062,1.045.049.907.1,2.221.154,3.845.105,3.247.187,7.736.167,12.693s-.144,9.447-.277,12.694c-.067,1.624-.131,2.937-.187,3.843-.029.428-.053.774-.071,1.044a1.743,1.743,0,0,1-.044.363,1.613,1.613,0,0,1-.014-.365c0-.27.009-.617.015-1.046.023-.945.055-2.249.094-3.845.079-3.247.168-7.732.19-12.688s-.029-9.439-.08-12.687c-.025-1.6-.045-2.9-.061-3.846,0-.429,0-.776-.006-1.046a1.623,1.623,0,0,1,.017-.365" transform="translate(-13.642 -13.912)" fill="#263238"/>
        <path id="Path_16934" data-name="Path 16934" d="M392.039,427.614a15.675,15.675,0,0,0-8.559-11.481c-1.14-.546-2.629-.9-3.566-.055s-.729,2.375-.269,3.555a13.392,13.392,0,0,0,12.313,8.315" transform="translate(-13.13 -14.388)" fill="#ff725e"/>
        <path id="Path_16935" data-name="Path 16935" d="M384.2,420.135a4.033,4.033,0,0,1,.724.316,7.616,7.616,0,0,1,.819.436c.306.191.677.378,1.042.654a13.536,13.536,0,0,1,1.191.9,15.281,15.281,0,0,1,1.268,1.153,17.416,17.416,0,0,1,2.411,3.1,17.092,17.092,0,0,1,1.587,3.59,14.608,14.608,0,0,1,.4,1.667,12.765,12.765,0,0,1,.2,1.478,11.691,11.691,0,0,1,.057,1.229,6.956,6.956,0,0,1-.028.927,3.864,3.864,0,0,1-.088.785c-.067,0,.05-1.127-.149-2.919a13.713,13.713,0,0,0-.237-1.452,15.594,15.594,0,0,0-.421-1.633,17.762,17.762,0,0,0-1.581-3.519,18.071,18.071,0,0,0-2.352-3.058,15.994,15.994,0,0,0-1.231-1.156c-.391-.357-.795-.643-1.155-.913-1.466-1.051-2.494-1.52-2.464-1.576" transform="translate(-13.302 -14.546)" fill="#263238"/>
        <path id="Path_16936" data-name="Path 16936" d="M126.292,438.881a21.754,21.754,0,0,1-.66-2.748,59.687,59.687,0,0,0-4.456-12.8,21.687,21.687,0,0,1-1.188-2.565,12.475,12.475,0,0,1,1.505,2.4,43.677,43.677,0,0,1,4.488,12.9,12.457,12.457,0,0,1,.312,2.819" transform="translate(-4.154 -14.567)" fill="#263238"/>
        <path id="Path_16937" data-name="Path 16937" d="M135.26,396.256a10.472,10.472,0,0,1-.238,1.636c-.191,1.046-.454,2.561-.76,4.435-.614,3.748-1.327,8.947-1.772,14.723s-.525,11.027-.488,14.824c.016,1.9.046,3.436.075,4.5a10.337,10.337,0,0,1-.013,1.654,10.281,10.281,0,0,1-.182-1.644c-.09-1.06-.173-2.6-.236-4.5a139.357,139.357,0,0,1,2.266-29.615c.351-1.871.668-3.378.918-4.413a10.414,10.414,0,0,1,.431-1.6" transform="translate(-4.555 -13.719)" fill="#263238"/>
        <path id="Path_16938" data-name="Path 16938" d="M149.352,421.165a27.894,27.894,0,0,1-1.6,2.346,36.624,36.624,0,0,0-5.444,12.42,28.283,28.283,0,0,1-.638,2.769,11.239,11.239,0,0,1,.29-2.841,30.164,30.164,0,0,1,5.5-12.554,11.232,11.232,0,0,1,1.893-2.139" transform="translate(-4.904 -14.581)" fill="#263238"/>
        <path id="Path_16939" data-name="Path 16939" d="M323.97,424.423a9.575,9.575,0,0,1,1.272,1.924c.717,1.229,1.645,2.965,2.564,4.932s1.654,3.795,2.134,5.134a9.611,9.611,0,0,1,.658,2.211,11.562,11.562,0,0,1-.989-2.079c-.564-1.3-1.347-3.094-2.26-5.052s-1.787-3.709-2.421-4.977a11.637,11.637,0,0,1-.96-2.093" transform="translate(-11.216 -14.694)" fill="#263238"/>
        <path id="Path_16940" data-name="Path 16940" d="M342.212,406.2a6.155,6.155,0,0,1-.244,1.253c-.208.894-.47,2.026-.783,3.376-.643,2.855-1.425,6.82-2.013,11.243s-.858,8.458-.98,11.381c-.048,1.385-.089,2.547-.122,3.464a6.254,6.254,0,0,1-.09,1.273,6.213,6.213,0,0,1-.105-1.272c-.04-.82-.055-2.007-.039-3.474a97.951,97.951,0,0,1,3-22.7c.366-1.422.689-2.564.94-3.346a6.188,6.188,0,0,1,.432-1.2" transform="translate(-11.696 -14.063)" fill="#263238"/>
        <path id="Path_16941" data-name="Path 16941" d="M209.267,414.339a4.628,4.628,0,0,1,.874.677,27.737,27.737,0,0,1,2.17,2.085,38.4,38.4,0,0,1,9.379,17.3,27.858,27.858,0,0,1,.563,2.956,4.611,4.611,0,0,1,.09,1.1c-.089.014-.33-1.537-1-3.969a42.847,42.847,0,0,0-9.3-17.153c-1.674-1.885-2.841-2.935-2.781-3" transform="translate(-7.245 -14.345)" fill="#263238"/>
        <path id="Path_16942" data-name="Path 16942" d="M226.577,403.7a7.214,7.214,0,0,1,.042,1.371c0,.976-.007,2.228-.012,3.728.009,3.147.129,7.493.543,12.275s1.053,9.085,1.589,12.185c.265,1.477.485,2.71.656,3.67a7.239,7.239,0,0,1,.2,1.357,7.093,7.093,0,0,1-.388-1.316c-.222-.854-.5-2.1-.815-3.646a112.87,112.87,0,0,1-2.139-24.528c.041-1.577.1-2.853.172-3.733a7.157,7.157,0,0,1,.154-1.363" transform="translate(-7.832 -13.977)" fill="#263238"/>
        <path id="Path_16943" data-name="Path 16943" d="M241.744,424.9c.141.075-1.52,2.972-2.661,6.888-1.168,3.909-1.345,7.243-1.5,7.23a7.551,7.551,0,0,1,.02-2.187,27.552,27.552,0,0,1,2.974-10.082,7.517,7.517,0,0,1,1.17-1.849" transform="translate(-8.223 -14.711)" fill="#263238"/>
      </g>
    </g>
    <rect id="Rectangle_6070" data-name="Rectangle 6070" width="11.213" height="88.976" transform="translate(205.444 3342.455)" fill="#455a64"/>
    <g id="Group_11705" data-name="Group 11705" transform="translate(180.56 3010)">
      <g id="Group_11704" data-name="Group 11704" clip-path="url(#clip-path)">
        <path id="Path_16944" data-name="Path 16944" d="M36.98,433.345s-.012-.163-.017-.465c0-.32-.01-.764-.016-1.335-.008-1.187-.019-2.906-.035-5.115-.017-4.452-.042-10.88-.073-18.865-.027-15.973-.066-38.178-.108-63.2l.25.25H25.767l.251-.251c-.06,38.974-.112,72.726-.137,88.976l-.114-.114,8.312.065,2.156.027c.487.008.745.022.745.022s-.23.014-.7.022l-2.13.027-8.379.065h-.114v-.115c-.025-16.25-.077-50-.137-88.976l.251-.251H37.23v.25c-.043,25.088-.081,47.357-.108,63.375-.031,7.961-.056,14.369-.073,18.808-.015,2.185-.027,3.884-.035,5.059-.007.557-.013.99-.016,1.3-.006.292-.017.432-.017.432" transform="translate(-0.883 -11.914)" fill="#263238"/>
        <g id="Group_11688" data-name="Group 11688" transform="translate(24.884 334.617)" opacity="0.3">
          <g id="Group_11687" data-name="Group 11687">
            <g id="Group_11686" data-name="Group 11686" clip-path="url(#clip-path-5)">
              <rect id="Rectangle_6071" data-name="Rectangle 6071" width="11.213" height="3.704" transform="translate(0 0)"/>
            </g>
          </g>
        </g>
        <rect id="Rectangle_6073" data-name="Rectangle 6073" width="11.213" height="88.976" transform="translate(263.334 332.455)" fill="#455a64"/>
        <path id="Path_16945" data-name="Path 16945" d="M283.982,433.345s-.012-.163-.017-.465c0-.32-.01-.764-.016-1.335-.008-1.187-.019-2.906-.035-5.115-.017-4.452-.042-10.88-.073-18.865-.027-15.973-.066-38.178-.108-63.2l.25.25H272.769l.252-.251c-.061,38.974-.113,72.726-.138,88.976l-.114-.114,8.313.065,2.155.027c.487.008.745.022.745.022s-.23.014-.7.022l-2.13.027-8.379.065h-.114v-.115c-.025-16.25-.077-50-.137-88.976l.251-.251h11.463v.25c-.042,25.088-.081,47.357-.108,63.375-.031,7.961-.056,14.369-.073,18.808-.015,2.185-.027,3.884-.035,5.059-.007.557-.013.99-.016,1.3-.006.292-.017.432-.017.432" transform="translate(-9.435 -11.914)" fill="#263238"/>
        <rect id="Rectangle_6074" data-name="Rectangle 6074" width="11.213" height="74.169" transform="translate(245.77 254.511)" fill="#455a64"/>
        <path id="Path_16946" data-name="Path 16946" d="M265.787,337.8a3.45,3.45,0,0,1-.016-.389c0-.272-.01-.64-.017-1.111-.008-1-.019-2.423-.034-4.255-.017-3.71-.042-9.055-.072-15.7-.028-13.3-.066-31.8-.109-52.713l.249.249-11.209,0c.494-.5.137-.125.248-.232v5.925q0,2.948,0,5.84,0,5.779-.007,11.291c-.01,7.337-.018,14.268-.026,20.648-.04,12.739-.071,23.274-.094,30.445l-.123-.123,8.294.07,2.166.029c.49.009.753.024.753.024s-.232.016-.709.024l-2.138.029-8.366.069h-.123V337.8c-.022-7.171-.054-17.706-.094-30.445-.008-6.38-.016-13.312-.026-20.648q0-5.5-.007-11.291,0-2.89,0-5.84v-5.925c.114-.119-.255.231.255-.271l11.209,0h.25v.249c-.043,20.979-.081,39.544-.109,52.891-.031,6.621-.055,11.947-.072,15.643-.014,1.809-.026,3.218-.034,4.2-.008.458-.013.816-.017,1.079a2.529,2.529,0,0,1-.016.356" transform="translate(-8.804 -9.119)" fill="#263238"/>
        <rect id="Rectangle_6075" data-name="Rectangle 6075" width="11.213" height="74.169" transform="translate(46.343 254.511)" fill="#455a64"/>
        <path id="Path_16947" data-name="Path 16947" d="M59.208,337.8a3.459,3.459,0,0,1-.016-.389c0-.272-.01-.64-.017-1.111-.008-1-.019-2.423-.034-4.255-.017-3.71-.042-9.055-.072-15.7-.028-13.3-.066-31.8-.109-52.713l.249.249-11.209,0c.494-.5.137-.125.247-.232v5.925q0,2.948,0,5.84,0,5.779-.007,11.291c-.01,7.337-.018,14.268-.026,20.648-.04,12.739-.071,23.274-.094,30.445L48,337.676l8.294.07,2.166.029c.49.009.753.024.753.024s-.232.016-.709.024l-2.138.029L48,337.922h-.123V337.8c-.022-7.171-.054-17.706-.094-30.445-.008-6.38-.016-13.312-.026-20.648q0-5.5-.007-11.291,0-2.89,0-5.84v-5.925c.114-.119-.256.231.255-.271l11.209,0h.25v.249c-.043,20.979-.081,39.544-.109,52.891-.031,6.621-.055,11.947-.072,15.643-.014,1.809-.026,3.218-.034,4.2-.008.458-.013.816-.017,1.079a2.513,2.513,0,0,1-.016.356" transform="translate(-1.652 -9.119)" fill="#263238"/>
        <rect id="Rectangle_6076" data-name="Rectangle 6076" width="254.388" height="11.872" transform="translate(24.224 246.05)" fill="#455a64"/>
        <path id="Path_16948" data-name="Path 16948" d="M279.472,266.737s-.009-.242-.014-.723-.009-1.21-.016-2.183c-.009-1.956-.022-4.915-.041-8.966l.07.07L25.1,255.116h-.013l.251-.251v11.872l-.251-.251,180.239.1,54.264.075,14.732.036,3.836.018c.866.006,1.318.017,1.318.017s-.429.012-1.283.017l-3.8.018-14.673.036-54.205.075-180.425.1h-.251V254.613H25.1l254.375.181h.071v.071c-.018,4.071-.032,7.042-.041,9.007-.008.966-.013,1.683-.016,2.166s-.014.7-.014.7" transform="translate(-0.86 -8.815)" fill="#263238"/>
        <rect id="Rectangle_6077" data-name="Rectangle 6077" width="254.388" height="11.872" transform="translate(24.884 263.858)" fill="#455a64"/>
        <path id="Path_16949" data-name="Path 16949" d="M280.155,285.184s-.009-.242-.013-.723-.009-1.21-.016-2.183c-.009-1.956-.022-4.915-.041-8.966l.07.07-254.375.181h-.013l.251-.251v11.872l-.251-.251,180.239.1,54.264.075,14.732.036,3.835.018c.866.006,1.318.017,1.318.017s-.429.012-1.282.017l-3.8.018-14.673.036-54.205.075-180.425.1h-.251V273.06h.264l254.375.181h.071v.071c-.018,4.071-.032,7.042-.041,9.007-.008.966-.013,1.683-.016,2.166s-.014.7-.014.7" transform="translate(-0.883 -9.454)" fill="#263238"/>
        <rect id="Rectangle_6078" data-name="Rectangle 6078" width="254.388" height="11.872" transform="translate(24.884 282.327)" fill="#455a64"/>
        <path id="Path_16950" data-name="Path 16950" d="M280.155,304.315s-.009-.242-.013-.723-.009-1.21-.016-2.183c-.009-1.956-.022-4.915-.041-8.966l.07.07-254.375.181h-.013l.251-.251v11.872l-.251-.251,180.239.1,54.264.075L275,304.28l3.835.018c.866.006,1.318.017,1.318.017s-.429.012-1.282.017l-3.8.018-14.673.036-54.205.075-180.425.1h-.251V292.191h.264l254.375.181h.071v.071c-.018,4.071-.032,7.042-.041,9.007-.008.966-.013,1.683-.016,2.166s-.014.7-.014.7" transform="translate(-0.883 -10.116)" fill="#263238"/>
        <rect id="Rectangle_6079" data-name="Rectangle 6079" width="254.388" height="11.872" transform="translate(24.884 300.797)" fill="#455a64"/>
        <path id="Path_16951" data-name="Path 16951" d="M280.155,323.447s-.009-.242-.013-.723-.009-1.21-.016-2.183c-.009-1.956-.022-4.915-.041-8.966l.07.07-254.375.181h-.013l.251-.251v11.872l-.251-.251,180.239.1,54.264.075,14.732.036,3.835.018c.866.006,1.318.017,1.318.017s-.429.012-1.282.017l-3.8.018-14.673.036-54.205.075-180.425.1h-.251V311.323h.264l254.375.181h.071v.071c-.018,4.071-.032,7.042-.041,9.007-.008.966-.013,1.683-.016,2.166s-.014.7-.014.7" transform="translate(-0.883 -10.778)" fill="#263238"/>
        <rect id="Rectangle_6080" data-name="Rectangle 6080" width="270.063" height="11.872" transform="translate(13.834 322.744)" fill="#455a64"/>
        <path id="Path_16952" data-name="Path 16952" d="M284.384,346.183s-.009-.241-.014-.721-.009-1.207-.015-2.179c-.009-1.954-.022-4.913-.04-8.972l.069.069-270.049.182h-.014l.251-.251v11.872l-.251-.251,191.325.1,57.622.075,15.644.036,4.073.018c.919.006,1.4.017,1.4.017s-.456.012-1.363.017l-4.039.018-15.586.036-57.563.075-191.512.1H14.07V334.059h.265l270.049.182h.069v.07c-.018,4.078-.031,7.05-.04,9.012-.007.965-.013,1.681-.016,2.163s-.013.7-.013.7" transform="translate(-0.487 -11.566)" fill="#263238"/>
        <g id="Group_11691" data-name="Group 11691" transform="translate(263.335 334.617)" opacity="0.3">
          <g id="Group_11690" data-name="Group 11690">
            <g id="Group_11689" data-name="Group 11689" clip-path="url(#clip-path-6)">
              <rect id="Rectangle_6081" data-name="Rectangle 6081" width="11.213" height="3.704" transform="translate(-0.001 0)"/>
            </g>
          </g>
        </g>
        <path id="Path_16953" data-name="Path 16953" d="M141.111,191.188l-2.422,15.632-6.234,14.23-9.241-5.9-3.284-8.306-2.755-6.964s-9.76,2.348-13.648-6.777c-1.877-4.407-5-13.793-7.735-22.323A18.481,18.481,0,0,1,106.36,148.05l.884-.364c9.772-3.369,18.092,3.048,21.189,12.909Z" transform="translate(-3.286 -5.082)" fill="#a2685f"/>
        <path id="Path_16954" data-name="Path 16954" d="M117.959,201.484a23.061,23.061,0,0,0,10.558-8.318s-.11,7.763-9.6,10.7Z" transform="translate(-4.084 -6.688)" fill="#7a4a45"/>
        <path id="Path_16955" data-name="Path 16955" d="M102,178.825a1.416,1.416,0,0,0,1.806.8,1.356,1.356,0,0,0,.865-1.737,1.418,1.418,0,0,0-1.806-.8,1.356,1.356,0,0,0-.865,1.738" transform="translate(-3.528 -6.128)" fill="#263238"/>
        <path id="Path_16956" data-name="Path 16956" d="M99.428,174.906c.233.1.922-1.039,2.333-1.615,1.4-.6,2.734-.3,2.816-.532.043-.107-.249-.348-.834-.49a3.89,3.89,0,0,0-2.341.215,3.726,3.726,0,0,0-1.77,1.5c-.3.511-.317.88-.2.924" transform="translate(-3.44 -5.961)" fill="#263238"/>
        <path id="Path_16957" data-name="Path 16957" d="M114.73,173.147a1.416,1.416,0,0,0,1.807.8,1.354,1.354,0,0,0,.864-1.736,1.417,1.417,0,0,0-1.806-.8,1.356,1.356,0,0,0-.865,1.738" transform="translate(-3.969 -5.932)" fill="#263238"/>
        <path id="Path_16958" data-name="Path 16958" d="M113.807,168.522c.22.128,1.031-.933,2.5-1.352,1.457-.44,2.75,0,2.857-.224.055-.1-.208-.373-.776-.577a3.889,3.889,0,0,0-2.35-.041,3.745,3.745,0,0,0-1.923,1.3c-.349.475-.408.841-.3.9" transform="translate(-3.939 -5.753)" fill="#263238"/>
        <path id="Path_16959" data-name="Path 16959" d="M113.241,182.388a10.087,10.087,0,0,0-2.459.529c-.376.111-.745.18-.907-.042a1.979,1.979,0,0,1-.2-1.165q-.03-1.516-.064-3.179c-.127-4.51-.377-8.158-.559-8.152s-.226,3.667-.1,8.178q.061,1.662.115,3.176a2.247,2.247,0,0,0,.395,1.49.977.977,0,0,0,.808.283,2.615,2.615,0,0,0,.646-.166,9.939,9.939,0,0,0,2.322-.952" transform="translate(-3.77 -5.899)" fill="#263238"/>
        <path id="Path_16960" data-name="Path 16960" d="M111.015,162.3c.3.326,1.63-.434,3.364-.916,1.726-.515,3.259-.58,3.337-1.014.03-.206-.351-.47-1.043-.62a6.064,6.064,0,0,0-5.106,1.471c-.506.494-.688.921-.553,1.078" transform="translate(-3.842 -5.527)" fill="#263238"/>
        <path id="Path_16961" data-name="Path 16961" d="M97.341,169.16c.379.218,1.213-.514,2.375-1.01,1.144-.537,2.244-.672,2.334-1.1.033-.2-.254-.461-.811-.586a3.739,3.739,0,0,0-3.795,1.7c-.277.5-.277.884-.1,1" transform="translate(-3.366 -5.761)" fill="#263238"/>
        <path id="Path_16962" data-name="Path 16962" d="M131.755,168.389c.128-.132,5.535-4.457,7.914,1.9s-4.488,7.431-4.568,7.254-3.346-9.15-3.346-9.15" transform="translate(-4.562 -5.776)" fill="#a2685f"/>
        <path id="Path_16963" data-name="Path 16963" d="M136.252,174.477c.02-.031.14.036.359.051a1.179,1.179,0,0,0,.833-.293,2.921,2.921,0,0,0,.347-2.931,3.9,3.9,0,0,0-.9-1.469,1.369,1.369,0,0,0-1.151-.538.6.6,0,0,0-.54.548c-.018.209.07.321.04.345-.012.023-.177-.055-.223-.337a.752.752,0,0,1,.1-.491.893.893,0,0,1,.551-.391,1.661,1.661,0,0,1,1.525.552,4.01,4.01,0,0,1,1.046,1.627,3.067,3.067,0,0,1-.586,3.348,1.269,1.269,0,0,1-1.075.211c-.256-.084-.342-.213-.324-.233" transform="translate(-4.674 -5.849)" fill="#7a4a45"/>
        <path id="Path_16964" data-name="Path 16964" d="M90.206,160.239a3.453,3.453,0,0,1,1.353-3.55,3.085,3.085,0,0,1,3.1-5.159,3.172,3.172,0,0,1,2.916-4.264,2.673,2.673,0,0,1,4.074-3.254,4.61,4.61,0,0,1,6.417-3.273,5.888,5.888,0,0,1,7.813.2,5.6,5.6,0,0,1,6.018,1.68,4.091,4.091,0,0,1,5.237,4.767,3.029,3.029,0,0,1,2.4,4.184,2.976,2.976,0,0,1,1.975,5c.97-.265,1.841.8,1.932,1.8a29.533,29.533,0,0,1-.3,3c-.011.828.223,1.642.263,2.469a5.369,5.369,0,0,1-1.74,4.171l.241.122c.5.736-.4,1.749-1.284,1.742a4.4,4.4,0,0,1-2.36-1.125,9.7,9.7,0,0,1-2.334-1.937,2.351,2.351,0,0,1-.153-2.82,3.533,3.533,0,0,1-3.052-1.767,10.433,10.433,0,0,1-1.2-3.477q-.579-2.669-1.16-5.337a6.775,6.775,0,0,1-6.874-1.325,3.878,3.878,0,0,1-5.73.868,5.055,5.055,0,0,1-4.494,5.228c.784,1.2-1.049,3.36-2.185,4.227a4.989,4.989,0,0,1-3.107.626s-1.66,2.2-3.059,2.217c-1.374.015-3.585-.842-3.321-2.4a6.3,6.3,0,0,1-1.381-2.616" transform="translate(-3.121 -4.825)" fill="#263238"/>
        <path id="Path_16965" data-name="Path 16965" d="M130.919,151.852a2.478,2.478,0,0,1-.288,1.066,1.3,1.3,0,0,1-.95.607,1.369,1.369,0,0,1-1.256-.566l-.23-.346-.184.377a1.763,1.763,0,0,1-3.271-.282l-.108-.387-.282.282a1.776,1.776,0,0,1-2.322.154c-.52-.4-.637-.814-.7-.787-.038,0-.026.475.514,1a2,2,0,0,0,1.215.535,2.159,2.159,0,0,0,1.618-.571l-.39-.105a2.217,2.217,0,0,0,4.155.362l-.414.032a1.765,1.765,0,0,0,1.708.7,1.583,1.583,0,0,0,1.15-.862c.352-.761.057-1.246.032-1.211" transform="translate(-4.2 -5.257)" fill="#455a64"/>
        <path id="Path_16966" data-name="Path 16966" d="M134.367,157.6c-.047-.024-.152.268-.562.54a1.624,1.624,0,0,1-1.852-.02l-.213-.167-.1.256a1.815,1.815,0,0,1-1.413,1.106,1.76,1.76,0,0,1-1.776-.981l-.188-.4-.255.371a1.2,1.2,0,0,1-.233.249,1.244,1.244,0,0,1-1.441.1,1.3,1.3,0,0,1-.566-1.227l.073-.485-.415.251a2.125,2.125,0,0,1-2.691-.423,4.755,4.755,0,0,1-.595-1.035c-.032-.011-.1.513.382,1.206a2.329,2.329,0,0,0,1.214.861,2.5,2.5,0,0,0,1.921-.215l-.342-.235a1.756,1.756,0,0,0,.739,1.714,1.733,1.733,0,0,0,2.039-.113,1.691,1.691,0,0,0,.337-.365l-.443-.034a2.171,2.171,0,0,0,4.027-.207l-.311.089a1.737,1.737,0,0,0,1.318.3,1.863,1.863,0,0,0,.915-.413c.427-.375.454-.72.428-.719" transform="translate(-4.228 -5.392)" fill="#455a64"/>
        <path id="Path_16967" data-name="Path 16967" d="M98.611,146.855a2.539,2.539,0,0,1,.539-.7,1.433,1.433,0,0,1,.937-.325,1.462,1.462,0,0,1,1.135.593l.232.323.056-.4a2.477,2.477,0,0,1,1.485-1.881,2.4,2.4,0,0,1,2.719.721l.29.364.122-.451a3.012,3.012,0,0,1,1.738-1.935,2.95,2.95,0,0,1,3.551,1.18l.147.237.223-.164a2.9,2.9,0,0,1,3.565.166,2.955,2.955,0,0,1,.765,3.112l-.135.357.371-.081a3.194,3.194,0,0,1,2.375.425,3.144,3.144,0,0,1,1.209,1.446,4.807,4.807,0,0,1,.3,1.655.948.948,0,0,0,.1-.446,3.146,3.146,0,0,0-.178-1.293,3.292,3.292,0,0,0-1.243-1.638,3.513,3.513,0,0,0-2.644-.552l.235.276a3.284,3.284,0,0,0-5.018-3.835l.37.071a3.435,3.435,0,0,0-4.178-1.377,3.471,3.471,0,0,0-2,2.275l.41-.086a2.757,2.757,0,0,0-4.889,1.412l.288-.075a1.72,1.72,0,0,0-1.393-.653,1.584,1.584,0,0,0-1.05.446,1.5,1.5,0,0,0-.386.589c-.05.153-.051.237-.039.239" transform="translate(-3.414 -4.932)" fill="#455a64"/>
        <path id="Path_16968" data-name="Path 16968" d="M117.631,181.227c-.235.081.392,1.612-.471,3.237s-2.56,2.126-2.484,2.345c.018.1.486.148,1.182-.117a4.123,4.123,0,0,0,2.109-1.871,3.589,3.589,0,0,0,.3-2.674c-.2-.663-.531-.972-.632-.92" transform="translate(-3.97 -6.274)" fill="#263238"/>
        <path id="Path_16969" data-name="Path 16969" d="M107.721,209.849l-7.652,21.545,1.768,23.554,4.872,40.692s17.926-6.054,18.731-5.45-7.93-41.254-7.93-41.254l6.318-34.054-.407-10.028Z" transform="translate(-3.465 -7.092)" fill="#ff725e"/>
        <path id="Path_16970" data-name="Path 16970" d="M106.417,210.028,98,229.347l-17.337,6.821-18.255,5.614,2.6,13.082a4.726,4.726,0,0,0,5.86,3.644l15.381-4.127,14.329-.658,7.451-17.317Z" transform="translate(-2.161 -7.271)" fill="#ff725e"/>
        <path id="Path_16971" data-name="Path 16971" d="M68.6,237.294l1.274-1.581a8.36,8.36,0,0,1,3.632.791,10.881,10.881,0,0,1,3.5,5.262,24.351,24.351,0,0,1,0,4.46l-8.729-8.932" transform="translate(-2.364 -8.161)" fill="#a2685f"/>
        <path id="Path_16972" data-name="Path 16972" d="M51.063,227.563c0,.263,16.384,17.651,16.384,17.651l3.083,3.045h9.91L61.323,227.037l-8.243-1.4Z" transform="translate(-1.768 -7.812)" fill="#263238"/>
        <path id="Path_16973" data-name="Path 16973" d="M119.64,265.524a3.732,3.732,0,0,1-.376-.607c-.246-.455-.571-1.051-.976-1.8-.829-1.569-2-3.854-3.372-6.719a104.334,104.334,0,0,1-4.349-10.278,28.917,28.917,0,0,1-.9-3.12,13.056,13.056,0,0,1-.257-1.682c-.019-.563-.042-1.13-.043-1.7-.027-2.289.031-4.654.12-7.074.113-3.064.272-6.032.455-8.852l.009-.147.135-.06,5.083-2.23.065.436-3.908-.5-.32-.042.161-.277,6.09-10.486,1.731-2.913.47-.759a1.068,1.068,0,0,1,.181-.249,1.079,1.079,0,0,1-.123.282l-.414.791-1.629,2.971c-1.458,2.6-3.494,6.226-5.935,10.575l-.158-.319,3.911.475.822.1-.758.337-5.071,2.256.144-.207c-.171,2.814-.324,5.781-.436,8.838-.089,2.415-.151,4.776-.13,7.05,0,.57.02,1.131.038,1.688a12.622,12.622,0,0,0,.24,1.6,28.532,28.532,0,0,0,.867,3.07c1.357,3.95,2.919,7.395,4.232,10.276s2.449,5.186,3.224,6.781l.891,1.838a3.885,3.885,0,0,1,.286.655" transform="translate(-3.786 -7.148)" fill="#263238"/>
        <path id="Path_16974" data-name="Path 16974" d="M61,237.351s-2.485,1.8-2.421,2.815a2.786,2.786,0,0,0,1.21,2.294c.574.191,2.295,1.083,2.295,1.083s-1.529,1.465-1.083,2.995a2.8,2.8,0,0,0,1.465,1.911,9.387,9.387,0,0,0,.637,3.122c.573,1.147,2.421,1.529,2.421,1.529a18.726,18.726,0,0,0,1.911,3.11,5.314,5.314,0,0,0,2.676,1.35,6.365,6.365,0,0,0,3.505-.573,4.752,4.752,0,0,0,2.612-4.46s5.479-2.74,5.543-4.141-.573-1.848-.573-1.848l-2.74.51s-.382-1.465-1.211-1.593-10.833,2.294-10.833,2.294,6.818-1.083,7.01-2.421.255-2.485-.765-2.74-8.282.522-8.282.522L64,241.823s1.971.064,1.971-1.657-1.083-2.1-1.083-2.1Z" transform="translate(-2.028 -8.217)" fill="#a2685f"/>
        <path id="Path_16975" data-name="Path 16975" d="M119.854,205.908l.839,6.651-5.152,28.927,5.222,24.981,27.069,8,10.647-4.587-3.632-70.115-9.675-6.8-3.716-2.5-13.945,21.1Z" transform="translate(-4 -6.594)" fill="#fafafa"/>
        <path id="Path_16976" data-name="Path 16976" d="M145.282,192.507l6.764,3.021,23.962,3.221,12.925,67.982,1.625,7.805,24.777,37.08a3.529,3.529,0,0,1-1.184,5.024l-20.3,11.6a3.442,3.442,0,0,1-4.434-1.163l-25.792-38.867-12.787-16.366s-7.652-23.156-8.658-33.023a140.236,140.236,0,0,1,0-25.975c.615-5.928,3.1-20.337,3.1-20.337" transform="translate(-4.902 -6.665)" fill="#ff725e"/>
        <path id="Path_16977" data-name="Path 16977" d="M176.4,198.971a11.689,11.689,0,0,1,6.053,8.178c1.524,8.07,6.123,22.147,7.848,37.176,2.412,21.026-3.24,27.513-5.908,31.139-2.611,3.549-19.195,11.34-19.195,11.34l-12.423-16.555,13.76-11.273-1.209-29.2a20.968,20.968,0,0,1-2.416-16.512c2.416-9.866,9.464-14.9,13.491-14.3" transform="translate(-5.289 -6.887)" fill="#ff725e"/>
        <g id="Group_11694" data-name="Group 11694" transform="translate(159.904 259.509)" opacity="0.3">
          <g id="Group_11693" data-name="Group 11693">
            <g id="Group_11692" data-name="Group 11692" clip-path="url(#clip-path-7)">
              <path id="Path_16978" data-name="Path 16978" d="M189.661,268.816c-1.883,5.1-4.034,9.407-8.422,11.835-4.666,2.582-11.166,6.232-15.6,8.573l3.249,5.035c5.087-.779,14.467-6.711,17.528-10.848a19.74,19.74,0,0,0,3.245-14.595" transform="translate(-165.639 -268.816)"/>
            </g>
          </g>
        </g>
        <path id="Path_16979" data-name="Path 16979" d="M164.974,231.526a2.806,2.806,0,0,1,.09.436c.052.313.123.739.213,1.287.181,1.159.439,2.826.77,4.961.651,4.339,1.587,10.581,2.744,18.3l.015.1-.074.066L152.91,270.617l.032-.306c3.825,5.088,8.029,10.678,12.439,16.542l-.308-.072c4.132-2.082,8.4-4.339,12.637-6.843,1.2-.723,2.392-1.451,3.535-2.226a20.916,20.916,0,0,0,3.2-2.514,24.8,24.8,0,0,0,3.93-6.917,40.634,40.634,0,0,0,2.317-14.93,96.814,96.814,0,0,0-1.316-13.731c-.666-4.277-1.436-8.238-2.2-11.841-1.522-7.208-2.983-12.99-4.011-16.98-.518-1.973-.924-3.515-1.206-4.589l-.314-1.193a2.835,2.835,0,0,1-.093-.411s.057.132.142.4c.088.288.209.68.362,1.181.31,1.04.753,2.579,1.3,4.566,1.086,3.976,2.6,9.749,4.169,16.956.785,3.6,1.576,7.567,2.263,11.851a96.322,96.322,0,0,1,1.367,13.789,40.943,40.943,0,0,1-2.321,15.112,25.119,25.119,0,0,1-4.025,7.081,21.169,21.169,0,0,1-3.288,2.589c-1.155.784-2.351,1.516-3.558,2.242-4.253,2.515-8.527,4.77-12.674,6.854l-.184.093-.124-.166-12.406-16.567-.126-.169.158-.138L168.492,256.4l-.06.162c-1.089-7.726-1.97-13.975-2.582-18.32-.291-2.141-.517-3.813-.675-4.975l-.163-1.3a2.807,2.807,0,0,1-.038-.443" transform="translate(-5.278 -7.084)" fill="#263238"/>
        <path id="Path_16980" data-name="Path 16980" d="M147.294,256.159a3.4,3.4,0,0,1,.053-.673c.063-.488.146-1.123.248-1.913.246-1.716.588-4.1,1.006-7.02.846-5.928,2.166-14.094,3.449-23.139.6-4.379,1.165-8.555,1.684-12.359l.148.248-4.092-1.572-.4-.153.355-.231,4.114-2.663-.083.187c-.489-3.415-.888-6.206-1.175-8.207-.122-.931-.219-1.676-.293-2.242a4.353,4.353,0,0,1-.066-.788,4.281,4.281,0,0,1,.174.771c.1.561.23,1.3.393,2.226.326,1.994.782,4.777,1.34,8.181l.019.119-.1.069-4.084,2.709-.042-.383,4.1,1.541.173.065-.025.184c-.507,3.806-1.063,7.983-1.647,12.364-1.283,9.048-2.661,17.211-3.6,23.127-.485,2.912-.879,5.287-1.164,7-.141.784-.255,1.414-.342,1.9a3.318,3.318,0,0,1-.153.656" transform="translate(-5.099 -6.773)" fill="#263238"/>
        <path id="Path_16981" data-name="Path 16981" d="M173.123,199.917c.061.081-1.169.926-2.818,2.64a24.617,24.617,0,0,0-2.611,3.245,24.86,24.86,0,0,0-3.833,9.38,24.718,24.718,0,0,0-.406,4.145c-.023,2.379.264,3.842.163,3.858a4.187,4.187,0,0,1-.244-1.017,9.1,9.1,0,0,1-.171-1.215,14.894,14.894,0,0,1-.1-1.624,22.313,22.313,0,0,1,.306-4.228,23.622,23.622,0,0,1,3.9-9.56,22.32,22.32,0,0,1,2.742-3.233,15.012,15.012,0,0,1,1.212-1.087,8.964,8.964,0,0,1,.972-.748,4.2,4.2,0,0,1,.887-.555" transform="translate(-5.646 -6.921)" fill="#263238"/>
        <path id="Path_16982" data-name="Path 16982" d="M101.737,254.549c-.138.01-.582-4.675-.991-10.464s-.628-10.49-.489-10.5.582,4.674.991,10.465.627,10.489.489,10.5" transform="translate(-3.47 -8.087)" fill="#263238"/>
        <path id="Path_16983" data-name="Path 16983" d="M186.333,299.082l3.719,7.595,17.214-11.017-5.961-6.747Z" transform="translate(-6.451 -10.003)" fill="#ff725e"/>
        <path id="Path_16984" data-name="Path 16984" d="M186.333,299.071a10.057,10.057,0,0,1,1.032-.774l3.034-2.139,10.773-7.45.17-.118.138.156,5.974,6.736.195.219-.248.158-.753.483-16.5,10.474-.173.109-.086-.181c-1.1-2.337-2-4.25-2.659-5.644-.282-.617-.511-1.118-.691-1.515a2.709,2.709,0,0,1-.208-.516,4.111,4.111,0,0,1,.308.538l.789,1.507,2.784,5.471-.259-.072,16.421-10.6.754-.482-.053.377-5.95-6.758.308.04-10.777,7.187-3.147,2.059-.857.545a1.919,1.919,0,0,1-.321.182" transform="translate(-6.451 -9.991)" fill="#263238"/>
        <g id="Group_11697" data-name="Group 11697" transform="translate(180.049 287.111)" opacity="0.3">
          <g id="Group_11696" data-name="Group 11696">
            <g id="Group_11695" data-name="Group 11695" clip-path="url(#clip-path-8)">
              <path id="Path_16985" data-name="Path 16985" d="M186.506,299.716c.072.147,3.819,11.658,3.819,11.658l16.054-11.4L205,297.408l-14.942,9.563Z" transform="translate(-186.506 -297.408)"/>
            </g>
          </g>
        </g>
        <g id="Group_11700" data-name="Group 11700" transform="translate(143.005 192.035)" opacity="0.3">
          <g id="Group_11699" data-name="Group 11699">
            <g id="Group_11698" data-name="Group 11698" clip-path="url(#clip-path-9)">
              <path id="Path_16986" data-name="Path 16986" d="M152.761,198.922l2.851,9.41-2.851,1.311,3.808,1.874s-6,32.821-6.76,35.817-1.676,3.958-1.676,3.958l5.86-40.092-4.1-1.556,4.1-2.686Z" transform="translate(-148.134 -198.922)"/>
            </g>
          </g>
        </g>
        <path id="Path_16987" data-name="Path 16987" d="M86.979,251.6a26.624,26.624,0,0,0-1.09-6.657A26.631,26.631,0,0,0,82.7,239a5.65,5.65,0,0,1,1.39,1.464,15.569,15.569,0,0,1,3.1,9.129,5.656,5.656,0,0,1-.21,2.009" transform="translate(-2.863 -8.274)" fill="#263238"/>
        <g id="Group_11703" data-name="Group 11703" transform="translate(95.011 224.57)" opacity="0.3">
          <g id="Group_11702" data-name="Group 11702">
            <g id="Group_11701" data-name="Group 11701" clip-path="url(#clip-path-10)">
              <path id="Path_16988" data-name="Path 16988" d="M100.085,232.624c-2.862,7.137-1.829,14.971,1.52,21.892-.517-7.963-.823-14.171-1.52-21.892" transform="translate(-98.419 -232.624)"/>
            </g>
          </g>
        </g>
        <path id="Path_16989" data-name="Path 16989" d="M142.773,198.667a4.4,4.4,0,0,1-.509.946q-.613,1.028-1.493,2.5c-1.249,2.119-2.919,5.08-4.566,8.451-1.116,2.269-2.074,4.434-2.852,6.275l-.112.265-.221-.177a33.4,33.4,0,0,1-3.59-3.313,7.892,7.892,0,0,1-1.176-1.43,13.341,13.341,0,0,1,1.355,1.252,45.211,45.211,0,0,0,3.676,3.15l-.333.089c.74-1.866,1.68-4.054,2.8-6.333a86.231,86.231,0,0,1,4.715-8.416c.667-1.039,1.23-1.864,1.633-2.425a4.407,4.407,0,0,1,.672-.839" transform="translate(-4.44 -6.878)" fill="#263238"/>
        <path id="Path_16990" data-name="Path 16990" d="M126.668,212.484a27.26,27.26,0,0,1-1.609,4.913l-.127.337-.271-.237-.126-.109a16.138,16.138,0,0,1-3.575-3.978c.112-.095,1.7,1.68,3.906,3.6l.124.108-.4.1a27.248,27.248,0,0,1,2.078-4.733" transform="translate(-4.188 -7.356)" fill="#263238"/>
        <path id="Path_16991" data-name="Path 16991" d="M129.746,261.958a1.728,1.728,0,0,1-.075-.472c-.032-.369-.071-.818-.119-1.359-.084-1.26-.2-2.951-.335-5.005-.258-4.227-.562-10.071-.818-16.529S128,226.28,128,222.042c0-2.119.026-3.834.068-5.018.027-.544.05-.993.069-1.364a1.7,1.7,0,0,1,.059-.474,1.762,1.762,0,0,1,.042.477c.007.37.015.82.025,1.363.023,1.262.055,2.955.093,5.011.092,4.232.293,10.078.543,16.535.26,6.419.5,12.227.669,16.531.072,2.057.132,3.75.176,5.012.01.544.018.994.025,1.364a1.706,1.706,0,0,1-.026.478" transform="translate(-4.432 -7.45)" fill="#263238"/>
        <path id="Path_16992" data-name="Path 16992" d="M70.525,398.617l2.5,23.573S49.9,432.646,49.94,437.048l45.88-3.2-2.385-36.889Z" transform="translate(-1.729 -13.743)" fill="#ff725e"/>
        <path id="Path_16993" data-name="Path 16993" d="M88.327,420.008a1.879,1.879,0,0,1,1.445,2.048,1.806,1.806,0,0,1-2.018,1.45,1.982,1.982,0,0,1-1.519-2.177,1.874,1.874,0,0,1,2.266-1.275" transform="translate(-2.984 -14.539)" fill="#e0e0e0"/>
        <path id="Path_16994" data-name="Path 16994" d="M95.919,436.037l-.227-3.574-44.1,3.359s-1.98,1.032-1.649,2.454Z" transform="translate(-1.728 -14.973)" fill="#e0e0e0"/>
        <path id="Path_16995" data-name="Path 16995" d="M73.064,422.9c.023.224,1.151.247,2.3.89,1.17.614,1.806,1.545,2.006,1.441.2-.058-.224-1.374-1.633-2.129s-2.738-.405-2.675-.2" transform="translate(-2.53 -14.632)" fill="#263238"/>
        <path id="Path_16996" data-name="Path 16996" d="M68.224,425.313c-.037.221.961.534,1.788,1.429.853.87,1.117,1.881,1.339,1.855.213.02.276-1.3-.773-2.4s-2.363-1.1-2.354-.889" transform="translate(-2.362 -14.721)" fill="#263238"/>
        <path id="Path_16997" data-name="Path 16997" d="M65.735,431.346c.207.034.44-1.107-.22-2.295s-1.743-1.6-1.825-1.408c-.114.193.612.8,1.14,1.787.55.969.681,1.91.9,1.916" transform="translate(-2.205 -14.804)" fill="#263238"/>
        <path id="Path_16998" data-name="Path 16998" d="M73.092,417.242c.108.2,1.114-.183,2.386-.185,1.272-.029,2.287.327,2.391.127.118-.171-.9-.934-2.4-.909s-2.5.8-2.377.967" transform="translate(-2.53 -14.412)" fill="#263238"/>
        <path id="Path_16999" data-name="Path 16999" d="M61.252,299.928,40,310.436s-17.816-18.069-21.932-16.51l18.894,41.931,33.78-15.014Z" transform="translate(-0.626 -10.173)" fill="#ff725e"/>
        <path id="Path_17000" data-name="Path 17000" d="M48.6,323.56a1.878,1.878,0,0,1-1.42,2.065,1.806,1.806,0,0,1-2.059-1.39,1.98,1.98,0,0,1,1.516-2.179,1.874,1.874,0,0,1,1.982,1.684" transform="translate(-1.561 -11.15)" fill="#e0e0e0"/>
        <path id="Path_17001" data-name="Path 17001" d="M36.1,336.28l3.275-1.451L20.944,294.619s-1.654-1.5-2.874-.7Z" transform="translate(-0.626 -10.168)" fill="#e0e0e0"/>
        <path id="Path_17002" data-name="Path 17002" d="M40.668,310.228c-.2.1.167,1.164-.038,2.468-.171,1.31-.823,2.229-.657,2.381.125.171,1.212-.686,1.432-2.27s-.569-2.709-.737-2.579" transform="translate(-1.383 -10.74)" fill="#263238"/>
        <path id="Path_17003" data-name="Path 17003" d="M36.685,306.521c-.219.042-.168,1.086-.721,2.172-.52,1.1-1.378,1.7-1.277,1.9.055.207,1.318-.192,1.979-1.554s.216-2.6.019-2.517" transform="translate(-1.201 -10.612)" fill="#263238"/>
        <path id="Path_17004" data-name="Path 17004" d="M30.138,306.276c.041.206,1.191.03,2.076-1s.9-2.19.69-2.2c-.22-.04-.543.853-1.281,1.688-.719.852-1.556,1.3-1.485,1.513" transform="translate(-1.043 -10.493)" fill="#263238"/>
        <path id="Path_17005" data-name="Path 17005" d="M45.984,308.3c-.148.17.558.982,1,2.175.466,1.184.484,2.259.708,2.287.2.051.564-1.169.022-2.567s-1.615-2.068-1.731-1.9" transform="translate(-1.591 -10.673)" fill="#263238"/>
        <path id="Path_17006" data-name="Path 17006" d="M73.209,313.441a12.352,12.352,0,0,0-9.16,9.722c-1.549,8.173,4.077,90.416,4.077,90.416l28.862-2.314-1.762-55.419-.711-11.171,2.473-1.9,50.731-8.926L140,312.878l-8.484-14.764L92.654,307.8Z" transform="translate(-2.208 -10.321)" fill="#263238"/>
        <path id="Path_17007" data-name="Path 17007" d="M168.088,298.284s-20.989-30.341-27.124-34.756c-5.061-3.642-12.667-3.638-17.366-1.522s-78.246,38.572-78.246,38.572l10.782,26.993,69.955-24.245,10.428,16.364,9.7,12.862,27.26.213c1.292,0,7.145-11.562,7.145-11.562Z" transform="translate(-1.57 -9.021)" fill="#263238"/>
        <path id="Path_17008" data-name="Path 17008" d="M63.778,329.732a1.18,1.18,0,0,1-.014-.284c0-.215.006-.49.01-.833q.014-.568.033-1.356c.047-.534.131-1.148.211-1.841a21.047,21.047,0,0,1,.454-2.278,13.116,13.116,0,0,1,.4-1.27,8.681,8.681,0,0,1,.521-1.341,13.106,13.106,0,0,1,4.124-5.291,10.432,10.432,0,0,1,3.549-1.739l4.178-.708,9.2-1.539,21.09-3.494,19.158-3.138.153-.025.084.13c5.609,8.759,10.165,16.377,14,21.358,1.859,2.494,3.341,4.482,4.382,5.879l1.171,1.562.3.407a.592.592,0,0,1,.091.147q-.009.006-.122-.122l-.326-.383-1.231-1.517c-1.064-1.333-2.6-3.292-4.492-5.8-3.9-4.942-8.529-12.551-14.159-21.276l.236.105-19.151,3.17-21.1,3.454L77.31,313.2l-4.163.676a10.106,10.106,0,0,0-3.424,1.648,12.892,12.892,0,0,0-4.079,5.119,8.676,8.676,0,0,0-.532,1.312c-.139.432-.323.834-.41,1.246a22.034,22.034,0,0,0-.491,2.246q-.143,1.021-.256,1.823-.046.785-.08,1.348c-.024.342-.043.615-.059.83a1.213,1.213,0,0,1-.038.283" transform="translate(-2.208 -10.546)" fill="#455a64"/>
        <path id="Path_17009" data-name="Path 17009" d="M139.009,285.47a2.921,2.921,0,0,1,.11.87,14.524,14.524,0,0,1-.051,2.387,19.568,19.568,0,0,1-.646,3.492,20.772,20.772,0,0,1-4.021,7.664,19.562,19.562,0,0,1-2.5,2.517,14.733,14.733,0,0,1-1.936,1.4,2.93,2.93,0,0,1-.778.4c-.051-.079,1.008-.735,2.479-2.07a22.522,22.522,0,0,0,2.38-2.541,22.308,22.308,0,0,0,3.936-7.5,22.336,22.336,0,0,0,.737-3.4c.264-1.97.2-3.215.294-3.218" transform="translate(-4.472 -9.883)" fill="#455a64"/>
      </g>
    </g>
    <path id="Path_17010" data-name="Path 17010" d="M385.85,371.811l-126.326-.075a27.517,27.517,0,0,1-27.5-27.522l.062-316.7A27.518,27.518,0,0,1,259.618,0L385.945.074a27.517,27.517,0,0,1,27.5,27.523l-.062,316.7a27.517,27.517,0,0,1-27.534,27.512" transform="translate(172.527 3010)" fill="#263238"/>
    <path id="Path_17011" data-name="Path 17011" d="M386.112,11.677l-24.493-.014a6.084,6.084,0,0,0-5.948,6.214l0,4.443a6.083,6.083,0,0,1-5.948,6.214L301.981,28.5a6.09,6.09,0,0,1-5.947-6.22V17.841a6.089,6.089,0,0,0-5.947-6.22l-8.613-.006L260.038,11.6a19.272,19.272,0,0,0-19.282,19.269L240.7,339.995a19.272,19.272,0,0,0,19.26,19.277l126.074.073a19.273,19.273,0,0,0,19.283-19.268l.061-309.124a19.272,19.272,0,0,0-19.26-19.276" transform="translate(172.226 3009.598)" fill="#fff"/>
    <path id="Path_17012" data-name="Path 17012" d="M405.372,30.953a19.272,19.272,0,0,0-19.26-19.276l-24.493-.014a6.084,6.084,0,0,0-5.948,6.214l0,4.443a6.083,6.083,0,0,1-5.948,6.214l-47.741-.028a6.091,6.091,0,0,1-5.947-6.221V17.842a6.09,6.09,0,0,0-5.947-6.221l-8.613-.006L260.038,11.6a19.271,19.271,0,0,0-19.282,19.268l-.061,29.56H405.369Z" transform="translate(172.226 3009.598)" fill="#f5f5f5"/>
    <path id="Path_17013" data-name="Path 17013" d="M396.925,42.894a65.4,65.4,0,0,1-6.59.221A65.545,65.545,0,0,1,383.742,43a130.547,130.547,0,0,1,13.183-.109" transform="translate(167.274 3008.519)" fill="#263238"/>
    <path id="Path_17014" data-name="Path 17014" d="M396.954,46.388a65.4,65.4,0,0,1-6.59.221,65.544,65.544,0,0,1-6.594-.112,130.547,130.547,0,0,1,13.183-.109" transform="translate(167.273 3008.398)" fill="#263238"/>
    <path id="Path_17015" data-name="Path 17015" d="M396.983,49.882a65.055,65.055,0,0,1-6.59.221,65.543,65.543,0,0,1-6.594-.112,130.546,130.546,0,0,1,13.183-.109" transform="translate(167.272 3008.277)" fill="#263238"/>
    <path id="Path_17016" data-name="Path 17016" d="M278.576,284.294l.663-1.4a6.467,6.467,0,0,0,4.146,1.454c2.169,0,3.1-.844,3.1-1.938,0-3.068-7.607-1.13-7.607-5.8,0-1.937,1.507-3.588,4.809-3.588a7.39,7.39,0,0,1,4.036,1.112l-.592,1.436a6.482,6.482,0,0,0-3.444-1.022c-2.135,0-3.05.9-3.05,1.992,0,3.067,7.607,1.148,7.607,5.759,0,1.919-1.544,3.57-4.862,3.57a7.459,7.459,0,0,1-4.81-1.578" transform="translate(170.915 3000.547)" fill="#263238"/>
    <path id="Path_17017" data-name="Path 17017" d="M290.136,281.085a4.752,4.752,0,0,1,5.024-4.845,4.24,4.24,0,0,1,3.876,2.028l-1.31.843a2.966,2.966,0,0,0-2.583-1.363,3.347,3.347,0,0,0,0,6.693,2.967,2.967,0,0,0,2.583-1.364l1.31.825a4.254,4.254,0,0,1-3.876,2.045,4.765,4.765,0,0,1-5.024-4.862" transform="translate(170.515 3000.436)" fill="#263238"/>
    <path id="Path_17018" data-name="Path 17018" d="M309.167,280.1v5.741h-1.632v-1.256a3.531,3.531,0,0,1-3.122,1.363c-2.153,0-3.516-1.148-3.516-2.8,0-1.524.986-2.781,3.821-2.781h2.727v-.341c0-1.454-.843-2.3-2.548-2.3a4.818,4.818,0,0,0-3.015,1.023l-.717-1.293a6.339,6.339,0,0,1,3.93-1.22c2.6,0,4.072,1.256,4.072,3.859m-1.722,2.834v-1.327h-2.656c-1.7,0-2.189.664-2.189,1.47,0,.952.79,1.544,2.1,1.544a2.758,2.758,0,0,0,2.746-1.687" transform="translate(170.142 3000.436)" fill="#263238"/>
    <path id="Path_17019" data-name="Path 17019" d="M321.8,280.367v5.473h-1.722v-5.275c0-1.865-.934-2.781-2.566-2.781a2.825,2.825,0,0,0-3.015,3.158v4.9h-1.722v-9.51h1.651v1.436a4.076,4.076,0,0,1,3.427-1.525c2.315,0,3.947,1.328,3.947,4.126" transform="translate(169.731 3000.436)" fill="#263238"/>
    <path id="Path_17020" data-name="Path 17020" d="M334.452,280.367v5.473H332.73v-5.275c0-1.865-.934-2.781-2.566-2.781a2.825,2.825,0,0,0-3.015,3.158v4.9h-1.722v-9.51h1.651v1.436a4.076,4.076,0,0,1,3.427-1.525c2.315,0,3.947,1.328,3.947,4.126" transform="translate(169.293 3000.436)" fill="#263238"/>
    <path id="Path_17021" data-name="Path 17021" d="M337.768,273.244a1.133,1.133,0,0,1,1.166-1.129,1.122,1.122,0,1,1-1.166,1.129m.305,2.943H339.8v9.51h-1.722Z" transform="translate(168.866 3000.579)" fill="#263238"/>
    <path id="Path_17022" data-name="Path 17022" d="M352.294,280.367v5.473h-1.722v-5.275c0-1.865-.933-2.781-2.566-2.781a2.824,2.824,0,0,0-3.014,3.158v4.9h-1.723v-9.51h1.651v1.436a4.076,4.076,0,0,1,3.427-1.525c2.315,0,3.947,1.328,3.947,4.126" transform="translate(168.675 3000.436)" fill="#263238"/>
    <path id="Path_17023" data-name="Path 17023" d="M365.045,276.33v8.218c0,3.355-1.7,4.879-4.934,4.879a7.047,7.047,0,0,1-4.539-1.416l.825-1.328a5.8,5.8,0,0,0,3.66,1.239c2.243,0,3.266-1.041,3.266-3.194v-.753a4.356,4.356,0,0,1-3.427,1.47,4.607,4.607,0,1,1,0-9.2,4.34,4.34,0,0,1,3.517,1.561V276.33Zm-1.687,4.5a3.279,3.279,0,1,0-3.266,3.1,3.036,3.036,0,0,0,3.266-3.1" transform="translate(168.267 3000.436)" fill="#263238"/>
    <path id="Path_17024" data-name="Path 17024" d="M367.967,284.969a1.2,1.2,0,0,1,1.221-1.22,1.18,1.18,0,0,1,1.184,1.22,1.2,1.2,0,0,1-1.184,1.238,1.214,1.214,0,0,1-1.221-1.238" transform="translate(167.82 3000.176)" fill="#263238"/>
    <path id="Path_17025" data-name="Path 17025" d="M372.186,284.969a1.2,1.2,0,0,1,1.221-1.22,1.18,1.18,0,0,1,1.184,1.22,1.2,1.2,0,0,1-1.184,1.238,1.214,1.214,0,0,1-1.221-1.238" transform="translate(167.674 3000.176)" fill="#263238"/>
    <path id="Path_17026" data-name="Path 17026" d="M376.4,284.969a1.2,1.2,0,0,1,1.221-1.22,1.18,1.18,0,0,1,1.184,1.22,1.2,1.2,0,0,1-1.184,1.238,1.214,1.214,0,0,1-1.221-1.238" transform="translate(167.528 3000.176)" fill="#263238"/>
    <path id="Path_17027" data-name="Path 17027" d="M268.605,183.122V189.1h5.977V177.145h-5.977Z" transform="translate(171.26 3003.867)" fill="#263238"/>
    <rect id="Rectangle_6088" data-name="Rectangle 6088" width="5.977" height="5.977" transform="translate(439.866 3151.128)" fill="#263238"/>
    <rect id="Rectangle_6089" data-name="Rectangle 6089" width="5.977" height="5.977" transform="translate(476.799 3216.935)" fill="#263238"/>
    <path id="Path_17028" data-name="Path 17028" d="M274.582,158.357v5.977h-5.977v5.978h5.977v5.977h11.953v5.977h5.978v-5.977h5.977V164.333h-5.977v5.978H280.559V152.38h-5.977Z" transform="translate(171.26 3004.724)" fill="#263238"/>
    <path id="Path_17029" data-name="Path 17029" d="M286.965,146.189h-5.977v5.977h11.953v-5.977Z" transform="translate(170.831 3004.939)" fill="#263238"/>
    <path id="Path_17030" data-name="Path 17030" d="M314.924,195.745h3.212v-5.977h-6.423v5.977Z" transform="translate(169.768 3003.43)" fill="#263238"/>
    <rect id="Rectangle_6090" data-name="Rectangle 6090" width="5.977" height="5.977" transform="translate(463.773 3157.104)" fill="#263238"/>
    <rect id="Rectangle_6091" data-name="Rectangle 6091" width="5.977" height="5.977" transform="translate(505.611 3181.012)" fill="#263238"/>
    <rect id="Rectangle_6092" data-name="Rectangle 6092" width="5.977" height="5.977" transform="translate(511.588 3115.266)" fill="#263238"/>
    <path id="Path_17031" data-name="Path 17031" d="M311.515,157.928v-5.977h5.977v-5.977h-5.977V140h-5.977v5.977h-5.977v5.977h5.977v23.908h5.977V163.9h5.977v-5.977Z" transform="translate(170.188 3005.153)" fill="#263238"/>
    <path id="Path_17032" data-name="Path 17032" d="M342.686,220.269h5.977v-5.977H336.709v5.977Z" transform="translate(168.902 3002.581)" fill="#263238"/>
    <rect id="Rectangle_6093" data-name="Rectangle 6093" width="5.977" height="5.977" transform="translate(499.633 3115.267)" fill="#263238"/>
    <path id="Path_17033" data-name="Path 17033" d="M334.518,158.143v-5.977h-5.977v-5.977h-5.977v11.953h-5.978v5.977h11.954v-5.977Z" transform="translate(169.599 3004.939)" fill="#263238"/>
    <rect id="Rectangle_6094" data-name="Rectangle 6094" width="5.977" height="5.977" transform="translate(531.875 3151.128)" fill="#263238"/>
    <rect id="Rectangle_6095" data-name="Rectangle 6095" width="5.977" height="5.977" transform="translate(469.922 3181.012)" fill="#263238"/>
    <path id="Path_17034" data-name="Path 17034" d="M330.089,139.14v-5.977h5.977v-5.977H348.02v-5.978h-5.978v-5.977h-5.977v5.977h-5.977v5.978h-5.977v5.977h-5.977v5.977h11.953Z" transform="translate(169.545 3006.01)" fill="#263238"/>
    <path id="Path_17035" data-name="Path 17035" d="M330.089,182.907v-5.977h5.977v-5.977H324.112v5.977h-5.977v5.977h11.953Z" transform="translate(169.545 3004.081)" fill="#263238"/>
    <path id="Path_17036" data-name="Path 17036" d="M347.805,207.669v-5.977H335.852v-5.977h-5.978v5.977H323.9v5.977H311.944v5.977h17.93v-5.977h5.978v5.977h5.977v-5.977Z" transform="translate(169.76 3003.224)" fill="#263238"/>
    <path id="Path_17037" data-name="Path 17037" d="M323.683,115.018v-5.977H311.73v5.977h-5.978V121h11.954v-5.977Z" transform="translate(169.974 3006.225)" fill="#263238"/>
    <rect id="Rectangle_6096" data-name="Rectangle 6096" width="5.977" height="5.977" transform="translate(487.68 3127.22)" fill="#263238"/>
    <path id="Path_17038" data-name="Path 17038" d="M339.59,145.76h-5.977v17.931h11.953v-5.978H339.59v-5.977h5.977V145.76h5.977v-5.977h-5.977v-5.977H339.59V145.76Z" transform="translate(169.009 3005.367)" fill="#263238"/>
    <rect id="Rectangle_6097" data-name="Rectangle 6097" width="5.977" height="5.977" transform="translate(481.704 3133.197)" fill="#263238"/>
    <path id="Path_17039" data-name="Path 17039" d="M336.709,189.313v5.977h11.954v-5.977h11.953v-5.977H342.685v5.977Z" transform="translate(168.902 3003.653)" fill="#263238"/>
    <rect id="Rectangle_6098" data-name="Rectangle 6098" width="5.977" height="5.977" transform="translate(531.875 3169.058)" fill="#263238"/>
    <rect id="Rectangle_6099" data-name="Rectangle 6099" width="5.977" height="5.977" transform="translate(511.588 3175.035)" fill="#263238"/>
    <path id="Path_17040" data-name="Path 17040" d="M364.141,152.38H352.187v5.977h5.977v5.977h5.977V152.38Z" transform="translate(168.366 3004.724)" fill="#263238"/>
    <rect id="Rectangle_6100" data-name="Rectangle 6100" width="5.977" height="5.977" transform="translate(523.541 3175.035)" fill="#263238"/>
    <path id="Path_17041" data-name="Path 17041" d="M292.941,207.355h17.938V183.329H286.853v5.983h-5.865v5.978h5.865v5.977h-5.865v5.977h5.865v.112h.112v5.865h-5.977v11.954h5.977V219.2h5.977V207.355Zm13.336-4.482H291.335V187.931h14.942Z" transform="translate(170.831 3003.653)" fill="#263238"/>
    <path id="Path_17042" data-name="Path 17042" d="M373.427,183.122H379.4v-5.977h-17.93v5.977h11.953Z" transform="translate(168.045 3003.867)" fill="#263238"/>
    <path id="Path_17043" data-name="Path 17043" d="M373.856,158.142h5.977V146.189h-5.977v11.953Z" transform="translate(167.616 3004.939)" fill="#263238"/>
    <path id="Path_17044" data-name="Path 17044" d="M324.343,189.769h-5.977v11.953h5.977V189.769Z" transform="translate(169.537 3003.43)" fill="#263238"/>
    <rect id="Rectangle_6101" data-name="Rectangle 6101" width="5.977" height="5.977" transform="translate(547.449 3186.989)" fill="#263238"/>
    <path id="Path_17045" data-name="Path 17045" d="M386.024,170.739v-5.977h-5.977v11.953h5.977Z" transform="translate(167.402 3004.296)" fill="#263238"/>
    <path id="Path_17046" data-name="Path 17046" d="M274.582,214.292h-5.977v11.953h5.977V214.292Z" transform="translate(171.26 3002.581)" fill="#263238"/>
    <path id="Path_17047" data-name="Path 17047" d="M385.166,109.041H355.282v29.884h29.884Zm-25.4,4.483h20.919v20.919H359.765Z" transform="translate(168.259 3006.225)" fill="#263238"/>
    <rect id="Rectangle_6102" data-name="Rectangle 6102" width="11.953" height="11.954" transform="translate(532.508 3124.231)" fill="#263238"/>
    <path id="Path_17048" data-name="Path 17048" d="M385.166,195.719H355.282V225.6h29.884Zm-25.4,4.482h20.919V221.12H359.765Z" transform="translate(168.259 3003.224)" fill="#263238"/>
    <rect id="Rectangle_6103" data-name="Rectangle 6103" width="11.953" height="11.954" transform="translate(532.508 3207.907)" fill="#263238"/>
    <path id="Path_17049" data-name="Path 17049" d="M268.528,138.926h29.884V109.042H268.528Zm25.4-4.483H273.011V113.524H293.93Z" transform="translate(171.263 3006.225)" fill="#263238"/>
    <rect id="Rectangle_6104" data-name="Rectangle 6104" width="11.954" height="11.954" transform="translate(448.757 3124.231)" fill="#263238"/>
    <path id="Path_17050" data-name="Path 17050" d="M259.65,129.532V108.307a7.828,7.828,0,0,1,1.683-5.409,7.356,7.356,0,0,1,5.816-2.412h22.319a.667.667,0,0,0,0-1.334H267.4a9.348,9.348,0,0,0-5.322,1.344,8.428,8.428,0,0,0-3.758,6.97c-.062,3.493,0,6.991,0,10.484v11.583a.668.668,0,0,0,1.335,0" transform="translate(171.617 3006.567)" fill="#ff725e"/>
    <path id="Path_17051" data-name="Path 17051" d="M287.471,236.037H266.246a7.828,7.828,0,0,1-5.409-1.683,7.356,7.356,0,0,1-2.412-5.816V206.219a.667.667,0,0,0-1.334,0v22.072a9.348,9.348,0,0,0,1.344,5.322,8.428,8.428,0,0,0,6.97,3.758c3.493.062,6.991,0,10.484,0h11.583a.668.668,0,0,0,0-1.335" transform="translate(171.659 3002.883)" fill="#ff725e"/>
    <path id="Path_17052" data-name="Path 17052" d="M393.31,206v21.226a7.828,7.828,0,0,1-1.683,5.409,7.356,7.356,0,0,1-5.816,2.411H363.492a.668.668,0,0,0,0,1.335h22.072a9.349,9.349,0,0,0,5.322-1.345,8.428,8.428,0,0,0,3.758-6.97c.062-3.493,0-6.991,0-10.484V206a.668.668,0,0,0-1.335,0" transform="translate(167.997 3002.89)" fill="#ff725e"/>
    <path id="Path_17053" data-name="Path 17053" d="M363.892,100.486h21.226a7.828,7.828,0,0,1,5.409,1.683,7.356,7.356,0,0,1,2.411,5.816V130.3a.667.667,0,0,0,1.334,0V108.231a9.349,9.349,0,0,0-1.344-5.322,8.428,8.428,0,0,0-6.97-3.758c-3.493-.062-6.991,0-10.484,0H363.892a.668.668,0,0,0,0,1.335" transform="translate(167.983 3006.568)" fill="#ff725e"/>
    <path id="Path_17055" data-name="Path 17055" d="M281.753,317.843l-2.228,5.965h-1.036l-1.721-4.525-1.744,4.525h-1.036l-2.217-5.965h1.024l1.733,4.75,1.8-4.75h.911l1.767,4.772,1.779-4.772Z" transform="translate(171.15 2998.996)" fill="#263238"/>
    <path id="Path_17056" data-name="Path 17056" d="M292.145,317.843l-2.228,5.965h-1.036l-1.721-4.525-1.744,4.525H284.38l-2.217-5.965h1.024l1.733,4.75,1.8-4.75h.911l1.767,4.772,1.779-4.772Z" transform="translate(170.791 2998.996)" fill="#263238"/>
    <path id="Path_17057" data-name="Path 17057" d="M302.538,317.843l-2.228,5.965h-1.036l-1.721-4.525-1.744,4.525h-1.036l-2.217-5.965h1.024l1.733,4.75,1.8-4.75h.911l1.767,4.772,1.779-4.772Z" transform="translate(170.431 2998.996)" fill="#263238"/>
    <path id="Path_17058" data-name="Path 17058" d="M303.123,323.26a.752.752,0,0,1,.766-.766.74.74,0,0,1,.742.766.75.75,0,0,1-.742.777.762.762,0,0,1-.766-.777" transform="translate(170.065 2998.835)" fill="#263238"/>
    <path id="Path_17059" data-name="Path 17059" d="M305.514,323.176l.451-.856a3.832,3.832,0,0,0,2.093.62c1,0,1.417-.305,1.417-.811,0-1.339-3.77-.18-3.77-2.553,0-1.071.957-1.791,2.488-1.791a4.341,4.341,0,0,1,2.172.541l-.461.855a3.12,3.12,0,0,0-1.721-.473c-.946,0-1.407.349-1.407.823,0,1.407,3.78.258,3.78,2.577,0,1.08-.99,1.768-2.577,1.768a4.315,4.315,0,0,1-2.466-.7" transform="translate(169.982 2998.998)" fill="#263238"/>
    <path id="Path_17060" data-name="Path 17060" d="M311.941,315.906a.712.712,0,0,1,.731-.709.7.7,0,0,1,.732.686.732.732,0,0,1-1.463.022m.191,1.846h1.08v5.965h-1.08Z" transform="translate(169.76 2999.087)" fill="#263238"/>
    <path id="Path_17061" data-name="Path 17061" d="M318.716,323.412a2.042,2.042,0,0,1-1.305.417,1.7,1.7,0,0,1-1.891-1.869v-3.275h-1.013V317.8h1.013V316.49h1.08V317.8h1.711v.889H316.6v3.229a.879.879,0,0,0,.934,1,1.359,1.359,0,0,0,.845-.282Z" transform="translate(169.671 2999.042)" fill="#263238"/>
    <path id="Path_17062" data-name="Path 17062" d="M325.361,321.184h-4.839a2.021,2.021,0,0,0,2.161,1.743,2.228,2.228,0,0,0,1.722-.72l.6.7a3.251,3.251,0,0,1-5.56-2.081,2.921,2.921,0,0,1,2.994-3.04,2.876,2.876,0,0,1,2.948,3.073c0,.09-.012.225-.022.327m-4.839-.777h3.827a1.925,1.925,0,0,0-3.827,0" transform="translate(169.5 2998.998)" fill="#263238"/>
    <path id="Path_17063" data-name="Path 17063" d="M336.025,317.843l-2.228,5.965h-1.036l-1.721-4.525-1.744,4.525h-1.036l-2.217-5.965h1.024l1.733,4.75,1.8-4.75h.911l1.767,4.772,1.779-4.772Z" transform="translate(169.271 2998.996)" fill="#263238"/>
    <path id="Path_17064" data-name="Path 17064" d="M342.693,321.184h-4.839a2.021,2.021,0,0,0,2.161,1.743,2.227,2.227,0,0,0,1.722-.72l.6.7a3.251,3.251,0,0,1-5.56-2.081,2.921,2.921,0,0,1,2.994-3.04,2.876,2.876,0,0,1,2.948,3.073c0,.09-.011.225-.022.327m-4.839-.777h3.827a1.925,1.925,0,0,0-3.827,0" transform="translate(168.9 2998.998)" fill="#263238"/>
    <path id="Path_17065" data-name="Path 17065" d="M350.661,320.741a2.9,2.9,0,0,1-3.016,3.05,2.516,2.516,0,0,1-2.127-1.014v.946h-1.037v-8.35h1.081v3.286a2.539,2.539,0,0,1,2.082-.957,2.9,2.9,0,0,1,3.016,3.039m-1.092,0a2.011,2.011,0,1,0-2.015,2.1,1.966,1.966,0,0,0,2.015-2.1" transform="translate(168.633 2999.081)" fill="#263238"/>
    <path id="Path_17066" data-name="Path 17066" d="M351.773,323.26a.752.752,0,0,1,.766-.766.74.74,0,0,1,.742.766.75.75,0,0,1-.742.777.762.762,0,0,1-.766-.777" transform="translate(168.381 2998.835)" fill="#263238"/>
    <path id="Path_17067" data-name="Path 17067" d="M354.233,320.824a2.98,2.98,0,0,1,3.152-3.039,2.659,2.659,0,0,1,2.43,1.271l-.821.529a1.861,1.861,0,0,0-1.621-.855,2.1,2.1,0,0,0,0,4.2,1.863,1.863,0,0,0,1.621-.855l.821.517a2.668,2.668,0,0,1-2.43,1.283,2.989,2.989,0,0,1-3.152-3.05" transform="translate(168.295 2998.998)" fill="#263238"/>
    <path id="Path_17068" data-name="Path 17068" d="M360.8,320.824a3.1,3.1,0,1,1,3.107,3.05,2.968,2.968,0,0,1-3.107-3.05m5.11,0a2.011,2.011,0,1,0-2,2.1,1.958,1.958,0,0,0,2-2.1" transform="translate(168.068 2998.998)" fill="#263238"/>
    <path id="Path_17069" data-name="Path 17069" d="M378.682,320.373v3.433H377.6V320.5c0-1.17-.563-1.744-1.542-1.744a1.732,1.732,0,0,0-1.789,1.981v3.073h-1.08V320.5c0-1.17-.563-1.744-1.543-1.744a1.732,1.732,0,0,0-1.79,1.981v3.073h-1.08v-5.965h1.036v.889a2.419,2.419,0,0,1,2.059-.946,2.208,2.208,0,0,1,2.072,1.1,2.689,2.689,0,0,1,2.3-1.1,2.287,2.287,0,0,1,2.441,2.589" transform="translate(167.792 2998.998)" fill="#263238"/>
    <path id="Path_17070" data-name="Path 17070" d="M375.016,328.071c0,.139-22.77.251-50.851.251s-50.854-.112-50.854-.251,22.765-.251,50.854-.251,50.851.112,50.851.251" transform="translate(171.097 2998.65)" fill="#263238"/>
    <rect id="Rectangle_6105" data-name="Rectangle 6105" width="442.029" height="424.552" transform="translate(180.56 3010)" fill="none"/>
    <rect id="Rectangle_6106" data-name="Rectangle 6106" width="442.029" height="424.552" transform="translate(180.56 3010)" fill="none"/>
    <rect id="Rectangle_6107" data-name="Rectangle 6107" width="112.949" height="18.342" transform="translate(437.775 3313.129)" fill="#ebebeb"/>
    <g id="Group_11706" data-name="Group 11706" transform="translate(427.271 3302.298)">
      <path id="Path_17054" data-name="Path 17054" d="M372.288,338.275H271.6a16.044,16.044,0,0,1-16.045-16.044v-3.406A16.045,16.045,0,0,1,271.6,302.781H372.288a16.044,16.044,0,0,1,16.044,16.045v3.406a16.044,16.044,0,0,1-16.044,16.044" transform="translate(-255.559 -302.781)" fill="#ebebeb"/>
      <text id="www.saleassist.ai" transform="translate(17.435 20.969)" font-size="12" font-family="Roboto-Regular, Roboto"><tspan x="0" y="0">www.saleassist.ai</tspan></text>
    </g>
  </g>
</svg>
