<svg xmlns="http://www.w3.org/2000/svg" xmlns:xlink="http://www.w3.org/1999/xlink" width="469.067" height="394.865" viewBox="0 0 469.067 394.865">
  <defs>
    <clipPath id="clip-path">
      <path id="Path_8201" data-name="Path 8201" d="M1225.3,1202.174c-4.3,8.11-11.026,21.349-21.481,22.324-3.342.312-6.661-.725-9.772-1.988a65.781,65.781,0,0,1-21.416-14.1,15.685,15.685,0,0,1-4.4-6.362c-.745-2.5-.156-5.565,2-7.024s4.656-1.662,4.109-5.021c-.978-6.016-6.782-11.051-10.041-15.876-2.367-3.5-6.379-11.031-2.78-14.976,2.452-2.687,7.718-.663,9.626-4.066a4.679,4.679,0,0,0-.1-4.017c-3.228-7.77-12.053-17.153-8.9-26.128a6.045,6.045,0,0,1,4.124-4.073c2.072-.442,4.227.623,6.316.268,2.477-.42,4.246-2.791,4.781-5.245s.1-5-.3-7.484c-.98-6.183-1.671-12.6.027-18.628,2.736-9.713,13.958-17.464,21.194-6.719,2.818,4.185,2.036,9.755.868,14.664-1.079,4.539-4.749,18.226,4.11,16.5,1.7-.332,3.347-1.036,5.078-1.005,3.487.062,6.334,3.254,6.985,6.68s-.448,6.953-1.967,10.092-3.47,6.075-4.7,9.337c-.912,2.413-1.125,5.71,1.1,7.011,2.317,1.355,5.192-.615,7.87-.439,3.019.2,5.228,3.222,5.574,6.227s-.7,5.977-1.737,8.821l-3.076,8.462c-1.1,3.022-2.067,6.786.123,9.14,1.335,1.435,3.428,1.813,5.145,2.756,3.4,1.871,5.125,5.977,5.067,9.86S1227.124,1198.744,1225.3,1202.174Z" transform="translate(-1160.093 -1077.86)" fill="#79c6d0"/>
    </clipPath>
    <clipPath id="clip-path-2">
      <path id="Path_8210" data-name="Path 8210" d="M2066.311,1410.714l13.951-3.409c13.37-25,22.57-51.623,30.038-62.566-2.753,1.222-33.674,16.066-52.01,28.062l.793,10.4-4.511-7.884c-1.894,1.334-3.583,2.616-5,3.816-20.243,17.192-42.021,44.668-34.809,73.125,3.028,11.95,15.722,7.38,23.565,3.385,15.923-8.111,28.542-24.614,38.818-42.692Z" transform="translate(-2013.356 -1344.739)" fill="#79c6d0"/>
    </clipPath>
    <clipPath id="clip-path-3">
      <path id="Path_8219" data-name="Path 8219" d="M882.262,1175.177l-13.613-6.6c-8.235-28.709-11.817-58.162-17.086-71.085,2.565,1.868,31.124,24,47.352,40.414l-3.12,10.538,6.391-7.121c1.655,1.794,3.111,3.487,4.3,5.036,17.043,22.187,33.389,55.305,19.662,83.016-5.764,11.637-17.826,4.121-25.019-1.729-14.6-11.878-23.946-31.668-30.528-52.561Z" transform="translate(-851.563 -1097.493)" fill="#b6e0da"/>
    </clipPath>
    <clipPath id="clip-path-4">
      <path id="Path_8225" data-name="Path 8225" d="M637.179,1504.458c8.385,2.834,21.86,7.66,29.832,1.422,2.549-1.995,4.188-4.918,5.532-7.863a63.42,63.42,0,0,0,5.669-24.061,15.117,15.117,0,0,0-1.131-7.369c-1.131-2.243-3.575-4-6.055-3.6s-4.363,1.918-6.2-.8c-3.3-4.863-2.564-12.234-3.474-17.773-.661-4.023-2.833-11.953-7.967-12.334-3.5-.26-5.847,4.645-9.437,3.523a4.512,4.512,0,0,1-2.587-2.883c-2.882-7.581-2.91-20-11.063-24.2a5.828,5.828,0,0,0-5.586-.124c-1.744,1.062-2.55,3.235-4.248,4.37-2.014,1.345-4.823.855-6.823-.51a19.607,19.607,0,0,1-4.748-5.439c-3.406-4.982-7.173-9.937-12.352-13.036-8.347-4.994-21.343-3-19.3,9.323.8,4.8,5.032,8.183,9.1,10.85,3.761,2.466,15.395,9.628,8.042,14.281-1.41.892-3.032,1.49-4.224,2.657-2.4,2.352-2.285,6.474-.472,9.3s4.917,4.575,8.06,5.77,6.454,1.96,9.477,3.429c2.237,1.087,4.568,3.256,3.87,5.643-.727,2.483-4.045,3.006-5.805,4.9-1.984,2.138-1.53,5.719.216,8.054s4.45,3.723,7.057,5.031l7.758,3.893c2.771,1.391,5.941,3.386,5.965,6.487.015,1.889-1.2,3.539-1.78,5.338-1.146,3.564.366,7.581,2.977,10.264S633.632,1503.26,637.179,1504.458Z" transform="translate(-577.023 -1391.248)" fill="#79c6d0"/>
    </clipPath>
    <clipPath id="clip-path-5">
      <rect id="Rectangle_2447" data-name="Rectangle 2447" width="116.964" height="214.859" transform="translate(116.964 214.859) rotate(180)" fill="#fff"/>
    </clipPath>
    <clipPath id="clip-path-6">
      <path id="Path_8239" data-name="Path 8239" d="M1648.884,1606.055c-1.129,5.842-.863,13.681-1.076,19.734-.217,6.23.2,9.529,1,17.022.09.87-24.858,1.61-26.664,1.663-11.19.327-22.226.708-33.374-.681-5.974-.745-11.477-1.58-17.654-2.611.13-15.157.909-30.571-.906-45.661-1.769-14.712-5.122-29.813-5.068-44.647.018-4.836-.431-13.226,5.163-15.41,5-1.953,10.07-3.71,15.148-5.447a75.574,75.574,0,0,1,14.473-3.678,64.128,64.128,0,0,1,21.406,1.008,132.028,132.028,0,0,1,18.8,5.661c2.261.836,5.338,1.39,7.146,2.948,2.089,1.8,3.262,5.461,4.31,7.925a83.475,83.475,0,0,1,6.38,26.1c.322,4.2.525,8.81-.361,12.964-1.442,6.765-5.145,12.716-7.6,19.117A23.61,23.61,0,0,0,1648.884,1606.055Z" transform="translate(-1565.138 -1525.856)" fill="#a6b73e"/>
    </clipPath>
    <clipPath id="clip-path-7">
      <path id="Path_8259" data-name="Path 8259" d="M1054.454,1609.366c-.557,2.885-.426,6.756-.531,9.746a50.8,50.8,0,0,0,.494,8.406c.045.429-12.276.8-13.168.821a106.948,106.948,0,0,1-16.482-.337c-2.95-.368-5.668-.78-8.718-1.29.064-7.485.449-15.1-.448-22.549-.874-7.265-2.529-14.723-2.5-22.048.008-2.388-.213-6.531,2.55-7.61,2.469-.964,4.973-1.832,7.481-2.69a37.339,37.339,0,0,1,7.147-1.816,31.67,31.67,0,0,1,10.571.5,65.2,65.2,0,0,1,9.286,2.8c1.116.413,2.636.686,3.529,1.456,1.032.89,1.611,2.7,2.128,3.913a41.226,41.226,0,0,1,3.151,12.892,23.046,23.046,0,0,1-.178,6.4c-.712,3.341-2.541,6.28-3.752,9.441A11.669,11.669,0,0,0,1054.454,1609.366Z" transform="translate(-1013.097 -1569.761)" fill="#a6b73e"/>
    </clipPath>
  </defs>
  <g id="leftImage11" transform="translate(17.572)">
    <g id="Layer_1" data-name="Layer 1" transform="translate(-17.572 0)">
      <path id="Path_8166" data-name="Path 8166" d="M644.975,737.732c-9.9-3.549-20.756-2.53-31.275-2.679s-26.936-1.863-30.9-13.541c-4.193-12.36,1.884-25.178,1.937-37.668a28.905,28.905,0,0,0-1.526-10.089c-5.514-15.025-23.981-18.665-30.451-33.638-4.833-11.184-2.337-24.541,4.017-34.937,5.519-9.031,13.607-16.131,22.164-22.2,7.791-5.526,13.749-14.457,16.8-23.534,5.707-16.955,2.2-35.49,8.6-52.023,5.729-14.809,16.7-27.353,30.4-33.981,23.906-11.567,52.16-1.276,69.2,18.511A52.891,52.891,0,0,0,739.6,509.821c25.976,2.127,53.034-11.992,77.1,3.946,12.265,8.123,20.934,22.523,23.635,37.718,1.521,8.559,1.347,18.081-1.957,26.161-3.251,7.952-8.859,14.439-13.677,21.309-8.005,11.416-12.387,26.674-4.9,39.532,3.273,5.621,8,10.219,12.488,14.931,11.481,12.063,15.732,29.82,11.78,45.9-4.486,18.254-18.711,30.24-37.238,32.533-13.71,1.7-28.886-.52-41.313,6.725" transform="translate(-461.434 -396.21)" fill="none" stroke="#e2f3f5" stroke-miterlimit="10" stroke-width="5"/>
      <path id="Path_8167" data-name="Path 8167" d="M590.2,639.295c-7.573,10.768-13.417,25.419-9.362,38.941,4.043,13.482,16.971,21.794,22.62,34.6,3.193,7.238,3.279,15.2,3.4,22.965.158,10.169-1.829,20.969,5.045,29.564,4.066,5.084,10.2,8.087,16.4,10.061,12.459,3.963,25.511,5.823,36.577,13.308,18.181,12.3,40.508,16.6,62.173,15.268a140.742,140.742,0,0,0,32.408-5.954c12.228-3.732,23.1-10.339,35.409-13.878,21.338-6.133,50.516-6.217,63-27.807,8.407-14.535,11.32-32.5,4.779-48.338-3.11-7.53-9.045-13.282-12.426-20.675a47.43,47.43,0,0,1-2.81-32.711q.195-.669.406-1.333c3.26-10.145,9.823-18.868,12.537-29.195,5.6-21.32-6.779-43.863-23.056-57.567a68.913,68.913,0,0,0-22.552-13.136c-22.7-7.452-47.926,1.173-70.7-6.036-17.469-5.53-31.81-19.9-49.609-24.06-13.678-3.194-28.459.215-40.078,8.564s-20.051,21.414-23.894,35.8c-3.561,13.333-3.45,27.977-9.766,40.089-5.4,10.362-15.419,15.953-23.55,23.47A50.681,50.681,0,0,0,590.2,639.295Z" transform="translate(-486.195 -441.478)" fill="#e2f3f5"/>
      <g id="Group_5722" data-name="Group 5722" transform="translate(57.557 166.492)">
        <g id="Group_5670" data-name="Group 5670" transform="translate(0 102.424)">
          <g id="Group_5656" data-name="Group 5656" transform="translate(22.831 13.488)">
            <path id="Path_8168" data-name="Path 8168" d="M604.25,1901.77c-17.973-17.948-44.408-35.927-58.566-45.046-20.059-12.92-40.107-23.991-49.887-27.549l.33-.907c9.841,3.579,29.966,14.689,50.08,27.644,14.19,9.14,40.689,27.163,58.725,45.175Z" transform="translate(-495.797 -1828.268)" fill="#79c6d0"/>
          </g>
          <g id="Group_5657" data-name="Group 5657" transform="translate(0 3.32)">
            <path id="Path_8169" data-name="Path 8169" d="M360.642,1766a25.936,25.936,0,0,0-7.053-3.334c-1.532-.374-4.516-.5-5.34,1.295-2.446,5.314,13.045,7.94,15.537,8.208,3,.322,8.917,1.465,8.917,1.465S364.625,1768.4,360.642,1766Z" transform="translate(-347.988 -1762.44)" fill="#79c6d0"/>
          </g>
          <g id="Group_5658" data-name="Group 5658" transform="translate(13.921 18.524)">
            <path id="Path_8170" data-name="Path 8170" d="M446.768,1861.841a20.149,20.149,0,0,0-5.929,1.266c-1.123.491-3.023,1.823-2.688,3.317.994,4.436,11.8-1.245,13.468-2.255,2-1.214,6.2-3.3,6.2-3.3S450.36,1861.446,446.768,1861.841Z" transform="translate(-438.111 -1860.869)" fill="#79c6d0"/>
          </g>
          <g id="Group_5659" data-name="Group 5659" transform="translate(23.467)">
            <path id="Path_8171" data-name="Path 8171" d="M507.19,1748.76a20.15,20.15,0,0,0-2.279-5.618c-.679-1.02-2.322-2.659-3.735-2.069-4.2,1.752,3.282,11.405,4.567,12.869,1.544,1.761,4.329,5.53,4.329,5.53S508.2,1752.228,507.19,1748.76Z" transform="translate(-499.911 -1740.948)" fill="#79c6d0"/>
          </g>
          <g id="Group_5660" data-name="Group 5660" transform="translate(25.76 25.086)">
            <path id="Path_8172" data-name="Path 8172" d="M523.633,1903.716a20.148,20.148,0,0,0-5.989.94c-1.148.429-3.118,1.655-2.866,3.165.75,4.484,11.853-.6,13.571-1.515,2.066-1.1,6.37-2.956,6.37-2.956S527.242,1903.519,523.633,1903.716Z" transform="translate(-514.756 -1903.351)" fill="#79c6d0"/>
          </g>
          <g id="Group_5661" data-name="Group 5661" transform="translate(36.466 6.135)">
            <path id="Path_8173" data-name="Path 8173" d="M591.031,1788.763a20.143,20.143,0,0,0-1.969-5.734c-.622-1.056-2.173-2.782-3.616-2.27-4.285,1.52,2.654,11.567,3.856,13.1,1.446,1.842,4.02,5.758,4.02,5.758S591.854,1792.282,591.031,1788.763Z" transform="translate(-584.064 -1780.665)" fill="#79c6d0"/>
          </g>
          <g id="Group_5662" data-name="Group 5662" transform="translate(37.082 33.557)">
            <path id="Path_8174" data-name="Path 8174" d="M598.336,1958.426a23.188,23.188,0,0,0-6.908.98c-1.328.474-3.617,1.851-3.352,3.593.787,5.173,13.65-.486,15.643-1.512,2.4-1.234,7.381-3.293,7.381-3.293S602.492,1958.26,598.336,1958.426Z" transform="translate(-588.055 -1958.194)" fill="#79c6d0"/>
          </g>
          <g id="Group_5663" data-name="Group 5663" transform="translate(49.757 11.624)">
            <path id="Path_8175" data-name="Path 8175" d="M678.03,1825.607a23.187,23.187,0,0,0-2.168-6.632c-.7-1.225-2.453-3.239-4.122-2.674-4.957,1.676,2.857,13.357,4.214,15.14,1.632,2.145,4.528,6.694,4.528,6.694S678.917,1829.67,678.03,1825.607Z" transform="translate(-670.111 -1816.203)" fill="#79c6d0"/>
          </g>
          <g id="Group_5664" data-name="Group 5664" transform="translate(51.286 42.252)">
            <path id="Path_8176" data-name="Path 8176" d="M690.466,2014.484a23.189,23.189,0,0,0-6.943.688c-1.347.418-3.692,1.7-3.5,3.449.569,5.2,13.658.089,15.693-.853,2.446-1.132,7.513-2.979,7.513-2.979S694.625,2014.493,690.466,2014.484Z" transform="translate(-680.011 -2014.483)" fill="#79c6d0"/>
          </g>
          <g id="Group_5665" data-name="Group 5665" transform="translate(64.947 20.3)">
            <path id="Path_8177" data-name="Path 8177" d="M776.083,1882.008a23.192,23.192,0,0,0-1.887-6.718c-.646-1.254-2.314-3.339-4.006-2.846-5.023,1.466,2.292,13.465,3.573,15.3,1.541,2.212,4.242,6.879,4.242,6.879S776.8,1886.105,776.083,1882.008Z" transform="translate(-768.449 -1872.371)" fill="#79c6d0"/>
          </g>
          <g id="Group_5666" data-name="Group 5666" transform="translate(64.412 52.63)">
            <path id="Path_8178" data-name="Path 8178" d="M777.236,2081.792a26.674,26.674,0,0,0-8.017.375c-1.572.4-4.341,1.729-4.226,3.753.343,6.009,15.683.918,18.076-.042,2.877-1.153,8.807-2.973,8.807-2.973S782.012,2082.05,777.236,2081.792Z" transform="translate(-764.989 -2081.67)" fill="#79c6d0"/>
          </g>
          <g id="Group_5667" data-name="Group 5667" transform="translate(81.474 27.861)">
            <path id="Path_8179" data-name="Path 8179" d="M883.82,1932.711a26.671,26.671,0,0,0-1.766-7.829c-.667-1.479-2.459-3.974-4.431-3.508-5.857,1.384,1.828,15.6,3.19,17.792,1.637,2.632,4.461,8.155,4.461,8.155S884.4,1937.459,883.82,1932.711Z" transform="translate(-875.449 -1921.317)" fill="#79c6d0"/>
          </g>
          <g id="Group_5668" data-name="Group 5668" transform="translate(80.092 62.775)">
            <path id="Path_8180" data-name="Path 8180" d="M879.026,2147.81a26.668,26.668,0,0,0-8.022-.245c-1.6.277-4.462,1.389-4.5,3.415-.122,6.017,15.565,2.125,18.025,1.354,2.958-.928,9.011-2.284,9.011-2.284S883.768,2148.437,879.026,2147.81Z" transform="translate(-866.5 -2147.347)" fill="#79c6d0"/>
          </g>
          <g id="Group_5669" data-name="Group 5669" transform="translate(99.046 38.992)">
            <path id="Path_8181" data-name="Path 8181" d="M996.967,2005.189a26.673,26.673,0,0,0-1.156-7.942c-.551-1.526-2.145-4.152-4.148-3.839-5.946.927.618,15.7,1.807,17.985,1.429,2.751,3.818,8.475,3.818,8.475S997.176,2009.968,996.967,2005.189Z" transform="translate(-989.206 -1993.382)" fill="#79c6d0"/>
          </g>
        </g>
        <g id="Group_5685" data-name="Group 5685" transform="translate(255.393 88.678)">
          <g id="Group_5671" data-name="Group 5671" transform="translate(0 12.686)">
            <path id="Path_8182" data-name="Path 8182" d="M2002.131,1819.469l-.738-.51c13.482-19.5,34.7-40.439,46.156-51.182,16.231-15.227,32.782-28.766,41.186-33.692l.454.775c-8.352,4.9-24.839,18.387-41.026,33.572C2036.739,1779.15,2015.566,1800.033,2002.131,1819.469Z" transform="translate(-2001.393 -1734.085)" fill="#b6e0da"/>
          </g>
          <g id="Group_5672" data-name="Group 5672" transform="translate(86.093)">
            <path id="Path_8183" data-name="Path 8183" d="M2568.51,1656.836a24.142,24.142,0,0,1,5.895-4.233c1.339-.6,4.048-1.21,5.1.289,3.13,4.452-10.6,9.453-12.839,10.116-2.687.8-7.913,2.836-7.913,2.836S2565.268,1659.7,2568.51,1656.836Z" transform="translate(-2558.754 -1651.956)" fill="#b6e0da"/>
          </g>
          <g id="Group_5673" data-name="Group 5673" transform="translate(78.611 17.953)">
            <path id="Path_8184" data-name="Path 8184" d="M2520.587,1768.317a18.747,18.747,0,0,1,5.638.164c1.109.261,3.072,1.161,3.016,2.584-.166,4.226-11.008.84-12.7.2-2.036-.775-6.225-1.979-6.225-1.979S2517.234,1768.557,2520.587,1768.317Z" transform="translate(-2510.314 -1768.186)" fill="#b6e0da"/>
          </g>
          <g id="Group_5674" data-name="Group 5674" transform="translate(78.611 0.688)">
            <path id="Path_8185" data-name="Path 8185" d="M2511.154,1664.487a18.743,18.743,0,0,1,1.144-5.523c.45-1.047,1.678-2.823,3.07-2.52,4.133.9-1.091,10.986-2.021,12.541-1.117,1.87-3.033,5.785-3.033,5.785S2510.807,1667.831,2511.154,1664.487Z" transform="translate(-2510.314 -1656.41)" fill="#b6e0da"/>
          </g>
          <g id="Group_5675" data-name="Group 5675" transform="translate(68.643 25.249)">
            <path id="Path_8186" data-name="Path 8186" d="M2455.991,1815.724a18.747,18.747,0,0,1,5.638-.144c1.122.2,3.131.991,3.153,2.416.066,4.229-10.945,1.44-12.671.889-2.075-.662-6.324-1.636-6.324-1.636S2452.656,1816.148,2455.991,1815.724Z" transform="translate(-2445.786 -1815.416)" fill="#b6e0da"/>
          </g>
          <g id="Group_5676" data-name="Group 5676" transform="translate(68.643 8.487)">
            <path id="Path_8187" data-name="Path 8187" d="M2446.062,1715.179a18.748,18.748,0,0,1,.84-5.577c.393-1.07,1.522-2.91,2.928-2.684,4.176.672-.488,11.029-1.332,12.633-1.013,1.928-2.712,5.943-2.712,5.943S2445.9,1718.537,2446.062,1715.179Z" transform="translate(-2445.786 -1706.899)" fill="#b6e0da"/>
          </g>
          <g id="Group_5677" data-name="Group 5677" transform="translate(56.885 34.901)">
            <path id="Path_8188" data-name="Path 8188" d="M2381.381,1878.323a21.563,21.563,0,0,1,6.485-.262c1.295.211,3.62,1.087,3.669,2.726.147,4.865-12.571,1.844-14.567,1.239-2.4-.727-7.305-1.775-7.305-1.775S2377.55,1878.867,2381.381,1878.323Z" transform="translate(-2369.663 -1877.905)" fill="#b6e0da"/>
          </g>
          <g id="Group_5678" data-name="Group 5678" transform="translate(56.885 15.785)">
            <path id="Path_8189" data-name="Path 8189" d="M2369.805,1763.736a21.565,21.565,0,0,1,.872-6.432c.433-1.238,1.7-3.375,3.323-3.138,4.816.7-.374,12.7-1.317,14.56-1.134,2.236-3.02,6.885-3.02,6.885S2369.675,1767.6,2369.805,1763.736Z" transform="translate(-2369.663 -1754.148)" fill="#b6e0da"/>
          </g>
          <g id="Group_5679" data-name="Group 5679" transform="translate(45.241 44.857)">
            <path id="Path_8190" data-name="Path 8190" d="M2305.906,1942.974a21.566,21.566,0,0,1,6.469-.535c1.3.156,3.662.934,3.781,2.569.352,4.855-12.482,2.371-14.5,1.852-2.428-.625-7.374-1.466-7.374-1.466S2302.1,1943.679,2305.906,1942.974Z" transform="translate(-2294.28 -1942.356)" fill="#b6e0da"/>
          </g>
          <g id="Group_5680" data-name="Group 5680" transform="translate(44.877 26.277)">
            <path id="Path_8191" data-name="Path 8191" d="M2291.933,1831.819a21.568,21.568,0,0,1,.6-6.463c.381-1.256,1.558-3.443,3.188-3.276,4.841.5.161,12.7-.7,14.6-1.039,2.282-2.728,7.005-2.728,7.005S2291.965,1835.688,2291.933,1831.819Z" transform="translate(-2291.927 -1822.072)" fill="#b6e0da"/>
          </g>
          <g id="Group_5681" data-name="Group 5681" transform="translate(31.769 56.552)">
            <path id="Path_8192" data-name="Path 8192" d="M2220.273,2019.1a24.818,24.818,0,0,1,7.4-1c1.505.1,4.262.854,4.5,2.725.694,5.555-14.2,3.47-16.546,2.993-2.826-.573-8.557-1.243-8.557-1.243S2215.947,2020.137,2220.273,2019.1Z" transform="translate(-2207.064 -2018.069)" fill="#b6e0da"/>
          </g>
          <g id="Group_5682" data-name="Group 5682" transform="translate(30.516 36.03)">
            <path id="Path_8193" data-name="Path 8193" d="M2199.083,1896.626a24.8,24.8,0,0,1,.3-7.459c.362-1.465,1.583-4.048,3.467-3.953,5.591.284.944,14.583.065,16.814-1.056,2.683-2.714,8.21-2.714,8.21S2199.352,1901.067,2199.083,1896.626Z" transform="translate(-2198.95 -1885.211)" fill="#b6e0da"/>
          </g>
          <g id="Group_5683" data-name="Group 5683" transform="translate(19.233 68.284)">
            <path id="Path_8194" data-name="Path 8194" d="M2138.808,2095.591a24.82,24.82,0,0,1,7.3-1.569c1.509-.015,4.315.522,4.693,2.37,1.121,5.485-13.885,4.555-16.265,4.261-2.862-.353-8.627-.579-8.627-.579S2134.574,2096.96,2138.808,2095.591Z" transform="translate(-2125.907 -2094.022)" fill="#b6e0da"/>
          </g>
          <g id="Group_5684" data-name="Group 5684" transform="translate(16.604 49.182)">
            <path id="Path_8195" data-name="Path 8195" d="M2109.348,1982.025a24.82,24.82,0,0,1-.274-7.46c.248-1.488,1.266-4.158,3.151-4.208,5.6-.148,2.067,14.466,1.363,16.759-.846,2.757-2.073,8.395-2.073,8.395S2109.958,1986.432,2109.348,1982.025Z" transform="translate(-2108.886 -1970.355)" fill="#b6e0da"/>
          </g>
        </g>
        <g id="Group_5692" data-name="Group 5692" transform="translate(125.442)">
          <path id="Path_8196" data-name="Path 8196" d="M1225.3,1202.174c-4.3,8.11-11.026,21.349-21.481,22.324-3.342.312-6.661-.725-9.772-1.988a65.781,65.781,0,0,1-21.416-14.1,15.685,15.685,0,0,1-4.4-6.362c-.745-2.5-.156-5.565,2-7.024s4.656-1.662,4.109-5.021c-.978-6.016-6.782-11.051-10.041-15.876-2.367-3.5-6.379-11.031-2.78-14.976,2.452-2.687,7.718-.663,9.626-4.066a4.679,4.679,0,0,0-.1-4.017c-3.228-7.77-12.053-17.153-8.9-26.128a6.045,6.045,0,0,1,4.124-4.073c2.072-.442,4.227.623,6.316.268,2.477-.42,4.246-2.791,4.781-5.245s.1-5-.3-7.484c-.98-6.183-1.671-12.6.027-18.628,2.736-9.713,13.958-17.464,21.194-6.719,2.818,4.185,2.036,9.755.868,14.664-1.079,4.539-4.749,18.226,4.11,16.5,1.7-.332,3.347-1.036,5.078-1.005,3.487.062,6.334,3.254,6.985,6.68s-.448,6.953-1.967,10.092-3.47,6.075-4.7,9.337c-.912,2.413-1.125,5.71,1.1,7.011,2.317,1.355,5.192-.615,7.87-.439,3.019.2,5.228,3.222,5.574,6.227s-.7,5.977-1.737,8.821l-3.076,8.462c-1.1,3.022-2.067,6.786.123,9.14,1.335,1.435,3.428,1.813,5.145,2.756,3.4,1.871,5.125,5.977,5.067,9.86S1227.124,1198.744,1225.3,1202.174Z" transform="translate(-1160.093 -1077.86)" fill="#79c6d0"/>
          <g id="Group_5691" data-name="Group 5691" clip-path="url(#clip-path)">
            <g id="Group_5690" data-name="Group 5690" transform="translate(-9.616 -11.37)">
              <g id="Group_5686" data-name="Group 5686" transform="translate(36.325)">
                <path id="Path_8197" data-name="Path 8197" d="M1356.273,1179.442l-1,.274c-4.025-14.677-7.771-29.645-11.132-44.486-2.159-9.536-3.536-19.184-4.867-28.515-.552-3.871-1.123-7.874-1.745-11.845-.871-5.553-1.771-11.295-2.456-16.986-2.946-24.463-2.118-49.459-1.317-73.632l1.037.034c-.8,24.134-1.626,49.09,1.31,73.474.683,5.673,1.582,11.406,2.451,16.95.624,3.978,1.195,7.984,1.748,11.859,1.328,9.311,2.7,18.938,4.851,28.433C1348.511,1149.828,1352.252,1164.78,1356.273,1179.442Z" transform="translate(-1333.004 -1004.252)" fill="#b6e0da"/>
              </g>
              <g id="Group_5687" data-name="Group 5687" transform="translate(0 57.715)">
                <path id="Path_8198" data-name="Path 8198" d="M1143.391,1438.614l-.376-.21c-13.939-7.8-38-27.407-45.177-36.805l.824-.629c7.047,9.234,30.578,28.427,44.482,36.317,3.214-3.916,33.306-41.049,34.229-59.393l1.036.052c-.988,19.627-33.365,58.685-34.742,60.338Z" transform="translate(-1097.838 -1377.893)" fill="#b6e0da"/>
              </g>
              <g id="Group_5688" data-name="Group 5688" transform="translate(3.475 35.207)">
                <path id="Path_8199" data-name="Path 8199" d="M1157.278,1281.667l-.445-.433c-.279-.271-28-27.294-36.5-42.675l.908-.5c7.836,14.18,32.261,38.449,35.868,42,2.964-4.443,23.91-36.075,27.4-47.874l.994.294c-3.78,12.792-26.9,47.218-27.877,48.678Z" transform="translate(-1120.334 -1232.181)" fill="#b6e0da"/>
              </g>
              <g id="Group_5689" data-name="Group 5689" transform="translate(9.173 108.394)">
                <path id="Path_8200" data-name="Path 8200" d="M1200.579,1741.431c-.708.512-1.115.793-1.146.815l-.157.108-.189-.019c-17.307-1.779-30.683-10.349-41.863-18.242l.6-.847c11.031,7.788,24.213,16.241,41.179,18.038,2.133-1.491,25.342-18.01,34.353-35.29l.919.479C1225.925,1722.481,1205.623,1737.787,1200.579,1741.431Z" transform="translate(-1157.224 -1705.992)" fill="#b6e0da"/>
              </g>
            </g>
          </g>
        </g>
        <g id="Group_5703" data-name="Group 5703" transform="translate(257.241 41.224)">
          <path id="Path_8202" data-name="Path 8202" d="M2066.311,1410.714l13.951-3.409c13.37-25,22.57-51.623,30.038-62.566-2.753,1.222-33.674,16.066-52.01,28.062l.793,10.4-4.511-7.884c-1.894,1.334-3.583,2.616-5,3.816-20.243,17.192-42.021,44.668-34.809,73.125,3.028,11.95,15.722,7.38,23.565,3.385,15.923-8.111,28.542-24.614,38.818-42.692Z" transform="translate(-2013.356 -1344.739)" fill="#79c6d0"/>
          <g id="Group_5702" data-name="Group 5702" clip-path="url(#clip-path-2)">
            <g id="Group_5701" data-name="Group 5701" transform="translate(2.694 -1.704)">
              <g id="Group_5693" data-name="Group 5693" transform="translate(65.418 20.539)">
                <path id="Path_8203" data-name="Path 8203" d="M2461.655,1473.842a59.063,59.063,0,0,1-7.248,1.6l-.1-.819c6.317-.739,27.663-7.87,27.878-7.942l.262.782C2481.8,1467.679,2470.209,1471.55,2461.655,1473.842Z" transform="translate(-2454.311 -1466.679)" fill="#b6e0da"/>
              </g>
              <g id="Group_5700" data-name="Group 5700">
                <g id="Group_5694" data-name="Group 5694">
                  <path id="Path_8204" data-name="Path 8204" d="M2031.563,1458.247l-.765-.307c8.78-21.892,21.8-44.133,38.69-66.1,14.506-18.868,32.094-35.194,49.1-50.982,2.517-2.337,5.12-4.753,7.678-7.144l.563.6c-2.559,2.392-5.162,4.809-7.68,7.146-16.984,15.765-34.546,32.067-49.01,50.88C2053.3,1414.25,2040.316,1436.425,2031.563,1458.247Z" transform="translate(-2030.798 -1333.709)" fill="#b6e0da"/>
                </g>
                <g id="Group_5695" data-name="Group 5695" transform="translate(51.212 10.23)">
                  <path id="Path_8205" data-name="Path 8205" d="M2363.467,1432.65l-.821.078c-1.031-10.916.866-32.575.885-32.792l.822.073C2364.334,1400.225,2362.444,1421.809,2363.467,1432.65Z" transform="translate(-2362.34 -1399.935)" fill="#b6e0da"/>
                </g>
                <g id="Group_5696" data-name="Group 5696" transform="translate(28.436 27.656)">
                  <path id="Path_8206" data-name="Path 8206" d="M2220.836,1549.217a195.444,195.444,0,0,1-5.944-36.417l.823-.047a194.47,194.47,0,0,0,5.915,36.241Z" transform="translate(-2214.893 -1512.753)" fill="#b6e0da"/>
                </g>
                <g id="Group_5697" data-name="Group 5697" transform="translate(41.302 48.674)">
                  <path id="Path_8207" data-name="Path 8207" d="M2340.39,1651.054c-11.725,3.14-33.75,4.891-42.2,4.963l-.007-.825c9.642-.083,37.025-2.35,46.308-6.37l.327.757A32.744,32.744,0,0,1,2340.39,1651.054Z" transform="translate(-2298.183 -1648.822)" fill="#b6e0da"/>
                </g>
                <g id="Group_5698" data-name="Group 5698" transform="translate(20.803 77.89)">
                  <path id="Path_8208" data-name="Path 8208" d="M2203.82,1841.759c-10.22,2.737-22.1,3.311-38.342,3.258l0-.825c20.929.068,34.571-.9,46.708-6.225l.331.755A60.549,60.549,0,0,1,2203.82,1841.759Z" transform="translate(-2165.478 -1837.967)" fill="#b6e0da"/>
                </g>
                <g id="Group_5699" data-name="Group 5699" transform="translate(8.01 44.879)">
                  <path id="Path_8209" data-name="Path 8209" d="M2091.527,1669.825c-.563-1.946-1.176-3.964-1.824-6.1-3.631-11.969-8.15-26.865-6.8-39.468l.82.088c-1.33,12.437,3.162,27.243,6.771,39.141.649,2.139,1.262,4.159,1.827,6.111Z" transform="translate(-2082.656 -1624.256)" fill="#b6e0da"/>
                </g>
              </g>
            </g>
          </g>
        </g>
        <g id="Group_5714" data-name="Group 5714" transform="translate(77.785 3.033)">
          <path id="Path_8211" data-name="Path 8211" d="M882.262,1175.177l-13.613-6.6c-8.235-28.709-11.817-58.162-17.086-71.085,2.565,1.868,31.124,24,47.352,40.414l-3.12,10.538,6.391-7.121c1.655,1.794,3.111,3.487,4.3,5.036,17.043,22.187,33.389,55.305,19.662,83.016-5.764,11.637-17.826,4.121-25.019-1.729-14.6-11.878-23.946-31.668-30.528-52.561Z" transform="translate(-851.563 -1097.493)" fill="#b6e0da"/>
          <g id="Group_5713" data-name="Group 5713" clip-path="url(#clip-path-3)">
            <g id="Group_5712" data-name="Group 5712" transform="translate(-4.063 -2.024)">
              <g id="Group_5704" data-name="Group 5704" transform="translate(0.434 21.635)">
                <path id="Path_8212" data-name="Path 8212" d="M855.185,1239.624c-6.426-2.188-26.273-13.927-27.115-14.426l.441-.744c.205.122,20.611,12.191,26.953,14.351Z" transform="translate(-828.07 -1224.454)" fill="#79c6d0"/>
              </g>
              <g id="Group_5711" data-name="Group 5711">
                <g id="Group_5705" data-name="Group 5705" transform="translate(2.471)">
                  <path id="Path_8213" data-name="Path 8213" d="M911.939,1233.613c-4.184-24.413-12.643-50.124-25.142-76.419-10.733-22.578-25.211-43.256-39.214-63.252-2.075-2.964-4.221-6.029-6.326-9.057l.71-.494c2.1,3.028,4.25,6.092,6.324,9.055,14.023,20.026,28.522,40.733,39.286,63.377,12.533,26.367,21.016,52.154,25.213,76.645Z" transform="translate(-841.258 -1084.39)" fill="#79c6d0"/>
                </g>
                <g id="Group_5706" data-name="Group 5706" transform="translate(38.098 19.961)">
                  <path id="Path_8214" data-name="Path 8214" d="M1072.731,1247.692l-.825-.261c3.454-10.939,6.286-33.586,6.314-33.814l.858.106C1079.05,1213.953,1076.209,1236.678,1072.731,1247.692Z" transform="translate(-1071.906 -1213.618)" fill="#79c6d0"/>
                </g>
                <g id="Group_5707" data-name="Group 5707" transform="translate(51.138 43.139)">
                  <path id="Path_8215" data-name="Path 8215" d="M1157.093,1400.086l-.765-.4a204.963,204.963,0,0,0,14.114-36.016l.834.229A205.876,205.876,0,0,1,1157.093,1400.086Z" transform="translate(-1156.328 -1363.668)" fill="#79c6d0"/>
                </g>
                <g id="Group_5708" data-name="Group 5708" transform="translate(0 51.869)">
                  <path id="Path_8216" data-name="Path 8216" d="M871.857,1437.846c-9.963-2.231-37.833-10.69-46.6-16.953l.5-.7c8.669,6.2,36.37,14.592,46.282,16.812Z" transform="translate(-825.261 -1420.19)" fill="#79c6d0"/>
                </g>
                <g id="Group_5709" data-name="Group 5709" transform="translate(14.225 86.407)">
                  <path id="Path_8217" data-name="Path 8217" d="M964.405,1661.383c-21.687-4.588-35.608-8.64-47.054-16.9l.506-.7c11.322,8.166,25.157,12.187,46.727,16.751Z" transform="translate(-917.351 -1643.786)" fill="#79c6d0"/>
                </g>
                <g id="Group_5710" data-name="Group 5710" transform="translate(63.336 65.435)">
                  <path id="Path_8218" data-name="Path 8218" d="M1236.057,1553.125l-.762-.41c1.014-1.885,2.093-3.83,3.235-5.889,6.351-11.454,14.255-25.709,15.638-38.812l.86.091c-1.4,13.278-9.353,27.618-15.742,39.141C1238.146,1549.3,1237.068,1551.245,1236.057,1553.125Z" transform="translate(-1235.295 -1508.014)" fill="#79c6d0"/>
                </g>
              </g>
            </g>
          </g>
        </g>
        <g id="Group_5721" data-name="Group 5721" transform="translate(35.378 48.408)">
          <path id="Path_8220" data-name="Path 8220" d="M637.179,1504.458c8.385,2.834,21.86,7.66,29.832,1.422,2.549-1.995,4.188-4.918,5.532-7.863a63.42,63.42,0,0,0,5.669-24.061,15.117,15.117,0,0,0-1.131-7.369c-1.131-2.243-3.575-4-6.055-3.6s-4.363,1.918-6.2-.8c-3.3-4.863-2.564-12.234-3.474-17.773-.661-4.023-2.833-11.953-7.967-12.334-3.5-.26-5.847,4.645-9.437,3.523a4.512,4.512,0,0,1-2.587-2.883c-2.882-7.581-2.91-20-11.063-24.2a5.828,5.828,0,0,0-5.586-.124c-1.744,1.062-2.55,3.235-4.248,4.37-2.014,1.345-4.823.855-6.823-.51a19.607,19.607,0,0,1-4.748-5.439c-3.406-4.982-7.173-9.937-12.352-13.036-8.347-4.994-21.343-3-19.3,9.323.8,4.8,5.032,8.183,9.1,10.85,3.761,2.466,15.395,9.628,8.042,14.281-1.41.892-3.032,1.49-4.224,2.657-2.4,2.352-2.285,6.474-.472,9.3s4.917,4.575,8.06,5.77,6.454,1.96,9.477,3.429c2.237,1.087,4.568,3.256,3.87,5.643-.727,2.483-4.045,3.006-5.805,4.9-1.984,2.138-1.53,5.719.216,8.054s4.45,3.723,7.057,5.031l7.758,3.893c2.771,1.391,5.941,3.386,5.965,6.487.015,1.889-1.2,3.539-1.78,5.338-1.146,3.564.366,7.581,2.977,10.264S633.632,1503.26,637.179,1504.458Z" transform="translate(-577.023 -1391.248)" fill="#79c6d0"/>
          <g id="Group_5720" data-name="Group 5720" clip-path="url(#clip-path-4)">
            <g id="Group_5719" data-name="Group 5719" transform="translate(-3.925 -6.86)">
              <g id="Group_5715" data-name="Group 5715">
                <path id="Path_8221" data-name="Path 8221" d="M652.52,1484.507c-6.888-12.935-14.166-25.89-21.629-38.5-4.779-8.077-10.191-15.733-15.425-23.137-2.177-3.08-4.429-6.266-6.626-9.466-3.066-4.467-6.233-9.081-9.5-13.5-14.088-19.034-31.188-35.972-47.725-52.353l.7-.711c16.564,16.407,33.692,33.374,47.826,52.469,3.281,4.434,6.453,9.055,9.521,13.524,2.2,3.2,4.446,6.383,6.622,9.46,5.245,7.42,10.669,15.092,15.469,23.2,7.471,12.626,14.756,25.594,21.651,38.543Z" transform="translate(-551.611 -1346.838)" fill="#b6e0da"/>
              </g>
              <g id="Group_5716" data-name="Group 5716" transform="translate(8.471 32.507)">
                <path id="Path_8222" data-name="Path 8222" d="M632.764,1605.985c-10.833-2.992-21.1-6.941-26.313-11.931l.691-.722c12.792,12.243,58.462,18.341,63.306,18.957,4.519-14.733,8.3-43.761,7.127-54.9l.994-.1c1.2,11.334-2.688,41.006-7.29,55.7l-.124.4-.413-.049A292.782,292.782,0,0,1,632.764,1605.985Z" transform="translate(-606.451 -1557.287)" fill="#b6e0da"/>
              </g>
              <g id="Group_5717" data-name="Group 5717" transform="translate(2.089 6.894)">
                <path id="Path_8223" data-name="Path 8223" d="M591.865,1439.724c-10.576-2.921-21.609-6.4-26.73-9.374l.5-.865c10.255,5.961,45.874,14.259,50.892,15.41.179-4.875,1.227-38.053-2.67-53.176l.969-.249c4.227,16.405,2.693,53.693,2.677,54.068l-.026.6L616.9,1446C616,1445.8,604.249,1443.145,591.865,1439.724Z" transform="translate(-565.135 -1391.47)" fill="#b6e0da"/>
              </g>
              <g id="Group_5718" data-name="Group 5718" transform="translate(38.346 69.967)">
                <path id="Path_8224" data-name="Path 8224" d="M802.737,1839.554q-1.475-.407-2.879-.891l.327-.945c17.744,6.141,44.954,2.351,47.435,1.986,10.7-12.492,14.34-27.143,16.914-39.9l.98.2c-2.608,12.932-6.307,27.793-17.257,40.5l-.12.139-.181.028C847.68,1840.708,821.444,1844.719,802.737,1839.554Z" transform="translate(-799.859 -1799.801)" fill="#b6e0da"/>
              </g>
            </g>
          </g>
        </g>
      </g>
      <path id="Path_8226" data-name="Path 8226" d="M342.019,1939.713c24.718,8.23,51.89,8.372,78.368,8.408l166.245.223c25.893.035,52.339-.005,76.854-7.23,10.018-2.953,17.367-8.221,21.087-18.4,2.088-5.713,2.091-12.362-.891-17.665-2.05-3.645-5.33-6.432-8.73-8.866-8.877-6.357-19.564-10.955-30.45-10.119-11.347.871-22.415,7.522-33.482,4.868-8.537-2.047-15.065-9.293-23.558-11.514a26.39,26.39,0,0,0-15.362,1.067c-4.086,1.424-8.692,5.92-12.846,6.375-8.6.942-15.958-10.384-22.054-14.777a28.409,28.409,0,0,0-22.878-4.519c-14.122,3.372-24.766,17.379-39.281,17.749-14.35.366-26.591-12.988-40.9-11.843-14.158,1.132-24.046,15.954-38.1,18.017-12.526,1.84-24.687-7-37.271-5.6-14.81,1.645-22.087,15.037-29.188,26.316-3.538,5.62-7.768,9.192-3.744,16.145C329.137,1934.041,335.991,1937.706,342.019,1939.713Z" transform="translate(-270.32 -1578.464)" fill="#a6d277"/>
      <rect id="Rectangle_2438" data-name="Rectangle 2438" width="465.262" height="381.127" transform="translate(3.805)" fill="none"/>
      <rect id="Rectangle_2439" data-name="Rectangle 2439" width="463.396" height="53.143" transform="translate(463.396 394.865) rotate(180)" fill="#fff"/>
      <g id="Group_5723" data-name="Group 5723" transform="translate(17.252 337.455)">
        <ellipse id="Ellipse_417" data-name="Ellipse 417" cx="211.66" cy="5.7" rx="211.66" ry="5.7" transform="translate(0 0)" fill="#231f20" opacity="0.1"/>
      </g>
      <g id="Group_5750" data-name="Group 5750" transform="translate(105.238 88.325)">
        <g id="Group_5735" data-name="Group 5735" transform="translate(123.54)">
          <g id="Group_5734" data-name="Group 5734">
            <path id="Path_8227" data-name="Path 8227" d="M1467.711,571.811H1574.5a11.245,11.245,0,0,1,11.245,11.245V819.542a11.245,11.245,0,0,1-11.245,11.245H1467.711a11.245,11.245,0,0,1-11.246-11.245V583.056A11.245,11.245,0,0,1,1467.711,571.811Z" transform="translate(-1456.466 -571.811)" fill="#324751"/>
            <g id="Group_5732" data-name="Group 5732" transform="translate(6.36 24.984)">
              <rect id="Rectangle_2440" data-name="Rectangle 2440" width="116.964" height="214.859" transform="translate(116.964 214.859) rotate(180)" fill="#fff"/>
              <g id="Group_5731" data-name="Group 5731" clip-path="url(#clip-path-5)">
                <g id="Group_5730" data-name="Group 5730" transform="translate(-30.929 23.596)">
                  <path id="Path_8228" data-name="Path 8228" d="M1637.984,994.508c-4.817-4.138-5.849-11.373-4.456-17.568.912-4.054,2.712-8,2.551-12.15a13.416,13.416,0,0,0-8.722-11.832c-2.5-.883-5.256-1-7.652-2.141-3.625-1.727-5.617-5.374-6.941-8.99-1.441-3.938-.843-7.3-.86-11.424-.022-5.272-.156-10.55-.691-15.8-.618-6.05-4.24-12.047-8.391-16.395q-.894-.936-1.862-1.8c-10.78-9.623-31.385-13.837-44.159-6.01-2.545,1.56-4.127,3.715-6.147,5.779a38.991,38.991,0,0,1-7.188,5.351,176.757,176.757,0,0,1-15.7,8.25c-3.384,1.677-6.821,3.484-9.308,6.326a18.458,18.458,0,0,0-4.187,12.663,30.706,30.706,0,0,0,3.714,13.021c1.473,2.858,3.258,5.592,4.194,8.668,1.527,5.012-1.392,9.725-5.092,12.941-2.8,2.437-6.026,4.667-7.562,8.049a10.226,10.226,0,0,0,.3,8.933c1.365,2.535,3.77,4.406,5.044,6.988a9.435,9.435,0,0,1,.1,8.021c-1.48,3.194-4.85,6.16-3.742,9.5" transform="translate(-1476.013 -886.319)" fill="none" stroke="#755846" stroke-miterlimit="10" stroke-width="8"/>
                  <path id="Path_8229" data-name="Path 8229" d="M1623.128,1046.5c-9.65,3.938-21.814,2.747-30.336-3.314-8.564-6.091-16.417-10.57-27.3-10.893-6.758-.2-13.093,2.626-19.533,4.24-5.661,1.419-9.986,5.966-16.088,6.8-8.021,1.1-16.259-3.833-19.866-11.08s-2.819-16.268,1.216-23.286c2.946-5.123,5.654-8.947,2.344-14.658a24.772,24.772,0,0,1-2.122-3.747,10.456,10.456,0,0,1-.483-4.017c.3-7.4,5.9-12.949,9.639-19.06a12.916,12.916,0,0,0,2.014-4.564c.671-4.207-2.672-7.845-4.454-11.715-5.774-12.539,4.08-26.8,13.671-34.326,5.658-4.439,12.44-6.23,18.543-9.848,2.779-1.647,5.313-3.688,8.125-5.278,4.9-2.772,10.248-2.89,15.692-2.126,15.51,2.175,33.143,13.449,36.738,29.676,2.437,11-1.553,23.786,9.343,31.486,3.282,2.319,7.427,3.7,9.666,7.036,4.757,7.093-2.232,17.6,2.117,24.951a24.8,24.8,0,0,0,3.739,4.3,35.452,35.452,0,0,1,9.579,27.616,17.743,17.743,0,0,1-1.958,7.038c-1.656,2.934-4.462,5.009-7.2,6.965a66.673,66.673,0,0,1-12.951,7.746Z" transform="translate(-1475.217 -897.232)" fill="#755846"/>
                  <path id="Path_8230" data-name="Path 8230" d="M1714.666,1305.3a20.221,20.221,0,0,1-1.613,11.8c-4.747,9.878-16.5,11.8-26.414,12.19a59.018,59.018,0,0,1-10.991-.582c-3.237-.482-6.121.01-9.392-.065a35.956,35.956,0,0,1-18.357-5.525,17.067,17.067,0,0,1-6.522-6.656c-1.874-3.9-1.329-8.509-.337-12.721a25.677,25.677,0,0,1,2.54-7.022c1.336-2.315,3.253-4.282,4.367-6.711,2.093-4.567.373-9.905,2.234-14.385,1.457-3.508,5.121-7.468,8.161-9.661,4.137-2.985,9.473-3.927,14.562-3.581s10.014,1.881,14.862,3.466c3.817,1.248,7.1.475,9.9,3.628,2.219,2.5,1.445,6.579,2.154,9.608C1702.2,1289.263,1713.059,1294.638,1714.666,1305.3Z" transform="translate(-1587.193 -1204.23)" fill="#5e4130"/>
                  <path id="Path_8231" data-name="Path 8231" d="M1753.827,1403.063c5.594,6.36,16.346,6.865,23.872,4.263,5.123-1.771,8.743-5.81,8.851-11.362.12-6.208-5.324-10.618-6.7-16.4a38.909,38.909,0,0,1-.623-10c.094-3.895.121-7.8.31-11.689a41.354,41.354,0,0,0-11.075-1.054c-3.387.14-6.771-.214-10.157-.015a1.2,1.2,0,0,0-.761.225,1.092,1.092,0,0,0-.252.73c-.454,5.259-.008,10.585-.364,15.854-.327,4.842-1.412,9.716-4.247,13.726A12.807,12.807,0,0,0,1753.827,1403.063Z" transform="translate(-1680.513 -1284.08)" fill="#f8a17a"/>
                  <g id="Group_5724" data-name="Group 5724" transform="translate(106.68 107.755)">
                    <path id="Path_8232" data-name="Path 8232" d="M2023.809,1662.886l-16.711-24.381c-8.257-12.047-17.9-23.744-19.005-38.958-.549-7.541,4.207-15.081,12.248-15.6a17.487,17.487,0,0,1,13.046,4.892c3.974,3.666,6.811,8.367,9.729,12.866,9.063,13.97,16.762,28.765,24.12,43.687,4.763,9.658,10.911,19.2,13.965,29.579.789,2.682,1,6.031-1.024,8.238a17.734,17.734,0,0,1-9.542,5.112c-6.8,1.243-12.014-3.83-15.56-9Z" transform="translate(-1988.05 -1583.917)" fill="#a6b73e"/>
                  </g>
                  <path id="Path_8233" data-name="Path 8233" d="M2093.792,1702.823c1.747,8.9,2.95,18.314,4.7,27.214-1.885-3.082-4.628-6.919-6.121-9.2-2.973-4.545-6.533-9.079-10.017-14.614-2.868-4.556-5.354-13.625-7.015-18.75a33.894,33.894,0,0,1-1.891-7.131,53.026,53.026,0,0,1,.468-8.481q.27-3.365.668-6.719c.217-1.83,2.578-4.589,1.147-6.489a118.708,118.708,0,0,1,10.778,16.127c2.875,5.5,3.912,10.848,5.087,16.837Z" transform="translate(-1953.521 -1539.352)" fill="#a6b73e" opacity="0.5" style="mix-blend-mode: multiply;isolation: isolate"/>
                  <g id="Group_5725" data-name="Group 5725" transform="translate(0 108.753)">
                    <path id="Path_8234" data-name="Path 8234" d="M1316.671,1624.011c-4.117,8.772-7.942,17.687-11.269,26.79-2.3,6.3-4.906,12.514-6.5,19.044-1.332,5.472-2.878,12.685.738,17.6,3.252,4.421,9.5,5.707,14.489,3.746,4.149-1.63,7.077-5.459,9.043-9.323,2.608-5.126,5.214-10.279,7.961-15.351,5.705-10.532,12.032-20.707,17.808-31.189,5.111-9.275,9.549-19.691,9.388-30.48-.111-7.56-5.507-14.656-13.561-14.468a17.487,17.487,0,0,0-12.569,6.011c-3.64,4-6.055,8.929-8.57,13.665Q1319.979,1616.941,1316.671,1624.011Z" transform="translate(-1297.408 -1590.379)" fill="#a6b73e"/>
                  </g>
                  <path id="Path_8235" data-name="Path 8235" d="M1493.059,1718.374c-1.5,7.92-2.93,15.862-4.557,23.747q-.094.456-.191.912c1.595-3.242,4.25-8,5.528-10.411,2.545-4.8,7.441-13.224,10.324-17.95a43.51,43.51,0,0,0,5.639-13.95c.926-4.108-.361-6.246-1.128-10.339-.567-3.025-2.082-5.91-3.29-8.741-.589-1.382-1.013-3.169-1.6-4.54-.351-.822-1.252-4.887-.94-5.765a49.608,49.608,0,0,0-1.906,8.157C1498.719,1692.539,1495.514,1705.379,1493.059,1718.374Z" transform="translate(-1458.823 -1550.079)" fill="#a6b73e" opacity="0.5" style="mix-blend-mode: multiply;isolation: isolate"/>
                  <path id="Path_8236" data-name="Path 8236" d="M1811.308,1378.542a42.019,42.019,0,0,1-.471-9.26c.094-3.9.121-7.8.31-11.689a41.343,41.343,0,0,0-11.075-1.054c-3.388.14-6.771-.214-10.157-.015a1.2,1.2,0,0,0-.761.225,1.091,1.091,0,0,0-.252.73c-.454,5.259-.008,10.585-.364,15.854a38.594,38.594,0,0,1-.569,4.506c.532.465,1.073.912,1.63,1.323a17.356,17.356,0,0,0,14.821,2.7A22.381,22.381,0,0,0,1811.308,1378.542Z" transform="translate(-1712.194 -1283.841)" fill="#e5785c"/>
                  <g id="Group_5727" data-name="Group 5727" transform="translate(41.355 98.786)">
                    <path id="Path_8237" data-name="Path 8237" d="M1648.884,1606.055c-1.129,5.842-.863,13.681-1.076,19.734-.217,6.23.2,9.529,1,17.022.09.87-24.858,1.61-26.664,1.663-11.19.327-22.226.708-33.374-.681-5.974-.745-11.477-1.58-17.654-2.611.13-15.157.909-30.571-.906-45.661-1.769-14.712-5.122-29.813-5.068-44.647.018-4.836-.431-13.226,5.163-15.41,5-1.953,10.07-3.71,15.148-5.447a75.574,75.574,0,0,1,14.473-3.678,64.128,64.128,0,0,1,21.406,1.008,132.028,132.028,0,0,1,18.8,5.661c2.261.836,5.338,1.39,7.146,2.948,2.089,1.8,3.262,5.461,4.31,7.925a83.475,83.475,0,0,1,6.38,26.1c.322,4.2.525,8.81-.361,12.964-1.442,6.765-5.145,12.716-7.6,19.117A23.61,23.61,0,0,0,1648.884,1606.055Z" transform="translate(-1565.138 -1525.856)" fill="#a6b73e"/>
                    <g id="Group_5726" data-name="Group 5726" clip-path="url(#clip-path-6)">
                      <path id="Path_8238" data-name="Path 8238" d="M1732.705,1373.59a41.637,41.637,0,0,0-7.193-.332,29.891,29.891,0,0,0-18.237,6.322c-4.119,3.378-8.48,8.358-8.551,15.668-.042,4.419,1.883,8.333,3.708,12.351,6.213,13.684,15.953,24.4,27.564,23.181,14.8-1.554,23.957-22.691,18.266-42.558a23.27,23.27,0,0,0-5.053-9.712A17.783,17.783,0,0,0,1732.705,1373.59Z" transform="translate(-1678.089 -1396.807)" fill="#f8a17a"/>
                    </g>
                  </g>
                  <path id="Path_8240" data-name="Path 8240" d="M1667.589,1268.371c-5.571-2.512-6.647,5.017-5.444,8.63a11.788,11.788,0,0,0,2.252,4.109c1.4,1.588,5.255,4.105,7.208,2.1.887-.91.875-2.34.807-3.608C1672.23,1276.2,1671.366,1270.073,1667.589,1268.371Z" transform="translate(-1605.432 -1208.932)" fill="#e5785c"/>
                  <g id="Group_5729" data-name="Group 5729" transform="translate(82.486 12.992)">
                    <g id="Group_5728" data-name="Group 5728">
                      <path id="Path_8241" data-name="Path 8241" d="M1831.418,972.847a22.748,22.748,0,0,1,9.509-2.387,36.8,36.8,0,0,1,9.822,1.013,35.186,35.186,0,0,1,17.2,9.426,30.984,30.984,0,0,1,8.931,17.479,85.06,85.06,0,0,1,.358,9.9c.063,3.245.324,6.559,1.672,9.447a19.238,19.238,0,0,0,6.349,7.1c2.632,1.9,5.546,3.426,8.358,5.164a12.639,12.639,0,0,1,3.9,3.231,8.645,8.645,0,0,1,1.276,4.931,18.2,18.2,0,0,1-.634,4.984,34.459,34.459,0,0,1-1.814,4.63,9.348,9.348,0,0,0-.882,4.632,14.116,14.116,0,0,0,1.359,4.6c1.393,2.949,3.108,5.771,4.523,8.753a27.077,27.077,0,0,1,2.755,9.47,23.333,23.333,0,0,1-1.21,9.735,23.22,23.22,0,0,0,.983-9.713,26.729,26.729,0,0,0-2.938-9.294c-1.449-2.936-3.189-5.725-4.646-8.7a14.709,14.709,0,0,1-1.476-4.791,10.041,10.041,0,0,1,.868-4.962,33.94,33.94,0,0,0,1.725-4.562,17.641,17.641,0,0,0,.583-4.77,7.86,7.86,0,0,0-1.149-4.471,11.906,11.906,0,0,0-3.665-2.982c-2.784-1.706-5.722-3.223-8.434-5.163a20.088,20.088,0,0,1-6.67-7.428,24.194,24.194,0,0,1-1.719-9.829,84.736,84.736,0,0,0-.308-9.8,30.694,30.694,0,0,0-8.6-17.1,34.678,34.678,0,0,0-16.8-9.487,36.465,36.465,0,0,0-9.709-1.227A22.635,22.635,0,0,0,1831.418,972.847Z" transform="translate(-1831.418 -970.431)" fill="#8e6751"/>
                    </g>
                  </g>
                  <path id="Path_8242" data-name="Path 8242" d="M1739.651,1052.671a49.015,49.015,0,0,0-2.358-14.619c-6.2-18.11-28.967-22.28-42.448-9.023-15.033,14.784-8.7,49.526,7.529,61.529a18.015,18.015,0,0,0,15.382,2.8C1733.469,1088.9,1739.99,1069.395,1739.651,1052.671Z" transform="translate(-1626.25 -1000.418)" fill="#f8a17a"/>
                  <path id="Path_8243" data-name="Path 8243" d="M1735.142,1021.513c-4.886-18.51-27.29-24.306-41.689-12.052a30.152,30.152,0,0,0-5.528,6.78c-1.39,2.115-3.325,3.716-4.55,6.041a20.938,20.938,0,0,0-2.306,7.717c-.254,2.618.6,4.906.668,7.421a9.177,9.177,0,0,1,3.034-7,29.135,29.135,0,0,1,5.232-3.158,8.588,8.588,0,0,0,4.183-4.288c5.729,7.509,14.618,9.809,23.364,11.976,7.339,1.818,15.391,6.444,15.557,15.014a7.327,7.327,0,0,0,.564,2.808,12.47,12.47,0,0,0,.859-3.608c.158-1.4.563-2.788.837-4.186a61.951,61.951,0,0,0,1.076-8.713A49.018,49.018,0,0,0,1735.142,1021.513Z" transform="translate(-1621.767 -984.973)" fill="#e5785c"/>
                  <path id="Path_8244" data-name="Path 8244" d="M1699.915,1035.7a9.89,9.89,0,0,0,3.155-4.437c1.936-5.75,1.726-12.115,1.489-18.277a43.432,43.432,0,0,0-1.2-10.2,25.968,25.968,0,0,0-5.216-9.465,30.567,30.567,0,0,0-25.8-11.027c-3.786.326-6.57,2.159-9.894,3.714-3.246,1.518-7.059,2.352-10.473,3.489-3.939,1.312-7.993,2.689-11.118,5.444a20.492,20.492,0,0,0-5.136,7.49,21.413,21.413,0,0,0-1.155,10.743,28.388,28.388,0,0,0,2.028,8.915c1.222,2.6,3.941,4.294,6.376,5.589-.361-.192-.049-4.478-.059-5.139a35.019,35.019,0,0,1,1.321-11.3c1.132-3.542,3.375-5.709,6.294-7.869a21.594,21.594,0,0,0,3.315-2.847c.489-.545,2.617-3.057,2.268-3.835a25.657,25.657,0,0,0,7.493,9.9,84.944,84.944,0,0,0,19.984,10.586c.513.2,1.029.4,1.543.611a17.245,17.245,0,0,1,5.37,3.106c3.51,3.227,3.765,8.187,3.635,12.659a4.2,4.2,0,0,0,.132,1.456C1695,1037.205,1698.508,1036.78,1699.915,1035.7Z" transform="translate(-1582.315 -967.382)" fill="#755846"/>
                  <path id="Path_8245" data-name="Path 8245" d="M2009.6,1268.371c5.571-2.512,6.648,5.017,5.445,8.63a11.792,11.792,0,0,1-2.252,4.109c-1.4,1.588-5.255,4.105-7.209,2.1-.887-.91-.875-2.34-.807-3.608C2004.96,1276.2,2005.824,1270.073,2009.6,1268.371Z" transform="translate(-1895.49 -1208.932)" fill="#f8a17a"/>
                </g>
                <rect id="Rectangle_2441" data-name="Rectangle 2441" width="129.275" height="63.06" transform="translate(-6.36 177.558)" fill="#231f20" opacity="0.5"/>
                <rect id="Rectangle_2442" data-name="Rectangle 2442" width="129.275" height="26.752" transform="translate(-6.36 -3.606)" fill="#231f20" opacity="0.5"/>
                <circle id="Ellipse_418" data-name="Ellipse 418" cx="10.233" cy="10.233" r="10.233" transform="matrix(0.223, -0.975, 0.975, 0.223, 46.018, 207.425)" fill="#fff"/>
                <circle id="Ellipse_419" data-name="Ellipse 419" cx="7.439" cy="7.439" r="7.439" transform="translate(49.758 205.909) rotate(-80.92)" fill="#4651ed"/>
                <rect id="Rectangle_2443" data-name="Rectangle 2443" width="15.81" height="15.81" transform="translate(6.969 192.341)" fill="#fff"/>
                <rect id="Rectangle_2444" data-name="Rectangle 2444" width="29.361" height="3.84" rx="1.92" transform="translate(43.172 181.988)" fill="#fff"/>
                <rect id="Rectangle_2445" data-name="Rectangle 2445" width="29.361" height="3.84" rx="1.92" transform="translate(6.189 181.988)" fill="#fff"/>
                <rect id="Rectangle_2446" data-name="Rectangle 2446" width="29.361" height="3.84" rx="1.92" transform="translate(80.155 181.988)" fill="#fff"/>
              </g>
            </g>
            <path id="Path_8246" data-name="Path 8246" d="M1756.815,652.259H1791a1.367,1.367,0,0,0,1.363-1.363h0a1.367,1.367,0,0,0-1.363-1.363h-34.184a1.367,1.367,0,0,0-1.363,1.363h0A1.367,1.367,0,0,0,1756.815,652.259Z" transform="translate(-1709.269 -637.528)" fill="#9ed2f2"/>
            <rect id="Rectangle_2448" data-name="Rectangle 2448" width="117.119" height="13.623" transform="translate(123.479 38.364) rotate(180)" fill="#4352e9"/>
            <g id="Group_5733" data-name="Group 5733" transform="translate(91.39 28.189)">
              <circle id="Ellipse_420" data-name="Ellipse 420" cx="3.028" cy="3.028" r="3.028" transform="matrix(1, -0.01, 0.01, 1, 21.804, 0.06)" fill="#fff"/>
              <circle id="Ellipse_421" data-name="Ellipse 421" cx="3.028" cy="3.028" r="3.028" transform="matrix(1, -0.01, 0.01, 1, 10.902, 0.06)" fill="#fff"/>
              <circle id="Ellipse_422" data-name="Ellipse 422" cx="3.028" cy="3.028" r="3.028" transform="translate(0 0.06) rotate(-0.569)" fill="#fff"/>
            </g>
          </g>
        </g>
        <g id="Group_5749" data-name="Group 5749" transform="translate(0 105.364)">
          <path id="Path_8247" data-name="Path 8247" d="M1049.071,1307.359c-2.378-2.043-2.889-5.617-2.2-8.676.45-2,1.339-3.95,1.26-6a6.626,6.626,0,0,0-4.307-5.844,37.318,37.318,0,0,1-3.779-1.057,7.409,7.409,0,0,1-3.428-4.439c-.712-1.945-.416-3.605-.425-5.642-.011-2.6-.077-5.21-.341-7.8a14.6,14.6,0,0,0-4.144-8.1q-.441-.463-.919-.889c-5.324-4.753-15.5-6.834-21.808-2.968a16.172,16.172,0,0,0-3.036,2.854,19.256,19.256,0,0,1-3.55,2.642,87.307,87.307,0,0,1-7.753,4.074,14.334,14.334,0,0,0-4.6,3.124,9.114,9.114,0,0,0-2.068,6.254,15.162,15.162,0,0,0,1.834,6.43,26.5,26.5,0,0,1,2.072,4.28c.754,2.475-.688,4.8-2.515,6.391-1.384,1.2-2.976,2.3-3.734,3.975a5.05,5.05,0,0,0,.149,4.411c.674,1.252,1.862,2.176,2.491,3.451a4.66,4.66,0,0,1,.049,3.961c-.731,1.577-2.4,3.042-1.848,4.692" transform="translate(-934.452 -1253.93)" fill="none" stroke="#755846" stroke-miterlimit="10" stroke-width="8"/>
          <path id="Path_8248" data-name="Path 8248" d="M1041.735,1333.036a16.166,16.166,0,0,1-14.981-1.637c-4.229-3.008-8.108-5.22-13.481-5.38-3.337-.1-6.466,1.3-9.646,2.094-2.8.7-4.931,2.946-7.945,3.359a9.9,9.9,0,0,1-9.81-5.472,12.416,12.416,0,0,1,.6-11.5c1.455-2.53,2.793-4.418,1.158-7.239a12.233,12.233,0,0,1-1.048-1.851,5.16,5.16,0,0,1-.239-1.984c.147-3.655,2.916-6.395,4.76-9.413a6.379,6.379,0,0,0,.995-2.254c.331-2.078-1.32-3.874-2.2-5.785-2.852-6.192,2.015-13.236,6.751-16.951,2.794-2.192,6.144-3.077,9.158-4.864,1.372-.813,2.623-1.821,4.012-2.606a11.874,11.874,0,0,1,7.75-1.05c7.66,1.074,16.367,6.642,18.143,14.655,1.2,5.432-.767,11.747,4.614,15.549,1.621,1.145,3.668,1.826,4.773,3.475,2.349,3.5-1.1,8.692,1.046,12.322a12.255,12.255,0,0,0,1.847,2.124,17.506,17.506,0,0,1,4.731,13.637,8.76,8.76,0,0,1-.967,3.476,11.475,11.475,0,0,1-3.558,3.44,32.942,32.942,0,0,1-6.4,3.825Z" transform="translate(-934.059 -1259.32)" fill="#755846"/>
          <path id="Path_8249" data-name="Path 8249" d="M1086.94,1460.839a9.983,9.983,0,0,1-.8,5.826c-2.344,4.878-8.149,5.829-13.044,6.02a29.145,29.145,0,0,1-5.428-.287,35.64,35.64,0,0,0-4.638-.032,17.756,17.756,0,0,1-9.066-2.729,8.43,8.43,0,0,1-3.221-3.287c-.926-1.926-.656-4.2-.167-6.282a12.678,12.678,0,0,1,1.254-3.468c.66-1.143,1.607-2.115,2.157-3.314,1.034-2.255.184-4.892,1.1-7.1a12.986,12.986,0,0,1,4.03-4.771,11.012,11.012,0,0,1,7.191-1.768,30.538,30.538,0,0,1,7.339,1.712c1.885.617,3.506.235,4.888,1.792,1.1,1.234.714,3.249,1.064,4.745C1080.785,1452.921,1086.146,1455.575,1086.94,1460.839Z" transform="translate(-989.357 -1410.928)" fill="#5e4130"/>
          <path id="Path_8250" data-name="Path 8250" d="M1106.279,1509.12c2.762,3.141,8.073,3.39,11.789,2.105a6.019,6.019,0,0,0,4.371-5.611c.06-3.066-2.629-5.244-3.309-8.1a19.217,19.217,0,0,1-.307-4.937c.047-1.923.06-3.852.153-5.772a20.4,20.4,0,0,0-5.469-.521c-1.673.069-3.344-.106-5.016-.008a.592.592,0,0,0-.376.111.54.54,0,0,0-.124.361c-.224,2.6,0,5.228-.18,7.829a13.108,13.108,0,0,1-2.1,6.779A6.324,6.324,0,0,0,1106.279,1509.12Z" transform="translate(-1035.442 -1450.361)" fill="#f8a17a"/>
          <g id="Group_5736" data-name="Group 5736" transform="translate(87.315 53.214)">
            <path id="Path_8251" data-name="Path 8251" d="M1239.608,1637.432l-8.253-12.04c-4.078-5.949-8.839-11.726-9.386-19.239-.271-3.724,2.078-7.448,6.049-7.7a8.637,8.637,0,0,1,6.443,2.416,31.986,31.986,0,0,1,4.8,6.354,210.1,210.1,0,0,1,11.911,21.574c2.352,4.77,5.388,9.48,6.9,14.608.39,1.324.493,2.978-.506,4.068a8.757,8.757,0,0,1-4.712,2.524c-3.36.614-5.933-1.891-7.685-4.446Z" transform="translate(-1221.948 -1598.434)" fill="#a6b73e"/>
          </g>
          <path id="Path_8252" data-name="Path 8252" d="M1274.168,1657.155c.863,4.4,1.457,9.044,2.32,13.44-.931-1.522-2.286-3.417-3.023-4.544-1.468-2.245-3.226-4.484-4.947-7.217-1.416-2.25-2.644-6.729-3.464-9.259a16.75,16.75,0,0,1-.934-3.521,26.2,26.2,0,0,1,.231-4.188q.133-1.662.33-3.318c.107-.9,1.273-2.266.566-3.2a58.617,58.617,0,0,1,5.322,7.964,28.935,28.935,0,0,1,2.512,8.315Z" transform="translate(-1170.265 -1576.426)" fill="#a6b73e" opacity="0.5" style="mix-blend-mode: multiply;isolation: isolate"/>
          <g id="Group_5737" data-name="Group 5737" transform="translate(34.632 53.707)">
            <path id="Path_8253" data-name="Path 8253" d="M890.393,1618.234c-2.033,4.332-3.922,8.735-5.565,13.23a89,89,0,0,0-3.208,9.4c-.658,2.7-1.421,6.264.365,8.692a6.187,6.187,0,0,0,7.155,1.85,9.181,9.181,0,0,0,4.466-4.6c1.288-2.531,2.575-5.076,3.932-7.581,2.817-5.2,5.942-10.226,8.794-15.4,2.524-4.58,4.716-9.724,4.636-15.052-.055-3.733-2.719-7.238-6.7-7.145a8.636,8.636,0,0,0-6.207,2.969,31.987,31.987,0,0,0-4.232,6.749Q892.027,1614.742,890.393,1618.234Z" transform="translate(-880.881 -1601.625)" fill="#a6b73e"/>
          </g>
          <path id="Path_8254" data-name="Path 8254" d="M1032.217,1940.177a77.022,77.022,0,0,1-17.827-2.925.787.787,0,0,1-.383-.2.8.8,0,0,1-.091-.654,49.68,49.68,0,0,1,3.41-12.617,1.592,1.592,0,0,1,.573-.8,1.614,1.614,0,0,1,.832-.145c11.675.065,23.362.379,35.016.289a.464.464,0,0,1,.557.413c.778,2.4,1.385,4.831,2.093,7.245a28.686,28.686,0,0,1,1.578,6.784,2.414,2.414,0,0,1-.339,1.633c-.917,1.165-1.977,1.127-3.278,1.1-1.894-.036-3.806.088-5.7.1C1043.191,1940.459,1037.679,1940.5,1032.217,1940.177Z" transform="translate(-958.713 -1819.515)" fill="#63a2b3"/>
          <path id="Path_8255" data-name="Path 8255" d="M977.5,1664.833c-.739,3.911-1.447,7.833-2.25,11.728q-.047.225-.095.45c.787-1.6,2.1-3.952,2.73-5.141,1.257-2.37,3.675-6.531,5.1-8.865a21.485,21.485,0,0,0,2.785-6.889c.457-2.029-.178-3.084-.557-5.106a21.538,21.538,0,0,0-1.625-4.317c-.291-.682-.5-1.565-.789-2.242a8.534,8.534,0,0,1-.464-2.847,24.516,24.516,0,0,0-.941,4.028C980.3,1652.075,978.714,1658.417,977.5,1664.833Z" transform="translate(-925.963 -1581.723)" fill="#a6b73e" opacity="0.5" style="mix-blend-mode: multiply;isolation: isolate"/>
          <path id="Path_8256" data-name="Path 8256" d="M1134.666,1497.011a20.738,20.738,0,0,1-.233-4.573c.047-1.923.06-3.852.153-5.773a20.429,20.429,0,0,0-5.469-.521c-1.673.069-3.344-.106-5.016-.007a.591.591,0,0,0-.376.111.541.541,0,0,0-.124.36c-.224,2.6,0,5.228-.18,7.83a19.051,19.051,0,0,1-.281,2.225c.263.23.53.45.8.653a8.571,8.571,0,0,0,7.319,1.333A11.054,11.054,0,0,0,1134.666,1497.011Z" transform="translate(-1051.087 -1450.244)" fill="#e5785c"/>
          <g id="Group_5739" data-name="Group 5739" transform="translate(55.055 48.785)">
            <path id="Path_8257" data-name="Path 8257" d="M1054.454,1609.366c-.557,2.885-.426,6.756-.531,9.746a50.8,50.8,0,0,0,.494,8.406c.045.429-12.276.8-13.168.821a106.948,106.948,0,0,1-16.482-.337c-2.95-.368-5.668-.78-8.718-1.29.064-7.485.449-15.1-.448-22.549-.874-7.265-2.529-14.723-2.5-22.048.008-2.388-.213-6.531,2.55-7.61,2.469-.964,4.973-1.832,7.481-2.69a37.339,37.339,0,0,1,7.147-1.816,31.67,31.67,0,0,1,10.571.5,65.2,65.2,0,0,1,9.286,2.8c1.116.413,2.636.686,3.529,1.456,1.032.89,1.611,2.7,2.128,3.913a41.226,41.226,0,0,1,3.151,12.892,23.046,23.046,0,0,1-.178,6.4c-.712,3.341-2.541,6.28-3.752,9.441A11.669,11.669,0,0,0,1054.454,1609.366Z" transform="translate(-1013.097 -1569.761)" fill="#a6b73e"/>
            <g id="Group_5738" data-name="Group 5738" clip-path="url(#clip-path-7)">
              <path id="Path_8258" data-name="Path 8258" d="M1095.849,1494.566a20.561,20.561,0,0,0-3.552-.164,14.762,14.762,0,0,0-9.006,3.122c-2.034,1.668-4.188,4.128-4.223,7.738-.021,2.182.93,4.115,1.831,6.1,3.069,6.758,7.878,12.05,13.613,11.448,7.309-.767,11.831-11.205,9.02-21.017a11.486,11.486,0,0,0-2.5-4.8A8.781,8.781,0,0,0,1095.849,1494.566Z" transform="translate(-1068.878 -1506.031)" fill="#f8a17a"/>
            </g>
          </g>
          <path id="Path_8260" data-name="Path 8260" d="M1076.065,1837.54" transform="translate(-1011.284 -1747.393)" fill="#ff9243"/>
          <path id="Path_8261" data-name="Path 8261" d="M785.01,1681.462c-.476-.617-.949-1.23-1.412-1.843-2.542-3.365-5.29-6.57-7.832-9.937-1.7-2.255-3.363-4.543-5.065-6.8-1.446-1.917-2.638-4.339-4.511-5.864a2.407,2.407,0,0,0-1.585-.678c-.82.05-1.4.792-1.87,1.467a4.226,4.226,0,0,0-1.067,2.87,4.17,4.17,0,0,0,.373,1.081c1.608,3.564,3.088,7.232,4.8,10.754,2,4.172,4.166,8.271,6.542,12.243,1.329,2.221,2.777,4.375,4.155,6.579,1.414,2.262,2.847,4.8,5.126,6.307a5.3,5.3,0,0,0,6.292-.1,6.12,6.12,0,0,0,2.406-5.217,9.2,9.2,0,0,0-1.122-3.22A54.948,54.948,0,0,0,785.01,1681.462Z" transform="translate(-745.43 -1594.18)" fill="#f8a17a"/>
          <g id="Group_5746" data-name="Group 5746" transform="translate(0 52.602)">
            <path id="Path_8262" data-name="Path 8262" d="M665,1596.2a16.55,16.55,0,0,0-3.748-.42c-.87-.008-1.993.064-2.442.947a.426.426,0,0,0,.05.5.575.575,0,0,0,.2.108c1.342.493,2.939.257,4.124,1.056a4.535,4.535,0,0,0-1.562-.277q-.828-.109-1.664-.14a5.7,5.7,0,0,0-2.749.357.941.941,0,0,0-.508.555.956.956,0,0,0,.462,1,2.8,2.8,0,0,0,1.123.337l.928.14a3.987,3.987,0,0,0-1.94.218,1,1,0,0,0-.5,1.291c.24.4.713.425,1.114.545.62.185,1.292.235,1.9.471-.371-.134-.877.247-1.139.542a1.276,1.276,0,0,0-.264,1.109.834.834,0,0,0,.212.422,1.167,1.167,0,0,0,.556.248l3.937.974c2.033.5,4.076.8,6.071,1.475a14.6,14.6,0,0,1,2.135.816c1.1.581,2.63.96,3.478,1.912.719.807,2.361,2.6,3.411,2.854,1.478.361,1.362.065,1.951-1.064.746-1.431-1.224-3.806-1.951-5.121-.478-.865-.134-2.185-.393-3.138a13.122,13.122,0,0,0-1-2.572,7.262,7.262,0,0,0-1.253-1.641,13.184,13.184,0,0,0-1.4-1.064,12.767,12.767,0,0,1-2.16-2.787c-.479-.687-1-1.47-1.953-1.367a1.585,1.585,0,0,0-1.244.894c-.268.58.025.815.347,1.287.226.332.62,1.237.967,1.417A22.523,22.523,0,0,0,665,1596.2Z" transform="translate(-656.676 -1594.47)" fill="#f8a17a"/>
            <g id="Group_5741" data-name="Group 5741" transform="translate(6.041 3.709)">
              <g id="Group_5740" data-name="Group 5740">
                <path id="Path_8263" data-name="Path 8263" d="M700.15,1619.755a9.122,9.122,0,0,0-1.031-.5,10.69,10.69,0,0,0-1.082-.379,10.5,10.5,0,0,0-1.116-.261q-.283-.048-.567-.086c-.19-.019-.38-.04-.571-.049.187.04.374.074.559.116s.372.079.556.124c.369.089.736.183,1.1.29s.724.223,1.083.345S699.794,1619.618,700.15,1619.755Z" transform="translate(-695.783 -1618.482)" fill="#e5785c"/>
              </g>
            </g>
            <g id="Group_5743" data-name="Group 5743" transform="translate(1.954 5.912)">
              <g id="Group_5742" data-name="Group 5742">
                <path id="Path_8264" data-name="Path 8264" d="M676.731,1633.611a10.765,10.765,0,0,0-1.8-.528,16.725,16.725,0,0,0-1.86-.262c-.624-.047-1.25-.074-1.875-.077-.312,0-.625,0-.937.007s-.624.016-.936.032l1.871.069c.623.025,1.246.051,1.866.108s1.238.125,1.851.229A15.8,15.8,0,0,1,676.731,1633.611Z" transform="translate(-669.323 -1632.744)" fill="#e5785c"/>
              </g>
            </g>
            <g id="Group_5745" data-name="Group 5745" transform="translate(2.863 8.401)">
              <g id="Group_5744" data-name="Group 5744">
                <path id="Path_8265" data-name="Path 8265" d="M680.912,1649.677q-.164-.077-.33-.151l-.339-.133-.346-.113-.351-.1a9.96,9.96,0,0,0-1.434-.249q-.724-.072-1.451-.074-.363,0-.726.005c-.242.009-.483.015-.725.03.242.017.483.025.724.039l.723.033c.482.027.962.055,1.44.106a14.218,14.218,0,0,1,1.425.214A10.37,10.37,0,0,1,680.912,1649.677Z" transform="translate(-675.21 -1648.86)" fill="#e5785c"/>
              </g>
            </g>
          </g>
          <path id="Path_8266" data-name="Path 8266" d="M1063.692,1442.6c-2.751-1.241-3.283,2.477-2.689,4.262a5.827,5.827,0,0,0,1.113,2.029c.692.784,2.6,2.027,3.56,1.037a2.32,2.32,0,0,0,.4-1.782C1065.984,1446.47,1065.557,1443.445,1063.692,1442.6Z" transform="translate(-998.364 -1413.25)" fill="#e5785c"/>
          <g id="Group_5748" data-name="Group 5748" transform="translate(75.367 6.416)">
            <g id="Group_5747" data-name="Group 5747">
              <path id="Path_8267" data-name="Path 8267" d="M1144.6,1296.662a11.233,11.233,0,0,1,4.7-1.179,18.174,18.174,0,0,1,4.85.5,17.377,17.377,0,0,1,8.5,4.655,15.3,15.3,0,0,1,4.41,8.632,42.021,42.021,0,0,1,.177,4.888,11.544,11.544,0,0,0,.826,4.665,9.5,9.5,0,0,0,3.135,3.508c1.3.94,2.739,1.692,4.128,2.55a6.24,6.24,0,0,1,1.925,1.6,4.268,4.268,0,0,1,.63,2.435,9,9,0,0,1-.313,2.461,17.064,17.064,0,0,1-.9,2.286,4.615,4.615,0,0,0-.436,2.287,6.967,6.967,0,0,0,.671,2.273c.688,1.456,1.535,2.85,2.234,4.323a13.367,13.367,0,0,1,1.36,4.677,11.519,11.519,0,0,1-.6,4.808,11.467,11.467,0,0,0,.486-4.8,13.2,13.2,0,0,0-1.451-4.589c-.716-1.45-1.575-2.828-2.294-4.3a7.269,7.269,0,0,1-.729-2.366,4.958,4.958,0,0,1,.429-2.45,16.807,16.807,0,0,0,.852-2.253,8.711,8.711,0,0,0,.288-2.355,3.883,3.883,0,0,0-.567-2.208,5.882,5.882,0,0,0-1.81-1.473c-1.375-.842-2.826-1.592-4.165-2.55a9.922,9.922,0,0,1-3.294-3.668,11.949,11.949,0,0,1-.849-4.854,41.823,41.823,0,0,0-.152-4.838,15.16,15.16,0,0,0-4.248-8.442,17.124,17.124,0,0,0-8.3-4.685,17.993,17.993,0,0,0-4.8-.606A11.177,11.177,0,0,0,1144.6,1296.662Z" transform="translate(-1144.597 -1295.469)" fill="#8e6751"/>
            </g>
          </g>
          <path id="Path_8268" data-name="Path 8268" d="M884.719,1974.762a23.606,23.606,0,0,1-4.979,4.5c-9.762,6.809-21.427,11.466-32.993,14.466-10.331,2.68-21.158,2.561-31.725,1.521-7.222-.711-14.408-2.949-21.374-5.026a125.4,125.4,0,0,1-20.912-8.065c-5.262-2.665-9.977-5.974-10.779-12.272-.316-2.477.228-5.221,2.125-6.9,2.285-2.024,5.743-1.956,8.823-1.717,17.455,1.351,34.358,7.23,51.933,7.339,9.809.061,18.954-2.49,28.38-4.8,7.271-1.779,15.343-3.736,22.914-3.363C883,1960.784,889.782,1968.378,884.719,1974.762Z" transform="translate(-745.623 -1851.275)" fill="#4651ed"/>
          <path id="Path_8269" data-name="Path 8269" d="M1123.623,2156.875c2.425.564,5.007.776,7.273,1.174,1.022.179,2.044.358,3.075.469a46.759,46.759,0,0,0,4.936.181l3.591.005a3.063,3.063,0,0,0,3.4-2.061,45.083,45.083,0,0,0,2.293-4.047,10.445,10.445,0,0,1,1.085-2.291,2.716,2.716,0,0,0,.662-2.571c-.446-1.068-1.822-1.334-2.979-1.354a21.111,21.111,0,0,0-2.923.153c-3.839.47-7.495,1.984-11.339,2.411a45.542,45.542,0,0,1-7.4-.036c-1.966-.1-4.983-.609-6.739.521a4.436,4.436,0,0,0-1.919,2.46c-.11,1.11,1.132,2.269,1.921,2.85A13.643,13.643,0,0,0,1123.623,2156.875Z" transform="translate(-1045.589 -2008.526)" fill="#f8a17a"/>
          <path id="Path_8270" data-name="Path 8270" d="M1152.122,2152.752c.024-.052.05-.1.072-.156a10.467,10.467,0,0,1,1.085-2.291,2.716,2.716,0,0,0,.663-2.571c-.446-1.068-1.822-1.334-2.979-1.354a21.108,21.108,0,0,0-2.923.153c-3.839.469-7.495,1.984-11.339,2.411a37.21,37.21,0,0,1-6.074.035c-1.467.657-6.755,2.38-9.258,4.656a7.156,7.156,0,0,0,1.2,1.1,13.643,13.643,0,0,0,5.058,2.135c1.532.356,3.125.572,4.663.783,5.132-.9,10.19-2.486,15.2-3.731Q1149.793,2153.351,1152.122,2152.752Z" transform="translate(-1049.589 -2008.526)" fill="#e5785c"/>
          <path id="Path_8271" data-name="Path 8271" d="M1216.161,2158.668c2.135-.207,4.839-.65,6.3-2.221a6.333,6.333,0,0,0,1.532-4.448,4.34,4.34,0,0,0-2.693-3.593,12.367,12.367,0,0,1,10.627-.663,5.987,5.987,0,0,1,1.078.546c4.553,2.915,1.546,8.605-2.2,10.613a11.059,11.059,0,0,1-5.582,1.286c-1.559-.053-2.6-.229-4.145-.415C1219.208,2159.549,1218.274,2159.1,1216.161,2158.668Z" transform="translate(-1129.74 -2008.922)" fill="#ea394a"/>
          <path id="Path_8272" data-name="Path 8272" d="M841.138,1990.734c5.275,2.758,10.6,5.419,15.938,8.051q6.117,2.96,12.259,5.872a5.016,5.016,0,0,1,1.406.865,1.646,1.646,0,0,1-.573,2.835,4.5,4.5,0,0,1-1.838.116,49.337,49.337,0,0,1-11.284-2.573c-3.533-1.169-7.084-1.982-10.649-3.044a66.718,66.718,0,0,1-16.114-6.772,87.132,87.132,0,0,1-10.224-7.792c-1.768-1.49-3.538-2.983-5.165-4.625-1.388-1.4-2.761-3.3-2.166-5.179a29.463,29.463,0,0,1,12.3,3.468c2.866,1.415,5.6,3.069,8.393,4.625Q837.251,1988.711,841.138,1990.734Z" transform="translate(-788.505 -1866.567)" fill="#88c1ca" style="mix-blend-mode: multiply;isolation: isolate"/>
          <path id="Path_8273" data-name="Path 8273" d="M1148.8,1990.734c-5.275,2.758-10.6,5.419-15.938,8.051q-6.117,2.96-12.259,5.872a5.013,5.013,0,0,0-1.406.865,1.646,1.646,0,0,0,.572,2.835,4.5,4.5,0,0,0,1.838.116,49.337,49.337,0,0,0,11.284-2.573c3.533-1.169,7.084-1.982,10.649-3.044a66.716,66.716,0,0,0,16.114-6.772,87.134,87.134,0,0,0,10.224-7.792c1.768-1.49,3.538-2.983,5.165-4.625,1.388-1.4,2.761-3.3,2.166-5.179a29.464,29.464,0,0,0-12.3,3.468c-2.866,1.415-5.6,3.069-8.393,4.625Q1152.688,1988.711,1148.8,1990.734Z" transform="translate(-1047.262 -1866.567)" fill="#88c1ca" style="mix-blend-mode: multiply;isolation: isolate"/>
          <path id="Path_8274" data-name="Path 8274" d="M803.9,1987.947c3.366,1.96,6.766,3.94,10.2,5.737.068.036.138.07.207.1,1.468.7,2.989,1.285,4.449,2.007a26.823,26.823,0,0,1,2.713,1.515,14.1,14.1,0,0,1,1.187.852,2.13,2.13,0,0,1,.511.452,1.046,1.046,0,0,1-.019.8,2.13,2.13,0,0,1-.416.633,7.709,7.709,0,0,1-2.5,1.691q-.847.405-1.72.751a10.216,10.216,0,0,1-1.7.6,2.88,2.88,0,0,1-.867-.076q-.454-.062-.906-.134-.905-.143-1.805-.32c-2.74-.535-5.433-1.28-8.106-2.08-2.651-.794-5.286-1.645-7.945-2.411-12.559-3.618-25.623-7.672-36.559-15.022a16.022,16.022,0,0,1-6.13-7.093c-2.819-7.591,5.248-13.471,12.131-10.612,11.5,4.776,20.969,13.34,31.809,19.459C800.249,1985.823,802.068,1986.882,803.9,1987.947Z" transform="translate(-738.901 -1854.831)" fill="#f8a17a"/>
          <path id="Path_8275" data-name="Path 8275" d="M1222.445,2000.36c2.531-.763,5.043-1.571,7.546-2.292,12.559-3.618,25.623-7.672,36.559-15.022a16.02,16.02,0,0,0,6.13-7.093c2.819-7.591-5.248-13.471-12.131-10.612-11.5,4.776-20.969,13.34-31.809,19.459-1.809,1.022-3.628,2.081-5.457,3.146-1.57.915-3.148,1.833-4.734,2.736" transform="translate(-1131.761 -1854.831)" fill="#4651ed"/>
          <path id="Path_8276" data-name="Path 8276" d="M1131.437,2133.427c-1.813,1.032-3.636,2.043-5.47,3-1.876.98-12.951,4.806-9.923,8.8a3.306,3.306,0,0,0,2.7.887c5.659.054,11.161-1.378,16.583-3.013" transform="translate(-1044.647 -1997.575)" fill="#f8a17a"/>
          <path id="Path_8277" data-name="Path 8277" d="M1003.212,2143.812c-1.024-.535-2.044-1.09-3.062-1.653a34.177,34.177,0,0,1-5.363.942c-3.856.292-7.73-.518-11.589-.269a21.184,21.184,0,0,0-2.9.391c-1.134.234-2.437.75-2.677,1.882a1.653,1.653,0,0,0-.023.49c2.907.912,5.818,1.769,8.7,2.6,3.934,1.133,7.893,2.48,11.906,3.533l.04-.015c2.153-.81,4.651-1.5,6.93-2.5a14.508,14.508,0,0,0,4.1-2.556C1006.81,2145.29,1004.063,2144.257,1003.212,2143.812Z" transform="translate(-928.019 -2004.958)" fill="#e5785c"/>
          <path id="Path_8278" data-name="Path 8278" d="M804.775,2000.36c-2.531-.763-5.043-1.571-7.546-2.292-12.559-3.618-25.623-7.672-36.559-15.022a16.022,16.022,0,0,1-6.13-7.093c-2.819-7.591,5.248-13.471,12.131-10.612,11.5,4.776,20.969,13.34,31.809,19.459,1.809,1.022,3.628,2.081,5.457,3.146,1.57.915,3.148,1.833,4.733,2.736" transform="translate(-738.935 -1854.831)" fill="#4651ed"/>
          <path id="Path_8279" data-name="Path 8279" d="M1025.766,2159.214c-2.425.564-5.007.776-7.273,1.174-1.022.179-2.044.358-3.075.469a46.89,46.89,0,0,1-4.936.181l-3.591.005a3.063,3.063,0,0,1-3.4-2.061,45.036,45.036,0,0,1-2.293-4.047c-.4-.931-.829-1.843-.282-2.814a4.709,4.709,0,0,1,1.088-1.214,8.687,8.687,0,0,1,1.718-1.2c2.057-1.037,4.15-.427,6.248.113a48.714,48.714,0,0,0,6.721,1.463,45.513,45.513,0,0,0,7.4-.036c1.966-.1,4.983-.608,6.739.522a4.436,4.436,0,0,1,1.919,2.459c.11,1.11-1.131,2.27-1.921,2.851A13.639,13.639,0,0,1,1025.766,2159.214Z" transform="translate(-947.52 -2010.865)" fill="#f8a17a"/>
          <path id="Path_8280" data-name="Path 8280" d="M1002.573,2158.668c-2.135-.207-4.839-.65-6.3-2.221a6.332,6.332,0,0,1-1.532-4.448,4.34,4.34,0,0,1,2.693-3.593,12.367,12.367,0,0,0-10.627-.663,5.984,5.984,0,0,0-1.078.546c-4.553,2.915-1.546,8.605,2.2,10.613a11.059,11.059,0,0,0,5.582,1.286c1.559-.053,2.6-.229,4.145-.415C999.526,2159.549,1000.46,2159.1,1002.573,2158.668Z" transform="translate(-932.96 -2008.922)" fill="#ea394a"/>
          <path id="Path_8281" data-name="Path 8281" d="M1099.278,1336.083a24.206,24.206,0,0,0-1.165-7.219c-3.064-8.943-14.3-11-20.962-4.456-7.424,7.3-4.3,24.458,3.718,30.385a8.9,8.9,0,0,0,7.6,1.384C1096.226,1353.976,1099.446,1344.341,1099.278,1336.083Z" transform="translate(-1008.645 -1310.278)" fill="#f8a17a"/>
          <path id="Path_8282" data-name="Path 8282" d="M1097.052,1320.7c-2.413-9.141-13.477-12-20.588-5.952a14.889,14.889,0,0,0-2.73,3.348,36.622,36.622,0,0,0-2.247,2.983,10.339,10.339,0,0,0-1.139,3.811,27.83,27.83,0,0,0,.33,3.665,4.532,4.532,0,0,1,1.5-3.458,14.378,14.378,0,0,1,2.584-1.56,4.241,4.241,0,0,0,2.066-2.118c2.829,3.708,7.219,4.844,11.538,5.914,3.624.9,7.6,3.182,7.683,7.415a3.62,3.62,0,0,0,.279,1.387,6.156,6.156,0,0,0,.424-1.782c.078-.69.278-1.377.413-2.067a30.579,30.579,0,0,0,.531-4.3A24.206,24.206,0,0,0,1097.052,1320.7Z" transform="translate(-1006.431 -1302.651)" fill="#e5785c"/>
          <path id="Path_8283" data-name="Path 8283" d="M1079.656,1327.7a4.884,4.884,0,0,0,1.558-2.191c.956-2.839.852-5.983.735-9.026a21.427,21.427,0,0,0-.594-5.035,12.823,12.823,0,0,0-2.576-4.674,15.1,15.1,0,0,0-12.741-5.446c-1.87.161-3.244,1.066-4.886,1.834a48.383,48.383,0,0,1-5.172,1.723,15.405,15.405,0,0,0-5.491,2.689,10.118,10.118,0,0,0-2.536,3.7,10.573,10.573,0,0,0-.57,5.305,14.015,14.015,0,0,0,1,4.4,6.815,6.815,0,0,0,3.149,2.76,12.172,12.172,0,0,1-.029-2.538,17.3,17.3,0,0,1,.652-5.578,7.614,7.614,0,0,1,3.108-3.886,10.656,10.656,0,0,0,1.637-1.406c.242-.27,1.292-1.51,1.12-1.894a12.673,12.673,0,0,0,3.7,4.888,41.959,41.959,0,0,0,9.869,5.228c.253.1.508.2.762.3a8.522,8.522,0,0,1,2.652,1.534c1.733,1.594,1.859,4.043,1.8,6.251a2.072,2.072,0,0,0,.065.719C1077.227,1328.445,1078.961,1328.235,1079.656,1327.7Z" transform="translate(-986.948 -1293.963)" fill="#755846"/>
          <path id="Path_8284" data-name="Path 8284" d="M1232.592,1442.6c2.751-1.241,3.283,2.477,2.689,4.262a5.825,5.825,0,0,1-1.112,2.029c-.692.784-2.6,2.027-3.56,1.037a2.32,2.32,0,0,1-.4-1.782C1230.3,1446.47,1230.727,1443.445,1232.592,1442.6Z" transform="translate(-1141.607 -1413.25)" fill="#f8a17a"/>
          <path id="Path_8285" data-name="Path 8285" d="M1137.737,1732.792l-8.732.276a1.236,1.236,0,0,1-1.274-1.19l-.73-20.133a1.236,1.236,0,0,1,1.235-1.281h10.113a1.236,1.236,0,0,1,1.235,1.276l-.651,19.857A1.235,1.235,0,0,1,1137.737,1732.792Z" transform="translate(-1054.352 -1639.945)" fill="#324751"/>
          <path id="Path_8286" data-name="Path 8286" d="M1196.528,1832.241c-.727-1.33.125-2.988.2-4.32a1.556,1.556,0,0,1,.168-.744,1.335,1.335,0,0,1,1.346-.429,5.792,5.792,0,0,1,1.514.565c4.6,2.167,9.513,2.418,14.373,3.085l8.524,1.17a44.536,44.536,0,0,1,6.84.978,19.907,19.907,0,0,1,5.251,2.276c3.6,2.4,1.985,7.271-1.45,8.888-2.163,1.019-4.874.86-7.39.543-7.616-.958-14.422-3.991-21.377-7.007C1201.935,1836.12,1197.938,1834.765,1196.528,1832.241Z" transform="translate(-1112.893 -1738.247)" fill="#f8a17a"/>
          <path id="Path_8287" data-name="Path 8287" d="M1135.6,1769.905c1.493-.518,2.9-2.521,3.635-3.834a1.28,1.28,0,0,0,.219-.983,1.42,1.42,0,0,0-.7-.676,15.431,15.431,0,0,1-3.644-3.076c-1.9-2.2-1.537-4.336-2.055-7a19.725,19.725,0,0,1-.646-4.288,1.8,1.8,0,0,0-.136-1.056c-.584-.91-1.592-.084-1.827.582a7.883,7.883,0,0,0-.755,3.112,10.624,10.624,0,0,1,.054,2.554,2.422,2.422,0,0,1-1.1,1.64,3.5,3.5,0,0,1-1.944.226c-.766-.057-1.495,0-2.247-.029-1.521-.052-3.919-.242-5.027-1.364-.148-.15-1.185-2.067-.965-2.115a2.014,2.014,0,0,0-1.277,1.291c-.362.813-.048,1.1.059,1.913.1.769-.514,1.5-.388,2.269.109.662.745,1.15.828,1.815a5.483,5.483,0,0,1-.13,1.146,2.029,2.029,0,0,0,.647,1.652c.193.175.434.335.488.59a1.222,1.222,0,0,1-.033.448,2.255,2.255,0,0,0,.678,1.984,4.852,4.852,0,0,0,2.1.92c.87.238,1.708.66,2.57.844,1.118.239,2.289.331,3.42.494l6.974,1.008A2.529,2.529,0,0,0,1135.6,1769.905Z" transform="translate(-1045.759 -1672.186)" fill="#f8a17a"/>
        </g>
      </g>
      <g id="Group_5751" data-name="Group 5751" transform="translate(74.553 162.498)">
        <rect id="Rectangle_2449" data-name="Rectangle 2449" width="75.891" height="46.083" rx="10" transform="translate(75.891 46.083) rotate(180)" fill="#ffc73c"/>
        <path id="Path_8288" data-name="Path 8288" d="M793.881,1312.953v-21.177l-16.585,9.047Z" transform="translate(-727.979 -1254.74)" fill="#ffc73c"/>
        <rect id="Rectangle_2450" data-name="Rectangle 2450" width="37.569" height="4.021" rx="2.01" transform="translate(11.56 21.096)" fill="#fff"/>
        <rect id="Rectangle_2451" data-name="Rectangle 2451" width="12.313" height="4.021" rx="2.01" transform="translate(52.018 21.096)" fill="#fff"/>
        <rect id="Rectangle_2452" data-name="Rectangle 2452" width="37.569" height="4.021" rx="2.01" transform="translate(64.331 15.986) rotate(180)" fill="#fff"/>
        <rect id="Rectangle_2453" data-name="Rectangle 2453" width="12.313" height="4.021" rx="2.01" transform="translate(23.873 15.986) rotate(180)" fill="#fff"/>
        <rect id="Rectangle_2454" data-name="Rectangle 2454" width="26.386" height="4.021" rx="2.01" transform="translate(11.56 29.443)" fill="#fff"/>
      </g>
    </g>
    <g id="Layer_2" data-name="Layer 2" transform="translate(10.728 27.454)">
      <g id="Group_5752" data-name="Group 5752" transform="translate(92.375 56.809)">
        <rect id="Rectangle_2455" data-name="Rectangle 2455" width="88.02" height="53.448" rx="10" transform="translate(88.02 53.448) rotate(180)" fill="#4252e8"/>
        <path id="Path_8289" data-name="Path 8289" d="M989.1,627.83l-23.309-13.457a2.935,2.935,0,0,0-4.4,2.542v26.915a2.935,2.935,0,0,0,4.4,2.542L989.1,632.913A2.935,2.935,0,0,0,989.1,627.83Z" transform="translate(-929.758 -603.401)" fill="#fff"/>
      </g>
      <path id="Path_8290" data-name="Path 8290" d="M2020.93,343.367c-.194-1.173,1.359-3.54,3.053-3.5.674.015,1.333.19,2.006.157,1.793-.088,2.722-1.484,3.413-2.639s2.067-2.474,3.815-2.181c2.516.422,3.784,3.742,6.644,1.25,1.872-1.631,2.013-3.913,4.132-5.495a6.914,6.914,0,0,1,5.772-1.129c2.546.783,3.493,3.307,6.2,3.746,3,.487,5.162-1.8,6.12-3.445,1.163-2,1.595-4.16,2.591-6.194.922-1.883,2.776-4.405,6.1-4.351,2.81.046,4.047,1.825,5.426,3.236,1.793,1.836,5.521,8.43,9.7,7.635,1.629-.31,2.444-1.6,3.914-2.184,2.365-.932,5.378.349,6.8,1.96s1.989,3.556,3.6,5.08a3.721,3.721,0,0,0,1.576.946c2.248.615,4.341-1.277,6.749-1.418a5.609,5.609,0,0,1,4.158,1.636,20.653,20.653,0,0,1,2.206,3.121,2.334,2.334,0,0,0,.8.782c1.056.566,2.542.089,3.835-.134,3.2-.55,6.827.917,7.729,3.123Z" transform="translate(-1733.248 -297.672)" fill="#e2f3f5"/>
      <path id="Path_8291" data-name="Path 8291" d="M301.867,274.339c.148-.9-1.038-2.7-2.332-2.674-.515.012-1.018.145-1.532.12a3.333,3.333,0,0,1-2.607-2.016,3.01,3.01,0,0,0-2.913-1.665c-1.921.322-2.89,2.857-5.073.954-1.43-1.246-1.537-2.988-3.155-4.2a5.28,5.28,0,0,0-4.408-.862c-1.944.6-2.667,2.526-4.737,2.861-2.293.372-3.941-1.373-4.673-2.631-.888-1.526-1.218-3.177-1.979-4.73-.7-1.438-2.12-3.364-4.657-3.322-2.145.035-3.091,1.393-4.144,2.471-1.37,1.4-4.216,6.437-7.407,5.83-1.245-.237-1.866-1.225-2.989-1.668a5.1,5.1,0,0,0-5.194,1.5c-1.088,1.23-1.519,2.715-2.748,3.879a2.84,2.84,0,0,1-1.2.722c-1.717.47-3.315-.975-5.153-1.083a4.282,4.282,0,0,0-3.175,1.249,15.789,15.789,0,0,0-1.685,2.383,1.783,1.783,0,0,1-.613.6c-.806.432-1.941.068-2.929-.1-2.441-.42-5.213.7-5.9,2.385Z" transform="translate(-211.07 -244.06)" fill="#e2f3f5"/>
      <g id="Group_5753" data-name="Group 5753" transform="translate(0 104.177)">
        <path id="Path_8292" data-name="Path 8292" d="M179.237,852.176h-11.65a9.031,9.031,0,0,0-9.005,9h0a9.012,9.012,0,0,0,3.9,7.408v6.338l6.482-4.741h10.269a9.031,9.031,0,0,0,9-9h0A9.031,9.031,0,0,0,179.237,852.176Z" transform="translate(-158.582 -852.176)" fill="#9ed2f2"/>
        <circle id="Ellipse_423" data-name="Ellipse 423" cx="1.367" cy="1.367" r="1.367" transform="translate(6.939 7.639)" fill="#fff"/>
        <circle id="Ellipse_424" data-name="Ellipse 424" cx="1.367" cy="1.367" r="1.367" transform="translate(13.463 7.639)" fill="#fff"/>
        <circle id="Ellipse_425" data-name="Ellipse 425" cx="1.367" cy="1.367" r="1.367" transform="translate(19.988 7.639)" fill="#fff"/>
      </g>
      <path id="Path_8293" data-name="Path 8293" d="M1034.086,226.985c-1.8-3.074-6.33-4.617-10.713.5-4.382-5.122-8.916-3.579-10.713-.5-4.426,7.573,10.713,16.486,10.713,16.486S1038.511,234.558,1034.086,226.985Z" transform="translate(-880.049 -216.982)" fill="#9ed2f2"/>
      <g id="Group_5765" data-name="Group 5765" transform="translate(35.068 46.308)">
        <circle id="Ellipse_426" data-name="Ellipse 426" cx="12.112" cy="12.112" r="12.112" transform="translate(0 17.129) rotate(-45)" fill="#ffc73c"/>
        <path id="Path_8301" data-name="Path 8301" d="M458.738,590.535a8.44,8.44,0,1,1-16.881,0" transform="translate(-433.168 -573.08)" fill="#fff"/>
        <path id="Path_8302" data-name="Path 8302" d="M440.077,533.158c-.636-1.088-2.24-1.634-3.791.179-1.551-1.812-3.155-1.266-3.791-.179-1.566,2.68,3.791,5.834,3.791,5.834S441.644,535.838,440.077,533.158Z" transform="translate(-425.01 -523.718)" fill="#ea394a"/>
        <path id="Path_8303" data-name="Path 8303" d="M515.86,533.158c-.636-1.088-2.24-1.634-3.791.179-1.551-1.812-3.155-1.266-3.791-.179-1.566,2.68,3.791,5.834,3.791,5.834S517.427,535.838,515.86,533.158Z" transform="translate(-489.088 -523.718)" fill="#ea394a"/>
      </g>
      <g id="Group_5770" data-name="Group 5770" transform="translate(258.761 0)">
        <circle id="Ellipse_427" data-name="Ellipse 427" cx="12.112" cy="12.112" r="12.112" transform="translate(0 17.129) rotate(-45)" fill="#ffc73c"/>
        <g id="Group_5767" data-name="Group 5767" transform="translate(20.149 10.122)">
          <g id="Group_5766" data-name="Group 5766">
            <path id="Path_8304" data-name="Path 8304" d="M1964.234,243.549a2.193,2.193,0,0,1,1.053-.281,2.847,2.847,0,0,1,1.066.18,2.621,2.621,0,0,1,.928.585,1.8,1.8,0,0,1,.533.968c-.36-.133-.652-.254-.942-.365l-.845-.321c-.281-.106-.564-.213-.86-.331A7.723,7.723,0,0,1,1964.234,243.549Z" transform="translate(-1964.234 -243.267)" fill="#0b2d4e"/>
          </g>
        </g>
        <g id="Group_5769" data-name="Group 5769" transform="translate(10.129 10.136)">
          <g id="Group_5768" data-name="Group 5768">
            <path id="Path_8305" data-name="Path 8305" d="M1902.949,243.643a7.7,7.7,0,0,1-.936.43c-.3.116-.581.222-.862.326l-.846.317c-.29.109-.583.229-.944.36a1.8,1.8,0,0,1,.539-.965,2.62,2.62,0,0,1,.931-.58,2.848,2.848,0,0,1,1.067-.174A2.192,2.192,0,0,1,1902.949,243.643Z" transform="translate(-1899.361 -243.354)" fill="#0b2d4e"/>
          </g>
        </g>
        <path id="Path_8306" data-name="Path 8306" d="M1903.3,305.83a6.433,6.433,0,0,0,12.783,0Z" transform="translate(-1892.565 -286.044)" fill="#0b2d4e"/>
        <path id="Path_8307" data-name="Path 8307" d="M1916.1,326.264a6.427,6.427,0,0,0,8.679.139l-.059-.138A10.609,10.609,0,0,0,1916.1,326.264Z" transform="translate(-1903.385 -302.53)" fill="#ea394a"/>
        <ellipse id="Ellipse_428" data-name="Ellipse 428" cx="1.11" cy="1.381" rx="1.11" ry="1.381" transform="translate(20.15 13.04)" fill="#0b2d4e"/>
        <ellipse id="Ellipse_429" data-name="Ellipse 429" cx="1.11" cy="1.381" rx="1.11" ry="1.381" transform="translate(11.497 13.04)" fill="#0b2d4e"/>
      </g>
    </g>
  </g>
</svg>
