<svg xmlns="http://www.w3.org/2000/svg" width="60.914" height="60.428" viewBox="0 0 60.914 60.428">
  <g id="Nudge" transform="translate(0 -1.368)">
    <g id="Group_10731" data-name="Group 10731" transform="translate(0 1.368)">
      <g id="Group_10730" data-name="Group 10730" transform="translate(1.403 1.486)">
        <path id="Path_15604" data-name="Path 15604" d="M99.254,14.123V37.316a4.4,4.4,0,0,1-4.375,4.375h-29.8v9.327l-9.327-9.327H52.784a4.4,4.4,0,0,1-4.375-4.375V14.123a4.4,4.4,0,0,1,4.375-4.375h42.1a4.35,4.35,0,0,1,4.375,4.375Z" transform="translate(-41.229 -9.748)" fill="#f7d6bf"/>
        <path id="Path_15605" data-name="Path 15605" d="M94.88,9.748h-42.1a4.4,4.4,0,0,0-4.375,4.375v7.759H99.254V14.123A4.35,4.35,0,0,0,94.88,9.748Z" transform="translate(-41.229 -9.748)" fill="#eabfa2"/>
        <path id="Path_15606" data-name="Path 15606" d="M58.84,117.13v11.886a4.4,4.4,0,0,1-4.375,4.375h-4.54l-9.41,9.41v-9.41H12.288a4.4,4.4,0,0,1-4.375-4.375V105.823a4.4,4.4,0,0,1,4.375-4.375h2.806v11.308a4.4,4.4,0,0,0,4.375,4.375H22.44l9.327,9.327V117.13H58.84Z" transform="translate(-7.913 -85.188)" fill="#2086a5"/>
      </g>
      <path id="Path_15607" data-name="Path 15607" d="M16.343,7.559a1.816,1.816,0,1,1-1.816,1.816A1.889,1.889,0,0,1,16.343,7.559Zm4.292,1.9a1.816,1.816,0,1,0,1.816-1.816,1.732,1.732,0,0,0-1.816,1.816Zm6.025,0a1.816,1.816,0,1,0,1.816-1.816A1.78,1.78,0,0,0,26.66,9.457ZM60.914,7.228V30.422A5.794,5.794,0,0,1,55.136,36.2H53.816V46.682a5.742,5.742,0,0,1-5.778,5.778H44.076l-8.914,8.914a1.454,1.454,0,0,1-2.476-.991V52.46H5.778A5.742,5.742,0,0,1,0,46.682V23.489a5.742,5.742,0,0,1,5.778-5.778h1.4V7.228a5.742,5.742,0,0,1,5.778-5.778H37.968a1.486,1.486,0,1,1,0,2.972H12.959A2.925,2.925,0,0,0,10.07,7.311V13.5H58.025V7.228A2.925,2.925,0,0,0,55.136,4.34H50.184a1.486,1.486,0,1,1,0-2.972h4.952a5.922,5.922,0,0,1,5.778,5.86ZM50.844,36.282h-24.1v7.924a1.454,1.454,0,0,1-2.476.991l-8.914-8.914H12.959A5.8,5.8,0,0,1,7.181,30.5V20.6h-1.4a2.925,2.925,0,0,0-2.889,2.889V46.682a2.925,2.925,0,0,0,2.889,2.889H34.006a1.48,1.48,0,0,1,1.486,1.486v5.86l6.851-6.851a1.523,1.523,0,0,1,.991-.413h4.54a2.925,2.925,0,0,0,2.889-2.889V36.283h.082Zm7.181-5.86V16.39H10.07V30.422a2.925,2.925,0,0,0,2.889,2.889H15.93a1.368,1.368,0,0,1,.991.413l6.851,6.851v-5.86a1.48,1.48,0,0,1,1.486-1.486h29.8A2.729,2.729,0,0,0,58.025,30.422ZM44.324,4.34h.66a1.486,1.486,0,0,0,0-2.972h-.66a1.486,1.486,0,0,0,0,2.972Z" transform="translate(0 -1.368)" fill="#172956"/>
    </g>
  </g>
</svg>
