<svg id="QrCode" xmlns="http://www.w3.org/2000/svg" width="60.428" height="60.428" viewBox="0 0 60.428 60.428">
  <path id="Path_15608" data-name="Path 15608" d="M17,9H47.214V42.991H17Z" transform="translate(-0.949 -0.502)" fill="#ffc170"/>
  <path id="Path_15609" data-name="Path 15609" d="M20.777,35.437V9H17V42.991H47.214V39.214H24.554A3.777,3.777,0,0,1,20.777,35.437Z" transform="translate(-0.949 -0.502)" fill="#fc9942"/>
  <path id="Path_15610" data-name="Path 15610" d="M47.214,45v5.665a1.894,1.894,0,0,1-1.888,1.888H18.888A1.894,1.894,0,0,1,17,50.665V45Z" transform="translate(-0.949 -2.511)" fill="#f2f6fc"/>
  <path id="Path_15611" data-name="Path 15611" d="M20.777,50.665V45H17v5.665a1.894,1.894,0,0,0,1.888,1.888h3.777A1.894,1.894,0,0,1,20.777,50.665Z" transform="translate(-0.949 -2.511)" fill="#cdd2e1"/>
  <path id="Path_15612" data-name="Path 15612" d="M47.214,2.888V8.554H17V2.888A1.894,1.894,0,0,1,18.888,1H45.326a1.894,1.894,0,0,1,1.888,1.888Z" transform="translate(-0.949 -0.056)" fill="#f2f6fc"/>
  <path id="Path_15613" data-name="Path 15613" d="M22.665,1H18.888A1.894,1.894,0,0,0,17,2.888V8.554h3.777V2.888A1.894,1.894,0,0,1,22.665,1Z" transform="translate(-0.949 -0.056)" fill="#cdd2e1"/>
  <path id="Path_15614" data-name="Path 15614" d="M29,4h7.554V5.888H29Z" transform="translate(-1.618 -0.223)" fill="#414952"/>
  <path id="Path_15615" data-name="Path 15615" d="M29,48h7.554v1.888H29Z" transform="translate(-1.618 -2.679)" fill="#414952"/>
  <path id="Path_15616" data-name="Path 15616" d="M29.326,5H2.888A1.888,1.888,0,0,0,1,6.888V33.326a1.888,1.888,0,0,0,1.888,1.888h17.94L24.6,38.991V35.214h4.721a1.888,1.888,0,0,0,1.888-1.888V6.888A1.888,1.888,0,0,0,29.326,5Z" transform="translate(-0.056 -0.279)" fill="#ff636e"/>
  <path id="Path_15617" data-name="Path 15617" d="M2.888,33.326V6.888A1.888,1.888,0,0,1,4.777,5H2.888A1.888,1.888,0,0,0,1,6.888V33.326a1.888,1.888,0,0,0,1.888,1.888H4.777A1.888,1.888,0,0,1,2.888,33.326Z" transform="translate(-0.056 -0.279)" fill="#f03049"/>
  <path id="Path_15618" data-name="Path 15618" d="M23.888,37H22l3.777,3.777V38.888Z" transform="translate(-1.228 -2.065)" fill="#f03049"/>
  <path id="Path_15619" data-name="Path 15619" d="M5,9h5.665v5.665H5Z" transform="translate(-0.279 -0.502)" fill="#f2f6fc"/>
  <path id="Path_15620" data-name="Path 15620" d="M23,9h5.665v5.665H23Z" transform="translate(-1.284 -0.502)" fill="#f2f6fc"/>
  <path id="Path_15621" data-name="Path 15621" d="M23,27h5.665v5.665H23Z" transform="translate(-1.284 -1.507)" fill="#f2f6fc"/>
  <path id="Path_15622" data-name="Path 15622" d="M5,27h5.665v5.665H5Z" transform="translate(-0.279 -1.507)" fill="#f2f6fc"/>
  <path id="Path_15623" data-name="Path 15623" d="M44.777,12H41v1.888h2.833v2.833h1.888V12.944A.944.944,0,0,0,44.777,12Z" transform="translate(-2.288 -0.67)" fill="#fc9942"/>
  <path id="Path_15624" data-name="Path 15624" d="M44,18h1.888v8.5H44Z" transform="translate(-2.456 -1.005)" fill="#fc9942"/>
  <path id="Path_15625" data-name="Path 15625" d="M35,32h4.721v1.888H35Z" transform="translate(-1.953 -1.786)" fill="#fc9942"/>
  <path id="Path_15626" data-name="Path 15626" d="M43.888,31.833H42v1.888h2.833a.944.944,0,0,0,.944-.944V29H43.888Z" transform="translate(-2.344 -1.618)" fill="#fc9942"/>
  <g id="Group_10732" data-name="Group 10732" transform="translate(3.777 7.554)">
    <path id="Path_15627" data-name="Path 15627" d="M7,11H8.888v1.888H7Z" transform="translate(-4.167 -8.167)" fill="#636978"/>
    <path id="Path_15628" data-name="Path 15628" d="M25,11h1.888v1.888H25Z" transform="translate(-5.172 -8.167)" fill="#636978"/>
    <path id="Path_15629" data-name="Path 15629" d="M25,29h1.888v1.888H25Z" transform="translate(-5.172 -9.172)" fill="#636978"/>
    <path id="Path_15630" data-name="Path 15630" d="M7,29H8.888v1.888H7Z" transform="translate(-4.167 -9.172)" fill="#636978"/>
    <path id="Path_15631" data-name="Path 15631" d="M25.716,14.609H23.828v2.833H19.107V12.721H21.94V10.833H19.107V8H17.219v2.833H10.609v1.888h2.833v4.721H8.721V14.609H6.833v6.609H4v1.888H6.833V25.94H8.721V23.107h4.721v4.721H10.609v1.888h2.833v2.833H15.33V29.716H21.94V27.828H19.107V23.107h4.721V25.94h1.888V19.33h2.833V17.442H25.716ZM15.33,12.721h1.888v4.721H15.33Zm1.888,6.609v1.888H15.33V19.33Zm-8.5,1.888V19.33h4.721v1.888Zm8.5,6.609H15.33V23.107h1.888Zm6.609-6.609H19.107V19.33h4.721Z" transform="translate(-4 -8)" fill="#636978"/>
    <path id="Path_15632" data-name="Path 15632" d="M28,22h1.888v1.888H28Z" transform="translate(-5.339 -8.781)" fill="#636978"/>
    <path id="Path_15633" data-name="Path 15633" d="M4,18H5.888v1.888H4Z" transform="translate(-4 -8.558)" fill="#636978"/>
    <path id="Path_15634" data-name="Path 15634" d="M18,32h1.888v1.888H18Z" transform="translate(-4.781 -9.339)" fill="#636978"/>
    <path id="Path_15635" data-name="Path 15635" d="M14,8h1.888V9.888H14Z" transform="translate(-4.558 -8)" fill="#636978"/>
  </g>
  <path id="Path_15636" data-name="Path 15636" d="M52.193,53.137l5.193-5.193L58.33,47l3.777,3.777-11.33,11.33L47,58.33l.944-.944Z" transform="translate(-2.623 -2.623)" fill="#ff9696"/>
  <path id="Path_15637" data-name="Path 15637" d="M62.33,51V62.33H51Z" transform="translate(-2.846 -2.846)" fill="#ff636e"/>
  <path id="Path_15638" data-name="Path 15638" d="M50.888,27.888v7.554H49V26Z" transform="translate(-2.735 -1.451)" fill="#faa68e"/>
  <path id="Path_15639" data-name="Path 15639" d="M50.554,51.609l1.416,1.416-4.249,4.249L43,52.554h3.777a1.894,1.894,0,0,0,1.888-1.888V45h1.888Z" transform="translate(-2.4 -2.511)" fill="#faa68e"/>
  <path id="Path_15640" data-name="Path 15640" d="M55.07,44.661l1.888,1.888-5.193,5.193-1.416-1.416V43.716H48.461c-6.609,0-6.609-6.609-6.609-6.609l-.944-.944a5.334,5.334,0,0,1,0-7.554l6.609,6.609h2.833V27.665l-1.888-1.888V22l4.721,2.833Z" transform="translate(-2.195 -1.228)" fill="#ffcdbe"/>
  <path id="Path_15641" data-name="Path 15641" d="M61.045,47.486,57.268,43.71a.944.944,0,0,0-1.335,0l-.277.277-.981-.981-1.852-19.49a.944.944,0,0,0-.453-.719L48.1,20.238V2.833A2.833,2.833,0,0,0,45.27,0H18.833A2.833,2.833,0,0,0,16,2.833h1.888a.944.944,0,0,1,.944-.944H45.27a.944.944,0,0,1,.944.944V7.554H33.94V9.442H46.214V32.656l-1.888-1.888V27.382H42.437v1.5l-2.165-2.165a.944.944,0,0,0-1.335,0,6.24,6.24,0,0,0-1.76,3.5H33.94V32.1h3.238a6.24,6.24,0,0,0,1.76,3.5l.68.68a8.06,8.06,0,0,0,2.333,5.262H17.888V36.824H16v11.33a2.833,2.833,0,0,0,2.833,2.833H41.1l3.777,3.777-.277.277a.944.944,0,0,0,0,1.335l3.777,3.777a.944.944,0,0,0,.668.277h11.33a.944.944,0,0,0,.944-.944V48.154a.944.944,0,0,0-.277-.667Zm-43.156.668V43.433H46.214v4.721a.944.944,0,0,1-.944.944H18.833A.944.944,0,0,1,17.888,48.154ZM45.27,50.986A2.833,2.833,0,0,0,48.1,48.154V43.433h.944V41.544H47.158c-5.476,0-5.665-5.088-5.665-5.665a.944.944,0,0,0-.277-.667l-.944-.944a4.406,4.406,0,0,1-.6-5.476l5.87,5.869a.944.944,0,0,0,.668.275h2.833V33.047H48.1V22.44l2.883,1.732,1.843,19.356a.944.944,0,0,0,.272.578l1.221,1.216-8.107,8.107-2.442-2.442Zm1.335,4.721.277-.277,9.442-9.442.277-.277,2.442,2.442-10,10Zm4.721,2.833,8.107-8.107V58.54Z" transform="translate(-0.893 0)"/>
  <path id="Path_15642" data-name="Path 15642" d="M29,48h7.554v1.888H29Z" transform="translate(-1.618 -2.679)"/>
  <path id="Path_15643" data-name="Path 15643" d="M23.881,39.6a.944.944,0,0,0,1.612-.668V36.1H29.27A2.833,2.833,0,0,0,32.1,33.27V6.833A2.833,2.833,0,0,0,29.27,4H2.833A2.833,2.833,0,0,0,0,6.833V33.27A2.833,2.833,0,0,0,2.833,36.1H20.381ZM1.888,33.27V6.833a.944.944,0,0,1,.944-.944H29.27a.944.944,0,0,1,.944.944V33.27a.944.944,0,0,1-.944.944H24.549a.944.944,0,0,0-.944.944v1.5L21.44,34.491a.944.944,0,0,0-.668-.277H2.833A.944.944,0,0,1,1.888,33.27Z" transform="translate(0 -0.223)"/>
  <path id="Path_15644" data-name="Path 15644" d="M45.721,12.944A.944.944,0,0,0,44.777,12H41v1.888h2.833v2.833h1.888Z" transform="translate(-2.288 -0.67)"/>
  <path id="Path_15645" data-name="Path 15645" d="M44,18h1.888v8.5H44Z" transform="translate(-2.456 -1.005)"/>
  <path id="Path_15646" data-name="Path 15646" d="M7,11H8.888v1.888H7Z" transform="translate(-0.391 -0.614)"/>
  <path id="Path_15647" data-name="Path 15647" d="M25,11h1.888v1.888H25Z" transform="translate(-1.395 -0.614)"/>
  <path id="Path_15648" data-name="Path 15648" d="M25,29h1.888v1.888H25Z" transform="translate(-1.395 -1.618)"/>
  <path id="Path_15649" data-name="Path 15649" d="M7,29H8.888v1.888H7Z" transform="translate(-0.391 -1.618)"/>
  <path id="Path_15650" data-name="Path 15650" d="M21,29.716V31.6a.944.944,0,0,0,.944.944H27.6a.944.944,0,0,0,.944-.944V25.94A.944.944,0,0,0,27.6,25H25.716V19.33h2.833V17.442H25.716V15.554H27.6a.944.944,0,0,0,.944-.944V8.944A.944.944,0,0,0,27.6,8H21.94A.944.944,0,0,0,21,8.944v1.888H19.107V8H17.219v2.833H11.554V8.944A.944.944,0,0,0,10.609,8H4.944A.944.944,0,0,0,4,8.944v5.665a.944.944,0,0,0,.944.944H6.833v5.665H4v1.888H6.833V25H4.944A.944.944,0,0,0,4,25.94V31.6a.944.944,0,0,0,.944.944h5.665a.944.944,0,0,0,.944-.944V29.716h1.888v2.833H15.33V29.716Zm-3.777-6.609v4.721H15.33V23.107ZM15.33,21.219V19.33h1.888v1.888Zm11.33,9.442H22.884V26.884h3.777ZM21.94,25A.944.944,0,0,0,21,25.94v1.888H19.107V23.107h4.721V25Zm1.888-3.777H19.107V19.33h4.721Zm-.944-11.33h3.777v3.777H22.884ZM21,12.721v1.888a.944.944,0,0,0,.944.944h1.888v1.888H19.107V12.721Zm-3.777,4.721H15.33V12.721h1.888ZM5.888,9.888H9.665v3.777H5.888Zm4.721,5.665a.944.944,0,0,0,.944-.944V12.721h1.888v4.721H8.721V15.554ZM8.721,19.33h4.721v1.888H8.721Zm.944,11.33H5.888V26.884H9.665Zm1.888-2.833V25.94A.944.944,0,0,0,10.609,25H8.721V23.107h4.721v4.721Z" transform="translate(-0.223 -0.446)"/>
  <path id="Path_15651" data-name="Path 15651" d="M28,22h1.888v1.888H28Z" transform="translate(-1.563 -1.228)"/>
  <path id="Path_15652" data-name="Path 15652" d="M4,18H5.888v1.888H4Z" transform="translate(-0.223 -1.005)"/>
  <path id="Path_15653" data-name="Path 15653" d="M18,32h1.888v1.888H18Z" transform="translate(-1.005 -1.786)"/>
  <path id="Path_15654" data-name="Path 15654" d="M14,8h1.888V9.888H14Z" transform="translate(-0.781 -0.446)"/>
</svg>
