<svg id="VideoReviews" xmlns="http://www.w3.org/2000/svg" width="52" height="60" viewBox="0 0 52 60">
  <rect id="Rectangle" width="50" height="34" rx="4" transform="translate(1 25)" fill="#bdc2cc"/>
  <rect id="Rectangle-2" data-name="Rectangle" width="26" height="42" rx="2" transform="translate(47 29) rotate(90)" fill="#d9dde3"/>
  <circle id="Oval" cx="9" cy="9" r="9" transform="translate(17 33)" fill="#ec5e69"/>
  <path id="Path" d="M29.537,42.808l-5.031,3.046A.986.986,0,0,1,23,45.045v-6.09a.986.986,0,0,1,1.506-.809l5.031,3.046a.937.937,0,0,1,0,1.616Z" fill="#f1f3f5"/>
  <path id="Path-2" data-name="Path" d="M44,1H8A2,2,0,0,0,6,3V19a2,2,0,0,0,2,2H20.3a2,2,0,0,1,1.25.438L26,25l4.452-3.562A2,2,0,0,1,31.7,21H44a2,2,0,0,0,2-2V3A2,2,0,0,0,44,1Z" fill="#fccd3a"/>
  <path id="Path-3" data-name="Path" d="M14.406,7.259l.877,1.877a.45.45,0,0,0,.338.254l2,.306a.451.451,0,0,1,.253.76L16.4,11.972a.45.45,0,0,0-.122.387l.344,2.118a.449.449,0,0,1-.659.466l-1.745-.969a.447.447,0,0,0-.434,0l-1.745.969a.449.449,0,0,1-.659-.466l.344-2.118a.45.45,0,0,0-.122-.387l-1.473-1.516a.451.451,0,0,1,.253-.76l2-.306a.45.45,0,0,0,.338-.254L13.6,7.259a.448.448,0,0,1,.809,0Z" fill="#f2a332"/>
  <path id="Path-4" data-name="Path" d="M26.406,7.259l.877,1.877a.45.45,0,0,0,.338.254l2,.306a.451.451,0,0,1,.253.76L28.4,11.972a.45.45,0,0,0-.122.387l.344,2.118a.449.449,0,0,1-.659.466l-1.745-.969a.447.447,0,0,0-.434,0l-1.745.969a.449.449,0,0,1-.659-.466l.344-2.118a.45.45,0,0,0-.122-.387l-1.473-1.516a.451.451,0,0,1,.253-.76l2-.306a.45.45,0,0,0,.338-.254L25.6,7.259a.448.448,0,0,1,.809,0Z" fill="#f2a332"/>
  <path id="Path-5" data-name="Path" d="M38.406,7.259l.877,1.877a.45.45,0,0,0,.338.254l2,.306a.451.451,0,0,1,.253.76L40.4,11.972a.45.45,0,0,0-.122.387l.344,2.118a.449.449,0,0,1-.659.466l-1.745-.969a.447.447,0,0,0-.434,0l-1.745.969a.449.449,0,0,1-.659-.466l.344-2.118a.45.45,0,0,0-.122-.387l-1.473-1.516a.451.451,0,0,1,.253-.76l2-.306a.45.45,0,0,0,.338-.254L37.6,7.259a.448.448,0,0,1,.809,0Z" fill="#f2a332"/>
  <g id="Group_10729" data-name="Group 10729">
    <path id="Shape" d="M45,56a3,3,0,0,0,3-3V31a3,3,0,0,0-3-3H7a3,3,0,0,0-3,3V53a3,3,0,0,0,3,3ZM6,53V31a1,1,0,0,1,1-1H45a1,1,0,0,1,1,1V53a1,1,0,0,1-1,1H7A1,1,0,0,1,6,53Z" fill="#373737"/>
    <path id="Shape-2" data-name="Shape" d="M26,52A10,10,0,1,0,16,42,10,10,0,0,0,26,52Zm0-18a8,8,0,1,1-8,8A8,8,0,0,1,26,34Z" fill="#373737"/>
    <path id="Shape-3" data-name="Shape" d="M23,46.739a2.011,2.011,0,0,0,2.026-.03l5.032-3.045a1.938,1.938,0,0,0,0-3.328l-5.032-3.045A2.014,2.014,0,0,0,23,37.261a1.924,1.924,0,0,0-1,1.693v6.092a1.924,1.924,0,0,0,1,1.693Zm6.024-4.787L24,45.046,23.988,39Z" fill="#373737"/>
    <path id="Shape-4" data-name="Shape" d="M17.771,8.708l-1.707-.262-.752-1.611a1.448,1.448,0,0,0-2.624,0l-.752,1.611-1.707.262a1.45,1.45,0,0,0-.819,2.443l1.281,1.32-.3,1.844a1.444,1.444,0,0,0,2.131,1.5L14,15l1.475.818a1.448,1.448,0,0,0,2.133-1.5l-.3-1.845,1.28-1.319A1.45,1.45,0,0,0,17.77,8.71Zm-2.086,2.564a1.452,1.452,0,0,0-.4,1.248l.162,1L14.7,13.1a1.437,1.437,0,0,0-1.4,0l-.75.416.161-.994a1.448,1.448,0,0,0-.39-1.246l-.731-.754.941-.144a1.443,1.443,0,0,0,1.094-.818L14,8.753l.376.8a1.444,1.444,0,0,0,1.094.821l.942.144Z" fill="#373737"/>
    <path id="Shape-5" data-name="Shape" d="M27.475,15.815a1.448,1.448,0,0,0,2.133-1.5l-.3-1.845,1.28-1.319a1.45,1.45,0,0,0-.818-2.444l-1.707-.262-.752-1.611a1.448,1.448,0,0,0-2.624,0l-.752,1.611-1.707.262a1.45,1.45,0,0,0-.819,2.443l1.281,1.32-.3,1.844a1.444,1.444,0,0,0,2.131,1.5L26,15ZM25.3,13.1l-.75.416.161-.994a1.448,1.448,0,0,0-.39-1.246l-.731-.754.941-.144a1.443,1.443,0,0,0,1.094-.818L26,8.753l.376.8a1.444,1.444,0,0,0,1.094.821l.942.144-.727.75a1.452,1.452,0,0,0-.4,1.248l.162,1L26.7,13.1a1.437,1.437,0,0,0-1.4,0Z" fill="#373737"/>
    <path id="Shape-6" data-name="Shape" d="M34.691,12.471l-.3,1.844a1.444,1.444,0,0,0,2.131,1.5L38,15l1.475.818a1.448,1.448,0,0,0,2.133-1.5l-.3-1.845,1.28-1.319A1.45,1.45,0,0,0,41.77,8.71l-1.707-.262-.752-1.611a1.448,1.448,0,0,0-2.624,0l-.752,1.611-1.707.262a1.45,1.45,0,0,0-.819,2.443Zm1.838-2.093a1.443,1.443,0,0,0,1.094-.818L38,8.753l.376.8a1.444,1.444,0,0,0,1.094.821l.942.144-.727.75a1.452,1.452,0,0,0-.4,1.248l.162,1L38.7,13.1a1.437,1.437,0,0,0-1.4,0l-.75.416.161-.994a1.448,1.448,0,0,0-.39-1.246l-.731-.754Z" fill="#373737"/>
    <path id="Shape-7" data-name="Shape" d="M1,33a1,1,0,0,0-1,1V55a5.006,5.006,0,0,0,5,5H47a5.006,5.006,0,0,0,5-5V29a5.006,5.006,0,0,0-5-5H28.851l2.226-1.781A1,1,0,0,1,31.7,22H44a3,3,0,0,0,3-3V3a3,3,0,0,0-3-3H8A3,3,0,0,0,5,3V19a3,3,0,0,0,3,3H20.3a1,1,0,0,1,.624.22L23.148,24H5a5.006,5.006,0,0,0-5,5,1,1,0,0,0,2,0,3,3,0,0,1,3-3H47a3,3,0,0,1,3,3V55a3,3,0,0,1-3,3H5a3,3,0,0,1-3-3V34A1,1,0,0,0,1,33ZM20.3,20H8a1,1,0,0,1-1-1V3A1,1,0,0,1,8,2H44a1,1,0,0,1,1,1V19a1,1,0,0,1-1,1H31.7a3,3,0,0,0-1.874.657L26,23.72l-3.827-3.062A3,3,0,0,0,20.3,20Z" fill="#373737"/>
  </g>
</svg>
