<svg xmlns="http://www.w3.org/2000/svg" width="37.536" height="60.428" viewBox="0 0 37.536 60.428">
  <g id="video-call_1_" data-name="video-call (1)" transform="translate(-96.98)">
    <path id="Path_15655" data-name="Path 15655" d="M140.243,59H104.476V10.361A2.861,2.861,0,0,1,107.337,7.5h30.044a2.861,2.861,0,0,1,2.861,2.861Z" transform="translate(-6.611 -6.615)" fill="#62dbfb"/>
    <path id="Path_15656" data-name="Path 15656" d="M354.77,7.5h-3.815a2.861,2.861,0,0,1,2.861,2.861V59h3.815V10.361A2.861,2.861,0,0,0,354.77,7.5Z" transform="translate(-224 -6.615)" fill="#01d0fb"/>
    <path id="Path_15657" data-name="Path 15657" d="M137.382,451.043H107.337a2.861,2.861,0,0,1-2.861-2.861V443.89h35.767v4.292A2.862,2.862,0,0,1,137.382,451.043Z" transform="translate(-6.611 -391.5)" fill="#acacac"/>
    <path id="Path_15658" data-name="Path 15658" d="M353.816,443.89v4.292a2.861,2.861,0,0,1-2.861,2.861h3.815a2.861,2.861,0,0,0,2.861-2.861V443.89Z" transform="translate(-224 -391.5)" fill="#9c9c9c"/>
    <g id="Group_10734" data-name="Group 10734" transform="translate(105.018 19.722)">
      <path id="Path_15659" data-name="Path 15659" d="M186.545,354.8h-21.46V348.91a4.769,4.769,0,0,1,3.525-4.6l5.3-1.432h3.815l5.3,1.432a4.769,4.769,0,0,1,3.525,4.6V354.8Z" transform="translate(-165.085 -322.129)" fill="#fe93d3"/>
      <path id="Path_15660" data-name="Path 15660" d="M316.662,354.9l-.052-.014v10.5h3.577V359.5A4.769,4.769,0,0,0,316.662,354.9Z" transform="translate(-298.726 -332.724)" fill="#fe73c5"/>
      <path id="Path_15661" data-name="Path 15661" d="M221,342.874h-3.815l-3.032.819a5.007,5.007,0,0,0,9.878,0Z" transform="translate(-208.36 -322.129)" fill="#dcfcee"/>
      <path id="Path_15662" data-name="Path 15662" d="M241.745,321.617a1.908,1.908,0,0,1-1.908-1.908v-3.1h3.815v3.1A1.908,1.908,0,0,1,241.745,321.617Z" transform="translate(-231.014 -298.965)" fill="#f6a96c"/>
      <path id="Path_15663" data-name="Path 15663" d="M213.573,229.736v6.438a5.007,5.007,0,1,0,10.015,0v-6.438Z" transform="translate(-207.85 -222.344)" fill="#fed2a4"/>
      <path id="Path_15664" data-name="Path 15664" d="M244.067,229.736v6.438a5.008,5.008,0,0,1-3.219,4.677,5.008,5.008,0,0,0,6.8-4.677v-6.438Z" transform="translate(-231.906 -222.344)" fill="#ffbd86"/>
      <path id="Path_15665" data-name="Path 15665" d="M197.411,178.79h1.908v-1.908s5.695-.063,7.709-2.384a3.615,3.615,0,0,0,2.306,2.384v1.908h1.908v-4.769a6.915,6.915,0,1,0-13.83,0v4.769Z" transform="translate(-193.596 -167.106)" fill="#9c9c9c"/>
      <path id="Path_15666" data-name="Path 15666" d="M244.418,167.106a6.928,6.928,0,0,0-1.55.177,6.916,6.916,0,0,1,5.365,6.738v2.2a3.272,3.272,0,0,0,1.192.661v1.908h1.908v-4.769a6.915,6.915,0,0,0-6.915-6.915Z" transform="translate(-233.688 -167.106)" fill="#838383"/>
      <g id="Group_10733" data-name="Group 10733" transform="translate(2.623 9.776)">
        <path id="Path_15667" data-name="Path 15667" d="M299.618,253.754h-1.192v-3.815h1.192a1.908,1.908,0,1,1,0,3.815Z" transform="translate(-285.312 -249.939)" fill="#f6a96c"/>
        <path id="Path_15668" data-name="Path 15668" d="M189.217,253.754h1.192v-3.815h-1.192a1.908,1.908,0,1,0,0,3.815Z" transform="translate(-187.309 -249.939)" fill="#f6a96c"/>
      </g>
    </g>
    <g id="Group_10735" data-name="Group 10735" transform="translate(120.04 4.462)">
      <path id="Path_15669" data-name="Path 15669" d="M293.558,50.92h7.63a1.192,1.192,0,0,0,1.192-1.192V39a1.192,1.192,0,0,0-1.192-1.192h-7.63A1.192,1.192,0,0,0,292.366,39v10.73A1.192,1.192,0,0,0,293.558,50.92Z" transform="translate(-292.366 -37.805)" fill="#dff6fd"/>
      <path id="Path_15670" data-name="Path 15670" d="M293.558,102.594h7.63a1.192,1.192,0,0,0,1.192-1.192V99.255a2.861,2.861,0,0,0-2.861-2.861h-4.292a2.861,2.861,0,0,0-2.861,2.861V101.4A1.192,1.192,0,0,0,293.558,102.594Z" transform="translate(-292.366 -89.479)" fill="#a2e62e"/>
      <circle id="Ellipse_560" data-name="Ellipse 560" cx="1.788" cy="1.788" r="1.788" transform="translate(3.219 3.338)" fill="#fed2a4"/>
    </g>
    <g id="Group_10736" data-name="Group 10736" transform="translate(96.98 0)">
      <path id="Path_15671" data-name="Path 15671" d="M133.631,99.5a.885.885,0,0,0-.885.885v38.876h-5.382v-5a5.664,5.664,0,0,0-4.179-5.458l-4.644-1.255V126.5a5.9,5.9,0,0,0,3.064-4.541h.343a2.791,2.791,0,0,0,1.6-5.079v-2.482a7.8,7.8,0,0,0-11.663-6.779.885.885,0,1,0,.877,1.538,6.032,6.032,0,0,1,9.015,5.241v1.976H120.9a2.726,2.726,0,0,1-1.592-1.721.885.885,0,0,0-1.526-.358c-1.433,1.652-5.57,2.061-7.048,2.079h-1.015v-1.976a5.964,5.964,0,0,1,.6-2.628.885.885,0,0,0-1.592-.774,7.719,7.719,0,0,0-.779,3.4v2.482a2.791,2.791,0,0,0,1.6,5.079h.343a5.9,5.9,0,0,0,3.064,4.541v1.05l-4.644,1.255a5.664,5.664,0,0,0-4.179,5.458v5H98.75v-6.468a.885.885,0,0,0-1.77,0v11.645a3.75,3.75,0,0,0,3.746,3.746H130.77a3.75,3.75,0,0,0,3.746-3.746V100.385A.885.885,0,0,0,133.631,99.5Zm-11.99,18.641h.307a1.022,1.022,0,1,1,0,2.045h-.307Zm-11.785,2.045h-.307a1.022,1.022,0,1,1,0-2.045h.307Zm1.77,1.124V118.1a21.961,21.961,0,0,0,2.373-.3,10.9,10.9,0,0,0,4.152-1.507,4.316,4.316,0,0,0,1.72,1.556v3.455a4.122,4.122,0,0,1-8.244,0Zm5.145,5.8v1.113a1.022,1.022,0,1,1-2.045,0v-1.113a5.812,5.812,0,0,0,2.045,0Zm-3.591,2.209a2.792,2.792,0,0,0,5.137,0l1.292.349a4.123,4.123,0,0,1-7.722,0Zm-7.276,4.94a3.891,3.891,0,0,1,2.87-3.749l1.4-.378a5.892,5.892,0,0,0,11.15,0l1.4.378a3.891,3.891,0,0,1,2.87,3.749v5h-1.806v-2.215a.885.885,0,0,0-1.77,0v2.215H109.48v-2.215a.885.885,0,0,0-1.77,0v2.215H105.9Zm26.843,10.179a1.978,1.978,0,0,1-1.976,1.976H100.726a1.978,1.978,0,0,1-1.976-1.976v-3.407h34Z" transform="translate(-96.98 -87.757)"/>
      <path id="Path_15672" data-name="Path 15672" d="M130.77,0H100.726A3.75,3.75,0,0,0,96.98,3.746v37.16a.885.885,0,0,0,1.77,0V3.746a1.978,1.978,0,0,1,1.976-1.976H130.77a1.978,1.978,0,0,1,1.976,1.976V8.5a.885.885,0,1,0,1.77,0V3.746A3.75,3.75,0,0,0,130.77,0Z" transform="translate(-96.98 0)"/>
      <path id="Path_15673" data-name="Path 15673" d="M294.574,45.19a2.08,2.08,0,0,0,2.077-2.077V32.382a2.08,2.08,0,0,0-2.077-2.077h-7.63a2.08,2.08,0,0,0-2.077,2.077v10.73a2.08,2.08,0,0,0,2.077,2.077h7.63Zm-7.937-12.807a.307.307,0,0,1,.307-.307h7.63a.307.307,0,0,1,.307.307v5.4a3.721,3.721,0,0,0-1.612-.548,2.673,2.673,0,1,0-5.02,0,3.721,3.721,0,0,0-1.612.548Zm5.025,3.934a.9.9,0,1,1-.9-.9A.9.9,0,0,1,291.662,36.317Zm-5.025,6.8V40.966a1.979,1.979,0,0,1,1.976-1.976H292.9a1.978,1.978,0,0,1,1.976,1.976v2.146a.307.307,0,0,1-.307.307h-7.63A.307.307,0,0,1,286.636,43.112Z" transform="translate(-262.691 -26.728)"/>
      <path id="Path_15674" data-name="Path 15674" d="M239.385,468.465h2.36a.885.885,0,0,0,0-1.77h-2.36a.885.885,0,0,0,0,1.77Z" transform="translate(-221.797 -411.614)"/>
    </g>
  </g>
</svg>
