<svg width="1200" height="980" viewBox="0 0 1200 980" fill="none" xmlns="http://www.w3.org/2000/svg">
<path d="M1341.07 881.329C1192.03 874.315 1122.49 609.818 796.34 567.73C470.2 525.641 431.05 -15.9637 251.62 -59.29" stroke="black" stroke-opacity="0.19" stroke-width="2"/>
<path d="M1379.3 406.545C1246 383.335 1193.21 2.69502 951.88 -14.8547C710.55 -32.4045 635.78 -174.35 524.46 -175.987" stroke="black" stroke-opacity="0.19" stroke-width="2"/>
<path d="M1205.71 535.286C1089.62 545.125 988.89 861.123 800.02 829.286C611.14 797.449 705.62 127.645 597.17 -55.9245" stroke="black" stroke-opacity="0.19" stroke-width="2"/>
<path d="M1326.96 777.656C1176.49 772.614 1034.3 546.672 766.66 493.456C499.02 440.239 605.55 -20.6445 486.51 -103.532" stroke="black" stroke-opacity="0.19" stroke-width="2"/>
<path d="M1433.4 375.585C1277.03 387.422 1111.53 771.466 881.41 757.785C651.28 744.104 742.22 20.9669 605.41 -145.865" stroke="black" stroke-opacity="0.19" stroke-width="2"/>
</svg>
